<svg width="498" height="50" viewBox="0 0 498 50" fill="none" xmlns="http://www.w3.org/2000/svg">
<path d="M3.08795 11.392V11.84H-5.27352e-05V11.392L0.879947 11.28C0.997281 11.2587 1.08261 11.2374 1.13595 11.216C1.18928 11.184 1.23728 11.1147 1.27995 11.008C1.32261 10.9014 1.38128 10.7307 1.45595 10.496L4.51195 0.960027H5.88795L8.95995 10.496C9.03461 10.7307 9.09328 10.9014 9.13595 11.008C9.17861 11.1147 9.22661 11.184 9.27995 11.216C9.34395 11.2374 9.42928 11.2587 9.53595 11.28L10.4159 11.392V11.84H5.99995V11.392L6.87995 11.28C7.05061 11.2587 7.14128 11.216 7.15195 11.152C7.17328 11.0774 7.12528 10.8587 7.00795 10.496L6.39995 8.51203H2.70395L2.07995 10.496C1.97328 10.8587 1.92528 11.0774 1.93595 11.152C1.94661 11.216 2.03728 11.2587 2.20795 11.28L3.08795 11.392ZM2.89595 7.95203H6.22395L4.57595 2.64003L2.89595 7.95203ZM15.0667 12C14.736 12 14.464 11.8987 14.2507 11.696C14.048 11.4827 13.9467 11.2054 13.9467 10.864C13.9467 10.5227 14.048 10.2507 14.2507 10.048C14.464 9.84536 14.736 9.74403 15.0667 9.74403C15.3974 9.74403 15.6694 9.84536 15.8827 10.048C16.096 10.2507 16.2027 10.5227 16.2027 10.864C16.2027 11.2054 16.096 11.4827 15.8827 11.696C15.6694 11.8987 15.3974 12 15.0667 12ZM33.9709 9.08803H34.4189V11.84H26.8189V11.392L27.6989 11.28C27.8696 11.2587 27.9709 11.216 28.0029 11.152C28.0349 11.0774 28.0509 10.8587 28.0509 10.496V2.30403C28.0509 1.94136 28.0349 1.72803 28.0029 1.66403C27.9709 1.58936 27.8696 1.54136 27.6989 1.52003L26.8189 1.40803V0.960027H31.2029V1.40803L30.3229 1.52003C30.1523 1.54136 30.0509 1.58936 30.0189 1.66403C29.9869 1.72803 29.9709 1.94136 29.9709 2.30403V11.28H32.5949C32.8509 11.28 33.0323 11.2747 33.1389 11.264C33.2456 11.2427 33.3149 11.2054 33.3469 11.152C33.3896 11.088 33.4269 10.992 33.4589 10.864L33.9709 9.08803ZM44.9506 9.93603C44.7586 10.6827 44.4012 11.216 43.8786 11.536C43.3559 11.8454 42.7479 12 42.0546 12C40.7746 12 39.8146 11.632 39.1746 10.896C38.5346 10.1494 38.2146 9.16269 38.2146 7.93603V7.61603C38.2146 6.38936 38.5132 5.40803 39.1106 4.67203C39.7186 3.93603 40.5932 3.56803 41.7346 3.56803C42.3746 3.56803 42.9399 3.69603 43.4306 3.95203C43.9319 4.19736 44.3212 4.55469 44.5986 5.02403C44.8866 5.49336 45.0306 6.06403 45.0306 6.73603C45.0306 6.89603 45.0199 7.06669 44.9986 7.24803C44.9879 7.42936 44.9612 7.61069 44.9186 7.79203H40.1826V8.25603C40.1826 9.38669 40.3426 10.2027 40.6626 10.704C40.9826 11.1947 41.4999 11.44 42.2146 11.44C42.6732 11.44 43.0626 11.3067 43.3826 11.04C43.7026 10.7627 43.8839 10.2987 43.9266 9.64803L44.9506 9.93603ZM41.7346 4.12803C41.2119 4.12803 40.8226 4.36803 40.5666 4.84803C40.3106 5.32803 40.1826 6.12269 40.1826 7.23203H43.0786C43.1212 7.01869 43.1479 6.82136 43.1586 6.64003C43.1799 6.44803 43.1906 6.27203 43.1906 6.11203C43.1906 5.42936 43.0572 4.92803 42.7906 4.60803C42.5239 4.28803 42.1719 4.12803 41.7346 4.12803ZM57.0833 11.44C56.9127 11.6 56.7047 11.7334 56.4593 11.84C56.2247 11.9467 55.9367 12 55.5953 12C55.158 12 54.79 11.904 54.4913 11.712C54.2033 11.52 54.0113 11.248 53.9153 10.896C53.5633 11.28 53.174 11.5627 52.7473 11.744C52.3313 11.9147 51.9047 12 51.4673 12C50.7313 12 50.182 11.7974 49.8193 11.392C49.4567 10.976 49.2753 10.4587 49.2753 9.84003C49.2753 9.21069 49.5047 8.70403 49.9633 8.32003C50.422 7.92536 51.2327 7.72803 52.3953 7.72803H53.8513V6.43203C53.8513 5.54669 53.734 4.94403 53.4993 4.62403C53.2753 4.29336 52.9607 4.12803 52.5553 4.12803C52.2887 4.12803 52.0433 4.19736 51.8193 4.33603C51.5953 4.46403 51.4353 4.70936 51.3393 5.07203C51.254 5.42403 51.27 5.93603 51.3873 6.60803L49.6273 6.35203C49.542 5.86136 49.5953 5.40803 49.7873 4.99203C49.99 4.56536 50.326 4.22403 50.7953 3.96803C51.2647 3.70136 51.862 3.56803 52.5873 3.56803C53.4087 3.56803 54.0433 3.70136 54.4913 3.96803C54.9393 4.23469 55.2487 4.58669 55.4193 5.02403C55.6007 5.46136 55.6913 5.93069 55.6913 6.43203V10.128C55.6913 10.672 55.7393 11.0134 55.8353 11.152C55.9313 11.2907 56.038 11.36 56.1553 11.36C56.3473 11.36 56.5607 11.248 56.7953 11.024L57.0833 11.44ZM52.1713 11.152C52.4487 11.152 52.7207 11.0827 52.9873 10.944C53.2647 10.7947 53.5527 10.5227 53.8513 10.128V8.28803H52.6513C52.1287 8.28803 51.75 8.41069 51.5153 8.65603C51.2807 8.90136 51.1633 9.28536 51.1633 9.80803C51.1633 10.2347 51.2487 10.5654 51.4193 10.8C51.59 11.0347 51.8407 11.152 52.1713 11.152ZM66.7302 5.07203L64.4582 11.84H63.0022L60.7302 5.07203C60.6555 4.82669 60.5915 4.65603 60.5382 4.56003C60.4955 4.45336 60.4422 4.38403 60.3782 4.35203C60.3249 4.32003 60.2395 4.29869 60.1222 4.28803L59.2422 4.17603V3.72803H63.5622V4.17603L62.6822 4.28803C62.5222 4.30936 62.4369 4.35203 62.4262 4.41603C62.4155 4.48003 62.4689 4.69869 62.5862 5.07203L64.3462 10.384L66.1222 5.07203C66.2395 4.69869 66.2929 4.48003 66.2822 4.41603C66.2822 4.35203 66.1969 4.30936 66.0262 4.28803L65.1462 4.17603V3.72803H68.2022V4.17603L67.3222 4.28803C67.2155 4.29869 67.1302 4.32003 67.0662 4.35203C67.0129 4.38403 66.9649 4.45336 66.9222 4.56003C66.8795 4.65603 66.8155 4.82669 66.7302 5.07203ZM77.8606 9.93603C77.6686 10.6827 77.3112 11.216 76.7886 11.536C76.2659 11.8454 75.6579 12 74.9646 12C73.6846 12 72.7246 11.632 72.0846 10.896C71.4446 10.1494 71.1246 9.16269 71.1246 7.93603V7.61603C71.1246 6.38936 71.4232 5.40803 72.0206 4.67203C72.6286 3.93603 73.5032 3.56803 74.6446 3.56803C75.2846 3.56803 75.8499 3.69603 76.3406 3.95203C76.8419 4.19736 77.2312 4.55469 77.5086 5.02403C77.7966 5.49336 77.9406 6.06403 77.9406 6.73603C77.9406 6.89603 77.9299 7.06669 77.9086 7.24803C77.8979 7.42936 77.8712 7.61069 77.8286 7.79203H73.0926V8.25603C73.0926 9.38669 73.2526 10.2027 73.5726 10.704C73.8926 11.1947 74.4099 11.44 75.1246 11.44C75.5832 11.44 75.9726 11.3067 76.2926 11.04C76.6126 10.7627 76.7939 10.2987 76.8366 9.64803L77.8606 9.93603ZM74.6446 4.12803C74.1219 4.12803 73.7326 4.36803 73.4766 4.84803C73.2206 5.32803 73.0926 6.12269 73.0926 7.23203H75.9886C76.0312 7.01869 76.0579 6.82136 76.0686 6.64003C76.0899 6.44803 76.1006 6.27203 76.1006 6.11203C76.1006 5.42936 75.9672 4.92803 75.7006 4.60803C75.4339 4.28803 75.0819 4.12803 74.6446 4.12803ZM92.6115 12.64C92.3661 13.312 92.0941 13.8507 91.7955 14.256C91.5075 14.6614 91.1501 14.9547 90.7235 15.136C90.2968 15.3174 89.7635 15.408 89.1235 15.408V13.648C89.7741 13.648 90.2968 13.6 90.6915 13.504C91.0968 13.4187 91.4061 13.2747 91.6195 13.072C91.8435 12.88 92.0088 12.6294 92.1155 12.32L92.2755 11.84H91.4435L89.1715 5.07203C89.0968 4.82669 89.0328 4.65603 88.9795 4.56003C88.9368 4.45336 88.8835 4.38403 88.8195 4.35203C88.7661 4.32003 88.6808 4.29869 88.5635 4.28803L87.6835 4.17603V3.72803H92.0035V4.17603L91.1235 4.28803C90.9955 4.29869 90.9155 4.34136 90.8835 4.41603C90.8621 4.48003 90.9101 4.69869 91.0275 5.07203L92.7715 10.352L94.5795 5.00803C94.6968 4.66669 94.7448 4.46936 94.7235 4.41603C94.7128 4.35203 94.6275 4.30936 94.4675 4.28803L93.5875 4.17603V3.72803H96.6435V4.17603L95.7635 4.28803C95.6035 4.30936 95.4968 4.35203 95.4435 4.41603C95.3901 4.48003 95.3048 4.67736 95.1875 5.00803L92.6115 12.64ZM106.878 7.61603V7.93603C106.878 9.16269 106.558 10.1494 105.918 10.896C105.288 11.632 104.387 12 103.214 12C102.04 12 101.134 11.632 100.494 10.896C99.8645 10.1494 99.5498 9.16269 99.5498 7.93603V7.61603C99.5498 6.38936 99.8645 5.40803 100.494 4.67203C101.134 3.93603 102.04 3.56803 103.214 3.56803C104.387 3.56803 105.288 3.93603 105.918 4.67203C106.558 5.40803 106.878 6.38936 106.878 7.61603ZM104.91 7.29603C104.91 6.15469 104.766 5.34403 104.478 4.86403C104.19 4.37336 103.768 4.12803 103.214 4.12803C102.67 4.12803 102.248 4.37336 101.95 4.86403C101.662 5.34403 101.518 6.15469 101.518 7.29603V8.25603C101.518 9.38669 101.662 10.2027 101.95 10.704C102.248 11.1947 102.67 11.44 103.214 11.44C103.768 11.44 104.19 11.1947 104.478 10.704C104.766 10.2027 104.91 9.38669 104.91 8.25603V7.29603ZM119.862 11.392V11.84H116.886V10.432C116.588 10.976 116.204 11.376 115.734 11.632C115.265 11.8774 114.79 12 114.31 12C113.553 12 112.95 11.7494 112.502 11.248C112.054 10.736 111.83 10.0267 111.83 9.12003V5.07203C111.83 4.70936 111.814 4.49603 111.782 4.43203C111.75 4.35736 111.649 4.30936 111.478 4.28803L110.598 4.17603V3.72803H113.67V9.10403C113.67 9.84003 113.772 10.3787 113.974 10.72C114.188 11.0507 114.492 11.216 114.886 11.216C115.057 11.216 115.254 11.1734 115.478 11.088C115.713 10.992 115.948 10.8267 116.182 10.592C116.417 10.3467 116.62 10 116.79 9.55203V5.07203C116.79 4.70936 116.774 4.49069 116.742 4.41603C116.71 4.34136 116.609 4.29869 116.438 4.28803L115.238 4.17603V3.72803H118.63V10.496C118.63 10.8587 118.646 11.0774 118.678 11.152C118.71 11.216 118.812 11.2587 118.982 11.28L119.862 11.392ZM123.213 4.17603V3.72803H126.189V5.04003C126.84 4.05869 127.613 3.56803 128.509 3.56803C128.84 3.56803 129.16 3.67469 129.469 3.88803C129.779 4.09069 130.035 4.47469 130.237 5.04003L128.813 5.80803C128.664 5.37069 128.488 5.07736 128.285 4.92803C128.093 4.76803 127.885 4.68803 127.661 4.68803C127.427 4.68803 127.197 4.76269 126.973 4.91203C126.749 5.06136 126.52 5.33869 126.285 5.74403V10.496C126.285 10.8587 126.301 11.0774 126.333 11.152C126.365 11.216 126.467 11.2587 126.637 11.28L127.837 11.392V11.84H123.213V11.392L124.093 11.28C124.264 11.2587 124.365 11.216 124.397 11.152C124.429 11.0774 124.445 10.8587 124.445 10.496V5.07203C124.445 4.70936 124.429 4.49603 124.397 4.43203C124.365 4.35736 124.264 4.30936 124.093 4.28803L123.213 4.17603ZM150.694 5.07203L148.95 11.84H147.494L145.574 5.40803L143.638 11.84H142.31L140.582 5.07203C140.518 4.82669 140.465 4.65603 140.422 4.56003C140.39 4.45336 140.347 4.38403 140.294 4.35203C140.241 4.32003 140.161 4.29869 140.054 4.28803L139.174 4.17603V3.72803H143.43V4.17603L142.55 4.28803C142.379 4.30936 142.283 4.35736 142.262 4.43203C142.241 4.49603 142.278 4.70936 142.374 5.07203L143.622 9.88803L145.462 3.72803H146.87L148.774 10.16L150.07 5.07203C150.166 4.70936 150.203 4.49603 150.182 4.43203C150.161 4.35736 150.065 4.30936 149.894 4.28803L149.014 4.17603V3.72803H152.102V4.17603L151.222 4.28803C151.115 4.29869 151.035 4.32003 150.982 4.35203C150.929 4.38403 150.881 4.45336 150.838 4.56003C150.806 4.65603 150.758 4.82669 150.694 5.07203ZM162.493 7.61603V7.93603C162.493 9.16269 162.173 10.1494 161.533 10.896C160.904 11.632 160.003 12 158.829 12C157.656 12 156.749 11.632 156.109 10.896C155.48 10.1494 155.165 9.16269 155.165 7.93603V7.61603C155.165 6.38936 155.48 5.40803 156.109 4.67203C156.749 3.93603 157.656 3.56803 158.829 3.56803C160.003 3.56803 160.904 3.93603 161.533 4.67203C162.173 5.40803 162.493 6.38936 162.493 7.61603ZM160.525 7.29603C160.525 6.15469 160.381 5.34403 160.093 4.86403C159.805 4.37336 159.384 4.12803 158.829 4.12803C158.285 4.12803 157.864 4.37336 157.565 4.86403C157.277 5.34403 157.133 6.15469 157.133 7.29603V8.25603C157.133 9.38669 157.277 10.2027 157.565 10.704C157.864 11.1947 158.285 11.44 158.829 11.44C159.384 11.44 159.805 11.1947 160.093 10.704C160.381 10.2027 160.525 9.38669 160.525 8.25603V7.29603ZM166.406 4.17603V3.72803H169.382V5.04003C170.032 4.05869 170.806 3.56803 171.702 3.56803C172.032 3.56803 172.352 3.67469 172.662 3.88803C172.971 4.09069 173.227 4.47469 173.43 5.04003L172.006 5.80803C171.856 5.37069 171.68 5.07736 171.478 4.92803C171.286 4.76803 171.078 4.68803 170.854 4.68803C170.619 4.68803 170.39 4.76269 170.166 4.91203C169.942 5.06136 169.712 5.33869 169.478 5.74403V10.496C169.478 10.8587 169.494 11.0774 169.526 11.152C169.558 11.216 169.659 11.2587 169.83 11.28L171.03 11.392V11.84H166.406V11.392L167.286 11.28C167.456 11.2587 167.558 11.216 167.59 11.152C167.622 11.0774 167.638 10.8587 167.638 10.496V5.07203C167.638 4.70936 167.622 4.49603 167.59 4.43203C167.558 4.35736 167.456 4.30936 167.286 4.28803L166.406 4.17603ZM176.092 0.448027V2.67029e-05H179.164V7.76003L181.98 5.07203C182.353 4.72003 182.551 4.50669 182.572 4.43203C182.604 4.35736 182.529 4.30936 182.348 4.28803L181.468 4.17603V3.72803H184.748V4.17603L183.868 4.28803C183.772 4.29869 183.692 4.32003 183.628 4.35203C183.564 4.38403 183.473 4.45336 183.356 4.56003C183.239 4.65603 183.052 4.82669 182.796 5.07203L181.26 6.54403L183.532 10.496C183.681 10.7414 183.793 10.9174 183.868 11.024C183.943 11.12 184.012 11.184 184.076 11.216C184.151 11.2374 184.241 11.2587 184.348 11.28L185.228 11.392V11.84H182.172L179.948 7.79203L179.164 8.54403V10.496C179.164 10.8587 179.18 11.0774 179.212 11.152C179.244 11.216 179.345 11.2587 179.516 11.28L180.396 11.392V11.84H176.092V11.392L176.972 11.28C177.143 11.2587 177.244 11.216 177.276 11.152C177.308 11.0774 177.324 10.8587 177.324 10.496V1.34403C177.324 0.981359 177.308 0.768026 177.276 0.704026C177.244 0.62936 177.143 0.58136 176.972 0.560026L176.092 0.448027ZM202.788 11.44C202.618 11.6 202.41 11.7334 202.164 11.84C201.93 11.9467 201.642 12 201.3 12C200.863 12 200.495 11.904 200.196 11.712C199.908 11.52 199.716 11.248 199.62 10.896C199.268 11.28 198.879 11.5627 198.452 11.744C198.036 11.9147 197.61 12 197.172 12C196.436 12 195.887 11.7974 195.524 11.392C195.162 10.976 194.98 10.4587 194.98 9.84003C194.98 9.21069 195.21 8.70403 195.668 8.32003C196.127 7.92536 196.938 7.72803 198.1 7.72803H199.556V6.43203C199.556 5.54669 199.439 4.94403 199.204 4.62403C198.98 4.29336 198.666 4.12803 198.26 4.12803C197.994 4.12803 197.748 4.19736 197.524 4.33603C197.3 4.46403 197.14 4.70936 197.044 5.07203C196.959 5.42403 196.975 5.93603 197.092 6.60803L195.332 6.35203C195.247 5.86136 195.3 5.40803 195.492 4.99203C195.695 4.56536 196.031 4.22403 196.5 3.96803C196.97 3.70136 197.567 3.56803 198.292 3.56803C199.114 3.56803 199.748 3.70136 200.196 3.96803C200.644 4.23469 200.954 4.58669 201.124 5.02403C201.306 5.46136 201.396 5.93069 201.396 6.43203V10.128C201.396 10.672 201.444 11.0134 201.54 11.152C201.636 11.2907 201.743 11.36 201.86 11.36C202.052 11.36 202.266 11.248 202.5 11.024L202.788 11.44ZM197.876 11.152C198.154 11.152 198.426 11.0827 198.692 10.944C198.97 10.7947 199.258 10.5227 199.556 10.128V8.28803H198.356C197.834 8.28803 197.455 8.41069 197.22 8.65603C196.986 8.90136 196.868 9.28536 196.868 9.80803C196.868 10.2347 196.954 10.5654 197.124 10.8C197.295 11.0347 197.546 11.152 197.876 11.152ZM215.382 11.392V11.84H211.078V11.392L211.958 11.28C212.128 11.2587 212.23 11.216 212.262 11.152C212.294 11.0774 212.31 10.8587 212.31 10.496V6.46403C212.31 5.72803 212.198 5.19469 211.974 4.86403C211.76 4.52269 211.44 4.35203 211.014 4.35203C210.832 4.35203 210.619 4.40003 210.374 4.49603C210.139 4.58136 209.899 4.74136 209.654 4.97603C209.419 5.21069 209.211 5.55736 209.03 6.01603V10.496C209.03 10.8587 209.046 11.0774 209.078 11.152C209.11 11.216 209.211 11.2587 209.382 11.28L210.262 11.392V11.84H205.958V11.392L206.838 11.28C207.008 11.2587 207.11 11.216 207.142 11.152C207.174 11.0774 207.19 10.8587 207.19 10.496V5.07203C207.19 4.70936 207.174 4.49603 207.142 4.43203C207.11 4.35736 207.008 4.30936 206.838 4.28803L205.958 4.17603V3.72803H208.934V5.13603C209.243 4.59203 209.638 4.19736 210.118 3.95203C210.608 3.69603 211.099 3.56803 211.59 3.56803C212.379 3.56803 213.003 3.81869 213.462 4.32003C213.92 4.82136 214.15 5.53069 214.15 6.44803V10.496C214.15 10.8587 214.166 11.0774 214.198 11.152C214.23 11.216 214.331 11.2587 214.502 11.28L215.382 11.392ZM227.382 11.392V11.84H224.406V10.512C224.108 11.0027 223.772 11.376 223.398 11.632C223.036 11.8774 222.604 12 222.102 12C221.206 12 220.492 11.648 219.958 10.944C219.436 10.2294 219.174 9.23203 219.174 7.95203V7.63203C219.174 6.39469 219.478 5.40803 220.086 4.67203C220.705 3.93603 221.548 3.56803 222.614 3.56803C223.254 3.56803 223.82 3.72803 224.31 4.04803V1.34403C224.31 0.981359 224.294 0.768026 224.262 0.704026C224.23 0.62936 224.129 0.58136 223.958 0.560026L223.078 0.448027V2.67029e-05H226.15V10.496C226.15 10.8587 226.166 11.0774 226.198 11.152C226.23 11.216 226.332 11.2587 226.502 11.28L227.382 11.392ZM221.142 8.43203C221.142 9.42403 221.265 10.1494 221.51 10.608C221.756 11.0667 222.092 11.296 222.518 11.296C222.785 11.296 223.062 11.1894 223.35 10.976C223.649 10.752 223.969 10.304 224.31 9.63203V4.80003C223.905 4.39469 223.409 4.19203 222.822 4.19203C222.236 4.19203 221.809 4.45869 221.542 4.99203C221.276 5.51469 221.142 6.23469 221.142 7.15203V8.43203ZM244.832 12.672C244.832 13.5467 244.501 14.2187 243.84 14.688C243.189 15.168 242.293 15.408 241.152 15.408C239.893 15.408 238.955 15.2 238.336 14.784C237.717 14.3787 237.381 13.872 237.328 13.264L239.04 12.992C238.997 13.5574 239.131 14.0054 239.44 14.336C239.76 14.6774 240.331 14.848 241.152 14.848C241.92 14.848 242.539 14.704 243.008 14.416C243.488 14.128 243.728 13.712 243.728 13.168C243.728 12.784 243.584 12.4907 243.296 12.288C243.019 12.096 242.555 12 241.904 12H240.08C239.515 12 239.067 11.92 238.736 11.76C238.416 11.6 238.192 11.4027 238.064 11.168C237.936 10.9227 237.872 10.672 237.872 10.416C237.872 10.1067 237.957 9.80269 238.128 9.50403C238.299 9.19469 238.592 8.89069 239.008 8.59203C238.549 8.38936 238.176 8.09069 237.888 7.69603C237.6 7.30136 237.456 6.81069 237.456 6.22403C237.456 5.62669 237.595 5.13603 237.872 4.75203C238.149 4.35736 238.523 4.06403 238.992 3.87203C239.461 3.66936 239.984 3.56803 240.56 3.56803H240.832C241.451 3.56803 241.984 3.66936 242.432 3.87203L244.736 2.73603L244.928 4.30403H243.104C243.36 4.52803 243.557 4.80003 243.696 5.12003C243.845 5.42936 243.92 5.79736 243.92 6.22403C243.92 6.80003 243.781 7.28536 243.504 7.68003C243.227 8.07469 242.853 8.37336 242.384 8.57603C241.925 8.77869 241.408 8.88003 240.832 8.88003H240.56C240.24 8.88003 239.925 8.84803 239.616 8.78403C239.349 8.96536 239.163 9.14136 239.056 9.31203C238.96 9.47203 238.912 9.62669 238.912 9.77603C238.912 9.94669 238.987 10.0747 239.136 10.16C239.296 10.2454 239.552 10.288 239.904 10.288H241.984C242.901 10.288 243.605 10.496 244.096 10.912C244.587 11.3174 244.832 11.904 244.832 12.672ZM240.832 8.32003C241.173 8.32003 241.467 8.17069 241.712 7.87203C241.957 7.57336 242.08 7.02403 242.08 6.22403C242.08 5.42403 241.957 4.87469 241.712 4.57603C241.467 4.27736 241.173 4.12803 240.832 4.12803H240.56C240.219 4.12803 239.92 4.27736 239.664 4.57603C239.419 4.87469 239.296 5.42403 239.296 6.22403C239.296 7.02403 239.419 7.57336 239.664 7.87203C239.92 8.17069 240.219 8.32003 240.56 8.32003H240.832ZM256.052 7.61603V7.93603C256.052 9.16269 255.732 10.1494 255.092 10.896C254.462 11.632 253.561 12 252.388 12C251.214 12 250.308 11.632 249.668 10.896C249.038 10.1494 248.724 9.16269 248.724 7.93603V7.61603C248.724 6.38936 249.038 5.40803 249.668 4.67203C250.308 3.93603 251.214 3.56803 252.388 3.56803C253.561 3.56803 254.462 3.93603 255.092 4.67203C255.732 5.40803 256.052 6.38936 256.052 7.61603ZM254.084 7.29603C254.084 6.15469 253.94 5.34403 253.652 4.86403C253.364 4.37336 252.942 4.12803 252.388 4.12803C251.844 4.12803 251.422 4.37336 251.124 4.86403C250.836 5.34403 250.692 6.15469 250.692 7.29603V8.25603C250.692 9.38669 250.836 10.2027 251.124 10.704C251.422 11.1947 251.844 11.44 252.388 11.44C252.942 11.44 253.364 11.1947 253.652 10.704C253.94 10.2027 254.084 9.38669 254.084 8.25603V7.29603ZM274.054 7.61603V7.93603C274.054 9.16269 273.734 10.1494 273.094 10.896C272.465 11.632 271.563 12 270.39 12C269.217 12 268.31 11.632 267.67 10.896C267.041 10.1494 266.726 9.16269 266.726 7.93603V7.61603C266.726 6.38936 267.041 5.40803 267.67 4.67203C268.31 3.93603 269.217 3.56803 270.39 3.56803C271.563 3.56803 272.465 3.93603 273.094 4.67203C273.734 5.40803 274.054 6.38936 274.054 7.61603ZM272.086 7.29603C272.086 6.15469 271.942 5.34403 271.654 4.86403C271.366 4.37336 270.945 4.12803 270.39 4.12803C269.846 4.12803 269.425 4.37336 269.126 4.86403C268.838 5.34403 268.694 6.15469 268.694 7.29603V8.25603C268.694 9.38669 268.838 10.2027 269.126 10.704C269.425 11.1947 269.846 11.44 270.39 11.44C270.945 11.44 271.366 11.1947 271.654 10.704C271.942 10.2027 272.086 9.38669 272.086 8.25603V7.29603ZM287.038 11.392V11.84H284.062V10.432C283.764 10.976 283.38 11.376 282.91 11.632C282.441 11.8774 281.966 12 281.486 12C280.729 12 280.126 11.7494 279.678 11.248C279.23 10.736 279.006 10.0267 279.006 9.12003V5.07203C279.006 4.70936 278.99 4.49603 278.958 4.43203C278.926 4.35736 278.825 4.30936 278.654 4.28803L277.774 4.17603V3.72803H280.846V9.10403C280.846 9.84003 280.948 10.3787 281.15 10.72C281.364 11.0507 281.668 11.216 282.062 11.216C282.233 11.216 282.43 11.1734 282.654 11.088C282.889 10.992 283.124 10.8267 283.358 10.592C283.593 10.3467 283.796 10 283.966 9.55203V5.07203C283.966 4.70936 283.95 4.49069 283.918 4.41603C283.886 4.34136 283.785 4.29869 283.614 4.28803L282.414 4.17603V3.72803H285.806V10.496C285.806 10.8587 285.822 11.0774 285.854 11.152C285.886 11.216 285.988 11.2587 286.158 11.28L287.038 11.392ZM296.086 10.176C295.947 10.8267 295.68 11.296 295.286 11.584C294.902 11.8614 294.432 12 293.878 12C293.312 12 292.848 11.8774 292.486 11.632C292.123 11.376 291.856 11.04 291.686 10.624C291.515 10.208 291.43 9.76536 291.43 9.29603V5.07203C291.43 4.70936 291.414 4.49603 291.382 4.43203C291.35 4.35736 291.248 4.30936 291.078 4.28803L290.198 4.17603V3.72803H291.43V1.87203L293.27 1.50403V3.72803H295.83V4.28803H293.27V9.61603C293.27 10.2987 293.355 10.7734 293.526 11.04C293.696 11.296 293.915 11.424 294.182 11.424C294.459 11.424 294.672 11.3174 294.822 11.104C294.982 10.8907 295.083 10.5014 295.126 9.93603L296.086 10.176ZM303.07 8.81603L301.966 8.56003C301.251 8.38936 300.718 8.08536 300.366 7.64803C300.025 7.20003 299.854 6.67203 299.854 6.06403C299.854 5.61603 299.95 5.20536 300.142 4.83203C300.345 4.44803 300.659 4.14403 301.086 3.92003C301.513 3.68536 302.067 3.56803 302.75 3.56803C303.486 3.56803 304.083 3.68536 304.542 3.92003C305.001 4.15469 305.326 4.46403 305.518 4.84803C305.71 5.23203 305.769 5.64269 305.694 6.08003L303.934 6.40003C304.083 5.67469 304.041 5.11469 303.806 4.72003C303.582 4.32536 303.203 4.12803 302.67 4.12803C302.297 4.12803 301.987 4.24003 301.742 4.46403C301.497 4.67736 301.374 4.98669 301.374 5.39203C301.374 5.76536 301.481 6.09603 301.694 6.38403C301.907 6.66136 302.222 6.84803 302.638 6.94403L303.742 7.20003C304.531 7.38136 305.102 7.66936 305.454 8.06403C305.806 8.44803 305.982 8.92803 305.982 9.50403C305.982 10.2187 305.715 10.816 305.182 11.296C304.659 11.7654 303.875 12 302.83 12C302.467 12 302.067 11.9467 301.63 11.84C301.203 11.7227 300.809 11.5147 300.446 11.216C300.094 10.9174 299.838 10.4907 299.678 9.93603L300.718 9.52003C300.793 10.224 301.033 10.72 301.438 11.008C301.854 11.296 302.318 11.44 302.83 11.44C303.31 11.44 303.699 11.3334 303.998 11.12C304.307 10.896 304.462 10.576 304.462 10.16C304.462 9.87203 304.361 9.61069 304.158 9.37603C303.966 9.13069 303.603 8.94403 303.07 8.81603ZM311.974 2.35203C311.643 2.35203 311.376 2.25069 311.174 2.04803C310.971 1.83469 310.87 1.56269 310.87 1.23203C310.87 0.90136 310.971 0.634693 311.174 0.432026C311.376 0.229359 311.643 0.128026 311.974 0.128026C312.294 0.128026 312.56 0.229359 312.774 0.432026C312.987 0.634693 313.094 0.90136 313.094 1.23203C313.094 1.56269 312.987 1.83469 312.774 2.04803C312.56 2.25069 312.294 2.35203 311.974 2.35203ZM309.83 4.17603V3.72803H312.902V10.496C312.902 10.8587 312.918 11.0774 312.95 11.152C312.982 11.216 313.083 11.2587 313.254 11.28L314.134 11.392V11.84H309.83V11.392L310.71 11.28C310.88 11.2587 310.982 11.216 311.014 11.152C311.046 11.0774 311.062 10.8587 311.062 10.496V5.07203C311.062 4.70936 311.046 4.49603 311.014 4.43203C310.982 4.35736 310.88 4.30936 310.71 4.28803L309.83 4.17603ZM326.207 11.392V11.84H323.231V10.512C322.933 11.0027 322.597 11.376 322.223 11.632C321.861 11.8774 321.429 12 320.927 12C320.031 12 319.317 11.648 318.783 10.944C318.261 10.2294 317.999 9.23203 317.999 7.95203V7.63203C317.999 6.39469 318.303 5.40803 318.911 4.67203C319.53 3.93603 320.373 3.56803 321.439 3.56803C322.079 3.56803 322.645 3.72803 323.135 4.04803V1.34403C323.135 0.981359 323.119 0.768026 323.087 0.704026C323.055 0.62936 322.954 0.58136 322.783 0.560026L321.903 0.448027V2.67029e-05H324.975V10.496C324.975 10.8587 324.991 11.0774 325.023 11.152C325.055 11.216 325.157 11.2587 325.327 11.28L326.207 11.392ZM319.967 8.43203C319.967 9.42403 320.09 10.1494 320.335 10.608C320.581 11.0667 320.917 11.296 321.343 11.296C321.61 11.296 321.887 11.1894 322.175 10.976C322.474 10.752 322.794 10.304 323.135 9.63203V4.80003C322.73 4.39469 322.234 4.19203 321.647 4.19203C321.061 4.19203 320.634 4.45869 320.367 4.99203C320.101 5.51469 319.967 6.23469 319.967 7.15203V8.43203ZM336.767 9.93603C336.575 10.6827 336.217 11.216 335.695 11.536C335.172 11.8454 334.564 12 333.871 12C332.591 12 331.631 11.632 330.991 10.896C330.351 10.1494 330.031 9.16269 330.031 7.93603V7.61603C330.031 6.38936 330.329 5.40803 330.927 4.67203C331.535 3.93603 332.409 3.56803 333.551 3.56803C334.191 3.56803 334.756 3.69603 335.247 3.95203C335.748 4.19736 336.137 4.55469 336.415 5.02403C336.703 5.49336 336.847 6.06403 336.847 6.73603C336.847 6.89603 336.836 7.06669 336.815 7.24803C336.804 7.42936 336.777 7.61069 336.735 7.79203H331.999V8.25603C331.999 9.38669 332.159 10.2027 332.479 10.704C332.799 11.1947 333.316 11.44 334.031 11.44C334.489 11.44 334.879 11.3067 335.199 11.04C335.519 10.7627 335.7 10.2987 335.743 9.64803L336.767 9.93603ZM333.551 4.12803C333.028 4.12803 332.639 4.36803 332.383 4.84803C332.127 5.32803 331.999 6.12269 331.999 7.23203H334.895C334.937 7.01869 334.964 6.82136 334.975 6.64003C334.996 6.44803 335.007 6.27203 335.007 6.11203C335.007 5.42936 334.873 4.92803 334.607 4.60803C334.34 4.28803 333.988 4.12803 333.551 4.12803ZM342.404 12C342.073 12 341.801 11.8987 341.588 11.696C341.385 11.4827 341.284 11.2054 341.284 10.864C341.284 10.5227 341.385 10.2507 341.588 10.048C341.801 9.84536 342.073 9.74403 342.404 9.74403C342.734 9.74403 343.006 9.84536 343.22 10.048C343.433 10.2507 343.54 10.5227 343.54 10.864C343.54 11.2054 343.433 11.4827 343.22 11.696C343.006 11.8987 342.734 12 342.404 12ZM353.66 0.960027H362.46V3.71203H362.012L361.5 1.93603C361.468 1.79736 361.431 1.70136 361.388 1.64803C361.356 1.58403 361.287 1.54669 361.18 1.53603C361.073 1.52536 360.892 1.52003 360.636 1.52003H359.02V10.496C359.02 10.8587 359.036 11.0774 359.068 11.152C359.1 11.216 359.201 11.2587 359.372 11.28L360.252 11.392V11.84H355.868V11.392L356.748 11.28C356.919 11.2587 357.02 11.216 357.052 11.152C357.084 11.0774 357.1 10.8587 357.1 10.496V1.52003H355.484C355.239 1.52003 355.057 1.52536 354.94 1.53603C354.833 1.54669 354.764 1.58403 354.732 1.64803C354.7 1.70136 354.663 1.79736 354.62 1.93603L354.108 3.71203H353.66V0.960027ZM373.747 11.44C373.576 11.6 373.368 11.7334 373.123 11.84C372.888 11.9467 372.6 12 372.259 12C371.822 12 371.454 11.904 371.155 11.712C370.867 11.52 370.675 11.248 370.579 10.896C370.227 11.28 369.838 11.5627 369.411 11.744C368.995 11.9147 368.568 12 368.131 12C367.395 12 366.846 11.7974 366.483 11.392C366.12 10.976 365.939 10.4587 365.939 9.84003C365.939 9.21069 366.168 8.70403 366.627 8.32003C367.086 7.92536 367.896 7.72803 369.059 7.72803H370.515V6.43203C370.515 5.54669 370.398 4.94403 370.163 4.62403C369.939 4.29336 369.624 4.12803 369.219 4.12803C368.952 4.12803 368.707 4.19736 368.483 4.33603C368.259 4.46403 368.099 4.70936 368.003 5.07203C367.918 5.42403 367.934 5.93603 368.051 6.60803L366.291 6.35203C366.206 5.86136 366.259 5.40803 366.451 4.99203C366.654 4.56536 366.99 4.22403 367.459 3.96803C367.928 3.70136 368.526 3.56803 369.251 3.56803C370.072 3.56803 370.707 3.70136 371.155 3.96803C371.603 4.23469 371.912 4.58669 372.083 5.02403C372.264 5.46136 372.355 5.93069 372.355 6.43203V10.128C372.355 10.672 372.403 11.0134 372.499 11.152C372.595 11.2907 372.702 11.36 372.819 11.36C373.011 11.36 373.224 11.248 373.459 11.024L373.747 11.44ZM368.835 11.152C369.112 11.152 369.384 11.0827 369.651 10.944C369.928 10.7947 370.216 10.5227 370.515 10.128V8.28803H369.315C368.792 8.28803 368.414 8.41069 368.179 8.65603C367.944 8.90136 367.827 9.28536 367.827 9.80803C367.827 10.2347 367.912 10.5654 368.083 10.8C368.254 11.0347 368.504 11.152 368.835 11.152ZM376.804 0.448027V2.67029e-05H379.876V7.76003L382.692 5.07203C383.066 4.72003 383.263 4.50669 383.284 4.43203C383.316 4.35736 383.242 4.30936 383.06 4.28803L382.18 4.17603V3.72803H385.46V4.17603L384.58 4.28803C384.484 4.29869 384.404 4.32003 384.34 4.35203C384.276 4.38403 384.186 4.45336 384.068 4.56003C383.951 4.65603 383.764 4.82669 383.508 5.07203L381.972 6.54403L384.244 10.496C384.394 10.7414 384.506 10.9174 384.58 11.024C384.655 11.12 384.724 11.184 384.788 11.216C384.863 11.2374 384.954 11.2587 385.06 11.28L385.94 11.392V11.84H382.884L380.66 7.79203L379.876 8.54403V10.496C379.876 10.8587 379.892 11.0774 379.924 11.152C379.956 11.216 380.058 11.2587 380.228 11.28L381.108 11.392V11.84H376.804V11.392L377.684 11.28C377.855 11.2587 377.956 11.216 377.988 11.152C378.02 11.0774 378.036 10.8587 378.036 10.496V1.34403C378.036 0.981359 378.02 0.768026 377.988 0.704026C377.956 0.62936 377.855 0.58136 377.684 0.560026L376.804 0.448027ZM396.102 9.93603C395.91 10.6827 395.553 11.216 395.03 11.536C394.508 11.8454 393.9 12 393.206 12C391.926 12 390.966 11.632 390.326 10.896C389.686 10.1494 389.366 9.16269 389.366 7.93603V7.61603C389.366 6.38936 389.665 5.40803 390.262 4.67203C390.87 3.93603 391.745 3.56803 392.886 3.56803C393.526 3.56803 394.092 3.69603 394.582 3.95203C395.084 4.19736 395.473 4.55469 395.75 5.02403C396.038 5.49336 396.182 6.06403 396.182 6.73603C396.182 6.89603 396.172 7.06669 396.15 7.24803C396.14 7.42936 396.113 7.61069 396.07 7.79203H391.334V8.25603C391.334 9.38669 391.494 10.2027 391.814 10.704C392.134 11.1947 392.652 11.44 393.366 11.44C393.825 11.44 394.214 11.3067 394.534 11.04C394.854 10.7627 395.036 10.2987 395.078 9.64803L396.102 9.93603ZM392.886 4.12803C392.364 4.12803 391.974 4.36803 391.718 4.84803C391.462 5.32803 391.334 6.12269 391.334 7.23203H394.23C394.273 7.01869 394.3 6.82136 394.31 6.64003C394.332 6.44803 394.342 6.27203 394.342 6.11203C394.342 5.42936 394.209 4.92803 393.942 4.60803C393.676 4.28803 393.324 4.12803 392.886 4.12803ZM414.533 11.44C414.363 11.6 414.155 11.7334 413.909 11.84C413.675 11.9467 413.387 12 413.045 12C412.608 12 412.24 11.904 411.941 11.712C411.653 11.52 411.461 11.248 411.365 10.896C411.013 11.28 410.624 11.5627 410.197 11.744C409.781 11.9147 409.355 12 408.917 12C408.181 12 407.632 11.7974 407.269 11.392C406.907 10.976 406.725 10.4587 406.725 9.84003C406.725 9.21069 406.955 8.70403 407.413 8.32003C407.872 7.92536 408.683 7.72803 409.845 7.72803H411.301V6.43203C411.301 5.54669 411.184 4.94403 410.949 4.62403C410.725 4.29336 410.411 4.12803 410.005 4.12803C409.739 4.12803 409.493 4.19736 409.269 4.33603C409.045 4.46403 408.885 4.70936 408.789 5.07203C408.704 5.42403 408.72 5.93603 408.837 6.60803L407.077 6.35203C406.992 5.86136 407.045 5.40803 407.237 4.99203C407.44 4.56536 407.776 4.22403 408.245 3.96803C408.715 3.70136 409.312 3.56803 410.037 3.56803C410.859 3.56803 411.493 3.70136 411.941 3.96803C412.389 4.23469 412.699 4.58669 412.869 5.02403C413.051 5.46136 413.141 5.93069 413.141 6.43203V10.128C413.141 10.672 413.189 11.0134 413.285 11.152C413.381 11.2907 413.488 11.36 413.605 11.36C413.797 11.36 414.011 11.248 414.245 11.024L414.533 11.44ZM409.621 11.152C409.899 11.152 410.171 11.0827 410.437 10.944C410.715 10.7947 411.003 10.5227 411.301 10.128V8.28803H410.101C409.579 8.28803 409.2 8.41069 408.965 8.65603C408.731 8.90136 408.613 9.28536 408.613 9.80803C408.613 10.2347 408.699 10.5654 408.869 10.8C409.04 11.0347 409.291 11.152 409.621 11.152ZM435.073 5.07203L433.329 11.84H431.873L429.953 5.40803L428.017 11.84H426.689L424.961 5.07203C424.897 4.82669 424.843 4.65603 424.801 4.56003C424.769 4.45336 424.726 4.38403 424.673 4.35203C424.619 4.32003 424.539 4.29869 424.433 4.28803L423.553 4.17603V3.72803H427.809V4.17603L426.929 4.28803C426.758 4.30936 426.662 4.35736 426.641 4.43203C426.619 4.49603 426.657 4.70936 426.753 5.07203L428.001 9.88803L429.841 3.72803H431.249L433.153 10.16L434.449 5.07203C434.545 4.70936 434.582 4.49603 434.561 4.43203C434.539 4.35736 434.443 4.30936 434.273 4.28803L433.393 4.17603V3.72803H436.481V4.17603L435.601 4.28803C435.494 4.29869 435.414 4.32003 435.361 4.35203C435.307 4.38403 435.259 4.45336 435.217 4.56003C435.185 4.65603 435.137 4.82669 435.073 5.07203ZM447.334 11.44C447.163 11.6 446.955 11.7334 446.71 11.84C446.475 11.9467 446.187 12 445.846 12C445.409 12 445.041 11.904 444.742 11.712C444.454 11.52 444.262 11.248 444.166 10.896C443.814 11.28 443.425 11.5627 442.998 11.744C442.582 11.9147 442.155 12 441.718 12C440.982 12 440.433 11.7974 440.07 11.392C439.707 10.976 439.526 10.4587 439.526 9.84003C439.526 9.21069 439.755 8.70403 440.214 8.32003C440.673 7.92536 441.483 7.72803 442.646 7.72803H444.102V6.43203C444.102 5.54669 443.985 4.94403 443.75 4.62403C443.526 4.29336 443.211 4.12803 442.806 4.12803C442.539 4.12803 442.294 4.19736 442.07 4.33603C441.846 4.46403 441.686 4.70936 441.59 5.07203C441.505 5.42403 441.521 5.93603 441.638 6.60803L439.878 6.35203C439.793 5.86136 439.846 5.40803 440.038 4.99203C440.241 4.56536 440.577 4.22403 441.046 3.96803C441.515 3.70136 442.113 3.56803 442.838 3.56803C443.659 3.56803 444.294 3.70136 444.742 3.96803C445.19 4.23469 445.499 4.58669 445.67 5.02403C445.851 5.46136 445.942 5.93069 445.942 6.43203V10.128C445.942 10.672 445.99 11.0134 446.086 11.152C446.182 11.2907 446.289 11.36 446.406 11.36C446.598 11.36 446.811 11.248 447.046 11.024L447.334 11.44ZM442.422 11.152C442.699 11.152 442.971 11.0827 443.238 10.944C443.515 10.7947 443.803 10.5227 444.102 10.128V8.28803H442.902C442.379 8.28803 442.001 8.41069 441.766 8.65603C441.531 8.90136 441.414 9.28536 441.414 9.80803C441.414 10.2347 441.499 10.5654 441.67 10.8C441.841 11.0347 442.091 11.152 442.422 11.152ZM450.391 0.448027V2.67029e-05H453.463V10.496C453.463 10.8587 453.479 11.0774 453.511 11.152C453.543 11.216 453.645 11.2587 453.815 11.28L454.695 11.392V11.84H450.391V11.392L451.271 11.28C451.442 11.2587 451.543 11.216 451.575 11.152C451.607 11.0774 451.623 10.8587 451.623 10.496V1.34403C451.623 0.981359 451.607 0.768026 451.575 0.704026C451.543 0.62936 451.442 0.58136 451.271 0.560026L450.391 0.448027ZM457.924 0.448027V2.67029e-05H460.996V7.76003L463.812 5.07203C464.185 4.72003 464.382 4.50669 464.404 4.43203C464.436 4.35736 464.361 4.30936 464.18 4.28803L463.3 4.17603V3.72803H466.58V4.17603L465.7 4.28803C465.604 4.29869 465.524 4.32003 465.46 4.35203C465.396 4.38403 465.305 4.45336 465.188 4.56003C465.07 4.65603 464.884 4.82669 464.628 5.07203L463.092 6.54403L465.364 10.496C465.513 10.7414 465.625 10.9174 465.7 11.024C465.774 11.12 465.844 11.184 465.908 11.216C465.982 11.2374 466.073 11.2587 466.18 11.28L467.06 11.392V11.84H464.004L461.78 7.79203L460.996 8.54403V10.496C460.996 10.8587 461.012 11.0774 461.044 11.152C461.076 11.216 461.177 11.2587 461.348 11.28L462.228 11.392V11.84H457.924V11.392L458.804 11.28C458.974 11.2587 459.076 11.216 459.108 11.152C459.14 11.0774 459.156 10.8587 459.156 10.496V1.34403C459.156 0.981359 459.14 0.768026 459.108 0.704026C459.076 0.62936 458.974 0.58136 458.804 0.560026L457.924 0.448027ZM8.62395 30.44C8.45328 30.6 8.24528 30.7334 7.99995 30.84C7.76528 30.9467 7.47728 31 7.13595 31C6.69861 31 6.33061 30.904 6.03195 30.712C5.74395 30.52 5.55195 30.248 5.45595 29.896C5.10395 30.28 4.71461 30.5627 4.28795 30.744C3.87195 30.9147 3.44528 31 3.00795 31C2.27195 31 1.72261 30.7974 1.35995 30.392C0.997281 29.976 0.815947 29.4587 0.815947 28.84C0.815947 28.2107 1.04528 27.704 1.50395 27.32C1.96261 26.9254 2.77328 26.728 3.93595 26.728H5.39195V25.432C5.39195 24.5467 5.27461 23.944 5.03995 23.624C4.81595 23.2934 4.50128 23.128 4.09595 23.128C3.82928 23.128 3.58395 23.1974 3.35995 23.336C3.13595 23.464 2.97595 23.7094 2.87995 24.072C2.79461 24.424 2.81061 24.936 2.92795 25.608L1.16795 25.352C1.08261 24.8614 1.13595 24.408 1.32795 23.992C1.53061 23.5654 1.86661 23.224 2.33595 22.968C2.80528 22.7014 3.40261 22.568 4.12795 22.568C4.94928 22.568 5.58395 22.7014 6.03195 22.968C6.47995 23.2347 6.78928 23.5867 6.95995 24.024C7.14128 24.4614 7.23195 24.9307 7.23195 25.432V29.128C7.23195 29.672 7.27995 30.0134 7.37595 30.152C7.47195 30.2907 7.57861 30.36 7.69595 30.36C7.88795 30.36 8.10128 30.248 8.33595 30.024L8.62395 30.44ZM3.71195 30.152C3.98928 30.152 4.26128 30.0827 4.52795 29.944C4.80528 29.7947 5.09328 29.5227 5.39195 29.128V27.288H4.19195C3.66928 27.288 3.29061 27.4107 3.05595 27.656C2.82128 27.9014 2.70395 28.2854 2.70395 28.808C2.70395 29.2347 2.78928 29.5654 2.95995 29.8C3.13061 30.0347 3.38128 30.152 3.71195 30.152ZM11.7933 23.176V22.728H14.7693V24.04C15.42 23.0587 16.1933 22.568 17.0893 22.568C17.42 22.568 17.74 22.6747 18.0493 22.888C18.3587 23.0907 18.6147 23.4747 18.8173 24.04L17.3933 24.808C17.244 24.3707 17.068 24.0774 16.8653 23.928C16.6733 23.768 16.4653 23.688 16.2413 23.688C16.0067 23.688 15.7773 23.7627 15.5533 23.912C15.3293 24.0614 15.1 24.3387 14.8653 24.744V29.496C14.8653 29.8587 14.8813 30.0774 14.9133 30.152C14.9453 30.216 15.0467 30.2587 15.2173 30.28L16.4173 30.392V30.84H11.7933V30.392L12.6733 30.28C12.844 30.2587 12.9453 30.216 12.9773 30.152C13.0093 30.0774 13.0253 29.8587 13.0253 29.496V24.072C13.0253 23.7094 13.0093 23.496 12.9773 23.432C12.9453 23.3574 12.844 23.3094 12.6733 23.288L11.7933 23.176ZM29.4616 26.616V26.936C29.4616 28.1627 29.1416 29.1494 28.5016 29.896C27.8722 30.632 26.9709 31 25.7976 31C24.6242 31 23.7176 30.632 23.0776 29.896C22.4482 29.1494 22.1336 28.1627 22.1336 26.936V26.616C22.1336 25.3894 22.4482 24.408 23.0776 23.672C23.7176 22.936 24.6242 22.568 25.7976 22.568C26.9709 22.568 27.8722 22.936 28.5016 23.672C29.1416 24.408 29.4616 25.3894 29.4616 26.616ZM27.4936 26.296C27.4936 25.1547 27.3496 24.344 27.0616 23.864C26.7736 23.3734 26.3522 23.128 25.7976 23.128C25.2536 23.128 24.8322 23.3734 24.5336 23.864C24.2456 24.344 24.1016 25.1547 24.1016 26.296V27.256C24.1016 28.3867 24.2456 29.2027 24.5336 29.704C24.8322 30.1947 25.2536 30.44 25.7976 30.44C26.3522 30.44 26.7736 30.1947 27.0616 29.704C27.3496 29.2027 27.4936 28.3867 27.4936 27.256V26.296ZM42.4459 30.392V30.84H39.4699V29.432C39.1713 29.976 38.7873 30.376 38.3179 30.632C37.8486 30.8774 37.3739 31 36.8939 31C36.1366 31 35.5339 30.7494 35.0859 30.248C34.6379 29.736 34.4139 29.0267 34.4139 28.12V24.072C34.4139 23.7094 34.3979 23.496 34.3659 23.432C34.3339 23.3574 34.2326 23.3094 34.0619 23.288L33.1819 23.176V22.728H36.2539V28.104C36.2539 28.84 36.3553 29.3787 36.5579 29.72C36.7713 30.0507 37.0753 30.216 37.4699 30.216C37.6406 30.216 37.8379 30.1734 38.0619 30.088C38.2966 29.992 38.5313 29.8267 38.7659 29.592C39.0006 29.3467 39.2033 29 39.3739 28.552V24.072C39.3739 23.7094 39.3579 23.4907 39.3259 23.416C39.2939 23.3414 39.1926 23.2987 39.0219 23.288L37.8219 23.176V22.728H41.2139V29.496C41.2139 29.8587 41.2299 30.0774 41.2619 30.152C41.2939 30.216 41.3953 30.2587 41.5659 30.28L42.4459 30.392ZM55.2211 30.392V30.84H50.9171V30.392L51.7971 30.28C51.9677 30.2587 52.0691 30.216 52.1011 30.152C52.1331 30.0774 52.1491 29.8587 52.1491 29.496V25.464C52.1491 24.728 52.0371 24.1947 51.8131 23.864C51.5997 23.5227 51.2797 23.352 50.8531 23.352C50.6717 23.352 50.4584 23.4 50.2131 23.496C49.9784 23.5814 49.7384 23.7414 49.4931 23.976C49.2584 24.2107 49.0504 24.5574 48.8691 25.016V29.496C48.8691 29.8587 48.8851 30.0774 48.9171 30.152C48.9491 30.216 49.0504 30.2587 49.2211 30.28L50.1011 30.392V30.84H45.7971V30.392L46.6771 30.28C46.8477 30.2587 46.9491 30.216 46.9811 30.152C47.0131 30.0774 47.0291 29.8587 47.0291 29.496V24.072C47.0291 23.7094 47.0131 23.496 46.9811 23.432C46.9491 23.3574 46.8477 23.3094 46.6771 23.288L45.7971 23.176V22.728H48.7731V24.136C49.0824 23.592 49.4771 23.1974 49.9571 22.952C50.4477 22.696 50.9384 22.568 51.4291 22.568C52.2184 22.568 52.8424 22.8187 53.3011 23.32C53.7597 23.8214 53.9891 24.5307 53.9891 25.448V29.496C53.9891 29.8587 54.0051 30.0774 54.0371 30.152C54.0691 30.216 54.1704 30.2587 54.3411 30.28L55.2211 30.392ZM67.2218 30.392V30.84H64.2458V29.512C63.9472 30.0027 63.6112 30.376 63.2378 30.632C62.8752 30.8774 62.4432 31 61.9418 31C61.0458 31 60.3312 30.648 59.7978 29.944C59.2752 29.2294 59.0138 28.232 59.0138 26.952V26.632C59.0138 25.3947 59.3178 24.408 59.9258 23.672C60.5445 22.936 61.3872 22.568 62.4538 22.568C63.0938 22.568 63.6592 22.728 64.1498 23.048V20.344C64.1498 19.9814 64.1338 19.768 64.1018 19.704C64.0698 19.6294 63.9685 19.5814 63.7978 19.56L62.9178 19.448V19H65.9898V29.496C65.9898 29.8587 66.0058 30.0774 66.0378 30.152C66.0698 30.216 66.1712 30.2587 66.3418 30.28L67.2218 30.392ZM60.9818 27.432C60.9818 28.424 61.1045 29.1494 61.3498 29.608C61.5952 30.0667 61.9312 30.296 62.3578 30.296C62.6245 30.296 62.9018 30.1894 63.1898 29.976C63.4885 29.752 63.8085 29.304 64.1498 28.632V23.8C63.7445 23.3947 63.2485 23.192 62.6618 23.192C62.0752 23.192 61.6485 23.4587 61.3818 23.992C61.1152 24.5147 60.9818 25.2347 60.9818 26.152V27.432ZM82.5593 29.176C82.4207 29.8267 82.154 30.296 81.7593 30.584C81.3753 30.8614 80.906 31 80.3513 31C79.786 31 79.322 30.8774 78.9593 30.632C78.5967 30.376 78.33 30.04 78.1593 29.624C77.9887 29.208 77.9033 28.7654 77.9033 28.296V24.072C77.9033 23.7094 77.8873 23.496 77.8553 23.432C77.8233 23.3574 77.722 23.3094 77.5513 23.288L76.6713 23.176V22.728H77.9033V20.872L79.7433 20.504V22.728H82.3033V23.288H79.7433V28.616C79.7433 29.2987 79.8287 29.7734 79.9993 30.04C80.17 30.296 80.3887 30.424 80.6553 30.424C80.9327 30.424 81.146 30.3174 81.2953 30.104C81.4553 29.8907 81.5567 29.5014 81.5993 28.936L82.5593 29.176ZM95.2078 30.392V30.84H90.9038V30.392L91.7838 30.28C91.9545 30.2587 92.0558 30.216 92.0878 30.152C92.1198 30.0774 92.1358 29.8587 92.1358 29.496V25.464C92.1358 24.728 92.0238 24.1947 91.7998 23.864C91.5865 23.5227 91.2665 23.352 90.8398 23.352C90.6585 23.352 90.4452 23.4 90.1998 23.496C89.9652 23.5814 89.7252 23.7414 89.4798 23.976C89.2452 24.2107 89.0372 24.5574 88.8558 25.016V29.496C88.8558 29.8587 88.8718 30.0774 88.9038 30.152C88.9358 30.216 89.0372 30.2587 89.2078 30.28L90.0878 30.392V30.84H85.7838V30.392L86.6638 30.28C86.8345 30.2587 86.9358 30.216 86.9678 30.152C86.9998 30.0774 87.0158 29.8587 87.0158 29.496V20.344C87.0158 19.9814 86.9998 19.768 86.9678 19.704C86.9358 19.6294 86.8345 19.5814 86.6638 19.56L85.7838 19.448V19H88.8558V23.976C89.1652 23.4854 89.5492 23.128 90.0078 22.904C90.4772 22.68 90.9465 22.568 91.4158 22.568C92.2052 22.568 92.8292 22.8187 93.2878 23.32C93.7465 23.8214 93.9758 24.5307 93.9758 25.448V29.496C93.9758 29.8587 93.9918 30.0774 94.0238 30.152C94.0558 30.216 94.1572 30.2587 94.3278 30.28L95.2078 30.392ZM105.691 28.936C105.499 29.6827 105.142 30.216 104.619 30.536C104.097 30.8454 103.489 31 102.795 31C101.515 31 100.555 30.632 99.9152 29.896C99.2752 29.1494 98.9552 28.1627 98.9552 26.936V26.616C98.9552 25.3894 99.2539 24.408 99.8512 23.672C100.459 22.936 101.334 22.568 102.475 22.568C103.115 22.568 103.681 22.696 104.171 22.952C104.673 23.1974 105.062 23.5547 105.339 24.024C105.627 24.4934 105.771 25.064 105.771 25.736C105.771 25.896 105.761 26.0667 105.739 26.248C105.729 26.4294 105.702 26.6107 105.659 26.792H100.923V27.256C100.923 28.3867 101.083 29.2027 101.403 29.704C101.723 30.1947 102.241 30.44 102.955 30.44C103.414 30.44 103.803 30.3067 104.123 30.04C104.443 29.7627 104.625 29.2987 104.667 28.648L105.691 28.936ZM102.475 23.128C101.953 23.128 101.563 23.368 101.307 23.848C101.051 24.328 100.923 25.1227 100.923 26.232H103.819C103.862 26.0187 103.889 25.8214 103.899 25.64C103.921 25.448 103.931 25.272 103.931 25.112C103.931 24.4294 103.798 23.928 103.531 23.608C103.265 23.288 102.913 23.128 102.475 23.128ZM115.722 19.448V19H118.794V23.912C119.082 23.464 119.402 23.128 119.754 22.904C120.117 22.68 120.533 22.568 121.002 22.568C121.898 22.568 122.607 22.9254 123.13 23.64C123.663 24.344 123.93 25.336 123.93 26.616V26.936C123.93 28.1734 123.626 29.16 123.018 29.896C122.41 30.632 121.567 31 120.49 31C119.669 31 118.997 30.7547 118.474 30.264C118.282 30.3387 118.095 30.4347 117.914 30.552C117.743 30.6587 117.567 30.7814 117.386 30.92H116.954V20.344C116.954 19.9814 116.938 19.768 116.906 19.704C116.874 19.6294 116.773 19.5814 116.602 19.56L115.722 19.448ZM120.586 23.272C120.319 23.272 120.037 23.384 119.738 23.608C119.45 23.8214 119.135 24.264 118.794 24.936V29.768C119.199 30.1734 119.695 30.376 120.282 30.376C120.879 30.376 121.306 30.1147 121.562 29.592C121.829 29.0587 121.962 28.3334 121.962 27.416V26.136C121.962 25.144 121.839 24.4187 121.594 23.96C121.349 23.5014 121.013 23.272 120.586 23.272ZM127.804 19.448V19H130.876V29.496C130.876 29.8587 130.892 30.0774 130.924 30.152C130.956 30.216 131.058 30.2587 131.228 30.28L132.108 30.392V30.84H127.804V30.392L128.684 30.28C128.855 30.2587 128.956 30.216 128.988 30.152C129.02 30.0774 129.036 29.8587 129.036 29.496V20.344C129.036 19.9814 129.02 19.768 128.988 19.704C128.956 19.6294 128.855 19.5814 128.684 19.56L127.804 19.448ZM143.241 26.616V26.936C143.241 28.1627 142.921 29.1494 142.281 29.896C141.652 30.632 140.75 31 139.577 31C138.404 31 137.497 30.632 136.857 29.896C136.228 29.1494 135.913 28.1627 135.913 26.936V26.616C135.913 25.3894 136.228 24.408 136.857 23.672C137.497 22.936 138.404 22.568 139.577 22.568C140.75 22.568 141.652 22.936 142.281 23.672C142.921 24.408 143.241 25.3894 143.241 26.616ZM141.273 26.296C141.273 25.1547 141.129 24.344 140.841 23.864C140.553 23.3734 140.132 23.128 139.577 23.128C139.033 23.128 138.612 23.3734 138.313 23.864C138.025 24.344 137.881 25.1547 137.881 26.296V27.256C137.881 28.3867 138.025 29.2027 138.313 29.704C138.612 30.1947 139.033 30.44 139.577 30.44C140.132 30.44 140.553 30.1947 140.841 29.704C141.129 29.2027 141.273 28.3867 141.273 27.256V26.296ZM151.121 23.128C150.609 23.128 150.225 23.3734 149.969 23.864C149.724 24.344 149.601 25.1547 149.601 26.296V27.256C149.601 28.3867 149.745 29.2027 150.033 29.704C150.321 30.1947 150.791 30.44 151.441 30.44C151.921 30.44 152.311 30.3067 152.609 30.04C152.919 29.7627 153.095 29.2987 153.137 28.648L154.161 28.936C153.969 29.6827 153.617 30.216 153.105 30.536C152.604 30.8454 152.012 31 151.329 31C150.103 31 149.18 30.632 148.561 29.896C147.943 29.1494 147.633 28.1627 147.633 26.936V26.616C147.633 25.3894 147.932 24.408 148.529 23.672C149.127 22.936 149.991 22.568 151.121 22.568C151.868 22.568 152.476 22.7174 152.945 23.016C153.425 23.304 153.761 23.688 153.953 24.168C154.156 24.6374 154.209 25.144 154.113 25.688L152.353 25.944C152.471 25.048 152.423 24.3547 152.209 23.864C151.996 23.3734 151.633 23.128 151.121 23.128ZM157.808 19.448V19H160.88V26.76L163.696 24.072C164.07 23.72 164.267 23.5067 164.288 23.432C164.32 23.3574 164.246 23.3094 164.064 23.288L163.184 23.176V22.728H166.464V23.176L165.584 23.288C165.488 23.2987 165.408 23.32 165.344 23.352C165.28 23.384 165.19 23.4534 165.072 23.56C164.955 23.656 164.768 23.8267 164.512 24.072L162.976 25.544L165.248 29.496C165.398 29.7414 165.51 29.9174 165.584 30.024C165.659 30.12 165.728 30.184 165.792 30.216C165.867 30.2374 165.958 30.2587 166.064 30.28L166.944 30.392V30.84H163.888L161.664 26.792L160.88 27.544V29.496C160.88 29.8587 160.896 30.0774 160.928 30.152C160.96 30.216 161.062 30.2587 161.232 30.28L162.112 30.392V30.84H157.808V30.392L158.688 30.28C158.859 30.2587 158.96 30.216 158.992 30.152C159.024 30.0774 159.04 29.8587 159.04 29.496V20.344C159.04 19.9814 159.024 19.768 158.992 19.704C158.96 19.6294 158.859 19.5814 158.688 19.56L157.808 19.448ZM184.505 30.44C184.334 30.6 184.126 30.7334 183.881 30.84C183.646 30.9467 183.358 31 183.017 31C182.579 31 182.211 30.904 181.913 30.712C181.625 30.52 181.433 30.248 181.337 29.896C180.985 30.28 180.595 30.5627 180.169 30.744C179.753 30.9147 179.326 31 178.889 31C178.153 31 177.603 30.7974 177.241 30.392C176.878 29.976 176.697 29.4587 176.697 28.84C176.697 28.2107 176.926 27.704 177.385 27.32C177.843 26.9254 178.654 26.728 179.817 26.728H181.273V25.432C181.273 24.5467 181.155 23.944 180.921 23.624C180.697 23.2934 180.382 23.128 179.977 23.128C179.71 23.128 179.465 23.1974 179.241 23.336C179.017 23.464 178.857 23.7094 178.761 24.072C178.675 24.424 178.691 24.936 178.809 25.608L177.049 25.352C176.963 24.8614 177.017 24.408 177.209 23.992C177.411 23.5654 177.747 23.224 178.217 22.968C178.686 22.7014 179.283 22.568 180.009 22.568C180.83 22.568 181.465 22.7014 181.913 22.968C182.361 23.2347 182.67 23.5867 182.841 24.024C183.022 24.4614 183.113 24.9307 183.113 25.432V29.128C183.113 29.672 183.161 30.0134 183.257 30.152C183.353 30.2907 183.459 30.36 183.577 30.36C183.769 30.36 183.982 30.248 184.217 30.024L184.505 30.44ZM179.593 30.152C179.87 30.152 180.142 30.0827 180.409 29.944C180.686 29.7947 180.974 29.5227 181.273 29.128V27.288H180.073C179.55 27.288 179.171 27.4107 178.937 27.656C178.702 27.9014 178.585 28.2854 178.585 28.808C178.585 29.2347 178.67 29.5654 178.841 29.8C179.011 30.0347 179.262 30.152 179.593 30.152ZM197.098 30.392V30.84H192.794V30.392L193.674 30.28C193.845 30.2587 193.946 30.216 193.978 30.152C194.01 30.0774 194.026 29.8587 194.026 29.496V25.464C194.026 24.728 193.914 24.1947 193.69 23.864C193.477 23.5227 193.157 23.352 192.73 23.352C192.549 23.352 192.335 23.4 192.09 23.496C191.855 23.5814 191.615 23.7414 191.37 23.976C191.135 24.2107 190.927 24.5574 190.746 25.016V29.496C190.746 29.8587 190.762 30.0774 190.794 30.152C190.826 30.216 190.927 30.2587 191.098 30.28L191.978 30.392V30.84H187.674V30.392L188.554 30.28C188.725 30.2587 188.826 30.216 188.858 30.152C188.89 30.0774 188.906 29.8587 188.906 29.496V24.072C188.906 23.7094 188.89 23.496 188.858 23.432C188.826 23.3574 188.725 23.3094 188.554 23.288L187.674 23.176V22.728H190.65V24.136C190.959 23.592 191.354 23.1974 191.834 22.952C192.325 22.696 192.815 22.568 193.306 22.568C194.095 22.568 194.719 22.8187 195.178 23.32C195.637 23.8214 195.866 24.5307 195.866 25.448V29.496C195.866 29.8587 195.882 30.0774 195.914 30.152C195.946 30.216 196.047 30.2587 196.218 30.28L197.098 30.392ZM209.099 30.392V30.84H206.123V29.512C205.824 30.0027 205.488 30.376 205.115 30.632C204.752 30.8774 204.32 31 203.819 31C202.923 31 202.208 30.648 201.675 29.944C201.152 29.2294 200.891 28.232 200.891 26.952V26.632C200.891 25.3947 201.195 24.408 201.803 23.672C202.421 22.936 203.264 22.568 204.331 22.568C204.971 22.568 205.536 22.728 206.027 23.048V20.344C206.027 19.9814 206.011 19.768 205.979 19.704C205.947 19.6294 205.845 19.5814 205.675 19.56L204.795 19.448V19H207.867V29.496C207.867 29.8587 207.883 30.0774 207.915 30.152C207.947 30.216 208.048 30.2587 208.219 30.28L209.099 30.392ZM202.859 27.432C202.859 28.424 202.981 29.1494 203.227 29.608C203.472 30.0667 203.808 30.296 204.235 30.296C204.501 30.296 204.779 30.1894 205.067 29.976C205.365 29.752 205.685 29.304 206.027 28.632V23.8C205.621 23.3947 205.125 23.192 204.539 23.192C203.952 23.192 203.525 23.4587 203.259 23.992C202.992 24.5147 202.859 25.2347 202.859 26.152V27.432ZM224.436 29.176C224.298 29.8267 224.031 30.296 223.636 30.584C223.252 30.8614 222.783 31 222.228 31C221.663 31 221.199 30.8774 220.836 30.632C220.474 30.376 220.207 30.04 220.036 29.624C219.866 29.208 219.78 28.7654 219.78 28.296V24.072C219.78 23.7094 219.764 23.496 219.732 23.432C219.7 23.3574 219.599 23.3094 219.428 23.288L218.548 23.176V22.728H219.78V20.872L221.62 20.504V22.728H224.18V23.288H221.62V28.616C221.62 29.2987 221.706 29.7734 221.876 30.04C222.047 30.296 222.266 30.424 222.532 30.424C222.81 30.424 223.023 30.3174 223.172 30.104C223.332 29.8907 223.434 29.5014 223.476 28.936L224.436 29.176ZM227.773 23.176V22.728H230.749V24.04C231.399 23.0587 232.173 22.568 233.069 22.568C233.399 22.568 233.719 22.6747 234.029 22.888C234.338 23.0907 234.594 23.4747 234.797 24.04L233.373 24.808C233.223 24.3707 233.047 24.0774 232.845 23.928C232.653 23.768 232.445 23.688 232.221 23.688C231.986 23.688 231.757 23.7627 231.533 23.912C231.309 24.0614 231.079 24.3387 230.845 24.744V29.496C230.845 29.8587 230.861 30.0774 230.893 30.152C230.925 30.216 231.026 30.2587 231.197 30.28L232.397 30.392V30.84H227.773V30.392L228.653 30.28C228.823 30.2587 228.925 30.216 228.957 30.152C228.989 30.0774 229.005 29.8587 229.005 29.496V24.072C229.005 23.7094 228.989 23.496 228.957 23.432C228.925 23.3574 228.823 23.3094 228.653 23.288L227.773 23.176ZM244.865 28.936C244.673 29.6827 244.316 30.216 243.793 30.536C243.27 30.8454 242.662 31 241.969 31C240.689 31 239.729 30.632 239.089 29.896C238.449 29.1494 238.129 28.1627 238.129 26.936V26.616C238.129 25.3894 238.428 24.408 239.025 23.672C239.633 22.936 240.508 22.568 241.649 22.568C242.289 22.568 242.854 22.696 243.345 22.952C243.846 23.1974 244.236 23.5547 244.513 24.024C244.801 24.4934 244.945 25.064 244.945 25.736C244.945 25.896 244.934 26.0667 244.913 26.248C244.902 26.4294 244.876 26.6107 244.833 26.792H240.097V27.256C240.097 28.3867 240.257 29.2027 240.577 29.704C240.897 30.1947 241.414 30.44 242.129 30.44C242.588 30.44 242.977 30.3067 243.297 30.04C243.617 29.7627 243.798 29.2987 243.841 28.648L244.865 28.936ZM241.649 23.128C241.126 23.128 240.737 23.368 240.481 23.848C240.225 24.328 240.097 25.1227 240.097 26.232H242.993C243.036 26.0187 243.062 25.8214 243.073 25.64C243.094 25.448 243.105 25.272 243.105 25.112C243.105 24.4294 242.972 23.928 242.705 23.608C242.438 23.288 242.086 23.128 241.649 23.128ZM256.998 30.44C256.827 30.6 256.619 30.7334 256.374 30.84C256.139 30.9467 255.851 31 255.51 31C255.072 31 254.704 30.904 254.406 30.712C254.118 30.52 253.926 30.248 253.83 29.896C253.478 30.28 253.088 30.5627 252.662 30.744C252.246 30.9147 251.819 31 251.382 31C250.646 31 250.096 30.7974 249.734 30.392C249.371 29.976 249.19 29.4587 249.19 28.84C249.19 28.2107 249.419 27.704 249.878 27.32C250.336 26.9254 251.147 26.728 252.31 26.728H253.766V25.432C253.766 24.5467 253.648 23.944 253.414 23.624C253.19 23.2934 252.875 23.128 252.47 23.128C252.203 23.128 251.958 23.1974 251.734 23.336C251.51 23.464 251.35 23.7094 251.254 24.072C251.168 24.424 251.184 24.936 251.302 25.608L249.542 25.352C249.456 24.8614 249.51 24.408 249.702 23.992C249.904 23.5654 250.24 23.224 250.71 22.968C251.179 22.7014 251.776 22.568 252.502 22.568C253.323 22.568 253.958 22.7014 254.406 22.968C254.854 23.2347 255.163 23.5867 255.334 24.024C255.515 24.4614 255.606 24.9307 255.606 25.432V29.128C255.606 29.672 255.654 30.0134 255.75 30.152C255.846 30.2907 255.952 30.36 256.07 30.36C256.262 30.36 256.475 30.248 256.71 30.024L256.998 30.44ZM252.086 30.152C252.363 30.152 252.635 30.0827 252.902 29.944C253.179 29.7947 253.467 29.5227 253.766 29.128V27.288H252.566C252.043 27.288 251.664 27.4107 251.43 27.656C251.195 27.9014 251.078 28.2854 251.078 28.808C251.078 29.2347 251.163 29.5654 251.334 29.8C251.504 30.0347 251.755 30.152 252.086 30.152ZM265.863 29.176C265.724 29.8267 265.458 30.296 265.063 30.584C264.679 30.8614 264.21 31 263.655 31C263.09 31 262.626 30.8774 262.263 30.632C261.9 30.376 261.634 30.04 261.463 29.624C261.292 29.208 261.207 28.7654 261.207 28.296V24.072C261.207 23.7094 261.191 23.496 261.159 23.432C261.127 23.3574 261.026 23.3094 260.855 23.288L259.975 23.176V22.728H261.207V20.872L263.047 20.504V22.728H265.607V23.288H263.047V28.616C263.047 29.2987 263.132 29.7734 263.303 30.04C263.474 30.296 263.692 30.424 263.959 30.424C264.236 30.424 264.45 30.3174 264.599 30.104C264.759 29.8907 264.86 29.5014 264.903 28.936L265.863 29.176ZM279.978 31.64C279.732 32.312 279.46 32.8507 279.162 33.256C278.874 33.6614 278.516 33.9547 278.09 34.136C277.663 34.3174 277.13 34.408 276.49 34.408V32.648C277.14 32.648 277.663 32.6 278.058 32.504C278.463 32.4187 278.772 32.2747 278.986 32.072C279.21 31.88 279.375 31.6294 279.482 31.32L279.642 30.84H278.81L276.538 24.072C276.463 23.8267 276.399 23.656 276.346 23.56C276.303 23.4534 276.25 23.384 276.186 23.352C276.132 23.32 276.047 23.2987 275.93 23.288L275.05 23.176V22.728H279.37V23.176L278.49 23.288C278.362 23.2987 278.282 23.3414 278.25 23.416C278.228 23.48 278.276 23.6987 278.394 24.072L280.138 29.352L281.946 24.008C282.063 23.6667 282.111 23.4694 282.09 23.416C282.079 23.352 281.994 23.3094 281.834 23.288L280.954 23.176V22.728H284.01V23.176L283.13 23.288C282.97 23.3094 282.863 23.352 282.81 23.416C282.756 23.48 282.671 23.6774 282.554 24.008L279.978 31.64ZM294.244 26.616V26.936C294.244 28.1627 293.924 29.1494 293.284 29.896C292.655 30.632 291.753 31 290.58 31C289.407 31 288.5 30.632 287.86 29.896C287.231 29.1494 286.916 28.1627 286.916 26.936V26.616C286.916 25.3894 287.231 24.408 287.86 23.672C288.5 22.936 289.407 22.568 290.58 22.568C291.753 22.568 292.655 22.936 293.284 23.672C293.924 24.408 294.244 25.3894 294.244 26.616ZM292.276 26.296C292.276 25.1547 292.132 24.344 291.844 23.864C291.556 23.3734 291.135 23.128 290.58 23.128C290.036 23.128 289.615 23.3734 289.316 23.864C289.028 24.344 288.884 25.1547 288.884 26.296V27.256C288.884 28.3867 289.028 29.2027 289.316 29.704C289.615 30.1947 290.036 30.44 290.58 30.44C291.135 30.44 291.556 30.1947 291.844 29.704C292.132 29.2027 292.276 28.3867 292.276 27.256V26.296ZM307.228 30.392V30.84H304.252V29.432C303.954 29.976 303.57 30.376 303.1 30.632C302.631 30.8774 302.156 31 301.676 31C300.919 31 300.316 30.7494 299.868 30.248C299.42 29.736 299.196 29.0267 299.196 28.12V24.072C299.196 23.7094 299.18 23.496 299.148 23.432C299.116 23.3574 299.015 23.3094 298.844 23.288L297.964 23.176V22.728H301.036V28.104C301.036 28.84 301.138 29.3787 301.34 29.72C301.554 30.0507 301.858 30.216 302.252 30.216C302.423 30.216 302.62 30.1734 302.844 30.088C303.079 29.992 303.314 29.8267 303.548 29.592C303.783 29.3467 303.986 29 304.156 28.552V24.072C304.156 23.7094 304.14 23.4907 304.108 23.416C304.076 23.3414 303.975 23.2987 303.804 23.288L302.604 23.176V22.728H305.996V29.496C305.996 29.8587 306.012 30.0774 306.044 30.152C306.076 30.216 306.178 30.2587 306.348 30.28L307.228 30.392ZM310.58 23.176V22.728H313.556V24.04C314.206 23.0587 314.98 22.568 315.876 22.568C316.206 22.568 316.526 22.6747 316.836 22.888C317.145 23.0907 317.401 23.4747 317.604 24.04L316.18 24.808C316.03 24.3707 315.854 24.0774 315.652 23.928C315.46 23.768 315.252 23.688 315.028 23.688C314.793 23.688 314.564 23.7627 314.34 23.912C314.116 24.0614 313.886 24.3387 313.652 24.744V29.496C313.652 29.8587 313.668 30.0774 313.7 30.152C313.732 30.216 313.833 30.2587 314.004 30.28L315.204 30.392V30.84H310.58V30.392L311.46 30.28C311.63 30.2587 311.732 30.216 311.764 30.152C311.796 30.0774 311.812 29.8587 311.812 29.496V24.072C311.812 23.7094 311.796 23.496 311.764 23.432C311.732 23.3574 311.63 23.3094 311.46 23.288L310.58 23.176ZM324.338 27.816L323.234 27.56C322.52 27.3894 321.986 27.0854 321.634 26.648C321.293 26.2 321.122 25.672 321.122 25.064C321.122 24.616 321.218 24.2054 321.41 23.832C321.613 23.448 321.928 23.144 322.354 22.92C322.781 22.6854 323.336 22.568 324.018 22.568C324.754 22.568 325.352 22.6854 325.81 22.92C326.269 23.1547 326.594 23.464 326.786 23.848C326.978 24.232 327.037 24.6427 326.962 25.08L325.202 25.4C325.352 24.6747 325.309 24.1147 325.074 23.72C324.85 23.3254 324.472 23.128 323.938 23.128C323.565 23.128 323.256 23.24 323.01 23.464C322.765 23.6774 322.642 23.9867 322.642 24.392C322.642 24.7654 322.749 25.096 322.962 25.384C323.176 25.6614 323.49 25.848 323.906 25.944L325.01 26.2C325.8 26.3814 326.37 26.6694 326.722 27.064C327.074 27.448 327.25 27.928 327.25 28.504C327.25 29.2187 326.984 29.816 326.45 30.296C325.928 30.7654 325.144 31 324.098 31C323.736 31 323.336 30.9467 322.898 30.84C322.472 30.7227 322.077 30.5147 321.714 30.216C321.362 29.9174 321.106 29.4907 320.946 28.936L321.986 28.52C322.061 29.224 322.301 29.72 322.706 30.008C323.122 30.296 323.586 30.44 324.098 30.44C324.578 30.44 324.968 30.3334 325.266 30.12C325.576 29.896 325.73 29.576 325.73 29.16C325.73 28.872 325.629 28.6107 325.426 28.376C325.234 28.1307 324.872 27.944 324.338 27.816ZM338.314 28.936C338.122 29.6827 337.764 30.216 337.242 30.536C336.719 30.8454 336.111 31 335.418 31C334.138 31 333.178 30.632 332.538 29.896C331.898 29.1494 331.578 28.1627 331.578 26.936V26.616C331.578 25.3894 331.876 24.408 332.474 23.672C333.082 22.936 333.956 22.568 335.098 22.568C335.738 22.568 336.303 22.696 336.794 22.952C337.295 23.1974 337.684 23.5547 337.962 24.024C338.25 24.4934 338.394 25.064 338.394 25.736C338.394 25.896 338.383 26.0667 338.362 26.248C338.351 26.4294 338.324 26.6107 338.282 26.792H333.546V27.256C333.546 28.3867 333.706 29.2027 334.026 29.704C334.346 30.1947 334.863 30.44 335.578 30.44C336.036 30.44 336.426 30.3067 336.746 30.04C337.066 29.7627 337.247 29.2987 337.29 28.648L338.314 28.936ZM335.098 23.128C334.575 23.128 334.186 23.368 333.93 23.848C333.674 24.328 333.546 25.1227 333.546 26.232H336.442C336.484 26.0187 336.511 25.8214 336.522 25.64C336.543 25.448 336.554 25.272 336.554 25.112C336.554 24.4294 336.42 23.928 336.154 23.608C335.887 23.288 335.535 23.128 335.098 23.128ZM342.174 19.448V19H345.246V29.496C345.246 29.8587 345.262 30.0774 345.294 30.152C345.326 30.216 345.428 30.2587 345.598 30.28L346.478 30.392V30.84H342.174V30.392L343.054 30.28C343.225 30.2587 343.326 30.216 343.358 30.152C343.39 30.0774 343.406 29.8587 343.406 29.496V20.344C343.406 19.9814 343.39 19.768 343.358 19.704C343.326 19.6294 343.225 19.5814 343.054 19.56L342.174 19.448ZM354.443 30.392V30.84H349.819V30.392L350.699 30.28C350.87 30.2587 350.971 30.216 351.003 30.152C351.035 30.0774 351.051 29.8587 351.051 29.496V24.072C351.051 23.7094 351.035 23.496 351.003 23.432C350.971 23.3574 350.87 23.3094 350.699 23.288L349.819 23.176V22.728H351.051V21.864C351.051 21.352 351.136 20.8667 351.307 20.408C351.488 19.9387 351.787 19.56 352.203 19.272C352.63 18.984 353.2 18.84 353.915 18.84C354.566 18.84 355.099 18.952 355.515 19.176C355.942 19.4 356.246 19.6987 356.427 20.072C356.619 20.4454 356.678 20.8507 356.603 21.288L354.843 21.544C354.95 20.744 354.918 20.1894 354.747 19.88C354.587 19.56 354.31 19.4 353.915 19.4C353.702 19.4 353.515 19.4587 353.355 19.576C353.206 19.6934 353.088 19.9067 353.003 20.216C352.928 20.5147 352.891 20.9574 352.891 21.544V22.728H355.291V23.288H352.891V29.496C352.891 29.8587 352.907 30.0774 352.939 30.152C352.971 30.216 353.072 30.2587 353.243 30.28L354.443 30.392ZM372.81 30.44C372.639 30.6 372.431 30.7334 372.186 30.84C371.951 30.9467 371.663 31 371.322 31C370.884 31 370.516 30.904 370.218 30.712C369.93 30.52 369.738 30.248 369.642 29.896C369.29 30.28 368.9 30.5627 368.474 30.744C368.058 30.9147 367.631 31 367.194 31C366.458 31 365.908 30.7974 365.546 30.392C365.183 29.976 365.002 29.4587 365.002 28.84C365.002 28.2107 365.231 27.704 365.69 27.32C366.148 26.9254 366.959 26.728 368.122 26.728H369.578V25.432C369.578 24.5467 369.46 23.944 369.226 23.624C369.002 23.2934 368.687 23.128 368.282 23.128C368.015 23.128 367.77 23.1974 367.546 23.336C367.322 23.464 367.162 23.7094 367.066 24.072C366.98 24.424 366.996 24.936 367.114 25.608L365.354 25.352C365.268 24.8614 365.322 24.408 365.514 23.992C365.716 23.5654 366.052 23.224 366.522 22.968C366.991 22.7014 367.588 22.568 368.314 22.568C369.135 22.568 369.77 22.7014 370.218 22.968C370.666 23.2347 370.975 23.5867 371.146 24.024C371.327 24.4614 371.418 24.9307 371.418 25.432V29.128C371.418 29.672 371.466 30.0134 371.562 30.152C371.658 30.2907 371.764 30.36 371.882 30.36C372.074 30.36 372.287 30.248 372.522 30.024L372.81 30.44ZM367.898 30.152C368.175 30.152 368.447 30.0827 368.714 29.944C368.991 29.7947 369.279 29.5227 369.578 29.128V27.288H368.378C367.855 27.288 367.476 27.4107 367.242 27.656C367.007 27.9014 366.89 28.2854 366.89 28.808C366.89 29.2347 366.975 29.5654 367.146 29.8C367.316 30.0347 367.567 30.152 367.898 30.152ZM385.925 27.816L384.821 27.56C384.106 27.3894 383.573 27.0854 383.221 26.648C382.88 26.2 382.709 25.672 382.709 25.064C382.709 24.616 382.805 24.2054 382.997 23.832C383.2 23.448 383.514 23.144 383.941 22.92C384.368 22.6854 384.922 22.568 385.605 22.568C386.341 22.568 386.938 22.6854 387.397 22.92C387.856 23.1547 388.181 23.464 388.373 23.848C388.565 24.232 388.624 24.6427 388.549 25.08L386.789 25.4C386.938 24.6747 386.896 24.1147 386.661 23.72C386.437 23.3254 386.058 23.128 385.525 23.128C385.152 23.128 384.842 23.24 384.597 23.464C384.352 23.6774 384.229 23.9867 384.229 24.392C384.229 24.7654 384.336 25.096 384.549 25.384C384.762 25.6614 385.077 25.848 385.493 25.944L386.597 26.2C387.386 26.3814 387.957 26.6694 388.309 27.064C388.661 27.448 388.837 27.928 388.837 28.504C388.837 29.2187 388.57 29.816 388.037 30.296C387.514 30.7654 386.73 31 385.685 31C385.322 31 384.922 30.9467 384.485 30.84C384.058 30.7227 383.664 30.5147 383.301 30.216C382.949 29.9174 382.693 29.4907 382.533 28.936L383.573 28.52C383.648 29.224 383.888 29.72 384.293 30.008C384.709 30.296 385.173 30.44 385.685 30.44C386.165 30.44 386.554 30.3334 386.853 30.12C387.162 29.896 387.317 29.576 387.317 29.16C387.317 28.872 387.216 28.6107 387.013 28.376C386.821 28.1307 386.458 27.944 385.925 27.816ZM401.949 30.392V30.84H397.645V30.392L398.525 30.28C398.695 30.2587 398.797 30.216 398.829 30.152C398.861 30.0774 398.877 29.8587 398.877 29.496V25.464C398.877 24.728 398.775 24.1947 398.573 23.864C398.37 23.5227 398.066 23.352 397.661 23.352C397.49 23.352 397.287 23.4 397.053 23.496C396.818 23.5814 396.583 23.7414 396.349 23.976C396.125 24.2107 395.927 24.5574 395.757 25.016V29.496C395.757 29.8587 395.773 30.0774 395.805 30.152C395.837 30.216 395.938 30.2587 396.109 30.28L396.989 30.392V30.84H392.685V30.392L393.565 30.28C393.735 30.2587 393.837 30.216 393.869 30.152C393.901 30.0774 393.917 29.8587 393.917 29.496V24.072C393.917 23.7094 393.901 23.496 393.869 23.432C393.837 23.3574 393.735 23.3094 393.565 23.288L392.685 23.176V22.728H395.661V24.136C395.959 23.592 396.343 23.1974 396.813 22.952C397.282 22.696 397.757 22.568 398.237 22.568C398.813 22.568 399.298 22.7174 399.693 23.016C400.098 23.304 400.386 23.72 400.557 24.264C400.845 23.6667 401.234 23.2347 401.725 22.968C402.215 22.7014 402.706 22.568 403.197 22.568C403.954 22.568 404.557 22.8187 405.005 23.32C405.453 23.8214 405.677 24.5307 405.677 25.448V29.496C405.677 29.8587 405.693 30.0774 405.725 30.152C405.757 30.216 405.858 30.2587 406.029 30.28L406.909 30.392V30.84H402.605V30.392L403.485 30.28C403.655 30.2587 403.757 30.216 403.789 30.152C403.821 30.0774 403.837 29.8587 403.837 29.496V25.464C403.837 24.728 403.735 24.1947 403.533 23.864C403.33 23.5227 403.026 23.352 402.621 23.352C402.45 23.352 402.247 23.4 402.013 23.496C401.778 23.5814 401.543 23.7467 401.309 23.992C401.074 24.2374 400.871 24.5947 400.701 25.064C400.711 25.1174 400.717 25.1814 400.717 25.256C400.717 25.32 400.717 25.384 400.717 25.448V29.496C400.717 29.8587 400.733 30.0774 400.765 30.152C400.797 30.216 400.898 30.2587 401.069 30.28L401.949 30.392ZM418.33 30.44C418.16 30.6 417.952 30.7334 417.706 30.84C417.472 30.9467 417.184 31 416.842 31C416.405 31 416.037 30.904 415.738 30.712C415.45 30.52 415.258 30.248 415.162 29.896C414.81 30.28 414.421 30.5627 413.994 30.744C413.578 30.9147 413.152 31 412.714 31C411.978 31 411.429 30.7974 411.066 30.392C410.704 29.976 410.522 29.4587 410.522 28.84C410.522 28.2107 410.752 27.704 411.21 27.32C411.669 26.9254 412.48 26.728 413.642 26.728H415.098V25.432C415.098 24.5467 414.981 23.944 414.746 23.624C414.522 23.2934 414.208 23.128 413.802 23.128C413.536 23.128 413.29 23.1974 413.066 23.336C412.842 23.464 412.682 23.7094 412.586 24.072C412.501 24.424 412.517 24.936 412.634 25.608L410.874 25.352C410.789 24.8614 410.842 24.408 411.034 23.992C411.237 23.5654 411.573 23.224 412.042 22.968C412.512 22.7014 413.109 22.568 413.834 22.568C414.656 22.568 415.29 22.7014 415.738 22.968C416.186 23.2347 416.496 23.5867 416.666 24.024C416.848 24.4614 416.938 24.9307 416.938 25.432V29.128C416.938 29.672 416.986 30.0134 417.082 30.152C417.178 30.2907 417.285 30.36 417.402 30.36C417.594 30.36 417.808 30.248 418.042 30.024L418.33 30.44ZM413.418 30.152C413.696 30.152 413.968 30.0827 414.234 29.944C414.512 29.7947 414.8 29.5227 415.098 29.128V27.288H413.898C413.376 27.288 412.997 27.4107 412.762 27.656C412.528 27.9014 412.41 28.2854 412.41 28.808C412.41 29.2347 412.496 29.5654 412.666 29.8C412.837 30.0347 413.088 30.152 413.418 30.152ZM421.388 19.448V19H424.46V29.496C424.46 29.8587 424.476 30.0774 424.508 30.152C424.54 30.216 424.641 30.2587 424.812 30.28L425.692 30.392V30.84H421.388V30.392L422.268 30.28C422.438 30.2587 422.54 30.216 422.572 30.152C422.604 30.0774 422.62 29.8587 422.62 29.496V20.344C422.62 19.9814 422.604 19.768 422.572 19.704C422.54 19.6294 422.438 19.5814 422.268 19.56L421.388 19.448ZM428.92 19.448V19H431.992V29.496C431.992 29.8587 432.008 30.0774 432.04 30.152C432.072 30.216 432.173 30.2587 432.344 30.28L433.224 30.392V30.84H428.92V30.392L429.8 30.28C429.971 30.2587 430.072 30.216 430.104 30.152C430.136 30.0774 430.152 29.8587 430.152 29.496V20.344C430.152 19.9814 430.136 19.768 430.104 19.704C430.072 19.6294 429.971 19.5814 429.8 19.56L428.92 19.448ZM446.511 27.816L445.407 27.56C444.692 27.3894 444.159 27.0854 443.807 26.648C443.465 26.2 443.295 25.672 443.295 25.064C443.295 24.616 443.391 24.2054 443.583 23.832C443.785 23.448 444.1 23.144 444.527 22.92C444.953 22.6854 445.508 22.568 446.191 22.568C446.927 22.568 447.524 22.6854 447.983 22.92C448.441 23.1547 448.767 23.464 448.959 23.848C449.151 24.232 449.209 24.6427 449.135 25.08L447.375 25.4C447.524 24.6747 447.481 24.1147 447.247 23.72C447.023 23.3254 446.644 23.128 446.111 23.128C445.737 23.128 445.428 23.24 445.183 23.464C444.937 23.6774 444.815 23.9867 444.815 24.392C444.815 24.7654 444.921 25.096 445.135 25.384C445.348 25.6614 445.663 25.848 446.079 25.944L447.183 26.2C447.972 26.3814 448.543 26.6694 448.895 27.064C449.247 27.448 449.423 27.928 449.423 28.504C449.423 29.2187 449.156 29.816 448.623 30.296C448.1 30.7654 447.316 31 446.271 31C445.908 31 445.508 30.9467 445.071 30.84C444.644 30.7227 444.249 30.5147 443.887 30.216C443.535 29.9174 443.279 29.4907 443.119 28.936L444.159 28.52C444.233 29.224 444.473 29.72 444.879 30.008C445.295 30.296 445.759 30.44 446.271 30.44C446.751 30.44 447.14 30.3334 447.439 30.12C447.748 29.896 447.903 29.576 447.903 29.16C447.903 28.872 447.801 28.6107 447.599 28.376C447.407 28.1307 447.044 27.944 446.511 27.816ZM462.694 30.392V30.84H458.39V30.392L459.27 30.28C459.441 30.2587 459.542 30.216 459.574 30.152C459.606 30.0774 459.622 29.8587 459.622 29.496V25.464C459.622 24.728 459.51 24.1947 459.286 23.864C459.073 23.5227 458.753 23.352 458.326 23.352C458.145 23.352 457.932 23.4 457.686 23.496C457.452 23.5814 457.212 23.7414 456.966 23.976C456.732 24.2107 456.524 24.5574 456.342 25.016V29.496C456.342 29.8587 456.358 30.0774 456.39 30.152C456.422 30.216 456.524 30.2587 456.694 30.28L457.574 30.392V30.84H453.27V30.392L454.15 30.28C454.321 30.2587 454.422 30.216 454.454 30.152C454.486 30.0774 454.502 29.8587 454.502 29.496V24.072C454.502 23.7094 454.486 23.496 454.454 23.432C454.422 23.3574 454.321 23.3094 454.15 23.288L453.27 23.176V22.728H456.246V24.136C456.556 23.592 456.95 23.1974 457.43 22.952C457.921 22.696 458.412 22.568 458.902 22.568C459.692 22.568 460.316 22.8187 460.774 23.32C461.233 23.8214 461.462 24.5307 461.462 25.448V29.496C461.462 29.8587 461.478 30.0774 461.51 30.152C461.542 30.216 461.644 30.2587 461.814 30.28L462.694 30.392ZM474.119 30.44C473.948 30.6 473.74 30.7334 473.495 30.84C473.26 30.9467 472.972 31 472.631 31C472.194 31 471.826 30.904 471.527 30.712C471.239 30.52 471.047 30.248 470.951 29.896C470.599 30.28 470.21 30.5627 469.783 30.744C469.367 30.9147 468.94 31 468.503 31C467.767 31 467.218 30.7974 466.855 30.392C466.492 29.976 466.311 29.4587 466.311 28.84C466.311 28.2107 466.54 27.704 466.999 27.32C467.458 26.9254 468.268 26.728 469.431 26.728H470.887V25.432C470.887 24.5467 470.77 23.944 470.535 23.624C470.311 23.2934 469.996 23.128 469.591 23.128C469.324 23.128 469.079 23.1974 468.855 23.336C468.631 23.464 468.471 23.7094 468.375 24.072C468.29 24.424 468.306 24.936 468.423 25.608L466.663 25.352C466.578 24.8614 466.631 24.408 466.823 23.992C467.026 23.5654 467.362 23.224 467.831 22.968C468.3 22.7014 468.898 22.568 469.623 22.568C470.444 22.568 471.079 22.7014 471.527 22.968C471.975 23.2347 472.284 23.5867 472.455 24.024C472.636 24.4614 472.727 24.9307 472.727 25.432V29.128C472.727 29.672 472.775 30.0134 472.871 30.152C472.967 30.2907 473.074 30.36 473.191 30.36C473.383 30.36 473.596 30.248 473.831 30.024L474.119 30.44ZM469.207 30.152C469.484 30.152 469.756 30.0827 470.023 29.944C470.3 29.7947 470.588 29.5227 470.887 29.128V27.288H469.687C469.164 27.288 468.786 27.4107 468.551 27.656C468.316 27.9014 468.199 28.2854 468.199 28.808C468.199 29.2347 468.284 29.5654 468.455 29.8C468.626 30.0347 468.876 30.152 469.207 30.152ZM481.256 23.128C480.744 23.128 480.36 23.3734 480.104 23.864C479.859 24.344 479.736 25.1547 479.736 26.296V27.256C479.736 28.3867 479.88 29.2027 480.168 29.704C480.456 30.1947 480.926 30.44 481.576 30.44C482.056 30.44 482.446 30.3067 482.744 30.04C483.054 29.7627 483.23 29.2987 483.272 28.648L484.296 28.936C484.104 29.6827 483.752 30.216 483.24 30.536C482.739 30.8454 482.147 31 481.464 31C480.238 31 479.315 30.632 478.696 29.896C478.078 29.1494 477.768 28.1627 477.768 26.936V26.616C477.768 25.3894 478.067 24.408 478.664 23.672C479.262 22.936 480.126 22.568 481.256 22.568C482.003 22.568 482.611 22.7174 483.08 23.016C483.56 23.304 483.896 23.688 484.088 24.168C484.291 24.6374 484.344 25.144 484.248 25.688L482.488 25.944C482.606 25.048 482.558 24.3547 482.344 23.864C482.131 23.3734 481.768 23.128 481.256 23.128ZM487.943 19.448V19H491.015V26.76L493.831 24.072C494.205 23.72 494.402 23.5067 494.423 23.432C494.455 23.3574 494.381 23.3094 494.199 23.288L493.319 23.176V22.728H496.599V23.176L495.719 23.288C495.623 23.2987 495.543 23.32 495.479 23.352C495.415 23.384 495.325 23.4534 495.207 23.56C495.09 23.656 494.903 23.8267 494.647 24.072L493.111 25.544L495.383 29.496C495.533 29.7414 495.645 29.9174 495.719 30.024C495.794 30.12 495.863 30.184 495.927 30.216C496.002 30.2374 496.093 30.2587 496.199 30.28L497.079 30.392V30.84H494.023L491.799 26.792L491.015 27.544V29.496C491.015 29.8587 491.031 30.0774 491.063 30.152C491.095 30.216 491.197 30.2587 491.367 30.28L492.247 30.392V30.84H487.943V30.392L488.823 30.28C488.994 30.2587 489.095 30.216 489.127 30.152C489.159 30.0774 489.175 29.8587 489.175 29.496V20.344C489.175 19.9814 489.159 19.768 489.127 19.704C489.095 19.6294 488.994 19.5814 488.823 19.56L487.943 19.448ZM8.25595 45.616V45.936C8.25595 47.1627 7.93595 48.1494 7.29595 48.896C6.66661 49.632 5.76528 50 4.59195 50C3.41861 50 2.51195 49.632 1.87195 48.896C1.24261 48.1494 0.927947 47.1627 0.927947 45.936V45.616C0.927947 44.3894 1.24261 43.408 1.87195 42.672C2.51195 41.936 3.41861 41.568 4.59195 41.568C5.76528 41.568 6.66661 41.936 7.29595 42.672C7.93595 43.408 8.25595 44.3894 8.25595 45.616ZM6.28795 45.296C6.28795 44.1547 6.14395 43.344 5.85595 42.864C5.56795 42.3734 5.14661 42.128 4.59195 42.128C4.04795 42.128 3.62661 42.3734 3.32795 42.864C3.03995 43.344 2.89595 44.1547 2.89595 45.296V46.256C2.89595 47.3867 3.03995 48.2027 3.32795 48.704C3.62661 49.1947 4.04795 49.44 4.59195 49.44C5.14661 49.44 5.56795 49.1947 5.85595 48.704C6.14395 48.2027 6.28795 47.3867 6.28795 46.256V45.296ZM12.1683 42.176V41.728H15.1443V43.04C15.795 42.0587 16.5683 41.568 17.4643 41.568C17.795 41.568 18.115 41.6747 18.4243 41.888C18.7337 42.0907 18.9897 42.4747 19.1923 43.04L17.7683 43.808C17.619 43.3707 17.443 43.0774 17.2403 42.928C17.0483 42.768 16.8403 42.688 16.6163 42.688C16.3817 42.688 16.1523 42.7627 15.9283 42.912C15.7043 43.0614 15.475 43.3387 15.2403 43.744V48.496C15.2403 48.8587 15.2563 49.0774 15.2883 49.152C15.3203 49.216 15.4217 49.2587 15.5923 49.28L16.7923 49.392V49.84H12.1683V49.392L13.0483 49.28C13.219 49.2587 13.3203 49.216 13.3523 49.152C13.3843 49.0774 13.4003 48.8587 13.4003 48.496V43.072C13.4003 42.7094 13.3843 42.496 13.3523 42.432C13.3203 42.3574 13.219 42.3094 13.0483 42.288L12.1683 42.176ZM36.7371 49.44C36.5664 49.6 36.3584 49.7334 36.1131 49.84C35.8784 49.9467 35.5904 50 35.2491 50C34.8117 50 34.4437 49.904 34.1451 49.712C33.8571 49.52 33.6651 49.248 33.5691 48.896C33.2171 49.28 32.8277 49.5627 32.4011 49.744C31.9851 49.9147 31.5584 50 31.1211 50C30.3851 50 29.8357 49.7974 29.4731 49.392C29.1104 48.976 28.9291 48.4587 28.9291 47.84C28.9291 47.2107 29.1584 46.704 29.6171 46.32C30.0757 45.9254 30.8864 45.728 32.0491 45.728H33.5051V44.432C33.5051 43.5467 33.3877 42.944 33.1531 42.624C32.9291 42.2934 32.6144 42.128 32.2091 42.128C31.9424 42.128 31.6971 42.1974 31.4731 42.336C31.2491 42.464 31.0891 42.7094 30.9931 43.072C30.9077 43.424 30.9237 43.936 31.0411 44.608L29.2811 44.352C29.1957 43.8614 29.2491 43.408 29.4411 42.992C29.6437 42.5654 29.9797 42.224 30.4491 41.968C30.9184 41.7014 31.5157 41.568 32.2411 41.568C33.0624 41.568 33.6971 41.7014 34.1451 41.968C34.5931 42.2347 34.9024 42.5867 35.0731 43.024C35.2544 43.4614 35.3451 43.9307 35.3451 44.432V48.128C35.3451 48.672 35.3931 49.0134 35.4891 49.152C35.5851 49.2907 35.6917 49.36 35.8091 49.36C36.0011 49.36 36.2144 49.248 36.4491 49.024L36.7371 49.44ZM31.8251 49.152C32.1024 49.152 32.3744 49.0827 32.6411 48.944C32.9184 48.7947 33.2064 48.5227 33.5051 48.128V46.288H32.3051C31.7824 46.288 31.4037 46.4107 31.1691 46.656C30.9344 46.9014 30.8171 47.2854 30.8171 47.808C30.8171 48.2347 30.9024 48.5654 31.0731 48.8C31.2437 49.0347 31.4944 49.152 31.8251 49.152ZM54.9406 49.392V49.84H51.9646V48.512C51.6659 49.0027 51.3299 49.376 50.9566 49.632C50.5939 49.8774 50.1619 50 49.6606 50C48.7646 50 48.0499 49.648 47.5166 48.944C46.9939 48.2294 46.7326 47.232 46.7326 45.952V45.632C46.7326 44.3947 47.0366 43.408 47.6446 42.672C48.2632 41.936 49.1059 41.568 50.1726 41.568C50.8126 41.568 51.3779 41.728 51.8686 42.048V39.344C51.8686 38.9814 51.8526 38.768 51.8206 38.704C51.7886 38.6294 51.6872 38.5814 51.5166 38.56L50.6366 38.448V38H53.7086V48.496C53.7086 48.8587 53.7246 49.0774 53.7566 49.152C53.7886 49.216 53.8899 49.2587 54.0606 49.28L54.9406 49.392ZM48.7006 46.432C48.7006 47.424 48.8232 48.1494 49.0686 48.608C49.3139 49.0667 49.6499 49.296 50.0766 49.296C50.3432 49.296 50.6206 49.1894 50.9086 48.976C51.2072 48.752 51.5272 48.304 51.8686 47.632V42.8C51.4632 42.3947 50.9672 42.192 50.3806 42.192C49.7939 42.192 49.3672 42.4587 49.1006 42.992C48.8339 43.5147 48.7006 44.2347 48.7006 45.152V46.432ZM58.2839 42.176V41.728H61.2599V43.04C61.9106 42.0587 62.6839 41.568 63.5799 41.568C63.9106 41.568 64.2306 41.6747 64.5399 41.888C64.8493 42.0907 65.1053 42.4747 65.3079 43.04L63.8839 43.808C63.7346 43.3707 63.5586 43.0774 63.3559 42.928C63.1639 42.768 62.9559 42.688 62.7319 42.688C62.4973 42.688 62.2679 42.7627 62.0439 42.912C61.8199 43.0614 61.5906 43.3387 61.3559 43.744V48.496C61.3559 48.8587 61.3719 49.0774 61.4039 49.152C61.4359 49.216 61.5373 49.2587 61.7079 49.28L62.9079 49.392V49.84H58.2839V49.392L59.1639 49.28C59.3346 49.2587 59.4359 49.216 59.4679 49.152C59.4999 49.0774 59.5159 48.8587 59.5159 48.496V43.072C59.5159 42.7094 59.4999 42.496 59.4679 42.432C59.4359 42.3574 59.3346 42.3094 59.1639 42.288L58.2839 42.176ZM70.5386 40.352C70.2079 40.352 69.9412 40.2507 69.7386 40.048C69.5359 39.8347 69.4346 39.5627 69.4346 39.232C69.4346 38.9014 69.5359 38.6347 69.7386 38.432C69.9412 38.2294 70.2079 38.128 70.5386 38.128C70.8586 38.128 71.1252 38.2294 71.3386 38.432C71.5519 38.6347 71.6586 38.9014 71.6586 39.232C71.6586 39.5627 71.5519 39.8347 71.3386 40.048C71.1252 40.2507 70.8586 40.352 70.5386 40.352ZM68.3946 42.176V41.728H71.4666V48.496C71.4666 48.8587 71.4826 49.0774 71.5146 49.152C71.5466 49.216 71.6479 49.2587 71.8186 49.28L72.6986 49.392V49.84H68.3946V49.392L69.2746 49.28C69.4452 49.2587 69.5466 49.216 69.5786 49.152C69.6106 49.0774 69.6266 48.8587 69.6266 48.496V43.072C69.6266 42.7094 69.6106 42.496 69.5786 42.432C69.5466 42.3574 69.4452 42.3094 69.2746 42.288L68.3946 42.176ZM85.4605 49.392V49.84H81.1564V49.392L82.0364 49.28C82.2071 49.2587 82.3084 49.216 82.3404 49.152C82.3724 49.0774 82.3884 48.8587 82.3884 48.496V44.464C82.3884 43.728 82.2764 43.1947 82.0524 42.864C81.8391 42.5227 81.5191 42.352 81.0924 42.352C80.9111 42.352 80.6978 42.4 80.4524 42.496C80.2178 42.5814 79.9778 42.7414 79.7324 42.976C79.4978 43.2107 79.2898 43.5574 79.1084 44.016V48.496C79.1084 48.8587 79.1244 49.0774 79.1564 49.152C79.1884 49.216 79.2898 49.2587 79.4604 49.28L80.3404 49.392V49.84H76.0364V49.392L76.9164 49.28C77.0871 49.2587 77.1884 49.216 77.2204 49.152C77.2524 49.0774 77.2684 48.8587 77.2684 48.496V43.072C77.2684 42.7094 77.2524 42.496 77.2204 42.432C77.1884 42.3574 77.0871 42.3094 76.9164 42.288L76.0364 42.176V41.728H79.0124V43.136C79.3218 42.592 79.7164 42.1974 80.1964 41.952C80.6871 41.696 81.1778 41.568 81.6684 41.568C82.4578 41.568 83.0818 41.8187 83.5404 42.32C83.9991 42.8214 84.2284 43.5307 84.2284 44.448V48.496C84.2284 48.8587 84.2444 49.0774 84.2765 49.152C84.3084 49.216 84.4098 49.2587 84.5805 49.28L85.4605 49.392ZM88.6132 38.448V38H91.6852V45.76L94.5012 43.072C94.8745 42.72 95.0719 42.5067 95.0932 42.432C95.1252 42.3574 95.0505 42.3094 94.8692 42.288L93.9892 42.176V41.728H97.2692V42.176L96.3892 42.288C96.2932 42.2987 96.2132 42.32 96.1492 42.352C96.0852 42.384 95.9945 42.4534 95.8772 42.56C95.7599 42.656 95.5732 42.8267 95.3172 43.072L93.7812 44.544L96.0532 48.496C96.2025 48.7414 96.3145 48.9174 96.3892 49.024C96.4639 49.12 96.5332 49.184 96.5972 49.216C96.6719 49.2374 96.7625 49.2587 96.8692 49.28L97.7492 49.392V49.84H94.6932L92.4692 45.792L91.6852 46.544V48.496C91.6852 48.8587 91.7012 49.0774 91.7332 49.152C91.7652 49.216 91.8665 49.2587 92.0372 49.28L92.9172 49.392V49.84H88.6132V49.392L89.4932 49.28C89.6639 49.2587 89.7652 49.216 89.7972 49.152C89.8292 49.0774 89.8452 48.8587 89.8452 48.496V39.344C89.8452 38.9814 89.8292 38.768 89.7972 38.704C89.7652 38.6294 89.6639 38.5814 89.4932 38.56L88.6132 38.448Z" fill="#110101"/>
</svg>
