<svg width="172" height="81" viewBox="0 0 172 81" fill="none" xmlns="http://www.w3.org/2000/svg">
<path d="M28.4754 16.896V17.568H23.8434V16.896L25.1634 16.728C25.3394 16.696 25.4674 16.664 25.5474 16.632C25.6274 16.584 25.6994 16.48 25.7634 16.32C25.8274 16.16 25.9154 15.904 26.0274 15.552L30.6114 1.24799H32.6754L37.2834 15.552C37.3954 15.904 37.4834 16.16 37.5474 16.32C37.6114 16.48 37.6834 16.584 37.7634 16.632C37.8594 16.664 37.9874 16.696 38.1474 16.728L39.4674 16.896V17.568H32.8434V16.896L34.1634 16.728C34.4194 16.696 34.5554 16.632 34.5714 16.536C34.6034 16.424 34.5314 16.096 34.3554 15.552L33.4434 12.576H27.8994L26.9634 15.552C26.8034 16.096 26.7314 16.424 26.7474 16.536C26.7634 16.632 26.8994 16.696 27.1554 16.728L28.4754 16.896ZM28.1874 11.736H33.1794L30.7074 3.76799L28.1874 11.736ZM46.4435 17.808C45.9475 17.808 45.5395 17.656 45.2195 17.352C44.9155 17.032 44.7635 16.616 44.7635 16.104C44.7635 15.592 44.9155 15.184 45.2195 14.88C45.5395 14.576 45.9475 14.424 46.4435 14.424C46.9395 14.424 47.3475 14.576 47.6675 14.88C47.9875 15.184 48.1475 15.592 48.1475 16.104C48.1475 16.616 47.9875 17.032 47.6675 17.352C47.3475 17.656 46.9395 17.808 46.4435 17.808ZM64.0719 1.91999V1.24799H71.1519C73.1999 1.24799 74.7679 1.84799 75.8559 3.04799C76.9599 4.24799 77.5119 6.11199 77.5119 8.63999V10.152C77.5119 12.68 76.9599 14.552 75.8559 15.768C74.7679 16.968 73.1999 17.568 71.1519 17.568H64.0719V16.896L65.3919 16.728C65.6479 16.696 65.7999 16.632 65.8479 16.536C65.8959 16.424 65.9199 16.096 65.9199 15.552V3.26399C65.9199 2.71999 65.8959 2.39999 65.8479 2.30399C65.7999 2.19199 65.6479 2.11999 65.3919 2.08799L64.0719 1.91999ZM71.0319 2.08799H68.7999V16.728H71.0319C71.8479 16.728 72.5039 16.592 72.9999 16.32C73.4959 16.032 73.8559 15.504 74.0799 14.736C74.3199 13.952 74.4399 12.824 74.4399 11.352V7.43999C74.4399 5.96799 74.3199 4.84799 74.0799 4.07999C73.8559 3.31199 73.4959 2.79199 72.9999 2.51999C72.5039 2.23199 71.8479 2.08799 71.0319 2.08799ZM95.4146 11.232V11.712C95.4146 13.552 94.9346 15.032 93.9746 16.152C93.0306 17.256 91.6786 17.808 89.9186 17.808C88.1586 17.808 86.7986 17.256 85.8386 16.152C84.8946 15.032 84.4226 13.552 84.4226 11.712V11.232C84.4226 9.39199 84.8946 7.91999 85.8386 6.81599C86.7986 5.71199 88.1586 5.15999 89.9186 5.15999C91.6786 5.15999 93.0306 5.71199 93.9746 6.81599C94.9346 7.91999 95.4146 9.39199 95.4146 11.232ZM92.4626 10.752C92.4626 9.03999 92.2466 7.82399 91.8146 7.10399C91.3826 6.36799 90.7506 5.99999 89.9186 5.99999C89.1026 5.99999 88.4706 6.36799 88.0226 7.10399C87.5906 7.82399 87.3746 9.03999 87.3746 10.752V12.192C87.3746 13.888 87.5906 15.112 88.0226 15.864C88.4706 16.6 89.1026 16.968 89.9186 16.968C90.7506 16.968 91.3826 16.6 91.8146 15.864C92.2466 15.112 92.4626 13.888 92.4626 12.192V10.752ZM104.499 3.33599C104.003 3.33599 103.603 3.18399 103.299 2.87999C102.995 2.55999 102.843 2.15199 102.843 1.65599C102.843 1.15999 102.995 0.759993 103.299 0.455992C103.603 0.151992 104.003 -8.10623e-06 104.499 -8.10623e-06C104.979 -8.10623e-06 105.379 0.151992 105.699 0.455992C106.019 0.759993 106.179 1.15999 106.179 1.65599C106.179 2.15199 106.019 2.55999 105.699 2.87999C105.379 3.18399 104.979 3.33599 104.499 3.33599ZM101.283 6.07199V5.39999H105.891V15.552C105.891 16.096 105.915 16.424 105.963 16.536C106.011 16.632 106.163 16.696 106.419 16.728L107.739 16.896V17.568H101.283V16.896L102.603 16.728C102.859 16.696 103.011 16.632 103.059 16.536C103.107 16.424 103.131 16.096 103.131 15.552V7.41599C103.131 6.87199 103.107 6.55199 103.059 6.45599C103.011 6.34399 102.859 6.27199 102.603 6.23999L101.283 6.07199ZM126.882 16.896V17.568H120.426V16.896L121.746 16.728C122.002 16.696 122.154 16.632 122.202 16.536C122.25 16.424 122.274 16.096 122.274 15.552V9.50399C122.274 8.39999 122.106 7.59999 121.77 7.10399C121.45 6.59199 120.97 6.33599 120.33 6.33599C120.058 6.33599 119.738 6.40799 119.37 6.55199C119.018 6.67999 118.658 6.91999 118.29 7.27199C117.938 7.62399 117.626 8.14399 117.354 8.83199V15.552C117.354 16.096 117.378 16.424 117.426 16.536C117.474 16.632 117.626 16.696 117.882 16.728L119.202 16.896V17.568H112.746V16.896L114.066 16.728C114.322 16.696 114.474 16.632 114.522 16.536C114.57 16.424 114.594 16.096 114.594 15.552V7.41599C114.594 6.87199 114.57 6.55199 114.522 6.45599C114.474 6.34399 114.322 6.27199 114.066 6.23999L112.746 6.07199V5.39999H117.21V7.51199C117.674 6.69599 118.266 6.10399 118.986 5.73599C119.722 5.35199 120.458 5.15999 121.194 5.15999C122.378 5.15999 123.314 5.53599 124.002 6.28799C124.69 7.03999 125.034 8.10399 125.034 9.47999V15.552C125.034 16.096 125.058 16.424 125.106 16.536C125.154 16.632 125.306 16.696 125.562 16.728L126.882 16.896ZM143.491 18.816C143.491 20.128 142.995 21.136 142.003 21.84C141.027 22.56 139.683 22.92 137.971 22.92C136.083 22.92 134.675 22.608 133.747 21.984C132.819 21.376 132.315 20.616 132.235 19.704L134.803 19.296C134.739 20.144 134.939 20.816 135.403 21.312C135.883 21.824 136.739 22.08 137.971 22.08C139.123 22.08 140.051 21.864 140.755 21.432C141.475 21 141.835 20.376 141.835 19.56C141.835 18.984 141.619 18.544 141.187 18.24C140.771 17.952 140.075 17.808 139.099 17.808H136.363C135.515 17.808 134.843 17.688 134.347 17.448C133.867 17.208 133.531 16.912 133.339 16.56C133.147 16.192 133.051 15.816 133.051 15.432C133.051 14.968 133.179 14.512 133.435 14.064C133.691 13.6 134.131 13.144 134.755 12.696C134.067 12.392 133.507 11.944 133.075 11.352C132.643 10.76 132.427 10.024 132.427 9.14399C132.427 8.24799 132.635 7.51199 133.051 6.93599C133.467 6.34399 134.027 5.90399 134.731 5.61599C135.435 5.31199 136.219 5.15999 137.083 5.15999H137.491C138.419 5.15999 139.219 5.31199 139.891 5.61599L143.347 3.91199L143.635 6.26399H140.899C141.283 6.59999 141.579 7.00799 141.787 7.48799C142.011 7.95199 142.123 8.50399 142.123 9.14399C142.123 10.008 141.915 10.736 141.499 11.328C141.083 11.92 140.523 12.368 139.819 12.672C139.131 12.976 138.355 13.128 137.491 13.128H137.083C136.603 13.128 136.131 13.08 135.667 12.984C135.267 13.256 134.987 13.52 134.827 13.776C134.683 14.016 134.611 14.248 134.611 14.472C134.611 14.728 134.723 14.92 134.947 15.048C135.187 15.176 135.571 15.24 136.099 15.24H139.219C140.595 15.24 141.651 15.552 142.387 16.176C143.123 16.784 143.491 17.664 143.491 18.816ZM137.491 12.288C138.003 12.288 138.443 12.064 138.811 11.616C139.179 11.168 139.363 10.344 139.363 9.14399C139.363 7.94399 139.179 7.11999 138.811 6.67199C138.443 6.22399 138.003 5.99999 137.491 5.99999H137.083C136.571 5.99999 136.123 6.22399 135.739 6.67199C135.371 7.11999 135.187 7.94399 135.187 9.14399C135.187 10.344 135.371 11.168 135.739 11.616C136.123 12.064 136.571 12.288 137.083 12.288H137.491ZM23.442 47.768C23.074 48.776 22.666 49.584 22.218 50.192C21.786 50.8 21.25 51.24 20.61 51.512C19.97 51.784 19.17 51.92 18.21 51.92V49.28C19.186 49.28 19.97 49.208 20.562 49.064C21.17 48.936 21.634 48.72 21.954 48.416C22.29 48.128 22.538 47.752 22.698 47.288L22.938 46.568H21.69L18.282 36.416C18.17 36.048 18.074 35.792 17.994 35.648C17.93 35.488 17.85 35.384 17.754 35.336C17.674 35.288 17.546 35.256 17.37 35.24L16.05 35.072V34.4H22.53V35.072L21.21 35.24C21.018 35.256 20.898 35.32 20.85 35.432C20.818 35.528 20.89 35.856 21.066 36.416L23.682 44.336L26.394 36.32C26.57 35.808 26.642 35.512 26.61 35.432C26.594 35.336 26.466 35.272 26.226 35.24L24.906 35.072V34.4H29.49V35.072L28.17 35.24C27.93 35.272 27.77 35.336 27.69 35.432C27.61 35.528 27.482 35.824 27.306 36.32L23.442 47.768ZM44.8416 40.232V40.712C44.8416 42.552 44.3616 44.032 43.4016 45.152C42.4576 46.256 41.1056 46.808 39.3456 46.808C37.5856 46.808 36.2256 46.256 35.2656 45.152C34.3216 44.032 33.8496 42.552 33.8496 40.712V40.232C33.8496 38.392 34.3216 36.92 35.2656 35.816C36.2256 34.712 37.5856 34.16 39.3456 34.16C41.1056 34.16 42.4576 34.712 43.4016 35.816C44.3616 36.92 44.8416 38.392 44.8416 40.232ZM41.8896 39.752C41.8896 38.04 41.6736 36.824 41.2416 36.104C40.8096 35.368 40.1776 35 39.3456 35C38.5296 35 37.8976 35.368 37.4496 36.104C37.0176 36.824 36.8016 38.04 36.8016 39.752V41.192C36.8016 42.888 37.0176 44.112 37.4496 44.864C37.8976 45.6 38.5296 45.968 39.3456 45.968C40.1776 45.968 40.8096 45.6 41.2416 44.864C41.6736 44.112 41.8896 42.888 41.8896 41.192V39.752ZM64.3182 45.896V46.568H59.8542V44.456C59.4062 45.272 58.8302 45.872 58.1262 46.256C57.4222 46.624 56.7102 46.808 55.9902 46.808C54.8542 46.808 53.9502 46.432 53.2782 45.68C52.6062 44.912 52.2702 43.848 52.2702 42.488V36.416C52.2702 35.872 52.2462 35.552 52.1982 35.456C52.1502 35.344 51.9982 35.272 51.7422 35.24L50.4222 35.072V34.4H55.0302V42.464C55.0302 43.568 55.1822 44.376 55.4862 44.888C55.8062 45.384 56.2622 45.632 56.8542 45.632C57.1102 45.632 57.4062 45.568 57.7422 45.44C58.0942 45.296 58.4462 45.048 58.7982 44.696C59.1502 44.328 59.4542 43.808 59.7102 43.136V36.416C59.7102 35.872 59.6862 35.544 59.6382 35.432C59.5902 35.32 59.4382 35.256 59.1822 35.24L57.3822 35.072V34.4H62.4702V44.552C62.4702 45.096 62.4942 45.424 62.5422 45.536C62.5902 45.632 62.7422 45.696 62.9982 45.728L64.3182 45.896ZM69.3448 35.072V34.4H73.8088V36.368C74.7848 34.896 75.9448 34.16 77.2888 34.16C77.7848 34.16 78.2648 34.32 78.7288 34.64C79.1928 34.944 79.5768 35.52 79.8808 36.368L77.7448 37.52C77.5208 36.864 77.2568 36.424 76.9528 36.2C76.6648 35.96 76.3528 35.84 76.0168 35.84C75.6648 35.84 75.3208 35.952 74.9848 36.176C74.6488 36.4 74.3048 36.816 73.9528 37.424V44.552C73.9528 45.096 73.9768 45.424 74.0248 45.536C74.0728 45.632 74.2248 45.696 74.4808 45.728L76.2808 45.896V46.568H69.3448V45.896L70.6648 45.728C70.9208 45.696 71.0728 45.632 71.1208 45.536C71.1688 45.424 71.1928 45.096 71.1928 44.552V36.416C71.1928 35.872 71.1688 35.552 71.1208 35.456C71.0728 35.344 70.9208 35.272 70.6648 35.24L69.3448 35.072ZM107.926 45.896V46.568H101.47V45.896L102.79 45.728C103.046 45.696 103.198 45.632 103.246 45.536C103.294 45.424 103.318 45.096 103.318 44.552V38.504C103.318 37.4 103.15 36.6 102.814 36.104C102.494 35.592 102.014 35.336 101.374 35.336C101.102 35.336 100.782 35.408 100.414 35.552C100.062 35.68 99.702 35.92 99.334 36.272C98.982 36.624 98.67 37.144 98.398 37.832V44.552C98.398 45.096 98.422 45.424 98.47 45.536C98.518 45.632 98.67 45.696 98.926 45.728L100.246 45.896V46.568H93.79V45.896L95.11 45.728C95.366 45.696 95.518 45.632 95.566 45.536C95.614 45.424 95.638 45.096 95.638 44.552V30.824C95.638 30.28 95.614 29.96 95.566 29.864C95.518 29.752 95.366 29.68 95.11 29.648L93.79 29.48V28.808H98.398V36.272C98.862 35.536 99.438 35 100.126 34.664C100.83 34.328 101.534 34.16 102.238 34.16C103.422 34.16 104.358 34.536 105.046 35.288C105.734 36.04 106.078 37.104 106.078 38.48V44.552C106.078 45.096 106.102 45.424 106.15 45.536C106.198 45.632 106.35 45.696 106.606 45.728L107.926 45.896ZM125.067 45.968C124.811 46.208 124.499 46.408 124.131 46.568C123.779 46.728 123.347 46.808 122.835 46.808C122.179 46.808 121.627 46.664 121.179 46.376C120.747 46.088 120.459 45.68 120.315 45.152C119.787 45.728 119.203 46.152 118.563 46.424C117.939 46.68 117.299 46.808 116.643 46.808C115.539 46.808 114.715 46.504 114.171 45.896C113.627 45.272 113.355 44.496 113.355 43.568C113.355 42.624 113.699 41.864 114.387 41.288C115.075 40.696 116.291 40.4 118.035 40.4H120.219V38.456C120.219 37.128 120.043 36.224 119.691 35.744C119.355 35.248 118.883 35 118.275 35C117.875 35 117.507 35.104 117.171 35.312C116.835 35.504 116.595 35.872 116.451 36.416C116.323 36.944 116.347 37.712 116.523 38.72L113.883 38.336C113.755 37.6 113.835 36.92 114.123 36.296C114.427 35.656 114.931 35.144 115.635 34.76C116.339 34.36 117.235 34.16 118.323 34.16C119.555 34.16 120.507 34.36 121.179 34.76C121.851 35.16 122.315 35.688 122.571 36.344C122.843 37 122.979 37.704 122.979 38.456V44C122.979 44.816 123.051 45.328 123.195 45.536C123.339 45.744 123.499 45.848 123.675 45.848C123.963 45.848 124.283 45.68 124.635 45.344L125.067 45.968ZM117.699 45.536C118.115 45.536 118.523 45.432 118.923 45.224C119.339 45 119.771 44.592 120.219 44V41.24H118.419C117.635 41.24 117.067 41.424 116.715 41.792C116.363 42.16 116.187 42.736 116.187 43.52C116.187 44.16 116.315 44.656 116.571 45.008C116.827 45.36 117.203 45.536 117.699 45.536ZM133.037 32.336C132.541 32.336 132.141 32.184 131.837 31.88C131.533 31.56 131.381 31.152 131.381 30.656C131.381 30.16 131.533 29.76 131.837 29.456C132.141 29.152 132.541 29 133.037 29C133.517 29 133.917 29.152 134.237 29.456C134.557 29.76 134.717 30.16 134.717 30.656C134.717 31.152 134.557 31.56 134.237 31.88C133.917 32.184 133.517 32.336 133.037 32.336ZM129.821 35.072V34.4H134.429V44.552C134.429 45.096 134.453 45.424 134.501 45.536C134.549 45.632 134.701 45.696 134.957 45.728L136.277 45.896V46.568H129.821V45.896L131.141 45.728C131.397 45.696 131.549 45.632 131.597 45.536C131.645 45.424 131.669 45.096 131.669 44.552V36.416C131.669 35.872 131.645 35.552 131.597 35.456C131.549 35.344 131.397 35.272 131.141 35.24L129.821 35.072ZM141.284 35.072V34.4H145.748V36.368C146.724 34.896 147.884 34.16 149.228 34.16C149.724 34.16 150.204 34.32 150.668 34.64C151.132 34.944 151.516 35.52 151.82 36.368L149.684 37.52C149.46 36.864 149.196 36.424 148.892 36.2C148.604 35.96 148.292 35.84 147.956 35.84C147.604 35.84 147.26 35.952 146.924 36.176C146.588 36.4 146.244 36.816 145.892 37.424V44.552C145.892 45.096 145.916 45.424 145.964 45.536C146.012 45.632 146.164 45.696 146.42 45.728L148.22 45.896V46.568H141.284V45.896L142.604 45.728C142.86 45.696 143.012 45.632 143.06 45.536C143.108 45.424 143.132 45.096 143.132 44.552V36.416C143.132 35.872 143.108 35.552 143.06 35.456C143.012 35.344 142.86 35.272 142.604 35.24L141.284 35.072ZM11.712 74.968C11.456 75.208 11.144 75.408 10.776 75.568C10.424 75.728 9.99203 75.808 9.48003 75.808C8.82403 75.808 8.27203 75.664 7.82403 75.376C7.39203 75.088 7.10403 74.68 6.96003 74.152C6.43203 74.728 5.84803 75.152 5.20803 75.424C4.58403 75.68 3.94403 75.808 3.28803 75.808C2.18403 75.808 1.36003 75.504 0.816029 74.896C0.272029 74.272 2.87294e-05 73.496 2.87294e-05 72.568C2.87294e-05 71.624 0.344029 70.864 1.03203 70.288C1.72003 69.696 2.93603 69.4 4.68003 69.4H6.86403V67.456C6.86403 66.128 6.68803 65.224 6.33603 64.744C6.00003 64.248 5.52803 64 4.92003 64C4.52003 64 4.15203 64.104 3.81603 64.312C3.48003 64.504 3.24003 64.872 3.09603 65.416C2.96803 65.944 2.99203 66.712 3.16803 67.72L0.528029 67.336C0.400029 66.6 0.480029 65.92 0.768029 65.296C1.07203 64.656 1.57603 64.144 2.28003 63.76C2.98403 63.36 3.88003 63.16 4.96803 63.16C6.20003 63.16 7.15203 63.36 7.82403 63.76C8.49603 64.16 8.96003 64.688 9.21603 65.344C9.48803 66 9.62403 66.704 9.62403 67.456V73C9.62403 73.816 9.69603 74.328 9.84003 74.536C9.98403 74.744 10.144 74.848 10.32 74.848C10.608 74.848 10.928 74.68 11.28 74.344L11.712 74.968ZM4.34403 74.536C4.76003 74.536 5.16803 74.432 5.56803 74.224C5.98403 74 6.41603 73.592 6.86403 73V70.24H5.06403C4.28003 70.24 3.71203 70.424 3.36003 70.792C3.00803 71.16 2.83203 71.736 2.83203 72.52C2.83203 73.16 2.96003 73.656 3.21603 74.008C3.47203 74.36 3.84803 74.536 4.34403 74.536ZM30.6021 74.896V75.568H24.1461V74.896L25.4661 74.728C25.7221 74.696 25.8741 74.632 25.9221 74.536C25.9701 74.424 25.9941 74.096 25.9941 73.552V67.504C25.9941 66.4 25.8261 65.6 25.4901 65.104C25.1701 64.592 24.6901 64.336 24.0501 64.336C23.7781 64.336 23.4581 64.408 23.0901 64.552C22.7381 64.68 22.3781 64.92 22.0101 65.272C21.6581 65.624 21.3461 66.144 21.0741 66.832V73.552C21.0741 74.096 21.0981 74.424 21.1461 74.536C21.1941 74.632 21.3461 74.696 21.6021 74.728L22.9221 74.896V75.568H16.4661V74.896L17.7861 74.728C18.0421 74.696 18.1941 74.632 18.2421 74.536C18.2901 74.424 18.3141 74.096 18.3141 73.552V65.416C18.3141 64.872 18.2901 64.552 18.2421 64.456C18.1941 64.344 18.0421 64.272 17.7861 64.24L16.4661 64.072V63.4H20.9301V65.512C21.3941 64.696 21.9861 64.104 22.7061 63.736C23.4421 63.352 24.1781 63.16 24.9141 63.16C26.0981 63.16 27.0341 63.536 27.7221 64.288C28.4101 65.04 28.7541 66.104 28.7541 67.48V73.552C28.7541 74.096 28.7781 74.424 28.8261 74.536C28.8741 74.632 29.0261 74.696 29.2821 74.728L30.6021 74.896ZM48.6032 74.896V75.568H44.1392V73.576C43.6912 74.312 43.1872 74.872 42.6272 75.256C42.0832 75.624 41.4352 75.808 40.6832 75.808C39.3392 75.808 38.2672 75.28 37.4672 74.224C36.6832 73.152 36.2912 71.656 36.2912 69.736V69.256C36.2912 67.4 36.7472 65.92 37.6592 64.816C38.5872 63.712 39.8512 63.16 41.4512 63.16C42.4112 63.16 43.2592 63.4 43.9952 63.88V59.824C43.9952 59.28 43.9712 58.96 43.9232 58.864C43.8752 58.752 43.7232 58.68 43.4672 58.648L42.1472 58.48V57.808H46.7552V73.552C46.7552 74.096 46.7792 74.424 46.8272 74.536C46.8752 74.632 47.0272 74.696 47.2832 74.728L48.6032 74.896ZM39.2432 70.456C39.2432 71.944 39.4272 73.032 39.7952 73.72C40.1632 74.408 40.6672 74.752 41.3072 74.752C41.7072 74.752 42.1232 74.592 42.5552 74.272C43.0032 73.936 43.4832 73.264 43.9952 72.256V65.008C43.3872 64.4 42.6432 64.096 41.7632 64.096C40.8832 64.096 40.2432 64.496 39.8432 65.296C39.4432 66.08 39.2432 67.16 39.2432 68.536V70.456ZM76.9615 74.896V75.568H70.5055V74.896L71.8255 74.728C72.0815 74.696 72.2335 74.632 72.2815 74.536C72.3295 74.424 72.3535 74.096 72.3535 73.552V67.504C72.3535 66.4 72.2015 65.6 71.8975 65.104C71.5935 64.592 71.1375 64.336 70.5295 64.336C70.2735 64.336 69.9695 64.408 69.6175 64.552C69.2655 64.68 68.9135 64.92 68.5615 65.272C68.2255 65.624 67.9295 66.144 67.6735 66.832V73.552C67.6735 74.096 67.6975 74.424 67.7455 74.536C67.7935 74.632 67.9455 74.696 68.2015 74.728L69.5215 74.896V75.568H63.0655V74.896L64.3855 74.728C64.6415 74.696 64.7935 74.632 64.8415 74.536C64.8895 74.424 64.9135 74.096 64.9135 73.552V65.416C64.9135 64.872 64.8895 64.552 64.8415 64.456C64.7935 64.344 64.6415 64.272 64.3855 64.24L63.0655 64.072V63.4H67.5295V65.512C67.9775 64.696 68.5535 64.104 69.2575 63.736C69.9615 63.352 70.6735 63.16 71.3935 63.16C72.2575 63.16 72.9855 63.384 73.5775 63.832C74.1855 64.264 74.6175 64.888 74.8735 65.704C75.3055 64.808 75.8895 64.16 76.6255 63.76C77.3615 63.36 78.0975 63.16 78.8335 63.16C79.9695 63.16 80.8735 63.536 81.5455 64.288C82.2175 65.04 82.5535 66.104 82.5535 67.48V73.552C82.5535 74.096 82.5775 74.424 82.6255 74.536C82.6735 74.632 82.8255 74.696 83.0815 74.728L84.4015 74.896V75.568H77.9455V74.896L79.2655 74.728C79.5215 74.696 79.6735 74.632 79.7215 74.536C79.7695 74.424 79.7935 74.096 79.7935 73.552V67.504C79.7935 66.4 79.6415 65.6 79.3375 65.104C79.0335 64.592 78.5775 64.336 77.9695 64.336C77.7135 64.336 77.4095 64.408 77.0575 64.552C76.7055 64.68 76.3535 64.928 76.0015 65.296C75.6495 65.664 75.3455 66.2 75.0895 66.904C75.1055 66.984 75.1135 67.08 75.1135 67.192C75.1135 67.288 75.1135 67.384 75.1135 67.48V73.552C75.1135 74.096 75.1375 74.424 75.1855 74.536C75.2335 74.632 75.3855 74.696 75.6415 74.728L76.9615 74.896ZM101.534 74.968C101.278 75.208 100.966 75.408 100.598 75.568C100.246 75.728 99.8139 75.808 99.3019 75.808C98.6459 75.808 98.0939 75.664 97.6459 75.376C97.2139 75.088 96.9259 74.68 96.7819 74.152C96.2539 74.728 95.6699 75.152 95.0299 75.424C94.4059 75.68 93.7659 75.808 93.1099 75.808C92.0059 75.808 91.1819 75.504 90.6379 74.896C90.0939 74.272 89.8219 73.496 89.8219 72.568C89.8219 71.624 90.1659 70.864 90.8539 70.288C91.5419 69.696 92.7579 69.4 94.5019 69.4H96.6859V67.456C96.6859 66.128 96.5099 65.224 96.1579 64.744C95.8219 64.248 95.3499 64 94.7419 64C94.3419 64 93.9739 64.104 93.6379 64.312C93.3019 64.504 93.0619 64.872 92.9179 65.416C92.7899 65.944 92.8139 66.712 92.9899 67.72L90.3499 67.336C90.2219 66.6 90.3019 65.92 90.5899 65.296C90.8939 64.656 91.3979 64.144 92.1019 63.76C92.8059 63.36 93.7019 63.16 94.7899 63.16C96.0219 63.16 96.9739 63.36 97.6459 63.76C98.3179 64.16 98.7819 64.688 99.0379 65.344C99.3099 66 99.4459 66.704 99.4459 67.456V73C99.4459 73.816 99.5179 74.328 99.6619 74.536C99.8059 74.744 99.9659 74.848 100.142 74.848C100.43 74.848 100.75 74.68 101.102 74.344L101.534 74.968ZM94.1659 74.536C94.5819 74.536 94.9899 74.432 95.3899 74.224C95.8059 74 96.2379 73.592 96.6859 73V70.24H94.8859C94.1019 70.24 93.5339 70.424 93.1819 70.792C92.8299 71.16 92.6539 71.736 92.6539 72.52C92.6539 73.16 92.7819 73.656 93.0379 74.008C93.2939 74.36 93.6699 74.536 94.1659 74.536ZM106.12 58.48V57.808H110.728V69.448L114.952 65.416C115.512 64.888 115.808 64.568 115.84 64.456C115.888 64.344 115.776 64.272 115.504 64.24L114.184 64.072V63.4H119.104V64.072L117.784 64.24C117.64 64.256 117.52 64.288 117.424 64.336C117.328 64.384 117.192 64.488 117.016 64.648C116.84 64.792 116.56 65.048 116.176 65.416L113.872 67.624L117.28 73.552C117.504 73.92 117.672 74.184 117.784 74.344C117.896 74.488 118 74.584 118.096 74.632C118.208 74.664 118.344 74.696 118.504 74.728L119.824 74.896V75.568H115.24L111.904 69.496L110.728 70.624V73.552C110.728 74.096 110.752 74.424 110.8 74.536C110.848 74.632 111 74.696 111.256 74.728L112.576 74.896V75.568H106.12V74.896L107.44 74.728C107.696 74.696 107.848 74.632 107.896 74.536C107.944 74.424 107.968 74.096 107.968 73.552V59.824C107.968 59.28 107.944 58.96 107.896 58.864C107.848 58.752 107.696 58.68 107.44 58.648L106.12 58.48ZM135.067 72.712C134.779 73.832 134.243 74.632 133.459 75.112C132.675 75.576 131.763 75.808 130.723 75.808C128.803 75.808 127.363 75.256 126.403 74.152C125.443 73.032 124.963 71.552 124.963 69.712V69.232C124.963 67.392 125.411 65.92 126.307 64.816C127.219 63.712 128.531 63.16 130.243 63.16C131.203 63.16 132.051 63.352 132.787 63.736C133.539 64.104 134.123 64.64 134.539 65.344C134.971 66.048 135.187 66.904 135.187 67.912C135.187 68.152 135.171 68.408 135.139 68.68C135.123 68.952 135.083 69.224 135.019 69.496H127.915V70.192C127.915 71.888 128.155 73.112 128.635 73.864C129.115 74.6 129.891 74.968 130.963 74.968C131.651 74.968 132.235 74.768 132.715 74.368C133.195 73.952 133.467 73.256 133.531 72.28L135.067 72.712ZM130.243 64C129.459 64 128.875 64.36 128.491 65.08C128.107 65.8 127.915 66.992 127.915 68.656H132.259C132.323 68.336 132.363 68.04 132.379 67.768C132.411 67.48 132.427 67.216 132.427 66.976C132.427 65.952 132.227 65.2 131.827 64.72C131.427 64.24 130.899 64 130.243 64ZM154.634 74.896V75.568H150.17V73.456C149.722 74.272 149.146 74.872 148.442 75.256C147.738 75.624 147.026 75.808 146.306 75.808C145.17 75.808 144.266 75.432 143.594 74.68C142.922 73.912 142.586 72.848 142.586 71.488V65.416C142.586 64.872 142.562 64.552 142.514 64.456C142.466 64.344 142.314 64.272 142.058 64.24L140.738 64.072V63.4H145.346V71.464C145.346 72.568 145.498 73.376 145.802 73.888C146.122 74.384 146.578 74.632 147.17 74.632C147.426 74.632 147.722 74.568 148.058 74.44C148.41 74.296 148.762 74.048 149.114 73.696C149.466 73.328 149.77 72.808 150.026 72.136V65.416C150.026 64.872 150.002 64.544 149.954 64.432C149.906 64.32 149.754 64.256 149.498 64.24L147.698 64.072V63.4H152.786V73.552C152.786 74.096 152.81 74.424 152.858 74.536C152.906 74.632 153.058 74.696 153.314 74.728L154.634 74.896ZM159.493 64.072V63.4H163.957V65.392C164.421 64.64 164.925 64.08 165.469 63.712C166.013 63.344 166.661 63.16 167.413 63.16C168.757 63.16 169.821 63.696 170.605 64.768C171.405 65.824 171.805 67.312 171.805 69.232V69.712C171.805 71.568 171.349 73.048 170.437 74.152C169.525 75.256 168.261 75.808 166.645 75.808C165.685 75.808 164.837 75.568 164.101 75.088V78.664C164.101 79.208 164.125 79.528 164.173 79.624C164.221 79.736 164.373 79.808 164.629 79.84L166.429 80.008V80.68H159.493V80.008L160.813 79.84C161.069 79.808 161.221 79.736 161.269 79.624C161.317 79.528 161.341 79.208 161.341 78.664V65.416C161.341 64.872 161.317 64.552 161.269 64.456C161.221 64.344 161.069 64.272 160.813 64.24L159.493 64.072ZM166.789 64.216C166.389 64.216 165.965 64.384 165.517 64.72C165.085 65.04 164.613 65.704 164.101 66.712V73.96C164.709 74.568 165.453 74.872 166.333 74.872C167.229 74.872 167.869 74.48 168.253 73.696C168.653 72.896 168.853 71.808 168.853 70.432V68.512C168.853 67.024 168.669 65.936 168.301 65.248C167.933 64.56 167.429 64.216 166.789 64.216Z" fill="black"/>
</svg>
