<svg width="199" height="18" viewBox="0 0 199 18" fill="none" xmlns="http://www.w3.org/2000/svg">
<path d="M4.63203 17.088V17.76H2.77087e-05V17.088L1.32003 16.92C1.49603 16.888 1.62403 16.856 1.70403 16.824C1.78403 16.776 1.85603 16.672 1.92003 16.512C1.98403 16.352 2.07203 16.096 2.18403 15.744L6.76803 1.44001H8.83203L13.44 15.744C13.552 16.096 13.64 16.352 13.704 16.512C13.768 16.672 13.84 16.776 13.92 16.824C14.016 16.856 14.144 16.888 14.304 16.92L15.624 17.088V17.76H9.00003V17.088L10.32 16.92C10.576 16.888 10.712 16.824 10.728 16.728C10.76 16.616 10.688 16.288 10.512 15.744L9.60003 12.768H4.05603L3.12003 15.744C2.96003 16.288 2.88803 16.616 2.90403 16.728C2.92003 16.824 3.05603 16.888 3.31203 16.92L4.63203 17.088ZM4.34403 11.928H9.33603L6.86403 3.96001L4.34403 11.928ZM22.6002 18C22.1042 18 21.6962 17.848 21.3762 17.544C21.0722 17.224 20.9202 16.808 20.9202 16.296C20.9202 15.784 21.0722 15.376 21.3762 15.072C21.6962 14.768 22.1042 14.616 22.6002 14.616C23.0962 14.616 23.5042 14.768 23.8242 15.072C24.1442 15.376 24.3042 15.784 24.3042 16.296C24.3042 16.808 24.1442 17.224 23.8242 17.544C23.5042 17.848 23.0962 18 22.6002 18ZM59.0685 17.088V17.76H52.4925V17.088L53.8125 16.92C54.0685 16.888 54.2205 16.824 54.2685 16.728C54.3165 16.616 54.3405 16.288 54.3405 15.744V3.40801L49.9485 15.84H47.3805L43.0365 3.48001V15.744C43.0365 16.288 43.0605 16.616 43.1085 16.728C43.1565 16.824 43.3085 16.888 43.5645 16.92L44.8845 17.088V17.76H40.2285V17.088L41.5485 16.92C41.8045 16.888 41.9565 16.824 42.0045 16.728C42.0525 16.616 42.0765 16.288 42.0765 15.744V3.45601C42.0765 2.91201 42.0525 2.59201 42.0045 2.49601C41.9565 2.38401 41.8045 2.31201 41.5485 2.28001L40.2285 2.11201V1.44001H45.2925L49.6845 13.92L54.1485 1.44001H59.0685V2.11201L57.7485 2.28001C57.4925 2.31201 57.3405 2.38401 57.2925 2.49601C57.2445 2.59201 57.2205 2.91201 57.2205 3.45601V15.744C57.2205 16.288 57.2445 16.616 57.2925 16.728C57.3405 16.824 57.4925 16.888 57.7485 16.92L59.0685 17.088ZM75.5588 14.904C75.2708 16.024 74.7348 16.824 73.9508 17.304C73.1668 17.768 72.2548 18 71.2148 18C69.2948 18 67.8548 17.448 66.8948 16.344C65.9348 15.224 65.4548 13.744 65.4548 11.904V11.424C65.4548 9.58401 65.9028 8.11201 66.7988 7.00801C67.7108 5.90401 69.0228 5.35201 70.7348 5.35201C71.6948 5.35201 72.5428 5.54401 73.2788 5.92801C74.0308 6.29601 74.6148 6.83201 75.0308 7.53601C75.4628 8.24001 75.6788 9.09601 75.6788 10.104C75.6788 10.344 75.6628 10.6 75.6308 10.872C75.6148 11.144 75.5748 11.416 75.5108 11.688H68.4068V12.384C68.4068 14.08 68.6468 15.304 69.1268 16.056C69.6068 16.792 70.3828 17.16 71.4548 17.16C72.1428 17.16 72.7268 16.96 73.2068 16.56C73.6868 16.144 73.9588 15.448 74.0228 14.472L75.5588 14.904ZM70.7348 6.19201C69.9508 6.19201 69.3668 6.55201 68.9828 7.27201C68.5988 7.99201 68.4068 9.18401 68.4068 10.848H72.7508C72.8148 10.528 72.8548 10.232 72.8708 9.96001C72.9028 9.67201 72.9188 9.40801 72.9188 9.16801C72.9188 8.14401 72.7188 7.39201 72.3188 6.91201C71.9188 6.43201 71.3908 6.19201 70.7348 6.19201ZM94.6219 17.088V17.76H90.1579V15.768C89.7099 16.504 89.2059 17.064 88.6459 17.448C88.1019 17.816 87.4539 18 86.7019 18C85.3579 18 84.2859 17.472 83.4859 16.416C82.7019 15.344 82.3099 13.848 82.3099 11.928V11.448C82.3099 9.59201 82.7659 8.11201 83.6779 7.00801C84.6059 5.90401 85.8699 5.35201 87.4699 5.35201C88.4299 5.35201 89.2779 5.59201 90.0139 6.07201V2.01601C90.0139 1.47201 89.9899 1.15201 89.9419 1.05601C89.8939 0.944009 89.7419 0.872009 89.4859 0.840009L88.1659 0.672009V9.53674e-06H92.7739V15.744C92.7739 16.288 92.7979 16.616 92.8459 16.728C92.8939 16.824 93.0459 16.888 93.3019 16.92L94.6219 17.088ZM85.2619 12.648C85.2619 14.136 85.4459 15.224 85.8139 15.912C86.1819 16.6 86.6859 16.944 87.3259 16.944C87.7259 16.944 88.1419 16.784 88.5739 16.464C89.0219 16.128 89.5019 15.456 90.0139 14.448V7.20001C89.4059 6.59201 88.6619 6.28801 87.7819 6.28801C86.9019 6.28801 86.2619 6.68801 85.8619 7.48801C85.4619 8.27201 85.2619 9.35201 85.2619 10.728V12.648ZM102.853 3.52801C102.357 3.52801 101.957 3.37601 101.653 3.07201C101.349 2.75201 101.197 2.34401 101.197 1.84801C101.197 1.35201 101.349 0.952009 101.653 0.648008C101.957 0.344008 102.357 0.192008 102.853 0.192008C103.333 0.192008 103.733 0.344008 104.053 0.648008C104.373 0.952009 104.533 1.35201 104.533 1.84801C104.533 2.34401 104.373 2.75201 104.053 3.07201C103.733 3.37601 103.333 3.52801 102.853 3.52801ZM99.637 6.26401V5.59201H104.245V15.744C104.245 16.288 104.269 16.616 104.317 16.728C104.365 16.824 104.517 16.888 104.773 16.92L106.093 17.088V17.76H99.637V17.088L100.957 16.92C101.213 16.888 101.365 16.824 101.413 16.728C101.461 16.616 101.485 16.288 101.485 15.744V7.60801C101.485 7.06401 101.461 6.74401 101.413 6.64801C101.365 6.53601 101.213 6.46401 100.957 6.43201L99.637 6.26401ZM119.644 15.264C119.436 16.24 119.036 16.944 118.444 17.376C117.868 17.792 117.164 18 116.332 18C115.484 18 114.788 17.816 114.244 17.448C113.7 17.064 113.3 16.56 113.044 15.936C112.788 15.312 112.66 14.648 112.66 13.944V7.60801C112.66 7.06401 112.636 6.74401 112.588 6.64801C112.54 6.53601 112.388 6.46401 112.132 6.43201L110.812 6.26401V5.59201H112.66V2.80801L115.42 2.25601V5.59201H119.26V6.43201H115.42V14.424C115.42 15.448 115.548 16.16 115.804 16.56C116.06 16.944 116.388 17.136 116.788 17.136C117.204 17.136 117.524 16.976 117.748 16.656C117.988 16.336 118.14 15.752 118.204 14.904L119.644 15.264ZM136.889 17.16C136.633 17.4 136.321 17.6 135.953 17.76C135.601 17.92 135.169 18 134.657 18C134.001 18 133.449 17.856 133.001 17.568C132.569 17.28 132.281 16.872 132.137 16.344C131.609 16.92 131.025 17.344 130.385 17.616C129.761 17.872 129.121 18 128.465 18C127.361 18 126.537 17.696 125.993 17.088C125.449 16.464 125.177 15.688 125.177 14.76C125.177 13.816 125.521 13.056 126.209 12.48C126.897 11.888 128.113 11.592 129.857 11.592H132.041V9.64801C132.041 8.32001 131.865 7.41601 131.513 6.93601C131.177 6.44001 130.705 6.19201 130.097 6.19201C129.697 6.19201 129.329 6.29601 128.993 6.50401C128.657 6.69601 128.417 7.06401 128.273 7.60801C128.145 8.13601 128.169 8.90401 128.345 9.91201L125.705 9.52801C125.577 8.79201 125.657 8.11201 125.945 7.48801C126.249 6.84801 126.753 6.33601 127.457 5.95201C128.161 5.55201 129.057 5.35201 130.145 5.35201C131.377 5.35201 132.329 5.55201 133.001 5.95201C133.673 6.35201 134.137 6.88001 134.393 7.53601C134.665 8.19201 134.801 8.89601 134.801 9.64801V15.192C134.801 16.008 134.873 16.52 135.017 16.728C135.161 16.936 135.321 17.04 135.497 17.04C135.785 17.04 136.105 16.872 136.457 16.536L136.889 17.16ZM129.521 16.728C129.937 16.728 130.345 16.624 130.745 16.416C131.161 16.192 131.593 15.784 132.041 15.192V12.432H130.241C129.457 12.432 128.889 12.616 128.537 12.984C128.185 13.352 128.009 13.928 128.009 14.712C128.009 15.352 128.137 15.848 128.393 16.2C128.649 16.552 129.025 16.728 129.521 16.728ZM150.187 15.264C149.979 16.24 149.579 16.944 148.987 17.376C148.411 17.792 147.707 18 146.875 18C146.027 18 145.331 17.816 144.787 17.448C144.243 17.064 143.843 16.56 143.587 15.936C143.331 15.312 143.203 14.648 143.203 13.944V7.60801C143.203 7.06401 143.179 6.74401 143.131 6.64801C143.083 6.53601 142.931 6.46401 142.675 6.43201L141.355 6.26401V5.59201H143.203V2.80801L145.963 2.25601V5.59201H149.803V6.43201H145.963V14.424C145.963 15.448 146.091 16.16 146.347 16.56C146.603 16.944 146.931 17.136 147.331 17.136C147.747 17.136 148.067 16.976 148.291 16.656C148.531 16.336 148.683 15.752 148.747 14.904L150.187 15.264ZM158.407 3.52801C157.911 3.52801 157.511 3.37601 157.207 3.07201C156.903 2.75201 156.751 2.34401 156.751 1.84801C156.751 1.35201 156.903 0.952009 157.207 0.648008C157.511 0.344008 157.911 0.192008 158.407 0.192008C158.887 0.192008 159.287 0.344008 159.607 0.648008C159.927 0.952009 160.087 1.35201 160.087 1.84801C160.087 2.34401 159.927 2.75201 159.607 3.07201C159.287 3.37601 158.887 3.52801 158.407 3.52801ZM155.191 6.26401V5.59201H159.799V15.744C159.799 16.288 159.823 16.616 159.871 16.728C159.919 16.824 160.071 16.888 160.327 16.92L161.647 17.088V17.76H155.191V17.088L156.511 16.92C156.767 16.888 156.919 16.824 156.967 16.728C157.015 16.616 157.039 16.288 157.039 15.744V7.60801C157.039 7.06401 157.015 6.74401 156.967 6.64801C156.919 6.53601 156.767 6.46401 156.511 6.43201L155.191 6.26401ZM178.342 11.424V11.904C178.342 13.744 177.862 15.224 176.902 16.344C175.958 17.448 174.606 18 172.846 18C171.086 18 169.726 17.448 168.766 16.344C167.822 15.224 167.35 13.744 167.35 11.904V11.424C167.35 9.58401 167.822 8.11201 168.766 7.00801C169.726 5.90401 171.086 5.35201 172.846 5.35201C174.606 5.35201 175.958 5.90401 176.902 7.00801C177.862 8.11201 178.342 9.58401 178.342 11.424ZM175.39 10.944C175.39 9.23201 175.174 8.01601 174.742 7.29601C174.31 6.56001 173.678 6.19201 172.846 6.19201C172.03 6.19201 171.398 6.56001 170.95 7.29601C170.518 8.01601 170.302 9.23201 170.302 10.944V12.384C170.302 14.08 170.518 15.304 170.95 16.056C171.398 16.792 172.03 17.16 172.846 17.16C173.678 17.16 174.31 16.792 174.742 16.056C175.174 15.304 175.39 14.08 175.39 12.384V10.944ZM198.347 17.088V17.76H191.891V17.088L193.211 16.92C193.467 16.888 193.619 16.824 193.667 16.728C193.715 16.616 193.739 16.288 193.739 15.744V9.69601C193.739 8.59201 193.571 7.79201 193.235 7.29601C192.915 6.78401 192.435 6.52801 191.795 6.52801C191.523 6.52801 191.203 6.60001 190.835 6.74401C190.483 6.87201 190.123 7.11201 189.755 7.46401C189.403 7.81601 189.091 8.33601 188.819 9.02401V15.744C188.819 16.288 188.843 16.616 188.891 16.728C188.939 16.824 189.091 16.888 189.347 16.92L190.667 17.088V17.76H184.211V17.088L185.531 16.92C185.787 16.888 185.939 16.824 185.987 16.728C186.035 16.616 186.059 16.288 186.059 15.744V7.60801C186.059 7.06401 186.035 6.74401 185.987 6.64801C185.939 6.53601 185.787 6.46401 185.531 6.43201L184.211 6.26401V5.59201H188.675V7.70401C189.139 6.88801 189.731 6.29601 190.451 5.92801C191.187 5.54401 191.923 5.35201 192.659 5.35201C193.843 5.35201 194.779 5.72801 195.467 6.48001C196.155 7.23201 196.499 8.29601 196.499 9.67201V15.744C196.499 16.288 196.523 16.616 196.571 16.728C196.619 16.824 196.771 16.888 197.027 16.92L198.347 17.088Z" fill="white"/>
</svg>
