<svg width="362" height="16" viewBox="0 0 362 16" fill="none" xmlns="http://www.w3.org/2000/svg">
<path d="M1.17421e-05 1.568V1.12H4.41601C5.26935 1.12 5.94668 1.23733 6.44801 1.472C6.94935 1.70667 7.30668 2.016 7.52001 2.4C7.74401 2.784 7.85601 3.21067 7.85601 3.68V4.112C7.85601 4.66667 7.68001 5.14667 7.32801 5.552C6.98668 5.94667 6.48535 6.22933 5.82401 6.4C6.63468 6.53867 7.25335 6.82667 7.68001 7.264C8.11735 7.70133 8.33601 8.25067 8.33601 8.912V9.36C8.33601 9.84 8.22401 10.2827 8.00001 10.688C7.77601 11.0827 7.40268 11.4027 6.88001 11.648C6.36801 11.8827 5.68001 12 4.81601 12H1.17421e-05V11.552L0.880012 11.44C1.05068 11.4187 1.15201 11.376 1.18401 11.312C1.21601 11.2373 1.23201 11.0187 1.23201 10.656V2.464C1.23201 2.10133 1.21601 1.888 1.18401 1.824C1.15201 1.74933 1.05068 1.70133 0.880012 1.68L1.17421e-05 1.568ZM4.41601 1.68H3.15201V6.16H4.41601C4.87468 6.16 5.22135 6.00533 5.45601 5.696C5.69068 5.376 5.80801 4.87467 5.80801 4.192V3.68C5.80801 2.98667 5.69068 2.48 5.45601 2.16C5.22135 1.84 4.87468 1.68 4.41601 1.68ZM4.81601 6.72H3.15201V11.44H4.81601C5.29601 11.44 5.65868 11.28 5.90401 10.96C6.16001 10.6293 6.28801 10.096 6.28801 9.36V8.832C6.28801 7.424 5.79735 6.72 4.81601 6.72ZM13.9234 12.16C13.5927 12.16 13.3207 12.0587 13.1074 11.856C12.9047 11.6427 12.8034 11.3653 12.8034 11.024C12.8034 10.6827 12.9047 10.4107 13.1074 10.208C13.3207 10.0053 13.5927 9.904 13.9234 9.904C14.2541 9.904 14.5261 10.0053 14.7394 10.208C14.9527 10.4107 15.0594 10.6827 15.0594 11.024C15.0594 11.3653 14.9527 11.6427 14.7394 11.856C14.5261 12.0587 14.2541 12.16 13.9234 12.16ZM30.6196 12.16C29.6383 12.16 28.8063 11.952 28.1236 11.536C27.441 11.1093 26.9236 10.512 26.5716 9.744C26.2196 8.976 26.0436 8.08 26.0436 7.056V6.048C26.0436 5.024 26.1983 4.13333 26.5076 3.376C26.8276 2.608 27.3023 2.016 27.9316 1.6C28.561 1.17333 29.3503 0.959999 30.2996 0.959999C31.1103 0.959999 31.7876 1.12 32.3316 1.44C32.8756 1.74933 33.2756 2.16533 33.5316 2.688C33.7983 3.2 33.9103 3.76 33.8676 4.368L31.9956 4.832C32.1023 3.76533 31.9903 2.94933 31.6596 2.384C31.3396 1.808 30.8596 1.52 30.2196 1.52C29.537 1.52 29.009 1.808 28.6356 2.384C28.273 2.96 28.0916 3.91467 28.0916 5.248V7.856C28.0916 9.17867 28.2996 10.1333 28.7156 10.72C29.1316 11.3067 29.7663 11.6 30.6196 11.6C30.9716 11.6 31.297 11.536 31.5956 11.408C31.905 11.28 32.161 11.0613 32.3636 10.752C32.577 10.432 32.7103 9.984 32.7636 9.408L33.9156 9.712C33.7663 10.3093 33.5263 10.7893 33.1956 11.152C32.865 11.5147 32.4756 11.776 32.0276 11.936C31.5903 12.0853 31.121 12.16 30.6196 12.16ZM45.7825 11.6C45.6118 11.76 45.4038 11.8933 45.1585 12C44.9238 12.1067 44.6358 12.16 44.2945 12.16C43.8572 12.16 43.4892 12.064 43.1905 11.872C42.9025 11.68 42.7105 11.408 42.6145 11.056C42.2625 11.44 41.8732 11.7227 41.4465 11.904C41.0305 12.0747 40.6038 12.16 40.1665 12.16C39.4305 12.16 38.8812 11.9573 38.5185 11.552C38.1558 11.136 37.9745 10.6187 37.9745 10C37.9745 9.37067 38.2038 8.864 38.6625 8.48C39.1212 8.08533 39.9318 7.888 41.0945 7.888H42.5505V6.592C42.5505 5.70667 42.4332 5.104 42.1985 4.784C41.9745 4.45333 41.6598 4.288 41.2545 4.288C40.9878 4.288 40.7425 4.35733 40.5185 4.496C40.2945 4.624 40.1345 4.86933 40.0385 5.232C39.9532 5.584 39.9692 6.096 40.0865 6.768L38.3265 6.512C38.2412 6.02133 38.2945 5.568 38.4865 5.152C38.6892 4.72533 39.0252 4.384 39.4945 4.128C39.9638 3.86133 40.5612 3.728 41.2865 3.728C42.1078 3.728 42.7425 3.86133 43.1905 4.128C43.6385 4.39467 43.9478 4.74667 44.1185 5.184C44.2998 5.62133 44.3905 6.09067 44.3905 6.592V10.288C44.3905 10.832 44.4385 11.1733 44.5345 11.312C44.6305 11.4507 44.7372 11.52 44.8545 11.52C45.0465 11.52 45.2598 11.408 45.4945 11.184L45.7825 11.6ZM40.8705 11.312C41.1478 11.312 41.4198 11.2427 41.6865 11.104C41.9638 10.9547 42.2518 10.6827 42.5505 10.288V8.448H41.3505C40.8278 8.448 40.4492 8.57067 40.2145 8.816C39.9798 9.06133 39.8625 9.44533 39.8625 9.968C39.8625 10.3947 39.9478 10.7253 40.1185 10.96C40.2892 11.1947 40.5398 11.312 40.8705 11.312ZM48.8399 0.608V0.16H51.9119V10.656C51.9119 11.0187 51.9279 11.2373 51.9599 11.312C51.9919 11.376 52.0932 11.4187 52.2639 11.44L53.1439 11.552V12H48.8399V11.552L49.7199 11.44C49.8906 11.4187 49.9919 11.376 50.0239 11.312C50.0559 11.2373 50.0719 11.0187 50.0719 10.656V1.504C50.0719 1.14133 50.0559 0.927999 50.0239 0.863999C49.9919 0.789333 49.8906 0.741333 49.7199 0.719999L48.8399 0.608ZM56.3724 0.608V0.16H59.4444V10.656C59.4444 11.0187 59.4604 11.2373 59.4924 11.312C59.5244 11.376 59.6257 11.4187 59.7964 11.44L60.6764 11.552V12H56.3724V11.552L57.2524 11.44C57.4231 11.4187 57.5244 11.376 57.5564 11.312C57.5884 11.2373 57.6044 11.0187 57.6044 10.656V1.504C57.6044 1.14133 57.5884 0.927999 57.5564 0.863999C57.5244 0.789333 57.4231 0.741333 57.2524 0.719999L56.3724 0.608ZM79.627 11.552V12H75.323V11.552L76.203 11.44C76.3737 11.4187 76.475 11.376 76.507 11.312C76.539 11.2373 76.555 11.0187 76.555 10.656V6.624C76.555 5.888 76.443 5.35467 76.219 5.024C76.0057 4.68267 75.6857 4.512 75.259 4.512C75.0777 4.512 74.8643 4.56 74.619 4.656C74.3843 4.74133 74.1443 4.90133 73.899 5.136C73.6643 5.37067 73.4563 5.71733 73.275 6.176V10.656C73.275 11.0187 73.291 11.2373 73.323 11.312C73.355 11.376 73.4563 11.4187 73.627 11.44L74.507 11.552V12H70.203V11.552L71.083 11.44C71.2537 11.4187 71.355 11.376 71.387 11.312C71.419 11.2373 71.435 11.0187 71.435 10.656V1.504C71.435 1.14133 71.419 0.927999 71.387 0.863999C71.355 0.789333 71.2537 0.741333 71.083 0.719999L70.203 0.608V0.16H73.275V5.136C73.5843 4.64533 73.9683 4.288 74.427 4.064C74.8963 3.84 75.3657 3.728 75.835 3.728C76.6243 3.728 77.2483 3.97867 77.707 4.48C78.1657 4.98133 78.395 5.69067 78.395 6.608V10.656C78.395 11.0187 78.411 11.2373 78.443 11.312C78.475 11.376 78.5763 11.4187 78.747 11.44L79.627 11.552ZM90.6864 7.776V8.096C90.6864 9.32267 90.3664 10.3093 89.7264 11.056C89.0971 11.792 88.1957 12.16 87.0224 12.16C85.8491 12.16 84.9424 11.792 84.3024 11.056C83.6731 10.3093 83.3584 9.32267 83.3584 8.096V7.776C83.3584 6.54933 83.6731 5.568 84.3024 4.832C84.9424 4.096 85.8491 3.728 87.0224 3.728C88.1957 3.728 89.0971 4.096 89.7264 4.832C90.3664 5.568 90.6864 6.54933 90.6864 7.776ZM88.7184 7.456C88.7184 6.31467 88.5744 5.504 88.2864 5.024C87.9984 4.53333 87.5771 4.288 87.0224 4.288C86.4784 4.288 86.0571 4.53333 85.7584 5.024C85.4704 5.504 85.3264 6.31467 85.3264 7.456V8.416C85.3264 9.54667 85.4704 10.3627 85.7584 10.864C86.0571 11.3547 86.4784 11.6 87.0224 11.6C87.5771 11.6 87.9984 11.3547 88.2864 10.864C88.5744 10.3627 88.7184 9.54667 88.7184 8.416V7.456ZM103.863 11.552V12H99.5588V11.552L100.439 11.44C100.609 11.4187 100.711 11.376 100.743 11.312C100.775 11.2373 100.791 11.0187 100.791 10.656V6.624C100.791 5.888 100.689 5.35467 100.487 5.024C100.284 4.68267 99.9801 4.512 99.5748 4.512C99.4041 4.512 99.2014 4.56 98.9668 4.656C98.7321 4.74133 98.4974 4.90133 98.2628 5.136C98.0388 5.37067 97.8414 5.71733 97.6708 6.176V10.656C97.6708 11.0187 97.6868 11.2373 97.7188 11.312C97.7508 11.376 97.8521 11.4187 98.0228 11.44L98.9028 11.552V12H94.5988V11.552L95.4788 11.44C95.6494 11.4187 95.7508 11.376 95.7828 11.312C95.8148 11.2373 95.8308 11.0187 95.8308 10.656V5.232C95.8308 4.86933 95.8148 4.656 95.7828 4.592C95.7508 4.51733 95.6494 4.46933 95.4788 4.448L94.5988 4.336V3.888H97.5748V5.296C97.8734 4.752 98.2574 4.35733 98.7268 4.112C99.1961 3.856 99.6708 3.728 100.151 3.728C100.727 3.728 101.212 3.87733 101.607 4.176C102.012 4.464 102.3 4.88 102.471 5.424C102.759 4.82667 103.148 4.39467 103.639 4.128C104.129 3.86133 104.62 3.728 105.111 3.728C105.868 3.728 106.471 3.97867 106.919 4.48C107.367 4.98133 107.591 5.69067 107.591 6.608V10.656C107.591 11.0187 107.607 11.2373 107.639 11.312C107.671 11.376 107.772 11.4187 107.943 11.44L108.823 11.552V12H104.519V11.552L105.399 11.44C105.569 11.4187 105.671 11.376 105.703 11.312C105.735 11.2373 105.751 11.0187 105.751 10.656V6.624C105.751 5.888 105.649 5.35467 105.447 5.024C105.244 4.68267 104.94 4.512 104.535 4.512C104.364 4.512 104.161 4.56 103.927 4.656C103.692 4.74133 103.457 4.90667 103.223 5.152C102.988 5.39733 102.785 5.75467 102.615 6.224C102.625 6.27733 102.631 6.34133 102.631 6.416C102.631 6.48 102.631 6.544 102.631 6.608V10.656C102.631 11.0187 102.647 11.2373 102.679 11.312C102.711 11.376 102.812 11.4187 102.983 11.44L103.863 11.552ZM119.3 10.096C119.108 10.8427 118.751 11.376 118.228 11.696C117.706 12.0053 117.098 12.16 116.404 12.16C115.124 12.16 114.164 11.792 113.524 11.056C112.884 10.3093 112.564 9.32267 112.564 8.096V7.776C112.564 6.54933 112.863 5.568 113.46 4.832C114.068 4.096 114.943 3.728 116.084 3.728C116.724 3.728 117.29 3.856 117.78 4.112C118.282 4.35733 118.671 4.71467 118.948 5.184C119.236 5.65333 119.38 6.224 119.38 6.896C119.38 7.056 119.37 7.22667 119.348 7.408C119.338 7.58933 119.311 7.77067 119.268 7.952H114.532V8.416C114.532 9.54667 114.692 10.3627 115.012 10.864C115.332 11.3547 115.85 11.6 116.564 11.6C117.023 11.6 117.412 11.4667 117.732 11.2C118.052 10.9227 118.234 10.4587 118.276 9.808L119.3 10.096ZM116.084 4.288C115.562 4.288 115.172 4.528 114.916 5.008C114.66 5.488 114.532 6.28267 114.532 7.392H117.428C117.471 7.17867 117.498 6.98133 117.508 6.8C117.53 6.608 117.54 6.432 117.54 6.272C117.54 5.58933 117.407 5.088 117.14 4.768C116.874 4.448 116.522 4.288 116.084 4.288ZM137.731 11.6C137.561 11.76 137.353 11.8933 137.107 12C136.873 12.1067 136.585 12.16 136.243 12.16C135.806 12.16 135.438 12.064 135.139 11.872C134.851 11.68 134.659 11.408 134.563 11.056C134.211 11.44 133.822 11.7227 133.395 11.904C132.979 12.0747 132.553 12.16 132.115 12.16C131.379 12.16 130.83 11.9573 130.467 11.552C130.105 11.136 129.923 10.6187 129.923 10C129.923 9.37067 130.153 8.864 130.611 8.48C131.07 8.08533 131.881 7.888 133.043 7.888H134.499V6.592C134.499 5.70667 134.382 5.104 134.147 4.784C133.923 4.45333 133.609 4.288 133.203 4.288C132.937 4.288 132.691 4.35733 132.467 4.496C132.243 4.624 132.083 4.86933 131.987 5.232C131.902 5.584 131.918 6.096 132.035 6.768L130.275 6.512C130.19 6.02133 130.243 5.568 130.435 5.152C130.638 4.72533 130.974 4.384 131.443 4.128C131.913 3.86133 132.51 3.728 133.235 3.728C134.057 3.728 134.691 3.86133 135.139 4.128C135.587 4.39467 135.897 4.74667 136.067 5.184C136.249 5.62133 136.339 6.09067 136.339 6.592V10.288C136.339 10.832 136.387 11.1733 136.483 11.312C136.579 11.4507 136.686 11.52 136.803 11.52C136.995 11.52 137.209 11.408 137.443 11.184L137.731 11.6ZM132.819 11.312C133.097 11.312 133.369 11.2427 133.635 11.104C133.913 10.9547 134.201 10.6827 134.499 10.288V8.448H133.299C132.777 8.448 132.398 8.57067 132.163 8.816C131.929 9.06133 131.811 9.44533 131.811 9.968C131.811 10.3947 131.897 10.7253 132.067 10.96C132.238 11.1947 132.489 11.312 132.819 11.312ZM150.325 11.552V12H146.021V11.552L146.901 11.44C147.071 11.4187 147.173 11.376 147.205 11.312C147.237 11.2373 147.253 11.0187 147.253 10.656V6.624C147.253 5.888 147.141 5.35467 146.917 5.024C146.703 4.68267 146.383 4.512 145.957 4.512C145.775 4.512 145.562 4.56 145.317 4.656C145.082 4.74133 144.842 4.90133 144.597 5.136C144.362 5.37067 144.154 5.71733 143.973 6.176V10.656C143.973 11.0187 143.989 11.2373 144.021 11.312C144.053 11.376 144.154 11.4187 144.325 11.44L145.205 11.552V12H140.901V11.552L141.781 11.44C141.951 11.4187 142.053 11.376 142.085 11.312C142.117 11.2373 142.133 11.0187 142.133 10.656V5.232C142.133 4.86933 142.117 4.656 142.085 4.592C142.053 4.51733 141.951 4.46933 141.781 4.448L140.901 4.336V3.888H143.877V5.296C144.186 4.752 144.581 4.35733 145.061 4.112C145.551 3.856 146.042 3.728 146.533 3.728C147.322 3.728 147.946 3.97867 148.405 4.48C148.863 4.98133 149.093 5.69067 149.093 6.608V10.656C149.093 11.0187 149.109 11.2373 149.141 11.312C149.173 11.376 149.274 11.4187 149.445 11.44L150.325 11.552ZM162.325 11.552V12H159.349V10.672C159.051 11.1627 158.715 11.536 158.341 11.792C157.979 12.0373 157.547 12.16 157.045 12.16C156.149 12.16 155.435 11.808 154.901 11.104C154.379 10.3893 154.117 9.392 154.117 8.112V7.792C154.117 6.55467 154.421 5.568 155.029 4.832C155.648 4.096 156.491 3.728 157.557 3.728C158.197 3.728 158.763 3.888 159.253 4.208V1.504C159.253 1.14133 159.237 0.927999 159.205 0.863999C159.173 0.789333 159.072 0.741333 158.901 0.719999L158.021 0.608V0.16H161.093V10.656C161.093 11.0187 161.109 11.2373 161.141 11.312C161.173 11.376 161.275 11.4187 161.445 11.44L162.325 11.552ZM156.085 8.592C156.085 9.584 156.208 10.3093 156.453 10.768C156.699 11.2267 157.035 11.456 157.461 11.456C157.728 11.456 158.005 11.3493 158.293 11.136C158.592 10.912 158.912 10.464 159.253 9.792V4.96C158.848 4.55467 158.352 4.352 157.765 4.352C157.179 4.352 156.752 4.61867 156.485 5.152C156.219 5.67467 156.085 6.39467 156.085 7.312V8.592ZM179.007 5.232L176.735 12H175.279L173.007 5.232C172.932 4.98667 172.868 4.816 172.815 4.72C172.772 4.61333 172.719 4.544 172.655 4.512C172.602 4.48 172.516 4.45867 172.399 4.448L171.519 4.336V3.888H175.839V4.336L174.959 4.448C174.799 4.46933 174.714 4.512 174.703 4.576C174.692 4.64 174.746 4.85867 174.863 5.232L176.623 10.544L178.399 5.232C178.516 4.85867 178.57 4.64 178.559 4.576C178.559 4.512 178.474 4.46933 178.303 4.448L177.423 4.336V3.888H180.479V4.336L179.599 4.448C179.492 4.45867 179.407 4.48 179.343 4.512C179.29 4.544 179.242 4.61333 179.199 4.72C179.156 4.816 179.092 4.98667 179.007 5.232ZM190.137 10.096C189.945 10.8427 189.588 11.376 189.065 11.696C188.543 12.0053 187.935 12.16 187.241 12.16C185.961 12.16 185.001 11.792 184.361 11.056C183.721 10.3093 183.401 9.32267 183.401 8.096V7.776C183.401 6.54933 183.7 5.568 184.297 4.832C184.905 4.096 185.78 3.728 186.921 3.728C187.561 3.728 188.127 3.856 188.617 4.112C189.119 4.35733 189.508 4.71467 189.785 5.184C190.073 5.65333 190.217 6.224 190.217 6.896C190.217 7.056 190.207 7.22667 190.185 7.408C190.175 7.58933 190.148 7.77067 190.105 7.952H185.369V8.416C185.369 9.54667 185.529 10.3627 185.849 10.864C186.169 11.3547 186.687 11.6 187.401 11.6C187.86 11.6 188.249 11.4667 188.569 11.2C188.889 10.9227 189.071 10.4587 189.113 9.808L190.137 10.096ZM186.921 4.288C186.399 4.288 186.009 4.528 185.753 5.008C185.497 5.488 185.369 6.28267 185.369 7.392H188.265C188.308 7.17867 188.335 6.98133 188.345 6.8C188.367 6.608 188.377 6.432 188.377 6.272C188.377 5.58933 188.244 5.088 187.977 4.768C187.711 4.448 187.359 4.288 186.921 4.288ZM203.534 11.552V12H199.23V11.552L200.11 11.44C200.281 11.4187 200.382 11.376 200.414 11.312C200.446 11.2373 200.462 11.0187 200.462 10.656V6.624C200.462 5.888 200.35 5.35467 200.126 5.024C199.913 4.68267 199.593 4.512 199.166 4.512C198.985 4.512 198.771 4.56 198.526 4.656C198.291 4.74133 198.051 4.90133 197.806 5.136C197.571 5.37067 197.363 5.71733 197.182 6.176V10.656C197.182 11.0187 197.198 11.2373 197.23 11.312C197.262 11.376 197.363 11.4187 197.534 11.44L198.414 11.552V12H194.11V11.552L194.99 11.44C195.161 11.4187 195.262 11.376 195.294 11.312C195.326 11.2373 195.342 11.0187 195.342 10.656V5.232C195.342 4.86933 195.326 4.656 195.294 4.592C195.262 4.51733 195.161 4.46933 194.99 4.448L194.11 4.336V3.888H197.086V5.296C197.395 4.752 197.79 4.35733 198.27 4.112C198.761 3.856 199.251 3.728 199.742 3.728C200.531 3.728 201.155 3.97867 201.614 4.48C202.073 4.98133 202.302 5.69067 202.302 6.608V10.656C202.302 11.0187 202.318 11.2373 202.35 11.312C202.382 11.376 202.483 11.4187 202.654 11.44L203.534 11.552ZM212.495 10.336C212.356 10.9867 212.089 11.456 211.695 11.744C211.311 12.0213 210.841 12.16 210.287 12.16C209.721 12.16 209.257 12.0373 208.895 11.792C208.532 11.536 208.265 11.2 208.095 10.784C207.924 10.368 207.839 9.92533 207.839 9.456V5.232C207.839 4.86933 207.823 4.656 207.791 4.592C207.759 4.51733 207.657 4.46933 207.487 4.448L206.607 4.336V3.888H207.839V2.032L209.679 1.664V3.888H212.239V4.448H209.679V9.776C209.679 10.4587 209.764 10.9333 209.935 11.2C210.105 11.456 210.324 11.584 210.591 11.584C210.868 11.584 211.081 11.4773 211.231 11.264C211.391 11.0507 211.492 10.6613 211.535 10.096L212.495 10.336ZM227.825 10.336C227.687 10.9867 227.42 11.456 227.025 11.744C226.641 12.0213 226.172 12.16 225.617 12.16C225.052 12.16 224.588 12.0373 224.225 11.792C223.863 11.536 223.596 11.2 223.425 10.784C223.255 10.368 223.169 9.92533 223.169 9.456V5.232C223.169 4.86933 223.153 4.656 223.121 4.592C223.089 4.51733 222.988 4.46933 222.817 4.448L221.937 4.336V3.888H223.169V2.032L225.009 1.664V3.888H227.569V4.448H225.009V9.776C225.009 10.4587 225.095 10.9333 225.265 11.2C225.436 11.456 225.655 11.584 225.921 11.584C226.199 11.584 226.412 11.4773 226.561 11.264C226.721 11.0507 226.823 10.6613 226.865 10.096L227.825 10.336ZM238.954 7.776V8.096C238.954 9.32267 238.634 10.3093 237.994 11.056C237.365 11.792 236.463 12.16 235.29 12.16C234.117 12.16 233.21 11.792 232.57 11.056C231.941 10.3093 231.626 9.32267 231.626 8.096V7.776C231.626 6.54933 231.941 5.568 232.57 4.832C233.21 4.096 234.117 3.728 235.29 3.728C236.463 3.728 237.365 4.096 237.994 4.832C238.634 5.568 238.954 6.54933 238.954 7.776ZM236.986 7.456C236.986 6.31467 236.842 5.504 236.554 5.024C236.266 4.53333 235.845 4.288 235.29 4.288C234.746 4.288 234.325 4.53333 234.026 5.024C233.738 5.504 233.594 6.31467 233.594 7.456V8.416C233.594 9.54667 233.738 10.3627 234.026 10.864C234.325 11.3547 234.746 11.6 235.29 11.6C235.845 11.6 236.266 11.3547 236.554 10.864C236.842 10.3627 236.986 9.54667 236.986 8.416V7.456ZM253.644 12.8C253.399 13.472 253.127 14.0107 252.828 14.416C252.54 14.8213 252.183 15.1147 251.756 15.296C251.33 15.4773 250.796 15.568 250.156 15.568V13.808C250.807 13.808 251.33 13.76 251.724 13.664C252.13 13.5787 252.439 13.4347 252.652 13.232C252.876 13.04 253.042 12.7893 253.148 12.48L253.308 12H252.476L250.204 5.232C250.13 4.98667 250.066 4.816 250.012 4.72C249.97 4.61333 249.916 4.544 249.852 4.512C249.799 4.48 249.714 4.45867 249.596 4.448L248.716 4.336V3.888H253.036V4.336L252.156 4.448C252.028 4.45867 251.948 4.50133 251.916 4.576C251.895 4.64 251.943 4.85867 252.06 5.232L253.804 10.512L255.612 5.168C255.73 4.82667 255.778 4.62933 255.756 4.576C255.746 4.512 255.66 4.46933 255.5 4.448L254.62 4.336V3.888H257.676V4.336L256.796 4.448C256.636 4.46933 256.53 4.512 256.476 4.576C256.423 4.64 256.338 4.83733 256.22 5.168L253.644 12.8ZM267.911 7.776V8.096C267.911 9.32267 267.591 10.3093 266.951 11.056C266.321 11.792 265.42 12.16 264.247 12.16C263.073 12.16 262.167 11.792 261.527 11.056C260.897 10.3093 260.583 9.32267 260.583 8.096V7.776C260.583 6.54933 260.897 5.568 261.527 4.832C262.167 4.096 263.073 3.728 264.247 3.728C265.42 3.728 266.321 4.096 266.951 4.832C267.591 5.568 267.911 6.54933 267.911 7.776ZM265.943 7.456C265.943 6.31467 265.799 5.504 265.511 5.024C265.223 4.53333 264.801 4.288 264.247 4.288C263.703 4.288 263.281 4.53333 262.983 5.024C262.695 5.504 262.551 6.31467 262.551 7.456V8.416C262.551 9.54667 262.695 10.3627 262.983 10.864C263.281 11.3547 263.703 11.6 264.247 11.6C264.801 11.6 265.223 11.3547 265.511 10.864C265.799 10.3627 265.943 9.54667 265.943 8.416V7.456ZM280.895 11.552V12H277.919V10.592C277.62 11.136 277.236 11.536 276.767 11.792C276.298 12.0373 275.823 12.16 275.343 12.16C274.586 12.16 273.983 11.9093 273.535 11.408C273.087 10.896 272.863 10.1867 272.863 9.28V5.232C272.863 4.86933 272.847 4.656 272.815 4.592C272.783 4.51733 272.682 4.46933 272.511 4.448L271.631 4.336V3.888H274.703V9.264C274.703 10 274.804 10.5387 275.007 10.88C275.22 11.2107 275.524 11.376 275.919 11.376C276.09 11.376 276.287 11.3333 276.511 11.248C276.746 11.152 276.98 10.9867 277.215 10.752C277.45 10.5067 277.652 10.16 277.823 9.712V5.232C277.823 4.86933 277.807 4.65067 277.775 4.576C277.743 4.50133 277.642 4.45867 277.471 4.448L276.271 4.336V3.888H279.663V10.656C279.663 11.0187 279.679 11.2373 279.711 11.312C279.743 11.376 279.844 11.4187 280.015 11.44L280.895 11.552ZM284.246 4.336V3.888H287.222V5.2C287.873 4.21867 288.646 3.728 289.542 3.728C289.873 3.728 290.193 3.83467 290.502 4.048C290.812 4.25067 291.068 4.63467 291.27 5.2L289.846 5.968C289.697 5.53067 289.521 5.23733 289.318 5.088C289.126 4.928 288.918 4.848 288.694 4.848C288.46 4.848 288.23 4.92267 288.006 5.072C287.782 5.22133 287.553 5.49867 287.318 5.904V10.656C287.318 11.0187 287.334 11.2373 287.366 11.312C287.398 11.376 287.5 11.4187 287.67 11.44L288.87 11.552V12H284.246V11.552L285.126 11.44C285.297 11.4187 285.398 11.376 285.43 11.312C285.462 11.2373 285.478 11.0187 285.478 10.656V5.232C285.478 4.86933 285.462 4.656 285.43 4.592C285.398 4.51733 285.297 4.46933 285.126 4.448L284.246 4.336ZM305.279 11.552V12H300.655V11.552L301.535 11.44C301.706 11.4187 301.807 11.376 301.839 11.312C301.871 11.2373 301.887 11.0187 301.887 10.656V5.232C301.887 4.86933 301.871 4.656 301.839 4.592C301.807 4.51733 301.706 4.46933 301.535 4.448L300.655 4.336V3.888H301.887V3.024C301.887 2.512 301.972 2.02667 302.143 1.568C302.324 1.09867 302.623 0.719999 303.039 0.431999C303.466 0.143999 304.036 -9.53674e-07 304.751 -9.53674e-07C305.402 -9.53674e-07 305.935 0.111999 306.351 0.335999C306.778 0.56 307.082 0.858666 307.263 1.232C307.455 1.60533 307.514 2.01067 307.439 2.448L305.679 2.704C305.786 1.904 305.754 1.34933 305.583 1.04C305.423 0.719999 305.146 0.559999 304.751 0.559999C304.538 0.559999 304.351 0.618666 304.191 0.735999C304.042 0.853333 303.924 1.06667 303.839 1.376C303.764 1.67467 303.727 2.11733 303.727 2.704V3.888H306.127V4.448H303.727V10.656C303.727 11.0187 303.743 11.2373 303.775 11.312C303.807 11.376 303.908 11.4187 304.079 11.44L305.279 11.552ZM317.348 11.6C317.177 11.76 316.969 11.8933 316.724 12C316.489 12.1067 316.201 12.16 315.86 12.16C315.422 12.16 315.054 12.064 314.756 11.872C314.468 11.68 314.276 11.408 314.18 11.056C313.828 11.44 313.438 11.7227 313.012 11.904C312.596 12.0747 312.169 12.16 311.732 12.16C310.996 12.16 310.446 11.9573 310.084 11.552C309.721 11.136 309.54 10.6187 309.54 10C309.54 9.37067 309.769 8.864 310.228 8.48C310.686 8.08533 311.497 7.888 312.66 7.888H314.116V6.592C314.116 5.70667 313.998 5.104 313.764 4.784C313.54 4.45333 313.225 4.288 312.82 4.288C312.553 4.288 312.308 4.35733 312.084 4.496C311.86 4.624 311.7 4.86933 311.604 5.232C311.518 5.584 311.534 6.096 311.652 6.768L309.892 6.512C309.806 6.02133 309.86 5.568 310.052 5.152C310.254 4.72533 310.59 4.384 311.06 4.128C311.529 3.86133 312.126 3.728 312.852 3.728C313.673 3.728 314.308 3.86133 314.756 4.128C315.204 4.39467 315.513 4.74667 315.684 5.184C315.865 5.62133 315.956 6.09067 315.956 6.592V10.288C315.956 10.832 316.004 11.1733 316.1 11.312C316.196 11.4507 316.302 11.52 316.42 11.52C316.612 11.52 316.825 11.408 317.06 11.184L317.348 11.6ZM312.436 11.312C312.713 11.312 312.985 11.2427 313.252 11.104C313.529 10.9547 313.817 10.6827 314.116 10.288V8.448H312.916C312.393 8.448 312.014 8.57067 311.78 8.816C311.545 9.06133 311.428 9.44533 311.428 9.968C311.428 10.3947 311.513 10.7253 311.684 10.96C311.854 11.1947 312.105 11.312 312.436 11.312ZM329.781 11.552V12H325.477V11.552L326.357 11.44C326.528 11.4187 326.629 11.376 326.661 11.312C326.693 11.2373 326.709 11.0187 326.709 10.656V6.624C326.709 5.888 326.608 5.35467 326.405 5.024C326.202 4.68267 325.898 4.512 325.493 4.512C325.322 4.512 325.12 4.56 324.885 4.656C324.65 4.74133 324.416 4.90133 324.181 5.136C323.957 5.37067 323.76 5.71733 323.589 6.176V10.656C323.589 11.0187 323.605 11.2373 323.637 11.312C323.669 11.376 323.77 11.4187 323.941 11.44L324.821 11.552V12H320.517V11.552L321.397 11.44C321.568 11.4187 321.669 11.376 321.701 11.312C321.733 11.2373 321.749 11.0187 321.749 10.656V5.232C321.749 4.86933 321.733 4.656 321.701 4.592C321.669 4.51733 321.568 4.46933 321.397 4.448L320.517 4.336V3.888H323.493V5.296C323.792 4.752 324.176 4.35733 324.645 4.112C325.114 3.856 325.589 3.728 326.069 3.728C326.645 3.728 327.13 3.87733 327.525 4.176C327.93 4.464 328.218 4.88 328.389 5.424C328.677 4.82667 329.066 4.39467 329.557 4.128C330.048 3.86133 330.538 3.728 331.029 3.728C331.786 3.728 332.389 3.97867 332.837 4.48C333.285 4.98133 333.509 5.69067 333.509 6.608V10.656C333.509 11.0187 333.525 11.2373 333.557 11.312C333.589 11.376 333.69 11.4187 333.861 11.44L334.741 11.552V12H330.437V11.552L331.317 11.44C331.488 11.4187 331.589 11.376 331.621 11.312C331.653 11.2373 331.669 11.0187 331.669 10.656V6.624C331.669 5.888 331.568 5.35467 331.365 5.024C331.162 4.68267 330.858 4.512 330.453 4.512C330.282 4.512 330.08 4.56 329.845 4.656C329.61 4.74133 329.376 4.90667 329.141 5.152C328.906 5.39733 328.704 5.75467 328.533 6.224C328.544 6.27733 328.549 6.34133 328.549 6.416C328.549 6.48 328.549 6.544 328.549 6.608V10.656C328.549 11.0187 328.565 11.2373 328.597 11.312C328.629 11.376 328.73 11.4187 328.901 11.44L329.781 11.552ZM340.147 2.512C339.816 2.512 339.549 2.41067 339.347 2.208C339.144 1.99467 339.043 1.72267 339.043 1.392C339.043 1.06133 339.144 0.794666 339.347 0.591999C339.549 0.389332 339.816 0.287999 340.147 0.287999C340.467 0.287999 340.733 0.389332 340.947 0.591999C341.16 0.794666 341.267 1.06133 341.267 1.392C341.267 1.72267 341.16 1.99467 340.947 2.208C340.733 2.41067 340.467 2.512 340.147 2.512ZM338.003 4.336V3.888H341.075V10.656C341.075 11.0187 341.091 11.2373 341.123 11.312C341.155 11.376 341.256 11.4187 341.427 11.44L342.307 11.552V12H338.003V11.552L338.883 11.44C339.053 11.4187 339.155 11.376 339.187 11.312C339.219 11.2373 339.235 11.0187 339.235 10.656V5.232C339.235 4.86933 339.219 4.656 339.187 4.592C339.155 4.51733 339.053 4.46933 338.883 4.448L338.003 4.336ZM345.532 0.608V0.16H348.604V10.656C348.604 11.0187 348.62 11.2373 348.652 11.312C348.684 11.376 348.786 11.4187 348.956 11.44L349.836 11.552V12H345.532V11.552L346.412 11.44C346.583 11.4187 346.684 11.376 346.716 11.312C346.748 11.2373 346.764 11.0187 346.764 10.656V1.504C346.764 1.14133 346.748 0.927999 346.716 0.863999C346.684 0.789333 346.583 0.741333 346.412 0.719999L345.532 0.608ZM357.344 12.8C357.099 13.472 356.827 14.0107 356.528 14.416C356.24 14.8213 355.883 15.1147 355.456 15.296C355.03 15.4773 354.496 15.568 353.856 15.568V13.808C354.507 13.808 355.03 13.76 355.424 13.664C355.83 13.5787 356.139 13.4347 356.352 13.232C356.576 13.04 356.742 12.7893 356.848 12.48L357.008 12H356.176L353.904 5.232C353.83 4.98667 353.766 4.816 353.712 4.72C353.67 4.61333 353.616 4.544 353.552 4.512C353.499 4.48 353.414 4.45867 353.296 4.448L352.416 4.336V3.888H356.736V4.336L355.856 4.448C355.728 4.45867 355.648 4.50133 355.616 4.576C355.595 4.64 355.643 4.85867 355.76 5.232L357.504 10.512L359.312 5.168C359.43 4.82667 359.478 4.62933 359.456 4.576C359.446 4.512 359.36 4.46933 359.2 4.448L358.32 4.336V3.888H361.376V4.336L360.496 4.448C360.336 4.46933 360.23 4.512 360.176 4.576C360.123 4.64 360.038 4.83733 359.92 5.168L357.344 12.8Z" fill="#110101"/>
</svg>
