<svg width="191" height="23" viewBox="0 0 191 23" fill="none" xmlns="http://www.w3.org/2000/svg">
<path d="M2.35438e-06 1.91999V1.24799H6.624C7.904 1.24799 8.92 1.42399 9.672 1.77599C10.424 2.12799 10.96 2.59199 11.28 3.16799C11.616 3.74399 11.784 4.38399 11.784 5.08799V5.73599C11.784 6.56799 11.52 7.28799 10.992 7.89599C10.48 8.48799 9.728 8.91199 8.736 9.16799C9.952 9.37599 10.88 9.80799 11.52 10.464C12.176 11.12 12.504 11.944 12.504 12.936V13.608C12.504 14.328 12.336 14.992 12 15.6C11.664 16.192 11.104 16.672 10.32 17.04C9.552 17.392 8.52 17.568 7.224 17.568H2.35438e-06V16.896L1.32 16.728C1.576 16.696 1.728 16.632 1.776 16.536C1.824 16.424 1.848 16.096 1.848 15.552V3.26399C1.848 2.71999 1.824 2.39999 1.776 2.30399C1.728 2.19199 1.576 2.11999 1.32 2.08799L2.35438e-06 1.91999ZM6.624 2.08799H4.728V8.80799H6.624C7.312 8.80799 7.832 8.57599 8.184 8.11199C8.536 7.63199 8.712 6.87999 8.712 5.85599V5.08799C8.712 4.04799 8.536 3.28799 8.184 2.80799C7.832 2.32799 7.312 2.08799 6.624 2.08799ZM7.224 9.64799H4.728V16.728H7.224C7.944 16.728 8.488 16.488 8.856 16.008C9.24 15.512 9.432 14.712 9.432 13.608V12.816C9.432 10.704 8.696 9.64799 7.224 9.64799ZM20.8851 17.808C20.3891 17.808 19.9811 17.656 19.6611 17.352C19.3571 17.032 19.2051 16.616 19.2051 16.104C19.2051 15.592 19.3571 15.184 19.6611 14.88C19.9811 14.576 20.3891 14.424 20.8851 14.424C21.3811 14.424 21.7891 14.576 22.1091 14.88C22.4291 15.184 22.5891 15.592 22.5891 16.104C22.5891 16.616 22.4291 17.032 22.1091 17.352C21.7891 17.656 21.3811 17.808 20.8851 17.808ZM49.7214 13.44H50.3934V17.568H38.5134V16.896L39.8334 16.728C40.0894 16.696 40.2414 16.632 40.2894 16.536C40.3374 16.424 40.3614 16.096 40.3614 15.552V3.26399C40.3614 2.71999 40.3374 2.39999 40.2894 2.30399C40.2414 2.19199 40.0894 2.11999 39.8334 2.08799L38.5134 1.91999V1.24799H50.1534V5.37599H49.4814L48.7134 2.71199C48.6654 2.51999 48.6094 2.38399 48.5454 2.30399C48.4974 2.20799 48.3934 2.15199 48.2334 2.13599C48.0734 2.10399 47.8014 2.08799 47.4174 2.08799H43.2414V8.90399H45.9774C46.3614 8.90399 46.6334 8.89599 46.7934 8.87999C46.9534 8.84799 47.0574 8.79199 47.1054 8.71199C47.1694 8.61599 47.2254 8.47199 47.2734 8.27999L47.8014 6.33599H48.4734V12.312H47.8014L47.2734 10.368C47.2254 10.176 47.1694 10.04 47.1054 9.95999C47.0574 9.86399 46.9534 9.80799 46.7934 9.79199C46.6334 9.75999 46.3614 9.74399 45.9774 9.74399H43.2414V16.728H47.6574C48.0414 16.728 48.3134 16.72 48.4734 16.704C48.6334 16.672 48.7374 16.616 48.7854 16.536C48.8494 16.44 48.9054 16.296 48.9534 16.104L49.7214 13.44ZM60.9424 16.896V17.568H56.1424V16.896L57.4624 16.728C57.6224 16.696 57.7424 16.664 57.8224 16.632C57.9184 16.584 58.0304 16.48 58.1584 16.32C58.2864 16.16 58.4704 15.904 58.7104 15.552L61.2784 11.808L58.7104 7.41599C58.5024 7.04799 58.3424 6.79199 58.2304 6.64799C58.1184 6.48799 58.0144 6.38399 57.9184 6.33599C57.8224 6.28799 57.6944 6.25599 57.5344 6.23999L56.2144 6.07199V5.39999H62.8624V6.07199L61.5424 6.23999C61.2864 6.27199 61.1664 6.33599 61.1824 6.43199C61.1984 6.52799 61.3664 6.85599 61.6864 7.41599L63.2944 10.152L65.1424 7.41599C65.5104 6.87199 65.6944 6.55199 65.6944 6.45599C65.7104 6.34399 65.5904 6.27199 65.3344 6.23999L64.0144 6.07199V5.39999H68.8144V6.07199L67.4944 6.23999C67.3344 6.25599 67.2064 6.28799 67.1104 6.33599C67.0304 6.38399 66.9264 6.48799 66.7984 6.64799C66.6864 6.79199 66.5024 7.04799 66.2464 7.41599L63.7984 11.016L66.4384 15.552C66.6624 15.92 66.8224 16.184 66.9184 16.344C67.0304 16.488 67.1344 16.584 67.2304 16.632C67.3264 16.664 67.4544 16.696 67.6144 16.728L68.9344 16.896V17.568H62.2864V16.896L63.6064 16.728C63.8624 16.696 63.9824 16.632 63.9664 16.536C63.9504 16.424 63.7824 16.096 63.4624 15.552L61.7824 12.648L59.8144 15.552C59.4464 16.096 59.2544 16.424 59.2384 16.536C59.2384 16.632 59.3664 16.696 59.6224 16.728L60.9424 16.896ZM84.3924 14.712C84.1044 15.832 83.5684 16.632 82.7844 17.112C82.0004 17.576 81.0884 17.808 80.0484 17.808C78.1284 17.808 76.6884 17.256 75.7284 16.152C74.7684 15.032 74.2884 13.552 74.2884 11.712V11.232C74.2884 9.39199 74.7364 7.91999 75.6324 6.81599C76.5444 5.71199 77.8564 5.15999 79.5684 5.15999C80.5284 5.15999 81.3764 5.35199 82.1124 5.73599C82.8644 6.10399 83.4484 6.63999 83.8644 7.34399C84.2964 8.04799 84.5124 8.90399 84.5124 9.91199C84.5124 10.152 84.4964 10.408 84.4644 10.68C84.4484 10.952 84.4084 11.224 84.3444 11.496H77.2404V12.192C77.2404 13.888 77.4804 15.112 77.9604 15.864C78.4404 16.6 79.2164 16.968 80.2884 16.968C80.9764 16.968 81.5604 16.768 82.0404 16.368C82.5204 15.952 82.7924 15.256 82.8564 14.28L84.3924 14.712ZM79.5684 5.99999C78.7844 5.99999 78.2004 6.35999 77.8164 7.07999C77.4324 7.79999 77.2404 8.99199 77.2404 10.656H81.5844C81.6484 10.336 81.6884 10.04 81.7044 9.76799C81.7364 9.47999 81.7524 9.21599 81.7524 8.97599C81.7524 7.95199 81.5524 7.19999 81.1524 6.71999C80.7524 6.23999 80.2244 5.99999 79.5684 5.99999ZM90.3516 6.07199V5.39999H94.8156V7.36799C95.7916 5.89599 96.9516 5.15999 98.2956 5.15999C98.7916 5.15999 99.2716 5.31999 99.7356 5.63999C100.2 5.94399 100.584 6.51999 100.888 7.36799L98.7516 8.51999C98.5276 7.86399 98.2636 7.42399 97.9596 7.19999C97.6716 6.95999 97.3596 6.83999 97.0236 6.83999C96.6716 6.83999 96.3276 6.95199 95.9916 7.17599C95.6556 7.39999 95.3116 7.81599 94.9596 8.42399V15.552C94.9596 16.096 94.9836 16.424 95.0316 16.536C95.0796 16.632 95.2316 16.696 95.4876 16.728L97.2876 16.896V17.568H90.3516V16.896L91.6716 16.728C91.9276 16.696 92.0796 16.632 92.1276 16.536C92.1756 16.424 92.1996 16.096 92.1996 15.552V7.41599C92.1996 6.87199 92.1756 6.55199 92.1276 6.45599C92.0796 6.34399 91.9276 6.27199 91.6716 6.23999L90.3516 6.07199ZM111.118 5.99999C110.35 5.99999 109.774 6.36799 109.39 7.10399C109.022 7.82399 108.838 9.03999 108.838 10.752V12.192C108.838 13.888 109.054 15.112 109.486 15.864C109.918 16.6 110.622 16.968 111.598 16.968C112.318 16.968 112.902 16.768 113.35 16.368C113.814 15.952 114.078 15.256 114.142 14.28L115.678 14.712C115.39 15.832 114.862 16.632 114.094 17.112C113.342 17.576 112.454 17.808 111.43 17.808C109.59 17.808 108.206 17.256 107.278 16.152C106.35 15.032 105.886 13.552 105.886 11.712V11.232C105.886 9.39199 106.334 7.91999 107.23 6.81599C108.126 5.71199 109.422 5.15999 111.118 5.15999C112.238 5.15999 113.15 5.38399 113.854 5.83199C114.574 6.26399 115.078 6.83999 115.366 7.55999C115.67 8.26399 115.75 9.02399 115.606 9.83999L112.966 10.224C113.142 8.87999 113.07 7.83999 112.75 7.10399C112.43 6.36799 111.886 5.99999 111.118 5.99999ZM124.532 3.33599C124.036 3.33599 123.636 3.18399 123.332 2.87999C123.028 2.55999 122.876 2.15199 122.876 1.65599C122.876 1.15999 123.028 0.759993 123.332 0.455992C123.636 0.151992 124.036 -8.10623e-06 124.532 -8.10623e-06C125.012 -8.10623e-06 125.412 0.151992 125.732 0.455992C126.052 0.759993 126.212 1.15999 126.212 1.65599C126.212 2.15199 126.052 2.55999 125.732 2.87999C125.412 3.18399 125.012 3.33599 124.532 3.33599ZM121.316 6.07199V5.39999H125.924V15.552C125.924 16.096 125.948 16.424 125.996 16.536C126.044 16.632 126.196 16.696 126.452 16.728L127.772 16.896V17.568H121.316V16.896L122.636 16.728C122.892 16.696 123.044 16.632 123.092 16.536C123.14 16.424 123.164 16.096 123.164 15.552V7.41599C123.164 6.87199 123.14 6.55199 123.092 6.45599C123.044 6.34399 122.892 6.27199 122.636 6.23999L121.316 6.07199ZM138.251 13.032L136.595 12.648C135.523 12.392 134.723 11.936 134.195 11.28C133.683 10.608 133.427 9.81599 133.427 8.90399C133.427 8.23199 133.571 7.61599 133.859 7.05599C134.163 6.47999 134.635 6.02399 135.275 5.68799C135.915 5.33599 136.747 5.15999 137.771 5.15999C138.875 5.15999 139.771 5.33599 140.459 5.68799C141.147 6.03999 141.635 6.50399 141.923 7.07999C142.211 7.65599 142.299 8.27199 142.187 8.92799L139.547 9.40799C139.771 8.31999 139.707 7.47999 139.355 6.88799C139.019 6.29599 138.451 5.99999 137.651 5.99999C137.091 5.99999 136.627 6.16799 136.259 6.50399C135.891 6.82399 135.707 7.28799 135.707 7.89599C135.707 8.45599 135.867 8.95199 136.187 9.38399C136.507 9.79999 136.979 10.08 137.603 10.224L139.259 10.608C140.443 10.88 141.299 11.312 141.827 11.904C142.355 12.48 142.619 13.2 142.619 14.064C142.619 15.136 142.219 16.032 141.419 16.752C140.635 17.456 139.459 17.808 137.891 17.808C137.347 17.808 136.747 17.728 136.091 17.568C135.451 17.392 134.859 17.08 134.315 16.632C133.787 16.184 133.403 15.544 133.163 14.712L134.723 14.088C134.835 15.144 135.195 15.888 135.803 16.32C136.427 16.752 137.123 16.968 137.891 16.968C138.611 16.968 139.195 16.808 139.643 16.488C140.107 16.152 140.339 15.672 140.339 15.048C140.339 14.616 140.187 14.224 139.883 13.872C139.595 13.504 139.051 13.224 138.251 13.032ZM151.606 3.33599C151.11 3.33599 150.71 3.18399 150.406 2.87999C150.102 2.55999 149.95 2.15199 149.95 1.65599C149.95 1.15999 150.102 0.759993 150.406 0.455992C150.71 0.151992 151.11 -8.10623e-06 151.606 -8.10623e-06C152.086 -8.10623e-06 152.486 0.151992 152.806 0.455992C153.126 0.759993 153.286 1.15999 153.286 1.65599C153.286 2.15199 153.126 2.55999 152.806 2.87999C152.486 3.18399 152.086 3.33599 151.606 3.33599ZM148.39 6.07199V5.39999H152.998V15.552C152.998 16.096 153.022 16.424 153.07 16.536C153.118 16.632 153.27 16.696 153.526 16.728L154.846 16.896V17.568H148.39V16.896L149.71 16.728C149.966 16.696 150.118 16.632 150.166 16.536C150.214 16.424 150.238 16.096 150.238 15.552V7.41599C150.238 6.87199 150.214 6.55199 150.166 6.45599C150.118 6.34399 149.966 6.27199 149.71 6.23999L148.39 6.07199ZM173.989 16.896V17.568H167.533V16.896L168.853 16.728C169.109 16.696 169.261 16.632 169.309 16.536C169.357 16.424 169.381 16.096 169.381 15.552V9.50399C169.381 8.39999 169.213 7.59999 168.877 7.10399C168.557 6.59199 168.077 6.33599 167.437 6.33599C167.165 6.33599 166.845 6.40799 166.477 6.55199C166.125 6.67999 165.765 6.91999 165.397 7.27199C165.045 7.62399 164.733 8.14399 164.461 8.83199V15.552C164.461 16.096 164.485 16.424 164.533 16.536C164.581 16.632 164.733 16.696 164.989 16.728L166.309 16.896V17.568H159.853V16.896L161.173 16.728C161.429 16.696 161.581 16.632 161.629 16.536C161.677 16.424 161.701 16.096 161.701 15.552V7.41599C161.701 6.87199 161.677 6.55199 161.629 6.45599C161.581 6.34399 161.429 6.27199 161.173 6.23999L159.853 6.07199V5.39999H164.317V7.51199C164.781 6.69599 165.373 6.10399 166.093 5.73599C166.829 5.35199 167.565 5.15999 168.301 5.15999C169.485 5.15999 170.421 5.53599 171.109 6.28799C171.797 7.03999 172.141 8.10399 172.141 9.47999V15.552C172.141 16.096 172.165 16.424 172.213 16.536C172.261 16.632 172.413 16.696 172.669 16.728L173.989 16.896ZM190.598 18.816C190.598 20.128 190.102 21.136 189.11 21.84C188.134 22.56 186.79 22.92 185.078 22.92C183.19 22.92 181.782 22.608 180.854 21.984C179.926 21.376 179.422 20.616 179.342 19.704L181.91 19.296C181.846 20.144 182.046 20.816 182.51 21.312C182.99 21.824 183.846 22.08 185.078 22.08C186.23 22.08 187.158 21.864 187.862 21.432C188.582 21 188.942 20.376 188.942 19.56C188.942 18.984 188.726 18.544 188.294 18.24C187.878 17.952 187.182 17.808 186.206 17.808H183.47C182.622 17.808 181.95 17.688 181.454 17.448C180.974 17.208 180.638 16.912 180.446 16.56C180.254 16.192 180.158 15.816 180.158 15.432C180.158 14.968 180.286 14.512 180.542 14.064C180.798 13.6 181.238 13.144 181.862 12.696C181.174 12.392 180.614 11.944 180.182 11.352C179.75 10.76 179.534 10.024 179.534 9.14399C179.534 8.24799 179.742 7.51199 180.158 6.93599C180.574 6.34399 181.134 5.90399 181.838 5.61599C182.542 5.31199 183.326 5.15999 184.19 5.15999H184.598C185.526 5.15999 186.326 5.31199 186.998 5.61599L190.454 3.91199L190.742 6.26399H188.006C188.39 6.59999 188.686 7.00799 188.894 7.48799C189.118 7.95199 189.23 8.50399 189.23 9.14399C189.23 10.008 189.022 10.736 188.606 11.328C188.19 11.92 187.63 12.368 186.926 12.672C186.238 12.976 185.462 13.128 184.598 13.128H184.19C183.71 13.128 183.238 13.08 182.774 12.984C182.374 13.256 182.094 13.52 181.934 13.776C181.79 14.016 181.718 14.248 181.718 14.472C181.718 14.728 181.83 14.92 182.054 15.048C182.294 15.176 182.678 15.24 183.206 15.24H186.326C187.702 15.24 188.758 15.552 189.494 16.176C190.23 16.784 190.598 17.664 190.598 18.816ZM184.598 12.288C185.11 12.288 185.55 12.064 185.918 11.616C186.286 11.168 186.47 10.344 186.47 9.14399C186.47 7.94399 186.286 7.11999 185.918 6.67199C185.55 6.22399 185.11 5.99999 184.598 5.99999H184.19C183.678 5.99999 183.23 6.22399 182.846 6.67199C182.478 7.11999 182.294 7.94399 182.294 9.14399C182.294 10.344 182.478 11.168 182.846 11.616C183.23 12.064 183.678 12.288 184.19 12.288H184.598Z" fill="black"/>
</svg>
