<svg width="258" height="24" viewBox="0 0 258 24" fill="none" xmlns="http://www.w3.org/2000/svg">
<path d="M-8.91984e-05 2.11201V1.44001H6.62391C7.90391 1.44001 8.91991 1.61601 9.67191 1.96801C10.4239 2.32001 10.9599 2.78401 11.2799 3.36001C11.6159 3.93601 11.7839 4.57601 11.7839 5.28001V5.92801C11.7839 6.76001 11.5199 7.48001 10.9919 8.08801C10.4799 8.68001 9.72791 9.10401 8.73591 9.36001C9.95191 9.56801 10.8799 10 11.5199 10.656C12.1759 11.312 12.5039 12.136 12.5039 13.128V13.8C12.5039 14.52 12.3359 15.184 11.9999 15.792C11.6639 16.384 11.1039 16.864 10.3199 17.232C9.55191 17.584 8.51991 17.76 7.22391 17.76H-8.91984e-05V17.088L1.31991 16.92C1.57591 16.888 1.72791 16.824 1.77591 16.728C1.82391 16.616 1.84791 16.288 1.84791 15.744V3.45601C1.84791 2.91201 1.82391 2.59201 1.77591 2.49601C1.72791 2.38401 1.57591 2.31201 1.31991 2.28001L-8.91984e-05 2.11201ZM6.62391 2.28001H4.72791V9.00001H6.62391C7.31191 9.00001 7.83191 8.76801 8.18391 8.30401C8.53591 7.82401 8.71191 7.07201 8.71191 6.04801V5.28001C8.71191 4.24001 8.53591 3.48001 8.18391 3.00001C7.83191 2.52001 7.31191 2.28001 6.62391 2.28001ZM7.22391 9.84001H4.72791V16.92H7.22391C7.94391 16.92 8.48791 16.68 8.85591 16.2C9.23991 15.704 9.43191 14.904 9.43191 13.8V13.008C9.43191 10.896 8.69591 9.84001 7.22391 9.84001ZM20.885 18C20.389 18 19.981 17.848 19.661 17.544C19.357 17.224 19.205 16.808 19.205 16.296C19.205 15.784 19.357 15.376 19.661 15.072C19.981 14.768 20.389 14.616 20.885 14.616C21.381 14.616 21.789 14.768 22.109 15.072C22.429 15.376 22.589 15.784 22.589 16.296C22.589 16.808 22.429 17.224 22.109 17.544C21.789 17.848 21.381 18 20.885 18ZM37.7693 1.44001H50.9693V5.56801H50.2973L49.5293 2.90401C49.4813 2.69601 49.4253 2.55201 49.3613 2.47201C49.3133 2.37601 49.2093 2.32001 49.0493 2.30401C48.8893 2.28801 48.6173 2.28001 48.2333 2.28001H45.8093V15.744C45.8093 16.288 45.8333 16.616 45.8813 16.728C45.9293 16.824 46.0813 16.888 46.3373 16.92L47.6573 17.088V17.76H41.0813V17.088L42.4013 16.92C42.6573 16.888 42.8093 16.824 42.8573 16.728C42.9053 16.616 42.9293 16.288 42.9293 15.744V2.28001H40.5053C40.1373 2.28001 39.8653 2.28801 39.6893 2.30401C39.5293 2.32001 39.4253 2.37601 39.3773 2.47201C39.3293 2.55201 39.2733 2.69601 39.2093 2.90401L38.4413 5.56801H37.7693V1.44001ZM66.9732 11.424V11.904C66.9732 13.744 66.4932 15.224 65.5332 16.344C64.5892 17.448 63.2372 18 61.4772 18C59.7172 18 58.3572 17.448 57.3972 16.344C56.4532 15.224 55.9812 13.744 55.9812 11.904V11.424C55.9812 9.58401 56.4532 8.11201 57.3972 7.00801C58.3572 5.90401 59.7172 5.35201 61.4772 5.35201C63.2372 5.35201 64.5892 5.90401 65.5332 7.00801C66.4932 8.11201 66.9732 9.58401 66.9732 11.424ZM64.0212 10.944C64.0212 9.23201 63.8052 8.01601 63.3732 7.29601C62.9412 6.56001 62.3092 6.19201 61.4772 6.19201C60.6612 6.19201 60.0292 6.56001 59.5812 7.29601C59.1492 8.01601 58.9332 9.23201 58.9332 10.944V12.384C58.9332 14.08 59.1492 15.304 59.5812 16.056C60.0292 16.792 60.6612 17.16 61.4772 17.16C62.3092 17.16 62.9412 16.792 63.3732 16.056C63.8052 15.304 64.0212 14.08 64.0212 12.384V10.944ZM86.4498 17.088V17.76H81.9858V15.648C81.5378 16.464 80.9618 17.064 80.2578 17.448C79.5538 17.816 78.8418 18 78.1218 18C76.9858 18 76.0818 17.624 75.4098 16.872C74.7378 16.104 74.4018 15.04 74.4018 13.68V7.60801C74.4018 7.06401 74.3778 6.74401 74.3298 6.64801C74.2818 6.53601 74.1298 6.46401 73.8738 6.43201L72.5538 6.26401V5.59201H77.1618V13.656C77.1618 14.76 77.3138 15.568 77.6178 16.08C77.9378 16.576 78.3938 16.824 78.9858 16.824C79.2418 16.824 79.5378 16.76 79.8738 16.632C80.2258 16.488 80.5778 16.24 80.9298 15.888C81.2818 15.52 81.5858 15 81.8418 14.328V7.60801C81.8418 7.06401 81.8178 6.73601 81.7698 6.62401C81.7218 6.51201 81.5698 6.44801 81.3138 6.43201L79.5138 6.26401V5.59201H84.6018V15.744C84.6018 16.288 84.6258 16.616 84.6738 16.728C84.7218 16.824 84.8738 16.888 85.1298 16.92L86.4498 17.088ZM97.4285 6.19201C96.6605 6.19201 96.0845 6.56001 95.7005 7.29601C95.3325 8.01601 95.1485 9.23201 95.1485 10.944V12.384C95.1485 14.08 95.3645 15.304 95.7965 16.056C96.2285 16.792 96.9325 17.16 97.9085 17.16C98.6285 17.16 99.2125 16.96 99.6605 16.56C100.124 16.144 100.388 15.448 100.452 14.472L101.988 14.904C101.7 16.024 101.172 16.824 100.404 17.304C99.6525 17.768 98.7645 18 97.7405 18C95.9005 18 94.5165 17.448 93.5885 16.344C92.6605 15.224 92.1965 13.744 92.1965 11.904V11.424C92.1965 9.58401 92.6445 8.11201 93.5405 7.00801C94.4365 5.90401 95.7325 5.35201 97.4285 5.35201C98.5485 5.35201 99.4605 5.57601 100.164 6.02401C100.884 6.45601 101.388 7.03201 101.676 7.75201C101.98 8.45601 102.06 9.21601 101.916 10.032L99.2765 10.416C99.4525 9.07201 99.3805 8.03201 99.0605 7.29601C98.7405 6.56001 98.1965 6.19201 97.4285 6.19201ZM121.595 17.088V17.76H115.139V17.088L116.459 16.92C116.715 16.888 116.867 16.824 116.915 16.728C116.963 16.616 116.987 16.288 116.987 15.744V9.69601C116.987 8.59201 116.819 7.79201 116.483 7.29601C116.163 6.78401 115.683 6.52801 115.043 6.52801C114.771 6.52801 114.451 6.60001 114.083 6.74401C113.731 6.87201 113.371 7.11201 113.003 7.46401C112.651 7.81601 112.339 8.33601 112.067 9.02401V15.744C112.067 16.288 112.091 16.616 112.139 16.728C112.187 16.824 112.339 16.888 112.595 16.92L113.915 17.088V17.76H107.459V17.088L108.779 16.92C109.035 16.888 109.187 16.824 109.235 16.728C109.283 16.616 109.307 16.288 109.307 15.744V2.01601C109.307 1.47201 109.283 1.15201 109.235 1.05601C109.187 0.944009 109.035 0.872009 108.779 0.840009L107.459 0.672009V9.53674e-06H112.067V7.46401C112.531 6.72801 113.107 6.19201 113.795 5.85601C114.499 5.52001 115.203 5.35201 115.907 5.35201C117.091 5.35201 118.027 5.72801 118.715 6.48001C119.403 7.23201 119.747 8.29601 119.747 9.67201V15.744C119.747 16.288 119.771 16.616 119.819 16.728C119.867 16.824 120.019 16.888 120.275 16.92L121.595 17.088ZM129.712 3.52801C129.216 3.52801 128.816 3.37601 128.512 3.07201C128.208 2.75201 128.056 2.34401 128.056 1.84801C128.056 1.35201 128.208 0.952009 128.512 0.648008C128.816 0.344008 129.216 0.192008 129.712 0.192008C130.192 0.192008 130.592 0.344008 130.912 0.648008C131.232 0.952009 131.392 1.35201 131.392 1.84801C131.392 2.34401 131.232 2.75201 130.912 3.07201C130.592 3.37601 130.192 3.52801 129.712 3.52801ZM126.496 6.26401V5.59201H131.104V15.744C131.104 16.288 131.128 16.616 131.176 16.728C131.224 16.824 131.376 16.888 131.632 16.92L132.952 17.088V17.76H126.496V17.088L127.816 16.92C128.072 16.888 128.224 16.824 128.272 16.728C128.32 16.616 128.344 16.288 128.344 15.744V7.60801C128.344 7.06401 128.32 6.74401 128.272 6.64801C128.224 6.53601 128.072 6.46401 127.816 6.43201L126.496 6.26401ZM152.095 17.088V17.76H145.639V17.088L146.959 16.92C147.215 16.888 147.367 16.824 147.415 16.728C147.463 16.616 147.487 16.288 147.487 15.744V9.69601C147.487 8.59201 147.319 7.79201 146.983 7.29601C146.663 6.78401 146.183 6.52801 145.543 6.52801C145.271 6.52801 144.951 6.60001 144.583 6.74401C144.231 6.87201 143.871 7.11201 143.503 7.46401C143.151 7.81601 142.839 8.33601 142.567 9.02401V15.744C142.567 16.288 142.591 16.616 142.639 16.728C142.687 16.824 142.839 16.888 143.095 16.92L144.415 17.088V17.76H137.959V17.088L139.279 16.92C139.535 16.888 139.687 16.824 139.735 16.728C139.783 16.616 139.807 16.288 139.807 15.744V7.60801C139.807 7.06401 139.783 6.74401 139.735 6.64801C139.687 6.53601 139.535 6.46401 139.279 6.43201L137.959 6.26401V5.59201H142.423V7.70401C142.887 6.88801 143.479 6.29601 144.199 5.92801C144.935 5.54401 145.671 5.35201 146.407 5.35201C147.591 5.35201 148.527 5.72801 149.215 6.48001C149.903 7.23201 150.247 8.29601 150.247 9.67201V15.744C150.247 16.288 150.271 16.616 150.319 16.728C150.367 16.824 150.519 16.888 150.775 16.92L152.095 17.088ZM168.704 19.008C168.704 20.32 168.208 21.328 167.216 22.032C166.24 22.752 164.896 23.112 163.184 23.112C161.296 23.112 159.888 22.8 158.96 22.176C158.032 21.568 157.528 20.808 157.448 19.896L160.016 19.488C159.952 20.336 160.152 21.008 160.616 21.504C161.096 22.016 161.952 22.272 163.184 22.272C164.336 22.272 165.264 22.056 165.968 21.624C166.688 21.192 167.048 20.568 167.048 19.752C167.048 19.176 166.832 18.736 166.4 18.432C165.984 18.144 165.288 18 164.312 18H161.576C160.728 18 160.056 17.88 159.56 17.64C159.08 17.4 158.744 17.104 158.552 16.752C158.36 16.384 158.264 16.008 158.264 15.624C158.264 15.16 158.392 14.704 158.648 14.256C158.904 13.792 159.344 13.336 159.968 12.888C159.28 12.584 158.72 12.136 158.288 11.544C157.856 10.952 157.64 10.216 157.64 9.33601C157.64 8.44001 157.848 7.70401 158.264 7.12801C158.68 6.53601 159.24 6.09601 159.944 5.80801C160.648 5.50401 161.432 5.35201 162.296 5.35201H162.704C163.632 5.35201 164.432 5.50401 165.104 5.80801L168.56 4.10401L168.848 6.45601H166.112C166.496 6.79201 166.792 7.20001 167 7.68001C167.224 8.14401 167.336 8.69601 167.336 9.33601C167.336 10.2 167.128 10.928 166.712 11.52C166.296 12.112 165.736 12.56 165.032 12.864C164.344 13.168 163.568 13.32 162.704 13.32H162.296C161.816 13.32 161.344 13.272 160.88 13.176C160.48 13.448 160.2 13.712 160.04 13.968C159.896 14.208 159.824 14.44 159.824 14.664C159.824 14.92 159.936 15.112 160.16 15.24C160.4 15.368 160.784 15.432 161.312 15.432H164.432C165.808 15.432 166.864 15.744 167.6 16.368C168.336 16.976 168.704 17.856 168.704 19.008ZM162.704 12.48C163.216 12.48 163.656 12.256 164.024 11.808C164.392 11.36 164.576 10.536 164.576 9.33601C164.576 8.13601 164.392 7.31201 164.024 6.86401C163.656 6.41601 163.216 6.19201 162.704 6.19201H162.296C161.784 6.19201 161.336 6.41601 160.952 6.86401C160.584 7.31201 160.4 8.13601 160.4 9.33601C160.4 10.536 160.584 11.36 160.952 11.808C161.336 12.256 161.784 12.48 162.296 12.48H162.704ZM195.004 19.008C195.004 20.32 194.508 21.328 193.516 22.032C192.54 22.752 191.196 23.112 189.484 23.112C187.596 23.112 186.188 22.8 185.26 22.176C184.332 21.568 183.828 20.808 183.748 19.896L186.316 19.488C186.252 20.336 186.452 21.008 186.916 21.504C187.396 22.016 188.252 22.272 189.484 22.272C190.636 22.272 191.564 22.056 192.268 21.624C192.988 21.192 193.348 20.568 193.348 19.752C193.348 19.176 193.132 18.736 192.7 18.432C192.284 18.144 191.588 18 190.612 18H187.876C187.028 18 186.356 17.88 185.86 17.64C185.38 17.4 185.044 17.104 184.852 16.752C184.66 16.384 184.564 16.008 184.564 15.624C184.564 15.16 184.692 14.704 184.948 14.256C185.204 13.792 185.644 13.336 186.268 12.888C185.58 12.584 185.02 12.136 184.588 11.544C184.156 10.952 183.94 10.216 183.94 9.33601C183.94 8.44001 184.148 7.70401 184.564 7.12801C184.98 6.53601 185.54 6.09601 186.244 5.80801C186.948 5.50401 187.732 5.35201 188.596 5.35201H189.004C189.932 5.35201 190.732 5.50401 191.404 5.80801L194.86 4.10401L195.148 6.45601H192.412C192.796 6.79201 193.092 7.20001 193.3 7.68001C193.524 8.14401 193.636 8.69601 193.636 9.33601C193.636 10.2 193.428 10.928 193.012 11.52C192.596 12.112 192.036 12.56 191.332 12.864C190.644 13.168 189.868 13.32 189.004 13.32H188.596C188.116 13.32 187.644 13.272 187.18 13.176C186.78 13.448 186.5 13.712 186.34 13.968C186.196 14.208 186.124 14.44 186.124 14.664C186.124 14.92 186.236 15.112 186.46 15.24C186.7 15.368 187.084 15.432 187.612 15.432H190.732C192.108 15.432 193.164 15.744 193.9 16.368C194.636 16.976 195.004 17.856 195.004 19.008ZM189.004 12.48C189.516 12.48 189.956 12.256 190.324 11.808C190.692 11.36 190.876 10.536 190.876 9.33601C190.876 8.13601 190.692 7.31201 190.324 6.86401C189.956 6.41601 189.516 6.19201 189.004 6.19201H188.596C188.084 6.19201 187.636 6.41601 187.252 6.86401C186.884 7.31201 186.7 8.13601 186.7 9.33601C186.7 10.536 186.884 11.36 187.252 11.808C187.636 12.256 188.084 12.48 188.596 12.48H189.004ZM200.146 6.26401V5.59201H204.61V7.56001C205.586 6.08801 206.746 5.35201 208.09 5.35201C208.586 5.35201 209.066 5.51201 209.53 5.83201C209.994 6.13601 210.378 6.71201 210.682 7.56001L208.546 8.71201C208.322 8.05601 208.058 7.61601 207.754 7.39201C207.466 7.15201 207.154 7.03201 206.818 7.03201C206.466 7.03201 206.122 7.14401 205.786 7.36801C205.45 7.59201 205.106 8.00801 204.754 8.61601V15.744C204.754 16.288 204.778 16.616 204.826 16.728C204.874 16.824 205.026 16.888 205.282 16.92L207.082 17.088V17.76H200.146V17.088L201.466 16.92C201.722 16.888 201.874 16.824 201.922 16.728C201.97 16.616 201.994 16.288 201.994 15.744V7.60801C201.994 7.06401 201.97 6.74401 201.922 6.64801C201.874 6.53601 201.722 6.46401 201.466 6.43201L200.146 6.26401ZM227.435 17.16C227.179 17.4 226.867 17.6 226.499 17.76C226.147 17.92 225.715 18 225.203 18C224.547 18 223.995 17.856 223.547 17.568C223.115 17.28 222.827 16.872 222.683 16.344C222.155 16.92 221.571 17.344 220.931 17.616C220.307 17.872 219.667 18 219.011 18C217.907 18 217.083 17.696 216.539 17.088C215.995 16.464 215.723 15.688 215.723 14.76C215.723 13.816 216.067 13.056 216.755 12.48C217.443 11.888 218.659 11.592 220.403 11.592H222.587V9.64801C222.587 8.32001 222.411 7.41601 222.059 6.93601C221.723 6.44001 221.251 6.19201 220.643 6.19201C220.243 6.19201 219.875 6.29601 219.539 6.50401C219.203 6.69601 218.963 7.06401 218.819 7.60801C218.691 8.13601 218.715 8.90401 218.891 9.91201L216.251 9.52801C216.123 8.79201 216.203 8.11201 216.491 7.48801C216.795 6.84801 217.299 6.33601 218.003 5.95201C218.707 5.55201 219.603 5.35201 220.691 5.35201C221.923 5.35201 222.875 5.55201 223.547 5.95201C224.219 6.35201 224.683 6.88001 224.939 7.53601C225.211 8.19201 225.347 8.89601 225.347 9.64801V15.192C225.347 16.008 225.419 16.52 225.563 16.728C225.707 16.936 225.867 17.04 226.043 17.04C226.331 17.04 226.651 16.872 227.003 16.536L227.435 17.16ZM220.067 16.728C220.483 16.728 220.891 16.624 221.291 16.416C221.707 16.192 222.139 15.784 222.587 15.192V12.432H220.787C220.003 12.432 219.435 12.616 219.083 12.984C218.731 13.352 218.555 13.928 218.555 14.712C218.555 15.352 218.683 15.848 218.939 16.2C219.195 16.552 219.571 16.728 220.067 16.728ZM237.661 13.224L236.005 12.84C234.933 12.584 234.133 12.128 233.605 11.472C233.093 10.8 232.837 10.008 232.837 9.09601C232.837 8.42401 232.981 7.80801 233.269 7.24801C233.573 6.67201 234.045 6.21601 234.685 5.88001C235.325 5.52801 236.157 5.35201 237.181 5.35201C238.285 5.35201 239.181 5.52801 239.869 5.88001C240.557 6.23201 241.045 6.69601 241.333 7.27201C241.621 7.84801 241.709 8.46401 241.597 9.12001L238.957 9.60001C239.181 8.51201 239.117 7.67201 238.765 7.08001C238.429 6.48801 237.861 6.19201 237.061 6.19201C236.501 6.19201 236.037 6.36001 235.669 6.69601C235.301 7.01601 235.117 7.48001 235.117 8.08801C235.117 8.64801 235.277 9.14401 235.597 9.57601C235.917 9.99201 236.389 10.272 237.013 10.416L238.669 10.8C239.853 11.072 240.709 11.504 241.237 12.096C241.765 12.672 242.029 13.392 242.029 14.256C242.029 15.328 241.629 16.224 240.829 16.944C240.045 17.648 238.869 18 237.301 18C236.757 18 236.157 17.92 235.501 17.76C234.861 17.584 234.269 17.272 233.725 16.824C233.197 16.376 232.813 15.736 232.573 14.904L234.133 14.28C234.245 15.336 234.605 16.08 235.213 16.512C235.837 16.944 236.533 17.16 237.301 17.16C238.021 17.16 238.605 17 239.053 16.68C239.517 16.344 239.749 15.864 239.749 15.24C239.749 14.808 239.597 14.416 239.293 14.064C239.005 13.696 238.461 13.416 237.661 13.224ZM253.272 13.224L251.616 12.84C250.544 12.584 249.744 12.128 249.216 11.472C248.704 10.8 248.448 10.008 248.448 9.09601C248.448 8.42401 248.592 7.80801 248.88 7.24801C249.184 6.67201 249.656 6.21601 250.296 5.88001C250.936 5.52801 251.768 5.35201 252.792 5.35201C253.896 5.35201 254.792 5.52801 255.48 5.88001C256.168 6.23201 256.656 6.69601 256.944 7.27201C257.232 7.84801 257.32 8.46401 257.208 9.12001L254.568 9.60001C254.792 8.51201 254.728 7.67201 254.376 7.08001C254.04 6.48801 253.472 6.19201 252.672 6.19201C252.112 6.19201 251.648 6.36001 251.28 6.69601C250.912 7.01601 250.728 7.48001 250.728 8.08801C250.728 8.64801 250.888 9.14401 251.208 9.57601C251.528 9.99201 252 10.272 252.624 10.416L254.28 10.8C255.464 11.072 256.32 11.504 256.848 12.096C257.376 12.672 257.64 13.392 257.64 14.256C257.64 15.328 257.24 16.224 256.44 16.944C255.656 17.648 254.48 18 252.912 18C252.368 18 251.768 17.92 251.112 17.76C250.472 17.584 249.88 17.272 249.336 16.824C248.808 16.376 248.424 15.736 248.184 14.904L249.744 14.28C249.856 15.336 250.216 16.08 250.824 16.512C251.448 16.944 252.144 17.16 252.912 17.16C253.632 17.16 254.216 17 254.664 16.68C255.128 16.344 255.36 15.864 255.36 15.24C255.36 14.808 255.208 14.416 254.904 14.064C254.616 13.696 254.072 13.416 253.272 13.224Z" fill="white"/>
</svg>
