<svg width="367" height="16" viewBox="0 0 367 16" fill="none" xmlns="http://www.w3.org/2000/svg">
<path d="M4.57597 12C3.59464 12 2.76264 11.792 2.07997 11.376C1.3973 10.9493 0.87997 10.352 0.52797 9.584C0.17597 8.816 -3.02792e-05 7.92 -3.02792e-05 6.896V5.888C-3.02792e-05 4.864 0.154636 3.97333 0.46397 3.216C0.78397 2.448 1.25864 1.856 1.88797 1.44C2.5173 1.01333 3.30664 0.799995 4.25597 0.799995C5.06664 0.799995 5.74397 0.959996 6.28797 1.28C6.83197 1.58933 7.23197 2.00533 7.48797 2.528C7.75464 3.04 7.86664 3.6 7.82397 4.208L5.95197 4.672C6.05864 3.60533 5.94664 2.78933 5.61597 2.224C5.29597 1.648 4.81597 1.36 4.17597 1.36C3.4933 1.36 2.9653 1.648 2.59197 2.224C2.2293 2.8 2.04797 3.75466 2.04797 5.088V7.696C2.04797 9.01866 2.25597 9.97333 2.67197 10.56C3.08797 11.1467 3.72264 11.44 4.57597 11.44C4.92797 11.44 5.2533 11.376 5.55197 11.248C5.8613 11.12 6.1173 10.9013 6.31997 10.592C6.5333 10.272 6.66664 9.824 6.71997 9.248L7.87197 9.552C7.72264 10.1493 7.48264 10.6293 7.15197 10.992C6.8213 11.3547 6.43197 11.616 5.98397 11.776C5.54664 11.9253 5.0773 12 4.57597 12ZM13.2428 12C12.9122 12 12.6402 11.8987 12.4268 11.696C12.2242 11.4827 12.1228 11.2053 12.1228 10.864C12.1228 10.5227 12.2242 10.2507 12.4268 10.048C12.6402 9.84533 12.9122 9.744 13.2428 9.744C13.5735 9.744 13.8455 9.84533 14.0588 10.048C14.2722 10.2507 14.3788 10.5227 14.3788 10.864C14.3788 11.2053 14.2722 11.4827 14.0588 11.696C13.8455 11.8987 13.5735 12 13.2428 12ZM24.9951 1.408V0.959996H29.3791V1.408L28.4991 1.52C28.3284 1.54133 28.2271 1.58933 28.1951 1.664C28.1631 1.728 28.1471 1.94133 28.1471 2.304V10.496C28.1471 10.8587 28.1631 11.0773 28.1951 11.152C28.2271 11.216 28.3284 11.2587 28.4991 11.28L29.3791 11.392V11.84H24.9951V11.392L25.8751 11.28C26.0458 11.2587 26.1471 11.216 26.1791 11.152C26.2111 11.0773 26.2271 10.8587 26.2271 10.496V2.304C26.2271 1.94133 26.2111 1.728 26.1791 1.664C26.1471 1.58933 26.0458 1.54133 25.8751 1.52L24.9951 1.408ZM40.9687 12.672C40.9687 13.5467 40.6381 14.2187 39.9767 14.688C39.3261 15.168 38.4301 15.408 37.2887 15.408C36.0301 15.408 35.0914 15.2 34.4727 14.784C33.8541 14.3787 33.5181 13.872 33.4647 13.264L35.1767 12.992C35.1341 13.5573 35.2674 14.0053 35.5767 14.336C35.8967 14.6773 36.4674 14.848 37.2887 14.848C38.0567 14.848 38.6754 14.704 39.1447 14.416C39.6247 14.128 39.8647 13.712 39.8647 13.168C39.8647 12.784 39.7207 12.4907 39.4327 12.288C39.1554 12.096 38.6914 12 38.0407 12H36.2167C35.6514 12 35.2034 11.92 34.8727 11.76C34.5527 11.6 34.3287 11.4027 34.2007 11.168C34.0727 10.9227 34.0087 10.672 34.0087 10.416C34.0087 10.1067 34.0941 9.80266 34.2647 9.504C34.4354 9.19466 34.7287 8.89066 35.1447 8.592C34.6861 8.38933 34.3127 8.09066 34.0247 7.696C33.7367 7.30133 33.5927 6.81066 33.5927 6.224C33.5927 5.62666 33.7314 5.136 34.0087 4.752C34.2861 4.35733 34.6594 4.064 35.1287 3.872C35.5981 3.66933 36.1207 3.568 36.6967 3.568H36.9687C37.5874 3.568 38.1207 3.66933 38.5687 3.872L40.8727 2.736L41.0647 4.304H39.2407C39.4967 4.528 39.6941 4.8 39.8327 5.12C39.9821 5.42933 40.0567 5.79733 40.0567 6.224C40.0567 6.8 39.9181 7.28533 39.6407 7.68C39.3634 8.07466 38.9901 8.37333 38.5207 8.576C38.0621 8.77866 37.5447 8.88 36.9687 8.88H36.6967C36.3767 8.88 36.0621 8.848 35.7527 8.784C35.4861 8.96533 35.2994 9.14133 35.1927 9.312C35.0967 9.472 35.0487 9.62666 35.0487 9.776C35.0487 9.94666 35.1234 10.0747 35.2727 10.16C35.4327 10.2453 35.6887 10.288 36.0407 10.288H38.1207C39.0381 10.288 39.7421 10.496 40.2327 10.912C40.7234 11.3173 40.9687 11.904 40.9687 12.672ZM36.9687 8.32C37.3101 8.32 37.6034 8.17066 37.8487 7.872C38.0941 7.57333 38.2167 7.024 38.2167 6.224C38.2167 5.424 38.0941 4.87466 37.8487 4.576C37.6034 4.27733 37.3101 4.128 36.9687 4.128H36.6967C36.3554 4.128 36.0567 4.27733 35.8007 4.576C35.5554 4.87466 35.4327 5.424 35.4327 6.224C35.4327 7.024 35.5554 7.57333 35.8007 7.872C36.0567 8.17066 36.3554 8.32 36.6967 8.32H36.9687ZM53.8203 11.392V11.84H49.5163V11.392L50.3963 11.28C50.567 11.2587 50.6683 11.216 50.7003 11.152C50.7323 11.0773 50.7483 10.8587 50.7483 10.496V6.464C50.7483 5.728 50.6363 5.19466 50.4123 4.864C50.199 4.52266 49.879 4.352 49.4523 4.352C49.271 4.352 49.0577 4.4 48.8123 4.496C48.5777 4.58133 48.3377 4.74133 48.0923 4.976C47.8577 5.21066 47.6497 5.55733 47.4683 6.016V10.496C47.4683 10.8587 47.4843 11.0773 47.5163 11.152C47.5483 11.216 47.6497 11.2587 47.8203 11.28L48.7003 11.392V11.84H44.3963V11.392L45.2763 11.28C45.447 11.2587 45.5483 11.216 45.5803 11.152C45.6123 11.0773 45.6283 10.8587 45.6283 10.496V5.072C45.6283 4.70933 45.6123 4.496 45.5803 4.432C45.5483 4.35733 45.447 4.30933 45.2763 4.288L44.3963 4.176V3.728H47.3723V5.136C47.6817 4.592 48.0763 4.19733 48.5563 3.952C49.047 3.696 49.5377 3.568 50.0283 3.568C50.8177 3.568 51.4417 3.81866 51.9003 4.32C52.359 4.82133 52.5883 5.53066 52.5883 6.448V10.496C52.5883 10.8587 52.6043 11.0773 52.6363 11.152C52.6683 11.216 52.7697 11.2587 52.9403 11.28L53.8203 11.392ZM64.8771 7.616V7.936C64.8771 9.16266 64.5571 10.1493 63.9171 10.896C63.2878 11.632 62.3864 12 61.2131 12C60.0398 12 59.1331 11.632 58.4931 10.896C57.8638 10.1493 57.5491 9.16266 57.5491 7.936V7.616C57.5491 6.38933 57.8638 5.408 58.4931 4.672C59.1331 3.936 60.0398 3.568 61.2131 3.568C62.3864 3.568 63.2878 3.936 63.9171 4.672C64.5571 5.408 64.8771 6.38933 64.8771 7.616ZM62.9091 7.296C62.9091 6.15466 62.7651 5.344 62.4771 4.864C62.1891 4.37333 61.7678 4.128 61.2131 4.128C60.6691 4.128 60.2478 4.37333 59.9491 4.864C59.6611 5.344 59.5171 6.15466 59.5171 7.296V8.256C59.5171 9.38666 59.6611 10.2027 59.9491 10.704C60.2478 11.1947 60.6691 11.44 61.2131 11.44C61.7678 11.44 62.1891 11.1947 62.4771 10.704C62.7651 10.2027 62.9091 9.38666 62.9091 8.256V7.296ZM68.7895 4.176V3.728H71.7655V5.04C72.4161 4.05866 73.1895 3.568 74.0855 3.568C74.4161 3.568 74.7361 3.67466 75.0455 3.888C75.3548 4.09066 75.6108 4.47466 75.8135 5.04L74.3895 5.808C74.2401 5.37066 74.0641 5.07733 73.8615 4.928C73.6695 4.768 73.4615 4.688 73.2375 4.688C73.0028 4.688 72.7735 4.76266 72.5495 4.912C72.3255 5.06133 72.0961 5.33866 71.8615 5.744V10.496C71.8615 10.8587 71.8775 11.0773 71.9095 11.152C71.9415 11.216 72.0428 11.2587 72.2135 11.28L73.4135 11.392V11.84H68.7895V11.392L69.6695 11.28C69.8401 11.2587 69.9415 11.216 69.9735 11.152C70.0055 11.0773 70.0215 10.8587 70.0215 10.496V5.072C70.0215 4.70933 70.0055 4.496 69.9735 4.432C69.9415 4.35733 69.8401 4.30933 69.6695 4.288L68.7895 4.176ZM85.8817 9.936C85.6897 10.6827 85.3324 11.216 84.8097 11.536C84.2871 11.8453 83.6791 12 82.9857 12C81.7057 12 80.7457 11.632 80.1057 10.896C79.4657 10.1493 79.1457 9.16266 79.1457 7.936V7.616C79.1457 6.38933 79.4444 5.408 80.0417 4.672C80.6497 3.936 81.5244 3.568 82.6657 3.568C83.3057 3.568 83.8711 3.696 84.3617 3.952C84.8631 4.19733 85.2524 4.55466 85.5297 5.024C85.8177 5.49333 85.9617 6.064 85.9617 6.736C85.9617 6.896 85.9511 7.06666 85.9297 7.248C85.9191 7.42933 85.8924 7.61066 85.8497 7.792H81.1137V8.256C81.1137 9.38666 81.2737 10.2027 81.5937 10.704C81.9137 11.1947 82.4311 11.44 83.1457 11.44C83.6044 11.44 83.9937 11.3067 84.3137 11.04C84.6337 10.7627 84.8151 10.2987 84.8577 9.648L85.8817 9.936ZM82.6657 4.128C82.1431 4.128 81.7537 4.368 81.4977 4.848C81.2417 5.328 81.1137 6.12266 81.1137 7.232H84.0097C84.0524 7.01866 84.0791 6.82133 84.0897 6.64C84.1111 6.448 84.1217 6.272 84.1217 6.112C84.1217 5.42933 83.9884 4.928 83.7217 4.608C83.4551 4.288 83.1031 4.128 82.6657 4.128ZM101.849 10.176C101.71 10.8267 101.443 11.296 101.049 11.584C100.665 11.8613 100.195 12 99.6406 12C99.0753 12 98.6113 11.8773 98.2486 11.632C97.8859 11.376 97.6193 11.04 97.4486 10.624C97.2779 10.208 97.1926 9.76533 97.1926 9.296V5.072C97.1926 4.70933 97.1766 4.496 97.1446 4.432C97.1126 4.35733 97.0113 4.30933 96.8406 4.288L95.9606 4.176V3.728H97.1926V1.872L99.0326 1.504V3.728H101.593V4.288H99.0326V9.616C99.0326 10.2987 99.1179 10.7733 99.2886 11.04C99.4593 11.296 99.6779 11.424 99.9446 11.424C100.222 11.424 100.435 11.3173 100.585 11.104C100.745 10.8907 100.846 10.5013 100.889 9.936L101.849 10.176ZM114.497 11.392V11.84H110.193V11.392L111.073 11.28C111.244 11.2587 111.345 11.216 111.377 11.152C111.409 11.0773 111.425 10.8587 111.425 10.496V6.464C111.425 5.728 111.313 5.19466 111.089 4.864C110.876 4.52266 110.556 4.352 110.129 4.352C109.948 4.352 109.734 4.4 109.489 4.496C109.254 4.58133 109.014 4.74133 108.769 4.976C108.534 5.21066 108.326 5.55733 108.145 6.016V10.496C108.145 10.8587 108.161 11.0773 108.193 11.152C108.225 11.216 108.326 11.2587 108.497 11.28L109.377 11.392V11.84H105.073V11.392L105.953 11.28C106.124 11.2587 106.225 11.216 106.257 11.152C106.289 11.0773 106.305 10.8587 106.305 10.496V1.344C106.305 0.981329 106.289 0.767996 106.257 0.703996C106.225 0.629329 106.124 0.581329 105.953 0.559996L105.073 0.447996V-3.8147e-06H108.145V4.976C108.454 4.48533 108.838 4.128 109.297 3.904C109.766 3.68 110.236 3.568 110.705 3.568C111.494 3.568 112.118 3.81866 112.577 4.32C113.036 4.82133 113.265 5.53066 113.265 6.448V10.496C113.265 10.8587 113.281 11.0773 113.313 11.152C113.345 11.216 113.446 11.2587 113.617 11.28L114.497 11.392ZM124.98 9.936C124.788 10.6827 124.431 11.216 123.908 11.536C123.386 11.8453 122.778 12 122.084 12C120.804 12 119.844 11.632 119.204 10.896C118.564 10.1493 118.244 9.16266 118.244 7.936V7.616C118.244 6.38933 118.543 5.408 119.14 4.672C119.748 3.936 120.623 3.568 121.764 3.568C122.404 3.568 122.97 3.696 123.46 3.952C123.962 4.19733 124.351 4.55466 124.628 5.024C124.916 5.49333 125.06 6.064 125.06 6.736C125.06 6.896 125.05 7.06666 125.028 7.248C125.018 7.42933 124.991 7.61066 124.948 7.792H120.212V8.256C120.212 9.38666 120.372 10.2027 120.692 10.704C121.012 11.1947 121.53 11.44 122.244 11.44C122.703 11.44 123.092 11.3067 123.412 11.04C123.732 10.7627 123.914 10.2987 123.956 9.648L124.98 9.936ZM121.764 4.128C121.242 4.128 120.852 4.368 120.596 4.848C120.34 5.328 120.212 6.12266 120.212 7.232H123.108C123.151 7.01866 123.178 6.82133 123.188 6.64C123.21 6.448 123.22 6.272 123.22 6.112C123.22 5.42933 123.087 4.928 122.82 4.608C122.554 4.288 122.202 4.128 121.764 4.128ZM140.947 10.176C140.809 10.8267 140.542 11.296 140.147 11.584C139.763 11.8613 139.294 12 138.739 12C138.174 12 137.71 11.8773 137.347 11.632C136.985 11.376 136.718 11.04 136.547 10.624C136.377 10.208 136.291 9.76533 136.291 9.296V5.072C136.291 4.70933 136.275 4.496 136.243 4.432C136.211 4.35733 136.11 4.30933 135.939 4.288L135.059 4.176V3.728H136.291V1.872L138.131 1.504V3.728H140.691V4.288H138.131V9.616C138.131 10.2987 138.217 10.7733 138.387 11.04C138.558 11.296 138.777 11.424 139.043 11.424C139.321 11.424 139.534 11.3173 139.683 11.104C139.843 10.8907 139.945 10.5013 139.987 9.936L140.947 10.176ZM152.444 11.44C152.273 11.6 152.065 11.7333 151.82 11.84C151.585 11.9467 151.297 12 150.956 12C150.519 12 150.151 11.904 149.852 11.712C149.564 11.52 149.372 11.248 149.276 10.896C148.924 11.28 148.535 11.5627 148.108 11.744C147.692 11.9147 147.265 12 146.828 12C146.092 12 145.543 11.7973 145.18 11.392C144.817 10.976 144.636 10.4587 144.636 9.84C144.636 9.21066 144.865 8.704 145.324 8.32C145.783 7.92533 146.593 7.728 147.756 7.728H149.212V6.432C149.212 5.54666 149.095 4.944 148.86 4.624C148.636 4.29333 148.321 4.128 147.916 4.128C147.649 4.128 147.404 4.19733 147.18 4.336C146.956 4.464 146.796 4.70933 146.7 5.072C146.615 5.424 146.631 5.936 146.748 6.608L144.988 6.352C144.903 5.86133 144.956 5.408 145.148 4.992C145.351 4.56533 145.687 4.224 146.156 3.968C146.625 3.70133 147.223 3.568 147.948 3.568C148.769 3.568 149.404 3.70133 149.852 3.968C150.3 4.23466 150.609 4.58666 150.78 5.024C150.961 5.46133 151.052 5.93066 151.052 6.432V10.128C151.052 10.672 151.1 11.0133 151.196 11.152C151.292 11.2907 151.399 11.36 151.516 11.36C151.708 11.36 151.921 11.248 152.156 11.024L152.444 11.44ZM147.532 11.152C147.809 11.152 148.081 11.0827 148.348 10.944C148.625 10.7947 148.913 10.5227 149.212 10.128V8.288H148.012C147.489 8.288 147.111 8.41066 146.876 8.656C146.641 8.90133 146.524 9.28533 146.524 9.808C146.524 10.2347 146.609 10.5653 146.78 10.8C146.951 11.0347 147.201 11.152 147.532 11.152ZM159.261 8.816L158.157 8.56C157.443 8.38933 156.909 8.08533 156.557 7.648C156.216 7.2 156.045 6.672 156.045 6.064C156.045 5.616 156.141 5.20533 156.333 4.832C156.536 4.448 156.851 4.144 157.277 3.92C157.704 3.68533 158.259 3.568 158.941 3.568C159.677 3.568 160.275 3.68533 160.733 3.92C161.192 4.15466 161.517 4.464 161.709 4.848C161.901 5.232 161.96 5.64266 161.885 6.08L160.125 6.4C160.275 5.67466 160.232 5.11466 159.997 4.72C159.773 4.32533 159.395 4.128 158.861 4.128C158.488 4.128 158.179 4.24 157.933 4.464C157.688 4.67733 157.565 4.98666 157.565 5.392C157.565 5.76533 157.672 6.096 157.885 6.384C158.099 6.66133 158.413 6.848 158.829 6.944L159.933 7.2C160.723 7.38133 161.293 7.66933 161.645 8.064C161.997 8.448 162.173 8.928 162.173 9.504C162.173 10.2187 161.907 10.816 161.373 11.296C160.851 11.7653 160.067 12 159.021 12C158.659 12 158.259 11.9467 157.821 11.84C157.395 11.7227 157 11.5147 156.637 11.216C156.285 10.9173 156.029 10.4907 155.869 9.936L156.909 9.52C156.984 10.224 157.224 10.72 157.629 11.008C158.045 11.296 158.509 11.44 159.021 11.44C159.501 11.44 159.891 11.3333 160.189 11.12C160.499 10.896 160.653 10.576 160.653 10.16C160.653 9.872 160.552 9.61066 160.349 9.376C160.157 9.13066 159.795 8.944 159.261 8.816ZM165.909 0.447996V-3.8147e-06H168.981V7.76L171.797 5.072C172.17 4.72 172.367 4.50666 172.389 4.432C172.421 4.35733 172.346 4.30933 172.165 4.288L171.285 4.176V3.728H174.565V4.176L173.685 4.288C173.589 4.29866 173.509 4.32 173.445 4.352C173.381 4.384 173.29 4.45333 173.173 4.56C173.055 4.656 172.869 4.82666 172.613 5.072L171.077 6.544L173.349 10.496C173.498 10.7413 173.61 10.9173 173.685 11.024C173.759 11.12 173.829 11.184 173.893 11.216C173.967 11.2373 174.058 11.2587 174.165 11.28L175.045 11.392V11.84H171.989L169.765 7.792L168.981 8.544V10.496C168.981 10.8587 168.997 11.0773 169.029 11.152C169.061 11.216 169.162 11.2587 169.333 11.28L170.213 11.392V11.84H165.909V11.392L166.789 11.28C166.959 11.2587 167.061 11.216 167.093 11.152C167.125 11.0773 167.141 10.8587 167.141 10.496V1.344C167.141 0.981329 167.125 0.767996 167.093 0.703996C167.061 0.629329 166.959 0.581329 166.789 0.559996L165.909 0.447996ZM181.795 8.816L180.691 8.56C179.976 8.38933 179.443 8.08533 179.091 7.648C178.75 7.2 178.579 6.672 178.579 6.064C178.579 5.616 178.675 5.20533 178.867 4.832C179.07 4.448 179.384 4.144 179.811 3.92C180.238 3.68533 180.792 3.568 181.475 3.568C182.211 3.568 182.808 3.68533 183.267 3.92C183.726 4.15466 184.051 4.464 184.243 4.848C184.435 5.232 184.494 5.64266 184.419 6.08L182.659 6.4C182.808 5.67466 182.766 5.11466 182.531 4.72C182.307 4.32533 181.928 4.128 181.395 4.128C181.022 4.128 180.712 4.24 180.467 4.464C180.222 4.67733 180.099 4.98666 180.099 5.392C180.099 5.76533 180.206 6.096 180.419 6.384C180.632 6.66133 180.947 6.848 181.363 6.944L182.467 7.2C183.256 7.38133 183.827 7.66933 184.179 8.064C184.531 8.448 184.707 8.928 184.707 9.504C184.707 10.2187 184.44 10.816 183.907 11.296C183.384 11.7653 182.6 12 181.555 12C181.192 12 180.792 11.9467 180.355 11.84C179.928 11.7227 179.534 11.5147 179.171 11.216C178.819 10.9173 178.563 10.4907 178.403 9.936L179.443 9.52C179.518 10.224 179.758 10.72 180.163 11.008C180.579 11.296 181.043 11.44 181.555 11.44C182.035 11.44 182.424 11.3333 182.723 11.12C183.032 10.896 183.187 10.576 183.187 10.16C183.187 9.872 183.086 9.61066 182.883 9.376C182.691 9.13066 182.328 8.944 181.795 8.816ZM203.013 11.44C202.842 11.6 202.634 11.7333 202.389 11.84C202.154 11.9467 201.866 12 201.525 12C201.087 12 200.719 11.904 200.421 11.712C200.133 11.52 199.941 11.248 199.845 10.896C199.493 11.28 199.103 11.5627 198.677 11.744C198.261 11.9147 197.834 12 197.397 12C196.661 12 196.111 11.7973 195.749 11.392C195.386 10.976 195.205 10.4587 195.205 9.84C195.205 9.21066 195.434 8.704 195.893 8.32C196.351 7.92533 197.162 7.728 198.325 7.728H199.781V6.432C199.781 5.54666 199.663 4.944 199.429 4.624C199.205 4.29333 198.89 4.128 198.485 4.128C198.218 4.128 197.973 4.19733 197.749 4.336C197.525 4.464 197.365 4.70933 197.269 5.072C197.183 5.424 197.199 5.936 197.317 6.608L195.557 6.352C195.471 5.86133 195.525 5.408 195.717 4.992C195.919 4.56533 196.255 4.224 196.725 3.968C197.194 3.70133 197.791 3.568 198.517 3.568C199.338 3.568 199.973 3.70133 200.421 3.968C200.869 4.23466 201.178 4.58666 201.349 5.024C201.53 5.46133 201.621 5.93066 201.621 6.432V10.128C201.621 10.672 201.669 11.0133 201.765 11.152C201.861 11.2907 201.967 11.36 202.085 11.36C202.277 11.36 202.49 11.248 202.725 11.024L203.013 11.44ZM198.101 11.152C198.378 11.152 198.65 11.0827 198.917 10.944C199.194 10.7947 199.482 10.5227 199.781 10.128V8.288H198.581C198.058 8.288 197.679 8.41066 197.445 8.656C197.21 8.90133 197.093 9.28533 197.093 9.808C197.093 10.2347 197.178 10.5653 197.349 10.8C197.519 11.0347 197.77 11.152 198.101 11.152ZM215.606 11.392V11.84H211.302V11.392L212.182 11.28C212.353 11.2587 212.454 11.216 212.486 11.152C212.518 11.0773 212.534 10.8587 212.534 10.496V6.464C212.534 5.728 212.422 5.19466 212.198 4.864C211.985 4.52266 211.665 4.352 211.238 4.352C211.057 4.352 210.843 4.4 210.598 4.496C210.363 4.58133 210.123 4.74133 209.878 4.976C209.643 5.21066 209.435 5.55733 209.254 6.016V10.496C209.254 10.8587 209.27 11.0773 209.302 11.152C209.334 11.216 209.435 11.2587 209.606 11.28L210.486 11.392V11.84H206.182V11.392L207.062 11.28C207.233 11.2587 207.334 11.216 207.366 11.152C207.398 11.0773 207.414 10.8587 207.414 10.496V5.072C207.414 4.70933 207.398 4.496 207.366 4.432C207.334 4.35733 207.233 4.30933 207.062 4.288L206.182 4.176V3.728H209.158V5.136C209.467 4.592 209.862 4.19733 210.342 3.952C210.833 3.696 211.323 3.568 211.814 3.568C212.603 3.568 213.227 3.81866 213.686 4.32C214.145 4.82133 214.374 5.53066 214.374 6.448V10.496C214.374 10.8587 214.39 11.0773 214.422 11.152C214.454 11.216 214.555 11.2587 214.726 11.28L215.606 11.392ZM227.607 11.392V11.84H224.631V10.512C224.332 11.0027 223.996 11.376 223.623 11.632C223.26 11.8773 222.828 12 222.327 12C221.431 12 220.716 11.648 220.183 10.944C219.66 10.2293 219.399 9.232 219.399 7.952V7.632C219.399 6.39466 219.703 5.408 220.311 4.672C220.929 3.936 221.772 3.568 222.839 3.568C223.479 3.568 224.044 3.728 224.535 4.048V1.344C224.535 0.981329 224.519 0.767996 224.487 0.703996C224.455 0.629329 224.353 0.581329 224.183 0.559996L223.303 0.447996V-3.8147e-06H226.375V10.496C226.375 10.8587 226.391 11.0773 226.423 11.152C226.455 11.216 226.556 11.2587 226.727 11.28L227.607 11.392ZM221.367 8.432C221.367 9.424 221.489 10.1493 221.735 10.608C221.98 11.0667 222.316 11.296 222.743 11.296C223.009 11.296 223.287 11.1893 223.575 10.976C223.873 10.752 224.193 10.304 224.535 9.632V4.8C224.129 4.39466 223.633 4.192 223.047 4.192C222.46 4.192 222.033 4.45866 221.767 4.992C221.5 5.51466 221.367 6.23466 221.367 7.152V8.432ZM245.056 12.672C245.056 13.5467 244.726 14.2187 244.064 14.688C243.414 15.168 242.518 15.408 241.376 15.408C240.118 15.408 239.179 15.2 238.56 14.784C237.942 14.3787 237.606 13.872 237.552 13.264L239.264 12.992C239.222 13.5573 239.355 14.0053 239.664 14.336C239.984 14.6773 240.555 14.848 241.376 14.848C242.144 14.848 242.763 14.704 243.232 14.416C243.712 14.128 243.952 13.712 243.952 13.168C243.952 12.784 243.808 12.4907 243.52 12.288C243.243 12.096 242.779 12 242.128 12H240.304C239.739 12 239.291 11.92 238.96 11.76C238.64 11.6 238.416 11.4027 238.288 11.168C238.16 10.9227 238.096 10.672 238.096 10.416C238.096 10.1067 238.182 9.80266 238.352 9.504C238.523 9.19466 238.816 8.89066 239.232 8.592C238.774 8.38933 238.4 8.09066 238.112 7.696C237.824 7.30133 237.68 6.81066 237.68 6.224C237.68 5.62666 237.819 5.136 238.096 4.752C238.374 4.35733 238.747 4.064 239.216 3.872C239.686 3.66933 240.208 3.568 240.784 3.568H241.056C241.675 3.568 242.208 3.66933 242.656 3.872L244.96 2.736L245.152 4.304H243.328C243.584 4.528 243.782 4.8 243.92 5.12C244.07 5.42933 244.144 5.79733 244.144 6.224C244.144 6.8 244.006 7.28533 243.728 7.68C243.451 8.07466 243.078 8.37333 242.608 8.576C242.15 8.77866 241.632 8.88 241.056 8.88H240.784C240.464 8.88 240.15 8.848 239.84 8.784C239.574 8.96533 239.387 9.14133 239.28 9.312C239.184 9.472 239.136 9.62666 239.136 9.776C239.136 9.94666 239.211 10.0747 239.36 10.16C239.52 10.2453 239.776 10.288 240.128 10.288H242.208C243.126 10.288 243.83 10.496 244.32 10.912C244.811 11.3173 245.056 11.904 245.056 12.672ZM241.056 8.32C241.398 8.32 241.691 8.17066 241.936 7.872C242.182 7.57333 242.304 7.024 242.304 6.224C242.304 5.424 242.182 4.87466 241.936 4.576C241.691 4.27733 241.398 4.128 241.056 4.128H240.784C240.443 4.128 240.144 4.27733 239.888 4.576C239.643 4.87466 239.52 5.424 239.52 6.224C239.52 7.024 239.643 7.57333 239.888 7.872C240.144 8.17066 240.443 8.32 240.784 8.32H241.056ZM256.276 7.616V7.936C256.276 9.16266 255.956 10.1493 255.316 10.896C254.687 11.632 253.785 12 252.612 12C251.439 12 250.532 11.632 249.892 10.896C249.263 10.1493 248.948 9.16266 248.948 7.936V7.616C248.948 6.38933 249.263 5.408 249.892 4.672C250.532 3.936 251.439 3.568 252.612 3.568C253.785 3.568 254.687 3.936 255.316 4.672C255.956 5.408 256.276 6.38933 256.276 7.616ZM254.308 7.296C254.308 6.15466 254.164 5.344 253.876 4.864C253.588 4.37333 253.167 4.128 252.612 4.128C252.068 4.128 251.647 4.37333 251.348 4.864C251.06 5.344 250.916 6.15466 250.916 7.296V8.256C250.916 9.38666 251.06 10.2027 251.348 10.704C251.647 11.1947 252.068 11.44 252.612 11.44C253.167 11.44 253.588 11.1947 253.876 10.704C254.164 10.2027 254.308 9.38666 254.308 8.256V7.296ZM272.182 10.176C272.044 10.8267 271.777 11.296 271.382 11.584C270.998 11.8613 270.529 12 269.974 12C269.409 12 268.945 11.8773 268.582 11.632C268.22 11.376 267.953 11.04 267.782 10.624C267.612 10.208 267.526 9.76533 267.526 9.296V5.072C267.526 4.70933 267.51 4.496 267.478 4.432C267.446 4.35733 267.345 4.30933 267.174 4.288L266.294 4.176V3.728H267.526V1.872L269.366 1.504V3.728H271.926V4.288H269.366V9.616C269.366 10.2987 269.452 10.7733 269.622 11.04C269.793 11.296 270.012 11.424 270.278 11.424C270.556 11.424 270.769 11.3173 270.918 11.104C271.078 10.8907 271.18 10.5013 271.222 9.936L272.182 10.176ZM283.679 11.44C283.508 11.6 283.3 11.7333 283.055 11.84C282.82 11.9467 282.532 12 282.191 12C281.754 12 281.386 11.904 281.087 11.712C280.799 11.52 280.607 11.248 280.511 10.896C280.159 11.28 279.77 11.5627 279.343 11.744C278.927 11.9147 278.5 12 278.063 12C277.327 12 276.778 11.7973 276.415 11.392C276.052 10.976 275.871 10.4587 275.871 9.84C275.871 9.21066 276.1 8.704 276.559 8.32C277.018 7.92533 277.828 7.728 278.991 7.728H280.447V6.432C280.447 5.54666 280.33 4.944 280.095 4.624C279.871 4.29333 279.556 4.128 279.151 4.128C278.884 4.128 278.639 4.19733 278.415 4.336C278.191 4.464 278.031 4.70933 277.935 5.072C277.85 5.424 277.866 5.936 277.983 6.608L276.223 6.352C276.138 5.86133 276.191 5.408 276.383 4.992C276.586 4.56533 276.922 4.224 277.391 3.968C277.86 3.70133 278.458 3.568 279.183 3.568C280.004 3.568 280.639 3.70133 281.087 3.968C281.535 4.23466 281.844 4.58666 282.015 5.024C282.196 5.46133 282.287 5.93066 282.287 6.432V10.128C282.287 10.672 282.335 11.0133 282.431 11.152C282.527 11.2907 282.634 11.36 282.751 11.36C282.943 11.36 283.156 11.248 283.391 11.024L283.679 11.44ZM278.767 11.152C279.044 11.152 279.316 11.0827 279.583 10.944C279.86 10.7947 280.148 10.5227 280.447 10.128V8.288H279.247C278.724 8.288 278.346 8.41066 278.111 8.656C277.876 8.90133 277.759 9.28533 277.759 9.808C277.759 10.2347 277.844 10.5653 278.015 10.8C278.186 11.0347 278.436 11.152 278.767 11.152ZM286.736 0.447996V-3.8147e-06H289.808V7.76L292.624 5.072C292.998 4.72 293.195 4.50666 293.216 4.432C293.248 4.35733 293.174 4.30933 292.992 4.288L292.112 4.176V3.728H295.392V4.176L294.512 4.288C294.416 4.29866 294.336 4.32 294.272 4.352C294.208 4.384 294.118 4.45333 294 4.56C293.883 4.656 293.696 4.82666 293.44 5.072L291.904 6.544L294.176 10.496C294.326 10.7413 294.438 10.9173 294.512 11.024C294.587 11.12 294.656 11.184 294.72 11.216C294.795 11.2373 294.886 11.2587 294.992 11.28L295.872 11.392V11.84H292.816L290.592 7.792L289.808 8.544V10.496C289.808 10.8587 289.824 11.0773 289.856 11.152C289.888 11.216 289.99 11.2587 290.16 11.28L291.04 11.392V11.84H286.736V11.392L287.616 11.28C287.787 11.2587 287.888 11.216 287.92 11.152C287.952 11.0773 287.968 10.8587 287.968 10.496V1.344C287.968 0.981329 287.952 0.767996 287.92 0.703996C287.888 0.629329 287.787 0.581329 287.616 0.559996L286.736 0.447996ZM306.034 9.936C305.842 10.6827 305.485 11.216 304.962 11.536C304.44 11.8453 303.832 12 303.138 12C301.858 12 300.898 11.632 300.258 10.896C299.618 10.1493 299.298 9.16266 299.298 7.936V7.616C299.298 6.38933 299.597 5.408 300.194 4.672C300.802 3.936 301.677 3.568 302.818 3.568C303.458 3.568 304.024 3.696 304.514 3.952C305.016 4.19733 305.405 4.55466 305.682 5.024C305.97 5.49333 306.114 6.064 306.114 6.736C306.114 6.896 306.104 7.06666 306.082 7.248C306.072 7.42933 306.045 7.61066 306.002 7.792H301.266V8.256C301.266 9.38666 301.426 10.2027 301.746 10.704C302.066 11.1947 302.584 11.44 303.298 11.44C303.757 11.44 304.146 11.3067 304.466 11.04C304.786 10.7627 304.968 10.2987 305.01 9.648L306.034 9.936ZM302.818 4.128C302.296 4.128 301.906 4.368 301.65 4.848C301.394 5.328 301.266 6.12266 301.266 7.232H304.162C304.205 7.01866 304.232 6.82133 304.242 6.64C304.264 6.448 304.274 6.272 304.274 6.112C304.274 5.42933 304.141 4.928 303.874 4.608C303.608 4.288 303.256 4.128 302.818 4.128ZM324.465 11.44C324.294 11.6 324.086 11.7333 323.841 11.84C323.606 11.9467 323.318 12 322.977 12C322.54 12 322.172 11.904 321.873 11.712C321.585 11.52 321.393 11.248 321.297 10.896C320.945 11.28 320.556 11.5627 320.129 11.744C319.713 11.9147 319.286 12 318.849 12C318.113 12 317.564 11.7973 317.201 11.392C316.838 10.976 316.657 10.4587 316.657 9.84C316.657 9.21066 316.886 8.704 317.345 8.32C317.804 7.92533 318.614 7.728 319.777 7.728H321.233V6.432C321.233 5.54666 321.116 4.944 320.881 4.624C320.657 4.29333 320.342 4.128 319.937 4.128C319.67 4.128 319.425 4.19733 319.201 4.336C318.977 4.464 318.817 4.70933 318.721 5.072C318.636 5.424 318.652 5.936 318.769 6.608L317.009 6.352C316.924 5.86133 316.977 5.408 317.169 4.992C317.372 4.56533 317.708 4.224 318.177 3.968C318.646 3.70133 319.244 3.568 319.969 3.568C320.79 3.568 321.425 3.70133 321.873 3.968C322.321 4.23466 322.63 4.58666 322.801 5.024C322.982 5.46133 323.073 5.93066 323.073 6.432V10.128C323.073 10.672 323.121 11.0133 323.217 11.152C323.313 11.2907 323.42 11.36 323.537 11.36C323.729 11.36 323.942 11.248 324.177 11.024L324.465 11.44ZM319.553 11.152C319.83 11.152 320.102 11.0827 320.369 10.944C320.646 10.7947 320.934 10.5227 321.233 10.128V8.288H320.033C319.51 8.288 319.132 8.41066 318.897 8.656C318.662 8.90133 318.545 9.28533 318.545 9.808C318.545 10.2347 318.63 10.5653 318.801 10.8C318.972 11.0347 319.222 11.152 319.553 11.152ZM343.357 11.392V11.84H339.053V11.392L339.933 11.28C340.103 11.2587 340.205 11.216 340.237 11.152C340.269 11.0773 340.285 10.8587 340.285 10.496V6.464C340.285 5.728 340.173 5.19466 339.949 4.864C339.735 4.52266 339.415 4.352 338.989 4.352C338.807 4.352 338.594 4.4 338.349 4.496C338.114 4.58133 337.874 4.74133 337.629 4.976C337.394 5.21066 337.186 5.55733 337.005 6.016V10.496C337.005 10.8587 337.021 11.0773 337.053 11.152C337.085 11.216 337.186 11.2587 337.357 11.28L338.237 11.392V11.84H333.933V11.392L334.813 11.28C334.983 11.2587 335.085 11.216 335.117 11.152C335.149 11.0773 335.165 10.8587 335.165 10.496V5.072C335.165 4.70933 335.149 4.496 335.117 4.432C335.085 4.35733 334.983 4.30933 334.813 4.288L333.933 4.176V3.728H336.909V5.136C337.218 4.592 337.613 4.19733 338.093 3.952C338.583 3.696 339.074 3.568 339.565 3.568C340.354 3.568 340.978 3.81866 341.437 4.32C341.895 4.82133 342.125 5.53066 342.125 6.448V10.496C342.125 10.8587 342.141 11.0773 342.173 11.152C342.205 11.216 342.306 11.2587 342.477 11.28L343.357 11.392ZM354.781 11.44C354.611 11.6 354.403 11.7333 354.157 11.84C353.923 11.9467 353.635 12 353.293 12C352.856 12 352.488 11.904 352.189 11.712C351.901 11.52 351.709 11.248 351.613 10.896C351.261 11.28 350.872 11.5627 350.445 11.744C350.029 11.9147 349.603 12 349.165 12C348.429 12 347.88 11.7973 347.517 11.392C347.155 10.976 346.973 10.4587 346.973 9.84C346.973 9.21066 347.203 8.704 347.661 8.32C348.12 7.92533 348.931 7.728 350.093 7.728H351.549V6.432C351.549 5.54666 351.432 4.944 351.197 4.624C350.973 4.29333 350.659 4.128 350.253 4.128C349.987 4.128 349.741 4.19733 349.517 4.336C349.293 4.464 349.133 4.70933 349.037 5.072C348.952 5.424 348.968 5.936 349.085 6.608L347.325 6.352C347.24 5.86133 347.293 5.408 347.485 4.992C347.688 4.56533 348.024 4.224 348.493 3.968C348.963 3.70133 349.56 3.568 350.285 3.568C351.107 3.568 351.741 3.70133 352.189 3.968C352.637 4.23466 352.947 4.58666 353.117 5.024C353.299 5.46133 353.389 5.93066 353.389 6.432V10.128C353.389 10.672 353.437 11.0133 353.533 11.152C353.629 11.2907 353.736 11.36 353.853 11.36C354.045 11.36 354.259 11.248 354.493 11.024L354.781 11.44ZM349.869 11.152C350.147 11.152 350.419 11.0827 350.685 10.944C350.963 10.7947 351.251 10.5227 351.549 10.128V8.288H350.349C349.827 8.288 349.448 8.41066 349.213 8.656C348.979 8.90133 348.861 9.28533 348.861 9.808C348.861 10.2347 348.947 10.5653 349.117 10.8C349.288 11.0347 349.539 11.152 349.869 11.152ZM357.839 4.176V3.728H360.815V5.056C361.124 4.55466 361.46 4.18133 361.823 3.936C362.185 3.69066 362.617 3.568 363.119 3.568C364.015 3.568 364.724 3.92533 365.247 4.64C365.78 5.344 366.047 6.336 366.047 7.616V7.936C366.047 9.17333 365.743 10.16 365.135 10.896C364.527 11.632 363.684 12 362.607 12C361.967 12 361.401 11.84 360.911 11.52V13.904C360.911 14.2667 360.927 14.48 360.959 14.544C360.991 14.6187 361.092 14.6667 361.263 14.688L362.463 14.8V15.248H357.839V14.8L358.719 14.688C358.889 14.6667 358.991 14.6187 359.023 14.544C359.055 14.48 359.071 14.2667 359.071 13.904V5.072C359.071 4.70933 359.055 4.496 359.023 4.432C358.991 4.35733 358.889 4.30933 358.719 4.288L357.839 4.176ZM362.703 4.272C362.436 4.272 362.153 4.384 361.855 4.608C361.567 4.82133 361.252 5.264 360.911 5.936V10.768C361.316 11.1733 361.812 11.376 362.399 11.376C362.996 11.376 363.423 11.1147 363.679 10.592C363.945 10.0587 364.079 9.33333 364.079 8.416V7.136C364.079 6.144 363.956 5.41866 363.711 4.96C363.465 4.50133 363.129 4.272 362.703 4.272Z" fill="#110101"/>
</svg>
