<svg width="193" height="47" viewBox="0 0 193 47" fill="none" xmlns="http://www.w3.org/2000/svg">
<path d="M25.8551 17.808C24.3831 17.808 23.1351 17.496 22.1111 16.872C21.0871 16.232 20.3111 15.336 19.7831 14.184C19.2551 13.032 18.9911 11.688 18.9911 10.152V8.63999C18.9911 7.10399 19.2231 5.76799 19.6871 4.63199C20.1671 3.47999 20.8791 2.59199 21.8231 1.96799C22.7671 1.32799 23.9511 1.00799 25.3751 1.00799C26.5911 1.00799 27.6071 1.24799 28.4231 1.72799C29.2391 2.19199 29.8391 2.81599 30.2231 3.59999C30.6231 4.36799 30.7911 5.20799 30.7271 6.11999L27.9191 6.81599C28.0791 5.21599 27.9111 3.99199 27.4151 3.14399C26.9351 2.27999 26.2151 1.84799 25.2551 1.84799C24.2311 1.84799 23.4391 2.27999 22.8791 3.14399C22.3351 4.00799 22.0631 5.43999 22.0631 7.43999V11.352C22.0631 13.336 22.3751 14.768 22.9991 15.648C23.6231 16.528 24.5751 16.968 25.8551 16.968C26.3831 16.968 26.8711 16.872 27.3191 16.68C27.7831 16.488 28.1671 16.16 28.4711 15.696C28.7911 15.216 28.9911 14.544 29.0711 13.68L30.7991 14.136C30.5751 15.032 30.2151 15.752 29.7191 16.296C29.2231 16.84 28.6391 17.232 27.9671 17.472C27.3111 17.696 26.6071 17.808 25.8551 17.808ZM38.8554 17.808C38.3594 17.808 37.9514 17.656 37.6314 17.352C37.3274 17.032 37.1754 16.616 37.1754 16.104C37.1754 15.592 37.3274 15.184 37.6314 14.88C37.9514 14.576 38.3594 14.424 38.8554 14.424C39.3514 14.424 39.7594 14.576 40.0794 14.88C40.3994 15.184 40.5594 15.592 40.5594 16.104C40.5594 16.616 40.3994 17.032 40.0794 17.352C39.7594 17.656 39.3514 17.808 38.8554 17.808ZM56.4838 1.91999V1.24799H63.5638C65.6118 1.24799 67.1798 1.84799 68.2678 3.04799C69.3718 4.24799 69.9238 6.11199 69.9238 8.63999V10.152C69.9238 12.68 69.3718 14.552 68.2678 15.768C67.1798 16.968 65.6118 17.568 63.5638 17.568H56.4838V16.896L57.8038 16.728C58.0598 16.696 58.2118 16.632 58.2598 16.536C58.3078 16.424 58.3318 16.096 58.3318 15.552V3.26399C58.3318 2.71999 58.3078 2.39999 58.2598 2.30399C58.2118 2.19199 58.0598 2.11999 57.8038 2.08799L56.4838 1.91999ZM63.4438 2.08799H61.2118V16.728H63.4438C64.2598 16.728 64.9158 16.592 65.4118 16.32C65.9078 16.032 66.2678 15.504 66.4918 14.736C66.7318 13.952 66.8518 12.824 66.8518 11.352V7.43999C66.8518 5.96799 66.7318 4.84799 66.4918 4.07999C66.2678 3.31199 65.9078 2.79199 65.4118 2.51999C64.9158 2.23199 64.2598 2.08799 63.4438 2.08799ZM88.3785 16.968C88.1225 17.208 87.8105 17.408 87.4425 17.568C87.0905 17.728 86.6585 17.808 86.1465 17.808C85.4905 17.808 84.9385 17.664 84.4905 17.376C84.0585 17.088 83.7705 16.68 83.6265 16.152C83.0985 16.728 82.5145 17.152 81.8745 17.424C81.2505 17.68 80.6105 17.808 79.9545 17.808C78.8505 17.808 78.0265 17.504 77.4825 16.896C76.9385 16.272 76.6665 15.496 76.6665 14.568C76.6665 13.624 77.0105 12.864 77.6985 12.288C78.3865 11.696 79.6025 11.4 81.3465 11.4H83.5305V9.45599C83.5305 8.12799 83.3545 7.22399 83.0025 6.74399C82.6665 6.24799 82.1945 5.99999 81.5865 5.99999C81.1865 5.99999 80.8185 6.10399 80.4825 6.31199C80.1465 6.50399 79.9065 6.87199 79.7625 7.41599C79.6345 7.94399 79.6585 8.71199 79.8345 9.71999L77.1945 9.33599C77.0665 8.59999 77.1465 7.91999 77.4345 7.29599C77.7385 6.65599 78.2425 6.14399 78.9465 5.75999C79.6505 5.35999 80.5465 5.15999 81.6345 5.15999C82.8665 5.15999 83.8185 5.35999 84.4905 5.75999C85.1625 6.15999 85.6265 6.68799 85.8825 7.34399C86.1545 7.99999 86.2905 8.70399 86.2905 9.45599V15C86.2905 15.816 86.3625 16.328 86.5065 16.536C86.6505 16.744 86.8105 16.848 86.9865 16.848C87.2745 16.848 87.5945 16.68 87.9465 16.344L88.3785 16.968ZM81.0105 16.536C81.4265 16.536 81.8345 16.432 82.2345 16.224C82.6505 16 83.0825 15.592 83.5305 15V12.24H81.7305C80.9465 12.24 80.3785 12.424 80.0265 12.792C79.6745 13.16 79.4985 13.736 79.4985 14.52C79.4985 15.16 79.6265 15.656 79.8825 16.008C80.1385 16.36 80.5145 16.536 81.0105 16.536ZM107.269 16.896V17.568H100.813V16.896L102.133 16.728C102.389 16.696 102.541 16.632 102.589 16.536C102.637 16.424 102.661 16.096 102.661 15.552V9.50399C102.661 8.39999 102.493 7.59999 102.157 7.10399C101.837 6.59199 101.357 6.33599 100.717 6.33599C100.445 6.33599 100.125 6.40799 99.7566 6.55199C99.4046 6.67999 99.0446 6.91999 98.6766 7.27199C98.3246 7.62399 98.0126 8.14399 97.7406 8.83199V15.552C97.7406 16.096 97.7646 16.424 97.8126 16.536C97.8606 16.632 98.0126 16.696 98.2686 16.728L99.5886 16.896V17.568H93.1326V16.896L94.4526 16.728C94.7086 16.696 94.8606 16.632 94.9086 16.536C94.9566 16.424 94.9806 16.096 94.9806 15.552V7.41599C94.9806 6.87199 94.9566 6.55199 94.9086 6.45599C94.8606 6.34399 94.7086 6.27199 94.4526 6.23999L93.1326 6.07199V5.39999H97.5966V7.51199C98.0606 6.69599 98.6526 6.10399 99.3726 5.73599C100.109 5.35199 100.845 5.15999 101.581 5.15999C102.765 5.15999 103.701 5.53599 104.389 6.28799C105.077 7.03999 105.421 8.10399 105.421 9.47999V15.552C105.421 16.096 105.445 16.424 105.493 16.536C105.541 16.632 105.693 16.696 105.949 16.728L107.269 16.896ZM118.118 5.99999C117.35 5.99999 116.774 6.36799 116.39 7.10399C116.022 7.82399 115.838 9.03999 115.838 10.752V12.192C115.838 13.888 116.054 15.112 116.486 15.864C116.918 16.6 117.622 16.968 118.598 16.968C119.318 16.968 119.902 16.768 120.35 16.368C120.814 15.952 121.078 15.256 121.142 14.28L122.678 14.712C122.39 15.832 121.862 16.632 121.094 17.112C120.342 17.576 119.454 17.808 118.43 17.808C116.59 17.808 115.206 17.256 114.278 16.152C113.35 15.032 112.886 13.552 112.886 11.712V11.232C112.886 9.39199 113.334 7.91999 114.23 6.81599C115.126 5.71199 116.422 5.15999 118.118 5.15999C119.238 5.15999 120.15 5.38399 120.854 5.83199C121.574 6.26399 122.078 6.83999 122.366 7.55999C122.67 8.26399 122.75 9.02399 122.606 9.83999L119.966 10.224C120.142 8.87999 120.07 7.83999 119.75 7.10399C119.43 6.36799 118.886 5.99999 118.118 5.99999ZM131.532 3.33599C131.036 3.33599 130.636 3.18399 130.332 2.87999C130.028 2.55999 129.876 2.15199 129.876 1.65599C129.876 1.15999 130.028 0.759993 130.332 0.455992C130.636 0.151992 131.036 -8.10623e-06 131.532 -8.10623e-06C132.012 -8.10623e-06 132.412 0.151992 132.732 0.455992C133.052 0.759993 133.212 1.15999 133.212 1.65599C133.212 2.15199 133.052 2.55999 132.732 2.87999C132.412 3.18399 132.012 3.33599 131.532 3.33599ZM128.316 6.07199V5.39999H132.924V15.552C132.924 16.096 132.948 16.424 132.996 16.536C133.044 16.632 133.196 16.696 133.452 16.728L134.772 16.896V17.568H128.316V16.896L129.636 16.728C129.892 16.696 130.044 16.632 130.092 16.536C130.14 16.424 130.164 16.096 130.164 15.552V7.41599C130.164 6.87199 130.14 6.55199 130.092 6.45599C130.044 6.34399 129.892 6.27199 129.636 6.23999L128.316 6.07199ZM153.915 16.896V17.568H147.459V16.896L148.779 16.728C149.035 16.696 149.187 16.632 149.235 16.536C149.283 16.424 149.307 16.096 149.307 15.552V9.50399C149.307 8.39999 149.139 7.59999 148.803 7.10399C148.483 6.59199 148.003 6.33599 147.363 6.33599C147.091 6.33599 146.771 6.40799 146.403 6.55199C146.051 6.67999 145.691 6.91999 145.323 7.27199C144.971 7.62399 144.659 8.14399 144.387 8.83199V15.552C144.387 16.096 144.411 16.424 144.459 16.536C144.507 16.632 144.659 16.696 144.915 16.728L146.235 16.896V17.568H139.779V16.896L141.099 16.728C141.355 16.696 141.507 16.632 141.555 16.536C141.603 16.424 141.627 16.096 141.627 15.552V7.41599C141.627 6.87199 141.603 6.55199 141.555 6.45599C141.507 6.34399 141.355 6.27199 141.099 6.23999L139.779 6.07199V5.39999H144.243V7.51199C144.707 6.69599 145.299 6.10399 146.019 5.73599C146.755 5.35199 147.491 5.15999 148.227 5.15999C149.411 5.15999 150.347 5.53599 151.035 6.28799C151.723 7.03999 152.067 8.10399 152.067 9.47999V15.552C152.067 16.096 152.091 16.424 152.139 16.536C152.187 16.632 152.339 16.696 152.595 16.728L153.915 16.896ZM170.524 18.816C170.524 20.128 170.028 21.136 169.036 21.84C168.06 22.56 166.716 22.92 165.004 22.92C163.116 22.92 161.708 22.608 160.78 21.984C159.852 21.376 159.348 20.616 159.268 19.704L161.836 19.296C161.772 20.144 161.972 20.816 162.436 21.312C162.916 21.824 163.772 22.08 165.004 22.08C166.156 22.08 167.084 21.864 167.788 21.432C168.508 21 168.868 20.376 168.868 19.56C168.868 18.984 168.652 18.544 168.22 18.24C167.804 17.952 167.108 17.808 166.132 17.808H163.396C162.548 17.808 161.876 17.688 161.38 17.448C160.9 17.208 160.564 16.912 160.372 16.56C160.18 16.192 160.084 15.816 160.084 15.432C160.084 14.968 160.212 14.512 160.468 14.064C160.724 13.6 161.164 13.144 161.788 12.696C161.1 12.392 160.54 11.944 160.108 11.352C159.676 10.76 159.46 10.024 159.46 9.14399C159.46 8.24799 159.668 7.51199 160.084 6.93599C160.5 6.34399 161.06 5.90399 161.764 5.61599C162.468 5.31199 163.252 5.15999 164.116 5.15999H164.524C165.452 5.15999 166.252 5.31199 166.924 5.61599L170.38 3.91199L170.668 6.26399H167.932C168.316 6.59999 168.612 7.00799 168.82 7.48799C169.044 7.95199 169.156 8.50399 169.156 9.14399C169.156 10.008 168.948 10.736 168.532 11.328C168.116 11.92 167.556 12.368 166.852 12.672C166.164 12.976 165.388 13.128 164.524 13.128H164.116C163.636 13.128 163.164 13.08 162.7 12.984C162.3 13.256 162.02 13.52 161.86 13.776C161.716 14.016 161.644 14.248 161.644 14.472C161.644 14.728 161.756 14.92 161.98 15.048C162.22 15.176 162.604 15.24 163.132 15.24H166.252C167.628 15.24 168.684 15.552 169.42 16.176C170.156 16.784 170.524 17.664 170.524 18.816ZM164.524 12.288C165.036 12.288 165.476 12.064 165.844 11.616C166.212 11.168 166.396 10.344 166.396 9.14399C166.396 7.94399 166.212 7.11999 165.844 6.67199C165.476 6.22399 165.036 5.99999 164.524 5.99999H164.116C163.604 5.99999 163.156 6.22399 162.772 6.67199C162.404 7.11999 162.22 7.94399 162.22 9.14399C162.22 10.344 162.404 11.168 162.772 11.616C163.156 12.064 163.604 12.288 164.116 12.288H164.524ZM17.2801 36.416L14.6641 46.568H12.4801L9.6001 36.92L6.6961 46.568H4.7041L2.1121 36.416C2.0161 36.048 1.9361 35.792 1.8721 35.648C1.8241 35.488 1.7601 35.384 1.6801 35.336C1.6001 35.288 1.4801 35.256 1.3201 35.24L0.00010192 35.072V34.4H6.3841V35.072L5.0641 35.24C4.8081 35.272 4.6641 35.344 4.6321 35.456C4.6001 35.552 4.6561 35.872 4.8001 36.416L6.6721 43.64L9.4321 34.4H11.5441L14.4001 44.048L16.3441 36.416C16.4881 35.872 16.5441 35.552 16.5121 35.456C16.4801 35.344 16.3361 35.272 16.0801 35.24L14.7601 35.072V34.4H19.3921V35.072L18.0721 35.24C17.9121 35.256 17.7921 35.288 17.7121 35.336C17.6321 35.384 17.5601 35.488 17.4961 35.648C17.4481 35.792 17.3761 36.048 17.2801 36.416ZM27.1165 32.336C26.6205 32.336 26.2205 32.184 25.9165 31.88C25.6125 31.56 25.4605 31.152 25.4605 30.656C25.4605 30.16 25.6125 29.76 25.9165 29.456C26.2205 29.152 26.6205 29 27.1165 29C27.5965 29 27.9965 29.152 28.3165 29.456C28.6365 29.76 28.7965 30.16 28.7965 30.656C28.7965 31.152 28.6365 31.56 28.3165 31.88C27.9965 32.184 27.5965 32.336 27.1165 32.336ZM23.9005 35.072V34.4H28.5085V44.552C28.5085 45.096 28.5325 45.424 28.5805 45.536C28.6285 45.632 28.7805 45.696 29.0365 45.728L30.3565 45.896V46.568H23.9005V45.896L25.2205 45.728C25.4765 45.696 25.6285 45.632 25.6765 45.536C25.7245 45.424 25.7485 45.096 25.7485 44.552V36.416C25.7485 35.872 25.7245 35.552 25.6765 35.456C25.6285 35.344 25.4765 35.272 25.2205 35.24L23.9005 35.072ZM43.9074 44.072C43.6994 45.048 43.2994 45.752 42.7074 46.184C42.1314 46.6 41.4274 46.808 40.5954 46.808C39.7474 46.808 39.0514 46.624 38.5074 46.256C37.9634 45.872 37.5634 45.368 37.3074 44.744C37.0514 44.12 36.9234 43.456 36.9234 42.752V36.416C36.9234 35.872 36.8994 35.552 36.8514 35.456C36.8034 35.344 36.6514 35.272 36.3954 35.24L35.0754 35.072V34.4H36.9234V31.616L39.6834 31.064V34.4H43.5234V35.24H39.6834V43.232C39.6834 44.256 39.8114 44.968 40.0674 45.368C40.3234 45.752 40.6514 45.944 41.0514 45.944C41.4674 45.944 41.7874 45.784 42.0114 45.464C42.2514 45.144 42.4034 44.56 42.4674 43.712L43.9074 44.072ZM62.8801 45.896V46.568H56.4241V45.896L57.7441 45.728C58.0001 45.696 58.1521 45.632 58.2001 45.536C58.2481 45.424 58.2721 45.096 58.2721 44.552V38.504C58.2721 37.4 58.1041 36.6 57.7681 36.104C57.4481 35.592 56.9681 35.336 56.3281 35.336C56.0561 35.336 55.7361 35.408 55.3681 35.552C55.0161 35.68 54.6561 35.92 54.2881 36.272C53.9361 36.624 53.6241 37.144 53.3521 37.832V44.552C53.3521 45.096 53.3761 45.424 53.4241 45.536C53.4721 45.632 53.6241 45.696 53.8801 45.728L55.2001 45.896V46.568H48.7441V45.896L50.0641 45.728C50.3201 45.696 50.4721 45.632 50.5201 45.536C50.5681 45.424 50.5921 45.096 50.5921 44.552V30.824C50.5921 30.28 50.5681 29.96 50.5201 29.864C50.4721 29.752 50.3201 29.68 50.0641 29.648L48.7441 29.48V28.808H53.3521V36.272C53.8161 35.536 54.3921 35 55.0801 34.664C55.7841 34.328 56.4881 34.16 57.1921 34.16C58.3761 34.16 59.3121 34.536 60.0001 35.288C60.6881 36.04 61.0321 37.104 61.0321 38.48V44.552C61.0321 45.096 61.0561 45.424 61.1041 45.536C61.1521 45.632 61.3041 45.696 61.5601 45.728L62.8801 45.896ZM89.4684 45.968C89.2124 46.208 88.9004 46.408 88.5324 46.568C88.1804 46.728 87.7484 46.808 87.2364 46.808C86.5804 46.808 86.0284 46.664 85.5804 46.376C85.1484 46.088 84.8604 45.68 84.7164 45.152C84.1884 45.728 83.6044 46.152 82.9644 46.424C82.3404 46.68 81.7004 46.808 81.0444 46.808C79.9404 46.808 79.1164 46.504 78.5724 45.896C78.0284 45.272 77.7564 44.496 77.7564 43.568C77.7564 42.624 78.1004 41.864 78.7884 41.288C79.4764 40.696 80.6924 40.4 82.4364 40.4H84.6204V38.456C84.6204 37.128 84.4444 36.224 84.0924 35.744C83.7564 35.248 83.2844 35 82.6764 35C82.2764 35 81.9084 35.104 81.5724 35.312C81.2364 35.504 80.9964 35.872 80.8524 36.416C80.7244 36.944 80.7484 37.712 80.9244 38.72L78.2844 38.336C78.1564 37.6 78.2364 36.92 78.5244 36.296C78.8284 35.656 79.3324 35.144 80.0364 34.76C80.7404 34.36 81.6364 34.16 82.7244 34.16C83.9564 34.16 84.9084 34.36 85.5804 34.76C86.2524 35.16 86.7164 35.688 86.9724 36.344C87.2444 37 87.3804 37.704 87.3804 38.456V44C87.3804 44.816 87.4524 45.328 87.5964 45.536C87.7404 45.744 87.9004 45.848 88.0764 45.848C88.3644 45.848 88.6844 45.68 89.0364 45.344L89.4684 45.968ZM82.1004 45.536C82.5164 45.536 82.9244 45.432 83.3244 45.224C83.7404 45 84.1724 44.592 84.6204 44V41.24H82.8204C82.0364 41.24 81.4684 41.424 81.1164 41.792C80.7644 42.16 80.5884 42.736 80.5884 43.52C80.5884 44.16 80.7164 44.656 80.9724 45.008C81.2284 45.36 81.6044 45.536 82.1004 45.536ZM110.606 45.896V46.568H103.67V45.896L104.99 45.728C105.246 45.696 105.398 45.632 105.446 45.536C105.494 45.424 105.518 45.096 105.518 44.552V36.416C105.518 35.872 105.494 35.552 105.446 35.456C105.398 35.344 105.246 35.272 104.99 35.24L103.67 35.072V34.4H105.518V33.104C105.518 32.336 105.646 31.608 105.902 30.92C106.174 30.216 106.622 29.648 107.246 29.216C107.886 28.784 108.742 28.568 109.814 28.568C110.79 28.568 111.59 28.736 112.214 29.072C112.854 29.408 113.31 29.856 113.582 30.416C113.87 30.976 113.958 31.584 113.846 32.24L111.206 32.624C111.366 31.424 111.318 30.592 111.062 30.128C110.822 29.648 110.406 29.408 109.814 29.408C109.494 29.408 109.214 29.496 108.974 29.672C108.75 29.848 108.574 30.168 108.446 30.632C108.334 31.08 108.278 31.744 108.278 32.624V34.4H111.878V35.24H108.278V44.552C108.278 45.096 108.302 45.424 108.35 45.536C108.398 45.632 108.55 45.696 108.806 45.728L110.606 45.896ZM116.468 35.072V34.4H120.932V36.368C121.908 34.896 123.068 34.16 124.412 34.16C124.908 34.16 125.388 34.32 125.852 34.64C126.316 34.944 126.7 35.52 127.004 36.368L124.868 37.52C124.644 36.864 124.38 36.424 124.076 36.2C123.788 35.96 123.476 35.84 123.14 35.84C122.788 35.84 122.444 35.952 122.108 36.176C121.772 36.4 121.428 36.816 121.076 37.424V44.552C121.076 45.096 121.1 45.424 121.148 45.536C121.196 45.632 121.348 45.696 121.604 45.728L123.404 45.896V46.568H116.468V45.896L117.788 45.728C118.044 45.696 118.196 45.632 118.244 45.536C118.292 45.424 118.316 45.096 118.316 44.552V36.416C118.316 35.872 118.292 35.552 118.244 35.456C118.196 35.344 118.044 35.272 117.788 35.24L116.468 35.072ZM134.85 32.336C134.354 32.336 133.954 32.184 133.65 31.88C133.346 31.56 133.194 31.152 133.194 30.656C133.194 30.16 133.346 29.76 133.65 29.456C133.954 29.152 134.354 29 134.85 29C135.33 29 135.73 29.152 136.05 29.456C136.37 29.76 136.53 30.16 136.53 30.656C136.53 31.152 136.37 31.56 136.05 31.88C135.73 32.184 135.33 32.336 134.85 32.336ZM131.634 35.072V34.4H136.242V44.552C136.242 45.096 136.266 45.424 136.314 45.536C136.362 45.632 136.514 45.696 136.77 45.728L138.09 45.896V46.568H131.634V45.896L132.954 45.728C133.21 45.696 133.362 45.632 133.41 45.536C133.458 45.424 133.482 45.096 133.482 44.552V36.416C133.482 35.872 133.458 35.552 133.41 35.456C133.362 35.344 133.21 35.272 132.954 35.24L131.634 35.072ZM153.921 43.712C153.633 44.832 153.097 45.632 152.313 46.112C151.529 46.576 150.617 46.808 149.577 46.808C147.657 46.808 146.217 46.256 145.257 45.152C144.297 44.032 143.817 42.552 143.817 40.712V40.232C143.817 38.392 144.265 36.92 145.161 35.816C146.073 34.712 147.385 34.16 149.097 34.16C150.057 34.16 150.905 34.352 151.641 34.736C152.393 35.104 152.977 35.64 153.393 36.344C153.825 37.048 154.041 37.904 154.041 38.912C154.041 39.152 154.025 39.408 153.993 39.68C153.977 39.952 153.937 40.224 153.873 40.496H146.769V41.192C146.769 42.888 147.009 44.112 147.489 44.864C147.969 45.6 148.745 45.968 149.817 45.968C150.505 45.968 151.089 45.768 151.569 45.368C152.049 44.952 152.321 44.256 152.385 43.28L153.921 43.712ZM149.097 35C148.313 35 147.729 35.36 147.345 36.08C146.961 36.8 146.769 37.992 146.769 39.656H151.113C151.177 39.336 151.217 39.04 151.233 38.768C151.265 38.48 151.281 38.216 151.281 37.976C151.281 36.952 151.081 36.2 150.681 35.72C150.281 35.24 149.753 35 149.097 35ZM174.016 45.896V46.568H167.56V45.896L168.88 45.728C169.136 45.696 169.288 45.632 169.336 45.536C169.384 45.424 169.408 45.096 169.408 44.552V38.504C169.408 37.4 169.24 36.6 168.904 36.104C168.584 35.592 168.104 35.336 167.464 35.336C167.192 35.336 166.872 35.408 166.504 35.552C166.152 35.68 165.792 35.92 165.424 36.272C165.072 36.624 164.76 37.144 164.488 37.832V44.552C164.488 45.096 164.512 45.424 164.56 45.536C164.608 45.632 164.76 45.696 165.016 45.728L166.336 45.896V46.568H159.88V45.896L161.2 45.728C161.456 45.696 161.608 45.632 161.656 45.536C161.704 45.424 161.728 45.096 161.728 44.552V36.416C161.728 35.872 161.704 35.552 161.656 35.456C161.608 35.344 161.456 35.272 161.2 35.24L159.88 35.072V34.4H164.344V36.512C164.808 35.696 165.4 35.104 166.12 34.736C166.856 34.352 167.592 34.16 168.328 34.16C169.512 34.16 170.448 34.536 171.136 35.288C171.824 36.04 172.168 37.104 172.168 38.48V44.552C172.168 45.096 172.192 45.424 172.24 45.536C172.288 45.632 172.44 45.696 172.696 45.728L174.016 45.896ZM192.017 45.896V46.568H187.553V44.576C187.105 45.312 186.601 45.872 186.041 46.256C185.497 46.624 184.849 46.808 184.097 46.808C182.753 46.808 181.681 46.28 180.881 45.224C180.097 44.152 179.705 42.656 179.705 40.736V40.256C179.705 38.4 180.161 36.92 181.073 35.816C182.001 34.712 183.265 34.16 184.865 34.16C185.825 34.16 186.673 34.4 187.409 34.88V30.824C187.409 30.28 187.385 29.96 187.337 29.864C187.289 29.752 187.137 29.68 186.881 29.648L185.561 29.48V28.808H190.169V44.552C190.169 45.096 190.193 45.424 190.241 45.536C190.289 45.632 190.441 45.696 190.697 45.728L192.017 45.896ZM182.657 41.456C182.657 42.944 182.841 44.032 183.209 44.72C183.577 45.408 184.081 45.752 184.721 45.752C185.121 45.752 185.537 45.592 185.969 45.272C186.417 44.936 186.897 44.264 187.409 43.256V36.008C186.801 35.4 186.057 35.096 185.177 35.096C184.297 35.096 183.657 35.496 183.257 36.296C182.857 37.08 182.657 38.16 182.657 39.536V41.456Z" fill="black"/>
</svg>
