<svg width="119" height="18" viewBox="0 0 119 18" fill="none" xmlns="http://www.w3.org/2000/svg">
<path d="M6.86405 17.8081C5.39205 17.8081 4.14405 17.4961 3.12005 16.8721C2.09605 16.2321 1.32005 15.3361 0.792046 14.1841C0.264046 13.0321 4.6134e-05 11.6881 4.6134e-05 10.1521V8.64012C4.6134e-05 7.10411 0.232046 5.76811 0.696046 4.63211C1.17605 3.48011 1.88805 2.59211 2.83205 1.96811C3.77605 1.32811 4.96005 1.00811 6.38405 1.00811C7.60005 1.00811 8.61605 1.24811 9.43205 1.72811C10.248 2.19211 10.848 2.81611 11.232 3.60011C11.632 4.36811 11.8 5.20811 11.736 6.12011L8.92805 6.81611C9.08805 5.21611 8.92005 3.99211 8.42405 3.14411C7.94405 2.28011 7.22405 1.84811 6.26405 1.84811C5.24005 1.84811 4.44805 2.28011 3.88805 3.14411C3.34405 4.00811 3.07205 5.44011 3.07205 7.44011V11.3521C3.07205 13.3361 3.38405 14.7681 4.00805 15.6481C4.63205 16.5281 5.58405 16.9681 6.86405 16.9681C7.39205 16.9681 7.88005 16.8721 8.32805 16.6801C8.79205 16.4881 9.17605 16.1601 9.48005 15.6961C9.80005 15.2161 10 14.5441 10.08 13.6801L11.808 14.1361C11.584 15.0321 11.224 15.7521 10.728 16.2961C10.232 16.8401 9.64805 17.2321 8.97605 17.4721C8.32005 17.6961 7.61605 17.8081 6.86405 17.8081ZM19.8644 17.8081C19.3684 17.8081 18.9604 17.6561 18.6404 17.3521C18.3364 17.0321 18.1844 16.6161 18.1844 16.1041C18.1844 15.5921 18.3364 15.1841 18.6404 14.8801C18.9604 14.5761 19.3684 14.4241 19.8644 14.4241C20.3604 14.4241 20.7684 14.5761 21.0884 14.8801C21.4084 15.1841 21.5684 15.5921 21.5684 16.1041C21.5684 16.6161 21.4084 17.0321 21.0884 17.3521C20.7684 17.6561 20.3604 17.8081 19.8644 17.8081ZM56.3327 16.8961V17.5681H49.7567V16.8961L51.0767 16.7281C51.3327 16.6961 51.4847 16.6321 51.5327 16.5361C51.5807 16.4241 51.6047 16.0961 51.6047 15.5521V3.21611L47.2127 15.6481H44.6447L40.3007 3.28811V15.5521C40.3007 16.0961 40.3247 16.4241 40.3727 16.5361C40.4207 16.6321 40.5727 16.6961 40.8287 16.7281L42.1487 16.8961V17.5681H37.4927V16.8961L38.8127 16.7281C39.0687 16.6961 39.2207 16.6321 39.2687 16.5361C39.3167 16.4241 39.3407 16.0961 39.3407 15.5521V3.26411C39.3407 2.72011 39.3167 2.40011 39.2687 2.30411C39.2207 2.19211 39.0687 2.12011 38.8127 2.08811L37.4927 1.92011V1.24812H42.5567L46.9487 13.7281L51.4127 1.24812H56.3327V1.92011L55.0127 2.08811C54.7567 2.12011 54.6047 2.19211 54.5567 2.30411C54.5087 2.40011 54.4847 2.72011 54.4847 3.26411V15.5521C54.4847 16.0961 54.5087 16.4241 54.5567 16.5361C54.6047 16.6321 54.7567 16.6961 55.0127 16.7281L56.3327 16.8961ZM75.607 16.8961V17.5681H71.143V15.4561C70.695 16.2721 70.119 16.8721 69.415 17.2561C68.711 17.6241 67.999 17.8081 67.279 17.8081C66.143 17.8081 65.239 17.4321 64.567 16.6801C63.895 15.9121 63.559 14.8481 63.559 13.4881V7.41612C63.559 6.87211 63.535 6.55211 63.487 6.45611C63.439 6.34411 63.287 6.27211 63.031 6.24011L61.711 6.07211V5.40011H66.319V13.4641C66.319 14.5681 66.471 15.3761 66.775 15.8881C67.095 16.3841 67.551 16.6321 68.143 16.6321C68.399 16.6321 68.695 16.5681 69.031 16.4401C69.383 16.2961 69.735 16.0481 70.087 15.6961C70.439 15.3281 70.743 14.8081 70.999 14.1361V7.41612C70.999 6.87211 70.975 6.54411 70.927 6.43211C70.879 6.32011 70.727 6.25611 70.471 6.24011L68.671 6.07211V5.40011H73.759V15.5521C73.759 16.0961 73.783 16.4241 73.831 16.5361C73.879 16.6321 74.031 16.6961 74.287 16.7281L75.607 16.8961ZM86.1057 13.0321L84.4497 12.6481C83.3777 12.3921 82.5777 11.9361 82.0497 11.2801C81.5377 10.6081 81.2817 9.81611 81.2817 8.90411C81.2817 8.23211 81.4257 7.61611 81.7137 7.05611C82.0177 6.48011 82.4897 6.02411 83.1297 5.68811C83.7697 5.33611 84.6017 5.16011 85.6257 5.16011C86.7297 5.16011 87.6257 5.33611 88.3137 5.68811C89.0017 6.04011 89.4897 6.50411 89.7777 7.08012C90.0657 7.65611 90.1537 8.27211 90.0417 8.92811L87.4017 9.40812C87.6257 8.32011 87.5617 7.48011 87.2097 6.88811C86.8737 6.29611 86.3057 6.00011 85.5057 6.00011C84.9457 6.00011 84.4817 6.16811 84.1137 6.50411C83.7457 6.82411 83.5617 7.28811 83.5617 7.89611C83.5617 8.45611 83.7217 8.95211 84.0417 9.38411C84.3617 9.80011 84.8337 10.0801 85.4577 10.2241L87.1137 10.6081C88.2977 10.8801 89.1537 11.3121 89.6817 11.9041C90.2097 12.4801 90.4737 13.2001 90.4737 14.0641C90.4737 15.1361 90.0737 16.0321 89.2737 16.7521C88.4897 17.4561 87.3137 17.8081 85.7457 17.8081C85.2017 17.8081 84.6017 17.7281 83.9457 17.5681C83.3057 17.3921 82.7137 17.0801 82.1697 16.6321C81.6417 16.1841 81.2577 15.5441 81.0177 14.7121L82.5777 14.0881C82.6897 15.1441 83.0497 15.8881 83.6577 16.3201C84.2817 16.7521 84.9777 16.9681 85.7457 16.9681C86.4657 16.9681 87.0497 16.8081 87.4977 16.4881C87.9617 16.1521 88.1937 15.6721 88.1937 15.0481C88.1937 14.6161 88.0417 14.2241 87.7377 13.8721C87.4497 13.5041 86.9057 13.2241 86.1057 13.0321ZM99.4609 3.33611C98.9649 3.33611 98.5649 3.18411 98.2609 2.88011C97.9569 2.56011 97.8049 2.15211 97.8049 1.65611C97.8049 1.16011 97.9569 0.760115 98.2609 0.456114C98.5649 0.152114 98.9649 0.000113964 99.4609 0.000113964C99.9409 0.000113964 100.341 0.152114 100.661 0.456114C100.981 0.760115 101.141 1.16011 101.141 1.65611C101.141 2.15211 100.981 2.56011 100.661 2.88011C100.341 3.18411 99.9409 3.33611 99.4609 3.33611ZM96.2449 6.07211V5.40011H100.853V15.5521C100.853 16.0961 100.877 16.4241 100.925 16.5361C100.973 16.6321 101.125 16.6961 101.381 16.7281L102.701 16.8961V17.5681H96.2449V16.8961L97.5649 16.7281C97.8209 16.6961 97.9729 16.6321 98.0209 16.5361C98.0689 16.4241 98.0929 16.0961 98.0929 15.5521V7.41612C98.0929 6.87211 98.0689 6.55211 98.0209 6.45611C97.9729 6.34411 97.8209 6.27211 97.5649 6.24011L96.2449 6.07211ZM113.66 6.00011C112.892 6.00011 112.316 6.36811 111.932 7.10411C111.564 7.82411 111.38 9.04011 111.38 10.7521V12.1921C111.38 13.8881 111.596 15.1121 112.028 15.8641C112.46 16.6001 113.164 16.9681 114.14 16.9681C114.86 16.9681 115.444 16.7681 115.892 16.3681C116.356 15.9521 116.62 15.2561 116.684 14.2801L118.22 14.7121C117.932 15.8321 117.404 16.6321 116.636 17.1121C115.884 17.5761 114.996 17.8081 113.972 17.8081C112.132 17.8081 110.748 17.2561 109.82 16.1521C108.892 15.0321 108.428 13.5521 108.428 11.7121V11.2321C108.428 9.39212 108.876 7.92011 109.772 6.81611C110.668 5.71211 111.964 5.16011 113.66 5.16011C114.78 5.16011 115.692 5.38411 116.396 5.83211C117.116 6.26411 117.62 6.84011 117.908 7.56011C118.212 8.26411 118.292 9.02411 118.148 9.84011L115.508 10.2241C115.684 8.88011 115.612 7.84011 115.292 7.10411C114.972 6.36811 114.428 6.00011 113.66 6.00011Z" fill="white"/>
</svg>
