<svg width="180" height="23" viewBox="0 0 180 23" fill="none" xmlns="http://www.w3.org/2000/svg">
<path d="M-4.3422e-05 1.92011V1.24812H7.07996C9.12796 1.24812 10.696 1.84811 11.784 3.04811C12.888 4.24811 13.44 6.11211 13.44 8.64012V10.1521C13.44 12.6801 12.888 14.5521 11.784 15.7681C10.696 16.9681 9.12796 17.5681 7.07996 17.5681H-4.3422e-05V16.8961L1.31996 16.7281C1.57596 16.6961 1.72796 16.6321 1.77596 16.5361C1.82396 16.4241 1.84796 16.0961 1.84796 15.5521V3.26411C1.84796 2.72011 1.82396 2.40011 1.77596 2.30411C1.72796 2.19211 1.57596 2.12011 1.31996 2.08811L-4.3422e-05 1.92011ZM6.95996 2.08811H4.72796V16.7281H6.95996C7.77596 16.7281 8.43196 16.5921 8.92796 16.3201C9.42396 16.0321 9.78396 15.5041 10.008 14.7361C10.248 13.9521 10.368 12.8241 10.368 11.3521V7.44011C10.368 5.96812 10.248 4.84811 10.008 4.08011C9.78396 3.31211 9.42396 2.79211 8.92796 2.52011C8.43196 2.23211 7.77596 2.08811 6.95996 2.08811ZM21.3069 17.8081C20.8109 17.8081 20.4029 17.6561 20.0829 17.3521C19.7789 17.0321 19.6269 16.6161 19.6269 16.1041C19.6269 15.5921 19.7789 15.1841 20.0829 14.8801C20.4029 14.5761 20.8109 14.4241 21.3069 14.4241C21.8029 14.4241 22.2109 14.5761 22.5309 14.8801C22.8509 15.1841 23.0109 15.5921 23.0109 16.1041C23.0109 16.6161 22.8509 17.0321 22.5309 17.3521C22.2109 17.6561 21.8029 17.8081 21.3069 17.8081ZM46.5673 10.8481V10.1761H53.3833V10.8481L52.0633 11.0161C51.8073 11.0481 51.6553 11.1201 51.6073 11.2321C51.5593 11.3281 51.5353 11.6481 51.5353 12.1921V17.5681H50.8873C50.4553 17.1201 49.9753 16.7441 49.4473 16.4401C49.0153 16.8241 48.5033 17.1521 47.9113 17.4241C47.3193 17.6801 46.5993 17.8081 45.7513 17.8081C44.4393 17.8081 43.3113 17.4801 42.3673 16.8241C41.4393 16.1521 40.7273 15.2321 40.2313 14.0641C39.7353 12.8801 39.4873 11.5361 39.4873 10.0321V8.52012C39.4873 7.06411 39.7353 5.77611 40.2313 4.65611C40.7273 3.52011 41.4553 2.63211 42.4153 1.99211C43.3753 1.33611 44.5513 1.00811 45.9433 1.00811C47.2553 1.00811 48.3353 1.24811 49.1833 1.72811C50.0473 2.19211 50.6793 2.81611 51.0793 3.60011C51.4793 4.36811 51.6313 5.20811 51.5353 6.12011L48.7273 6.81611C48.9033 5.21611 48.7273 3.99211 48.1993 3.14411C47.6713 2.28011 46.8873 1.84811 45.8473 1.84811C43.6553 1.84811 42.5593 3.79211 42.5593 7.68011V11.1121C42.5593 15.0161 43.7193 16.9681 46.0393 16.9681C46.5513 16.9681 47.0633 16.8641 47.5753 16.6561C48.1033 16.4481 48.5433 16.1441 48.8953 15.7441V12.1921C48.8953 11.6481 48.8713 11.3201 48.8233 11.2081C48.7753 11.0961 48.6233 11.0321 48.3673 11.0161L46.5673 10.8481ZM70.1373 11.2321V11.7121C70.1373 13.5521 69.6573 15.0321 68.6973 16.1521C67.7533 17.2561 66.4013 17.8081 64.6413 17.8081C62.8813 17.8081 61.5213 17.2561 60.5613 16.1521C59.6173 15.0321 59.1453 13.5521 59.1453 11.7121V11.2321C59.1453 9.39212 59.6173 7.92011 60.5613 6.81611C61.5213 5.71211 62.8813 5.16011 64.6413 5.16011C66.4013 5.16011 67.7533 5.71211 68.6973 6.81611C69.6573 7.92011 70.1373 9.39212 70.1373 11.2321ZM67.1853 10.7521C67.1853 9.04011 66.9693 7.82411 66.5373 7.10411C66.1053 6.36811 65.4733 6.00011 64.6413 6.00011C63.8253 6.00011 63.1933 6.36811 62.7453 7.10411C62.3133 7.82411 62.0973 9.04011 62.0973 10.7521V12.1921C62.0973 13.8881 62.3133 15.1121 62.7453 15.8641C63.1933 16.6001 63.8253 16.9681 64.6413 16.9681C65.4733 16.9681 66.1053 16.6001 66.5373 15.8641C66.9693 15.1121 67.1853 13.8881 67.1853 12.1921V10.7521ZM81.4779 13.0321L79.8219 12.6481C78.7499 12.3921 77.9499 11.9361 77.4219 11.2801C76.9099 10.6081 76.6539 9.81611 76.6539 8.90411C76.6539 8.23211 76.7979 7.61611 77.0859 7.05611C77.3899 6.48011 77.8619 6.02411 78.5019 5.68811C79.1419 5.33611 79.9739 5.16011 80.9979 5.16011C82.1019 5.16011 82.9979 5.33611 83.6859 5.68811C84.3739 6.04011 84.8619 6.50411 85.1499 7.08012C85.4379 7.65611 85.5259 8.27211 85.4139 8.92811L82.7739 9.40812C82.9979 8.32011 82.9339 7.48011 82.5819 6.88811C82.2459 6.29611 81.6779 6.00011 80.8779 6.00011C80.3179 6.00011 79.8539 6.16811 79.4859 6.50411C79.1179 6.82411 78.9339 7.28811 78.9339 7.89611C78.9339 8.45611 79.0939 8.95211 79.4139 9.38411C79.7339 9.80011 80.2059 10.0801 80.8299 10.2241L82.4859 10.6081C83.6699 10.8801 84.5259 11.3121 85.0539 11.9041C85.5819 12.4801 85.8459 13.2001 85.8459 14.0641C85.8459 15.1361 85.4459 16.0321 84.6459 16.7521C83.8619 17.4561 82.6859 17.8081 81.1179 17.8081C80.5739 17.8081 79.9739 17.7281 79.3179 17.5681C78.6779 17.3921 78.0859 17.0801 77.5419 16.6321C77.0139 16.1841 76.6299 15.5441 76.3899 14.7121L77.9499 14.0881C78.0619 15.1441 78.4219 15.8881 79.0299 16.3201C79.6539 16.7521 80.3499 16.9681 81.1179 16.9681C81.8379 16.9681 82.4219 16.8081 82.8699 16.4881C83.3339 16.1521 83.5659 15.6721 83.5659 15.0481C83.5659 14.6161 83.4139 14.2241 83.1099 13.8721C82.8219 13.5041 82.2779 13.2241 81.4779 13.0321ZM97.0891 13.0321L95.4331 12.6481C94.3611 12.3921 93.5611 11.9361 93.0331 11.2801C92.5211 10.6081 92.2651 9.81611 92.2651 8.90411C92.2651 8.23211 92.4091 7.61611 92.6971 7.05611C93.0011 6.48011 93.4731 6.02411 94.1131 5.68811C94.7531 5.33611 95.5851 5.16011 96.6091 5.16011C97.7131 5.16011 98.6091 5.33611 99.2971 5.68811C99.9851 6.04011 100.473 6.50411 100.761 7.08012C101.049 7.65611 101.137 8.27211 101.025 8.92811L98.3851 9.40812C98.6091 8.32011 98.5451 7.48011 98.1931 6.88811C97.8571 6.29611 97.2891 6.00011 96.4891 6.00011C95.9291 6.00011 95.4651 6.16811 95.0971 6.50411C94.7291 6.82411 94.5451 7.28811 94.5451 7.89611C94.5451 8.45611 94.7051 8.95211 95.0251 9.38411C95.3451 9.80011 95.8171 10.0801 96.4411 10.2241L98.0971 10.6081C99.2811 10.8801 100.137 11.3121 100.665 11.9041C101.193 12.4801 101.457 13.2001 101.457 14.0641C101.457 15.1361 101.057 16.0321 100.257 16.7521C99.4731 17.4561 98.2971 17.8081 96.7291 17.8081C96.1851 17.8081 95.5851 17.7281 94.9291 17.5681C94.2891 17.3921 93.6971 17.0801 93.1531 16.6321C92.6251 16.1841 92.2411 15.5441 92.0011 14.7121L93.5611 14.0881C93.6731 15.1441 94.0331 15.8881 94.6411 16.3201C95.2651 16.7521 95.9611 16.9681 96.7291 16.9681C97.4491 16.9681 98.0331 16.8081 98.4811 16.4881C98.9451 16.1521 99.1771 15.6721 99.1771 15.0481C99.1771 14.6161 99.0251 14.2241 98.7211 13.8721C98.4331 13.5041 97.8891 13.2241 97.0891 13.0321ZM110.444 3.33611C109.948 3.33611 109.548 3.18411 109.244 2.88011C108.94 2.56011 108.788 2.15211 108.788 1.65611C108.788 1.16011 108.94 0.760115 109.244 0.456114C109.548 0.152114 109.948 0.000113964 110.444 0.000113964C110.924 0.000113964 111.324 0.152114 111.644 0.456114C111.964 0.760115 112.124 1.16011 112.124 1.65611C112.124 2.15211 111.964 2.56011 111.644 2.88011C111.324 3.18411 110.924 3.33611 110.444 3.33611ZM107.228 6.07211V5.40011H111.836V15.5521C111.836 16.0961 111.86 16.4241 111.908 16.5361C111.956 16.6321 112.108 16.6961 112.364 16.7281L113.684 16.8961V17.5681H107.228V16.8961L108.548 16.7281C108.804 16.6961 108.956 16.6321 109.004 16.5361C109.052 16.4241 109.076 16.0961 109.076 15.5521V7.41612C109.076 6.87211 109.052 6.55211 109.004 6.45611C108.956 6.34411 108.804 6.27211 108.548 6.24011L107.228 6.07211ZM118.523 6.07211V5.40011H122.987V7.39211C123.451 6.64011 123.955 6.08011 124.499 5.71211C125.043 5.34411 125.691 5.16011 126.443 5.16011C127.787 5.16011 128.851 5.69611 129.635 6.76811C130.435 7.82412 130.835 9.31212 130.835 11.2321V11.7121C130.835 13.5681 130.379 15.0481 129.467 16.1521C128.555 17.2561 127.291 17.8081 125.675 17.8081C124.715 17.8081 123.867 17.5681 123.131 17.0881V20.6641C123.131 21.2081 123.155 21.5281 123.203 21.6241C123.251 21.7361 123.403 21.8081 123.659 21.8401L125.459 22.0081V22.6801H118.523V22.0081L119.843 21.8401C120.099 21.8081 120.251 21.7361 120.299 21.6241C120.347 21.5281 120.371 21.2081 120.371 20.6641V7.41612C120.371 6.87211 120.347 6.55211 120.299 6.45611C120.251 6.34411 120.099 6.27211 119.843 6.24011L118.523 6.07211ZM125.819 6.21611C125.419 6.21611 124.995 6.38411 124.547 6.72011C124.115 7.04011 123.643 7.70411 123.131 8.71211V15.9601C123.739 16.5681 124.483 16.8721 125.363 16.8721C126.259 16.8721 126.899 16.4801 127.283 15.6961C127.683 14.8961 127.883 13.8081 127.883 12.4321V10.5121C127.883 9.02411 127.699 7.93611 127.331 7.24812C126.963 6.56011 126.459 6.21611 125.819 6.21611ZM140.026 3.33611C139.53 3.33611 139.13 3.18411 138.826 2.88011C138.522 2.56011 138.37 2.15211 138.37 1.65611C138.37 1.16011 138.522 0.760115 138.826 0.456114C139.13 0.152114 139.53 0.000113964 140.026 0.000113964C140.506 0.000113964 140.906 0.152114 141.226 0.456114C141.546 0.760115 141.706 1.16011 141.706 1.65611C141.706 2.15211 141.546 2.56011 141.226 2.88011C140.906 3.18411 140.506 3.33611 140.026 3.33611ZM136.81 6.07211V5.40011H141.418V15.5521C141.418 16.0961 141.442 16.4241 141.49 16.5361C141.538 16.6321 141.69 16.6961 141.946 16.7281L143.266 16.8961V17.5681H136.81V16.8961L138.13 16.7281C138.386 16.6961 138.538 16.6321 138.586 16.5361C138.634 16.4241 138.658 16.0961 138.658 15.5521V7.41612C138.658 6.87211 138.634 6.55211 138.586 6.45611C138.538 6.34411 138.386 6.27211 138.13 6.24011L136.81 6.07211ZM162.409 16.8961V17.5681H155.953V16.8961L157.273 16.7281C157.529 16.6961 157.681 16.6321 157.729 16.5361C157.777 16.4241 157.801 16.0961 157.801 15.5521V9.50411C157.801 8.40011 157.633 7.60011 157.297 7.10411C156.977 6.59211 156.497 6.33611 155.857 6.33611C155.585 6.33611 155.265 6.40811 154.897 6.55211C154.545 6.68011 154.185 6.92011 153.817 7.27211C153.465 7.62411 153.153 8.14411 152.881 8.83211V15.5521C152.881 16.0961 152.905 16.4241 152.953 16.5361C153.001 16.6321 153.153 16.6961 153.409 16.7281L154.729 16.8961V17.5681H148.273V16.8961L149.593 16.7281C149.849 16.6961 150.001 16.6321 150.049 16.5361C150.097 16.4241 150.121 16.0961 150.121 15.5521V7.41612C150.121 6.87211 150.097 6.55211 150.049 6.45611C150.001 6.34411 149.849 6.27211 149.593 6.24011L148.273 6.07211V5.40011H152.737V7.51211C153.201 6.69611 153.793 6.10411 154.513 5.73611C155.249 5.35211 155.985 5.16011 156.721 5.16011C157.905 5.16011 158.841 5.53611 159.529 6.28811C160.217 7.04011 160.561 8.10412 160.561 9.48011V15.5521C160.561 16.0961 160.585 16.4241 160.633 16.5361C160.681 16.6321 160.833 16.6961 161.089 16.7281L162.409 16.8961ZM179.018 18.8161C179.018 20.1281 178.522 21.1361 177.53 21.8401C176.554 22.5601 175.21 22.9201 173.498 22.9201C171.61 22.9201 170.202 22.6081 169.274 21.9841C168.346 21.3761 167.842 20.6161 167.762 19.7041L170.33 19.2961C170.266 20.1441 170.466 20.8161 170.93 21.3121C171.41 21.8241 172.266 22.0801 173.498 22.0801C174.65 22.0801 175.578 21.8641 176.282 21.4321C177.002 21.0001 177.362 20.3761 177.362 19.5601C177.362 18.9841 177.146 18.5441 176.714 18.2401C176.298 17.9521 175.602 17.8081 174.626 17.8081H171.89C171.042 17.8081 170.37 17.6881 169.874 17.4481C169.394 17.2081 169.058 16.9121 168.866 16.5601C168.674 16.1921 168.578 15.8161 168.578 15.4321C168.578 14.9681 168.706 14.5121 168.962 14.0641C169.218 13.6001 169.658 13.1441 170.282 12.6961C169.594 12.3921 169.034 11.9441 168.602 11.3521C168.17 10.7601 167.954 10.0241 167.954 9.14411C167.954 8.24812 168.162 7.51212 168.578 6.93611C168.994 6.34411 169.554 5.90411 170.258 5.61611C170.962 5.31211 171.746 5.16011 172.61 5.16011H173.018C173.946 5.16011 174.746 5.31211 175.418 5.61611L178.874 3.91212L179.162 6.26411H176.426C176.81 6.60011 177.106 7.00811 177.314 7.48811C177.538 7.95211 177.65 8.50411 177.65 9.14411C177.65 10.0081 177.442 10.7361 177.026 11.3281C176.61 11.9201 176.05 12.3681 175.346 12.6721C174.658 12.9761 173.882 13.1281 173.018 13.1281H172.61C172.13 13.1281 171.658 13.0801 171.194 12.9841C170.794 13.2561 170.514 13.5201 170.354 13.7761C170.21 14.0161 170.138 14.2481 170.138 14.4721C170.138 14.7281 170.25 14.9201 170.474 15.0481C170.714 15.1761 171.098 15.2401 171.626 15.2401H174.746C176.122 15.2401 177.178 15.5521 177.914 16.1761C178.65 16.7841 179.018 17.6641 179.018 18.8161ZM173.018 12.2881C173.53 12.2881 173.97 12.0641 174.338 11.6161C174.706 11.1681 174.89 10.3441 174.89 9.14411C174.89 7.94411 174.706 7.12011 174.338 6.67211C173.97 6.22411 173.53 6.00011 173.018 6.00011H172.61C172.098 6.00011 171.65 6.22411 171.266 6.67211C170.898 7.12011 170.714 7.94411 170.714 9.14411C170.714 10.3441 170.898 11.1681 171.266 11.6161C171.65 12.0641 172.098 12.2881 172.61 12.2881H173.018Z" fill="white"/>
</svg>
