<svg width="119" height="14" viewBox="0 0 119 14" fill="none" xmlns="http://www.w3.org/2000/svg">
<path d="M4.04598 10.108V10.5H-2.14577e-05V10.108L0.769979 10.01C0.919312 9.99133 1.00798 9.954 1.03598 9.898C1.06398 9.83267 1.07798 9.64133 1.07798 9.324V4.578C1.07798 4.26067 1.06398 4.074 1.03598 4.018C1.00798 3.95267 0.919312 3.91067 0.769979 3.892L-2.14577e-05 3.794V3.402H1.07798V2.646C1.07798 2.198 1.15265 1.77333 1.30198 1.372C1.46065 0.961333 1.72198 0.629999 2.08598 0.377999C2.45931 0.125999 2.95865 -8.34465e-07 3.58398 -8.34465e-07C4.15331 -8.34465e-07 4.61998 0.0979993 4.98398 0.294C5.35731 0.49 5.62331 0.751333 5.78198 1.078C5.94998 1.40467 6.00131 1.75933 5.93598 2.142L4.39598 2.366C4.48931 1.666 4.46131 1.18067 4.31198 0.909999C4.17198 0.629999 3.92931 0.49 3.58398 0.49C3.39731 0.49 3.23398 0.541333 3.09398 0.643999C2.96331 0.746666 2.86065 0.933333 2.78598 1.204C2.72065 1.46533 2.68798 1.85267 2.68798 2.366V3.402H4.78798V3.892H2.68798V9.324C2.68798 9.64133 2.70198 9.83267 2.72998 9.898C2.75798 9.954 2.84665 9.99133 2.99598 10.01L4.04598 10.108ZM13.6432 8.834C13.4752 9.48733 13.1625 9.954 12.7052 10.234C12.2479 10.5047 11.7159 10.64 11.1092 10.64C9.9892 10.64 9.1492 10.318 8.5892 9.674C8.0292 9.02067 7.7492 8.15733 7.7492 7.084V6.804C7.7492 5.73067 8.01053 4.872 8.5332 4.228C9.0652 3.584 9.83053 3.262 10.8292 3.262C11.3892 3.262 11.8839 3.374 12.3132 3.598C12.7519 3.81267 13.0925 4.12533 13.3352 4.536C13.5872 4.94667 13.7132 5.446 13.7132 6.034C13.7132 6.174 13.7039 6.32333 13.6852 6.482C13.6759 6.64067 13.6525 6.79933 13.6152 6.958H9.4712V7.364C9.4712 8.35333 9.6112 9.06733 9.8912 9.506C10.1712 9.93533 10.6239 10.15 11.2492 10.15C11.6505 10.15 11.9912 10.0333 12.2712 9.8C12.5512 9.55733 12.7099 9.15133 12.7472 8.582L13.6432 8.834ZM10.8292 3.752C10.3719 3.752 10.0312 3.962 9.8072 4.382C9.5832 4.802 9.4712 5.49733 9.4712 6.468H12.0052C12.0425 6.28133 12.0659 6.10867 12.0752 5.95C12.0939 5.782 12.1032 5.628 12.1032 5.488C12.1032 4.89067 11.9865 4.452 11.7532 4.172C11.5199 3.892 11.2119 3.752 10.8292 3.752ZM23.4334 8.834C23.2654 9.48733 22.9527 9.954 22.4954 10.234C22.038 10.5047 21.506 10.64 20.8994 10.64C19.7794 10.64 18.9394 10.318 18.3794 9.674C17.8194 9.02067 17.5394 8.15733 17.5394 7.084V6.804C17.5394 5.73067 17.8007 4.872 18.3234 4.228C18.8554 3.584 19.6207 3.262 20.6194 3.262C21.1794 3.262 21.674 3.374 22.1034 3.598C22.542 3.81267 22.8827 4.12533 23.1254 4.536C23.3774 4.94667 23.5034 5.446 23.5034 6.034C23.5034 6.174 23.494 6.32333 23.4754 6.482C23.466 6.64067 23.4427 6.79933 23.4054 6.958H19.2614V7.364C19.2614 8.35333 19.4014 9.06733 19.6814 9.506C19.9614 9.93533 20.414 10.15 21.0394 10.15C21.4407 10.15 21.7814 10.0333 22.0614 9.8C22.3414 9.55733 22.5 9.15133 22.5374 8.582L23.4334 8.834ZM20.6194 3.752C20.162 3.752 19.8214 3.962 19.5974 4.382C19.3734 4.802 19.2614 5.49733 19.2614 6.468H21.7954C21.8327 6.28133 21.856 6.10867 21.8654 5.95C21.884 5.782 21.8934 5.628 21.8934 5.488C21.8934 4.89067 21.7767 4.452 21.5434 4.172C21.31 3.892 21.002 3.752 20.6194 3.752ZM26.8115 0.532V0.14H29.4995V9.324C29.4995 9.64133 29.5135 9.83267 29.5415 9.898C29.5695 9.954 29.6582 9.99133 29.8075 10.01L30.5775 10.108V10.5H26.8115V10.108L27.5815 10.01C27.7308 9.99133 27.8195 9.954 27.8475 9.898C27.8755 9.83267 27.8895 9.64133 27.8895 9.324V1.316C27.8895 0.998666 27.8755 0.811999 27.8475 0.755999C27.8195 0.690666 27.7308 0.648666 27.5815 0.629999L26.8115 0.532ZM35.3764 2.198C35.0871 2.198 34.8538 2.10933 34.6764 1.932C34.4991 1.74533 34.4104 1.50733 34.4104 1.218C34.4104 0.928666 34.4991 0.695333 34.6764 0.517999C34.8538 0.340666 35.0871 0.251999 35.3764 0.251999C35.6564 0.251999 35.8898 0.340666 36.0764 0.517999C36.2631 0.695333 36.3564 0.928666 36.3564 1.218C36.3564 1.50733 36.2631 1.74533 36.0764 1.932C35.8898 2.10933 35.6564 2.198 35.3764 2.198ZM33.5004 3.794V3.402H36.1884V9.324C36.1884 9.64133 36.2024 9.83267 36.2304 9.898C36.2584 9.954 36.3471 9.99133 36.4964 10.01L37.2664 10.108V10.5H33.5004V10.108L34.2704 10.01C34.4198 9.99133 34.5084 9.954 34.5364 9.898C34.5644 9.83267 34.5784 9.64133 34.5784 9.324V4.578C34.5784 4.26067 34.5644 4.074 34.5364 4.018C34.5084 3.95267 34.4198 3.91067 34.2704 3.892L33.5004 3.794ZM48.4331 10.108V10.5H44.6671V10.108L45.4371 10.01C45.5864 9.99133 45.6751 9.954 45.7031 9.898C45.7311 9.83267 45.7451 9.64133 45.7451 9.324V5.796C45.7451 5.152 45.6471 4.68533 45.4511 4.396C45.2644 4.09733 44.9844 3.948 44.6111 3.948C44.4524 3.948 44.2658 3.99 44.0511 4.074C43.8458 4.14867 43.6358 4.28867 43.4211 4.494C43.2158 4.69933 43.0338 5.00267 42.8751 5.404V9.324C42.8751 9.64133 42.8891 9.83267 42.9171 9.898C42.9451 9.954 43.0338 9.99133 43.1831 10.01L43.9531 10.108V10.5H40.1871V10.108L40.9571 10.01C41.1064 9.99133 41.1951 9.954 41.2231 9.898C41.2511 9.83267 41.2651 9.64133 41.2651 9.324V4.578C41.2651 4.26067 41.2511 4.074 41.2231 4.018C41.1951 3.95267 41.1064 3.91067 40.9571 3.892L40.1871 3.794V3.402H42.7911V4.634C43.0618 4.158 43.4071 3.81267 43.8271 3.598C44.2564 3.374 44.6858 3.262 45.1151 3.262C45.8058 3.262 46.3518 3.48133 46.7531 3.92C47.1544 4.35867 47.3551 4.97933 47.3551 5.782V9.324C47.3551 9.64133 47.3691 9.83267 47.3971 9.898C47.4251 9.954 47.5138 9.99133 47.6631 10.01L48.4331 10.108ZM58.1217 11.228C58.1217 11.9933 57.8324 12.5813 57.2537 12.992C56.6844 13.412 55.9004 13.622 54.9017 13.622C53.8004 13.622 52.9791 13.44 52.4377 13.076C51.8964 12.7213 51.6024 12.278 51.5557 11.746L53.0537 11.508C53.0164 12.0027 53.1331 12.3947 53.4037 12.684C53.6837 12.9827 54.1831 13.132 54.9017 13.132C55.5737 13.132 56.1151 13.006 56.5257 12.754C56.9457 12.502 57.1557 12.138 57.1557 11.662C57.1557 11.326 57.0297 11.0693 56.7777 10.892C56.5351 10.724 56.1291 10.64 55.5597 10.64H53.9637C53.4691 10.64 53.0771 10.57 52.7877 10.43C52.5077 10.29 52.3117 10.1173 52.1997 9.912C52.0877 9.69733 52.0317 9.478 52.0317 9.254C52.0317 8.98333 52.1064 8.71733 52.2557 8.456C52.4051 8.18533 52.6617 7.91933 53.0257 7.658C52.6244 7.48067 52.2977 7.21933 52.0457 6.874C51.7937 6.52867 51.6677 6.09933 51.6677 5.586C51.6677 5.06333 51.7891 4.634 52.0317 4.298C52.2744 3.95267 52.6011 3.696 53.0117 3.528C53.4224 3.35067 53.8797 3.262 54.3837 3.262H54.6217C55.1631 3.262 55.6297 3.35067 56.0217 3.528L58.0377 2.534L58.2057 3.906H56.6097C56.8337 4.102 57.0064 4.34 57.1277 4.62C57.2584 4.89067 57.3237 5.21267 57.3237 5.586C57.3237 6.09 57.2024 6.51467 56.9597 6.86C56.7171 7.20533 56.3904 7.46667 55.9797 7.644C55.5784 7.82133 55.1257 7.91 54.6217 7.91H54.3837C54.1037 7.91 53.8284 7.882 53.5577 7.826C53.3244 7.98467 53.1611 8.13867 53.0677 8.288C52.9837 8.428 52.9417 8.56333 52.9417 8.694C52.9417 8.84333 53.0071 8.95533 53.1377 9.03C53.2777 9.10467 53.5017 9.142 53.8097 9.142H55.6297C56.4324 9.142 57.0484 9.324 57.4777 9.688C57.9071 10.0427 58.1217 10.556 58.1217 11.228ZM54.6217 7.42C54.9204 7.42 55.1771 7.28933 55.3917 7.028C55.6064 6.76667 55.7137 6.286 55.7137 5.586C55.7137 4.886 55.6064 4.40533 55.3917 4.144C55.1771 3.88267 54.9204 3.752 54.6217 3.752H54.3837C54.0851 3.752 53.8237 3.88267 53.5997 4.144C53.3851 4.40533 53.2777 4.886 53.2777 5.586C53.2777 6.286 53.3851 6.76667 53.5997 7.028C53.8237 7.28933 54.0851 7.42 54.3837 7.42H54.6217ZM66.4218 0.532V0.14H69.1098V4.438C69.3618 4.046 69.6418 3.752 69.9498 3.556C70.2671 3.36 70.6311 3.262 71.0418 3.262C71.8258 3.262 72.4464 3.57467 72.9038 4.2C73.3704 4.816 73.6038 5.684 73.6038 6.804V7.084C73.6038 8.16667 73.3378 9.03 72.8058 9.674C72.2738 10.318 71.5364 10.64 70.5938 10.64C69.8751 10.64 69.2871 10.4253 68.8298 9.996C68.6618 10.0613 68.4984 10.1453 68.3398 10.248C68.1904 10.3413 68.0364 10.4487 67.8778 10.57H67.4998V1.316C67.4998 0.998666 67.4858 0.811999 67.4578 0.755999C67.4298 0.690666 67.3411 0.648666 67.1918 0.629999L66.4218 0.532ZM70.6778 3.878C70.4444 3.878 70.1971 3.976 69.9358 4.172C69.6838 4.35867 69.4084 4.746 69.1098 5.334V9.562C69.4644 9.91667 69.8984 10.094 70.4118 10.094C70.9344 10.094 71.3078 9.86533 71.5318 9.408C71.7651 8.94133 71.8818 8.30667 71.8818 7.504V6.384C71.8818 5.516 71.7744 4.88133 71.5598 4.48C71.3451 4.07867 71.0511 3.878 70.6778 3.878ZM83.4059 8.834C83.2379 9.48733 82.9252 9.954 82.4679 10.234C82.0105 10.5047 81.4785 10.64 80.8719 10.64C79.7519 10.64 78.9119 10.318 78.3519 9.674C77.7919 9.02067 77.5119 8.15733 77.5119 7.084V6.804C77.5119 5.73067 77.7732 4.872 78.2959 4.228C78.8279 3.584 79.5932 3.262 80.5919 3.262C81.1519 3.262 81.6465 3.374 82.0759 3.598C82.5145 3.81267 82.8552 4.12533 83.0979 4.536C83.3499 4.94667 83.4759 5.446 83.4759 6.034C83.4759 6.174 83.4665 6.32333 83.4479 6.482C83.4385 6.64067 83.4152 6.79933 83.3779 6.958H79.2339V7.364C79.2339 8.35333 79.3739 9.06733 79.6539 9.506C79.9339 9.93533 80.3865 10.15 81.0119 10.15C81.4132 10.15 81.7539 10.0333 82.0339 9.8C82.3139 9.55733 82.4725 9.15133 82.5099 8.582L83.4059 8.834ZM80.5919 3.752C80.1345 3.752 79.7939 3.962 79.5699 4.382C79.3459 4.802 79.2339 5.49733 79.2339 6.468H81.7679C81.8052 6.28133 81.8285 6.10867 81.8379 5.95C81.8565 5.782 81.8659 5.628 81.8659 5.488C81.8659 4.89067 81.7492 4.452 81.5159 4.172C81.2825 3.892 80.9745 3.752 80.5919 3.752ZM91.866 9.044C91.7447 9.61333 91.5113 10.024 91.166 10.276C90.83 10.5187 90.4193 10.64 89.934 10.64C89.4393 10.64 89.0333 10.5327 88.716 10.318C88.3987 10.094 88.1653 9.8 88.016 9.436C87.8667 9.072 87.792 8.68467 87.792 8.274V4.578C87.792 4.26067 87.778 4.074 87.75 4.018C87.722 3.95267 87.6333 3.91067 87.484 3.892L86.714 3.794V3.402H87.792V1.778L89.402 1.456V3.402H91.642V3.892H89.402V8.554C89.402 9.15133 89.4767 9.56667 89.626 9.8C89.7753 10.024 89.9667 10.136 90.2 10.136C90.4427 10.136 90.6293 10.0427 90.76 9.856C90.9 9.66933 90.9887 9.32867 91.026 8.834L91.866 9.044ZM99.7694 9.044C99.6481 9.61333 99.4148 10.024 99.0694 10.276C98.7334 10.5187 98.3228 10.64 97.8374 10.64C97.3428 10.64 96.9368 10.5327 96.6194 10.318C96.3021 10.094 96.0688 9.8 95.9194 9.436C95.7701 9.072 95.6954 8.68467 95.6954 8.274V4.578C95.6954 4.26067 95.6814 4.074 95.6534 4.018C95.6254 3.95267 95.5368 3.91067 95.3874 3.892L94.6174 3.794V3.402H95.6954V1.778L97.3054 1.456V3.402H99.5454V3.892H97.3054V8.554C97.3054 9.15133 97.3801 9.56667 97.5294 9.8C97.6788 10.024 97.8701 10.136 98.1034 10.136C98.3461 10.136 98.5328 10.0427 98.6634 9.856C98.8034 9.66933 98.8921 9.32867 98.9294 8.834L99.7694 9.044ZM109.003 8.834C108.835 9.48733 108.522 9.954 108.065 10.234C107.608 10.5047 107.076 10.64 106.469 10.64C105.349 10.64 104.509 10.318 103.949 9.674C103.389 9.02067 103.109 8.15733 103.109 7.084V6.804C103.109 5.73067 103.37 4.872 103.893 4.228C104.425 3.584 105.19 3.262 106.189 3.262C106.749 3.262 107.244 3.374 107.673 3.598C108.112 3.81267 108.452 4.12533 108.695 4.536C108.947 4.94667 109.073 5.446 109.073 6.034C109.073 6.174 109.064 6.32333 109.045 6.482C109.036 6.64067 109.012 6.79933 108.975 6.958H104.831V7.364C104.831 8.35333 104.971 9.06733 105.251 9.506C105.531 9.93533 105.984 10.15 106.609 10.15C107.01 10.15 107.351 10.0333 107.631 9.8C107.911 9.55733 108.07 9.15133 108.107 8.582L109.003 8.834ZM106.189 3.752C105.732 3.752 105.391 3.962 105.167 4.382C104.943 4.802 104.831 5.49733 104.831 6.468H107.365C107.402 6.28133 107.426 6.10867 107.435 5.95C107.454 5.782 107.463 5.628 107.463 5.488C107.463 4.89067 107.346 4.452 107.113 4.172C106.88 3.892 106.572 3.752 106.189 3.752ZM112.479 3.794V3.402H115.083V4.55C115.652 3.69133 116.329 3.262 117.113 3.262C117.402 3.262 117.682 3.35533 117.953 3.542C118.224 3.71933 118.448 4.05533 118.625 4.55L117.379 5.222C117.248 4.83933 117.094 4.58267 116.917 4.452C116.749 4.312 116.567 4.242 116.371 4.242C116.166 4.242 115.965 4.30733 115.769 4.438C115.573 4.56867 115.372 4.81133 115.167 5.166V9.324C115.167 9.64133 115.181 9.83267 115.209 9.898C115.237 9.954 115.326 9.99133 115.475 10.01L116.525 10.108V10.5H112.479V10.108L113.249 10.01C113.398 9.99133 113.487 9.954 113.515 9.898C113.543 9.83267 113.557 9.64133 113.557 9.324V4.578C113.557 4.26067 113.543 4.074 113.515 4.018C113.487 3.95267 113.398 3.91067 113.249 3.892L112.479 3.794Z" fill="#52A115"/>
</svg>
