<svg width="54" height="17" viewBox="0 0 54 17" fill="none" xmlns="http://www.w3.org/2000/svg">
<mask id="path-1-outside-1_114_317" maskUnits="userSpaceOnUse" x="-0.860107" y="-0.624023" width="55" height="18" fill="black">
<rect fill="white" x="-0.860107" y="-0.624023" width="55" height="18"/>
<path d="M9.43989 2.33598V1.77598H13.3199V2.33598L12.2199 2.47598C12.0066 2.50264 11.8799 2.56264 11.8399 2.65598C11.7999 2.73598 11.7799 3.00264 11.7799 3.45598V15.376H10.6799L3.33989 3.51598V13.696C3.33989 14.1493 3.35989 14.4226 3.39989 14.516C3.43989 14.596 3.56656 14.6493 3.77989 14.676L4.87989 14.816V15.376H0.999893V14.816L2.09989 14.676C2.31323 14.6493 2.43989 14.596 2.47989 14.516C2.51989 14.4226 2.53989 14.1493 2.53989 13.696V3.45598C2.53989 3.00264 2.51989 2.73598 2.47989 2.65598C2.43989 2.56264 2.31323 2.50264 2.09989 2.47598L0.999893 2.33598V1.77598H5.01989L10.9799 11.356V3.45598C10.9799 3.00264 10.9599 2.73598 10.9199 2.65598C10.8799 2.56264 10.7532 2.50264 10.5399 2.47598L9.43989 2.33598ZM26.4574 12.996C26.2174 13.9293 25.7707 14.596 25.1174 14.996C24.4641 15.3826 23.7041 15.576 22.8374 15.576C21.2374 15.576 20.0374 15.116 19.2374 14.196C18.4374 13.2626 18.0374 12.0293 18.0374 10.496V10.096C18.0374 8.56264 18.4107 7.33598 19.1574 6.41598C19.9174 5.49598 21.0107 5.03598 22.4374 5.03598C23.2374 5.03598 23.9441 5.19598 24.5574 5.51598C25.1841 5.82264 25.6707 6.26931 26.0174 6.85598C26.3774 7.44264 26.5574 8.15598 26.5574 8.99598C26.5574 9.19598 26.5441 9.40931 26.5174 9.63598C26.5041 9.86264 26.4707 10.0893 26.4174 10.316H20.4974V10.896C20.4974 12.3093 20.6974 13.3293 21.0974 13.956C21.4974 14.5693 22.1441 14.876 23.0374 14.876C23.6107 14.876 24.0974 14.7093 24.4974 14.376C24.8974 14.0293 25.1241 13.4493 25.1774 12.636L26.4574 12.996ZM22.4374 5.73598C21.7841 5.73598 21.2974 6.03598 20.9774 6.63598C20.6574 7.23598 20.4974 8.22931 20.4974 9.61598H24.1174C24.1707 9.34931 24.2041 9.10264 24.2174 8.87598C24.2441 8.63598 24.2574 8.41598 24.2574 8.21598C24.2574 7.36264 24.0907 6.73598 23.7574 6.33598C23.4241 5.93598 22.9841 5.73598 22.4374 5.73598ZM35.0633 14.816V15.376H31.0633V14.816L32.1633 14.676C32.2967 14.6493 32.3967 14.6226 32.4633 14.596C32.5433 14.556 32.6367 14.4693 32.7433 14.336C32.85 14.2026 33.0033 13.9893 33.2033 13.696L35.3433 10.576L33.2033 6.91598C33.03 6.60931 32.8967 6.39598 32.8033 6.27598C32.71 6.14264 32.6233 6.05598 32.5433 6.01598C32.4633 5.97598 32.3567 5.94931 32.2233 5.93598L31.1233 5.79598V5.23598H36.6633V5.79598L35.5633 5.93598C35.35 5.96264 35.25 6.01598 35.2633 6.09598C35.2767 6.17598 35.4167 6.44931 35.6833 6.91598L37.0233 9.19598L38.5633 6.91598C38.87 6.46264 39.0233 6.19598 39.0233 6.11598C39.0367 6.02264 38.9367 5.96264 38.7233 5.93598L37.6233 5.79598V5.23598H41.6233V5.79598L40.5233 5.93598C40.39 5.94931 40.2833 5.97598 40.2033 6.01598C40.1367 6.05598 40.05 6.14264 39.9433 6.27598C39.85 6.39598 39.6967 6.60931 39.4833 6.91598L37.4433 9.91598L39.6433 13.696C39.83 14.0026 39.9633 14.2226 40.0433 14.356C40.1367 14.476 40.2233 14.556 40.3033 14.596C40.3833 14.6226 40.49 14.6493 40.6233 14.676L41.7233 14.816V15.376H36.1833V14.816L37.2833 14.676C37.4967 14.6493 37.5967 14.596 37.5833 14.516C37.57 14.4226 37.43 14.1493 37.1633 13.696L35.7633 11.276L34.1233 13.696C33.8167 14.1493 33.6567 14.4226 33.6433 14.516C33.6433 14.596 33.75 14.6493 33.9633 14.676L35.0633 14.816ZM52.8027 13.296C52.6294 14.1093 52.296 14.696 51.8027 15.056C51.3227 15.4026 50.736 15.576 50.0427 15.576C49.336 15.576 48.756 15.4226 48.3027 15.116C47.8494 14.796 47.516 14.376 47.3027 13.856C47.0894 13.336 46.9827 12.7826 46.9827 12.196V6.91598C46.9827 6.46264 46.9627 6.19598 46.9227 6.11598C46.8827 6.02264 46.756 5.96264 46.5427 5.93598L45.4427 5.79598V5.23598H46.9827V2.91598L49.2827 2.45598V5.23598H52.4827V5.93598H49.2827V12.596C49.2827 13.4493 49.3894 14.0426 49.6027 14.376C49.816 14.696 50.0894 14.856 50.4227 14.856C50.7694 14.856 51.036 14.7226 51.2227 14.456C51.4227 14.1893 51.5494 13.7026 51.6027 12.996L52.8027 13.296Z"/>
</mask>
<path d="M9.43989 2.33598V1.77598H13.3199V2.33598L12.2199 2.47598C12.0066 2.50264 11.8799 2.56264 11.8399 2.65598C11.7999 2.73598 11.7799 3.00264 11.7799 3.45598V15.376H10.6799L3.33989 3.51598V13.696C3.33989 14.1493 3.35989 14.4226 3.39989 14.516C3.43989 14.596 3.56656 14.6493 3.77989 14.676L4.87989 14.816V15.376H0.999893V14.816L2.09989 14.676C2.31323 14.6493 2.43989 14.596 2.47989 14.516C2.51989 14.4226 2.53989 14.1493 2.53989 13.696V3.45598C2.53989 3.00264 2.51989 2.73598 2.47989 2.65598C2.43989 2.56264 2.31323 2.50264 2.09989 2.47598L0.999893 2.33598V1.77598H5.01989L10.9799 11.356V3.45598C10.9799 3.00264 10.9599 2.73598 10.9199 2.65598C10.8799 2.56264 10.7532 2.50264 10.5399 2.47598L9.43989 2.33598ZM26.4574 12.996C26.2174 13.9293 25.7707 14.596 25.1174 14.996C24.4641 15.3826 23.7041 15.576 22.8374 15.576C21.2374 15.576 20.0374 15.116 19.2374 14.196C18.4374 13.2626 18.0374 12.0293 18.0374 10.496V10.096C18.0374 8.56264 18.4107 7.33598 19.1574 6.41598C19.9174 5.49598 21.0107 5.03598 22.4374 5.03598C23.2374 5.03598 23.9441 5.19598 24.5574 5.51598C25.1841 5.82264 25.6707 6.26931 26.0174 6.85598C26.3774 7.44264 26.5574 8.15598 26.5574 8.99598C26.5574 9.19598 26.5441 9.40931 26.5174 9.63598C26.5041 9.86264 26.4707 10.0893 26.4174 10.316H20.4974V10.896C20.4974 12.3093 20.6974 13.3293 21.0974 13.956C21.4974 14.5693 22.1441 14.876 23.0374 14.876C23.6107 14.876 24.0974 14.7093 24.4974 14.376C24.8974 14.0293 25.1241 13.4493 25.1774 12.636L26.4574 12.996ZM22.4374 5.73598C21.7841 5.73598 21.2974 6.03598 20.9774 6.63598C20.6574 7.23598 20.4974 8.22931 20.4974 9.61598H24.1174C24.1707 9.34931 24.2041 9.10264 24.2174 8.87598C24.2441 8.63598 24.2574 8.41598 24.2574 8.21598C24.2574 7.36264 24.0907 6.73598 23.7574 6.33598C23.4241 5.93598 22.9841 5.73598 22.4374 5.73598ZM35.0633 14.816V15.376H31.0633V14.816L32.1633 14.676C32.2967 14.6493 32.3967 14.6226 32.4633 14.596C32.5433 14.556 32.6367 14.4693 32.7433 14.336C32.85 14.2026 33.0033 13.9893 33.2033 13.696L35.3433 10.576L33.2033 6.91598C33.03 6.60931 32.8967 6.39598 32.8033 6.27598C32.71 6.14264 32.6233 6.05598 32.5433 6.01598C32.4633 5.97598 32.3567 5.94931 32.2233 5.93598L31.1233 5.79598V5.23598H36.6633V5.79598L35.5633 5.93598C35.35 5.96264 35.25 6.01598 35.2633 6.09598C35.2767 6.17598 35.4167 6.44931 35.6833 6.91598L37.0233 9.19598L38.5633 6.91598C38.87 6.46264 39.0233 6.19598 39.0233 6.11598C39.0367 6.02264 38.9367 5.96264 38.7233 5.93598L37.6233 5.79598V5.23598H41.6233V5.79598L40.5233 5.93598C40.39 5.94931 40.2833 5.97598 40.2033 6.01598C40.1367 6.05598 40.05 6.14264 39.9433 6.27598C39.85 6.39598 39.6967 6.60931 39.4833 6.91598L37.4433 9.91598L39.6433 13.696C39.83 14.0026 39.9633 14.2226 40.0433 14.356C40.1367 14.476 40.2233 14.556 40.3033 14.596C40.3833 14.6226 40.49 14.6493 40.6233 14.676L41.7233 14.816V15.376H36.1833V14.816L37.2833 14.676C37.4967 14.6493 37.5967 14.596 37.5833 14.516C37.57 14.4226 37.43 14.1493 37.1633 13.696L35.7633 11.276L34.1233 13.696C33.8167 14.1493 33.6567 14.4226 33.6433 14.516C33.6433 14.596 33.75 14.6493 33.9633 14.676L35.0633 14.816ZM52.8027 13.296C52.6294 14.1093 52.296 14.696 51.8027 15.056C51.3227 15.4026 50.736 15.576 50.0427 15.576C49.336 15.576 48.756 15.4226 48.3027 15.116C47.8494 14.796 47.516 14.376 47.3027 13.856C47.0894 13.336 46.9827 12.7826 46.9827 12.196V6.91598C46.9827 6.46264 46.9627 6.19598 46.9227 6.11598C46.8827 6.02264 46.756 5.96264 46.5427 5.93598L45.4427 5.79598V5.23598H46.9827V2.91598L49.2827 2.45598V5.23598H52.4827V5.93598H49.2827V12.596C49.2827 13.4493 49.3894 14.0426 49.6027 14.376C49.816 14.696 50.0894 14.856 50.4227 14.856C50.7694 14.856 51.036 14.7226 51.2227 14.456C51.4227 14.1893 51.5494 13.7026 51.6027 12.996L52.8027 13.296Z" fill="white"/>
<path d="M9.43989 2.33598H8.43989V3.21677L9.31364 3.32797L9.43989 2.33598ZM9.43989 1.77598V0.775976H8.43989V1.77598H9.43989ZM13.3199 1.77598H14.3199V0.775976H13.3199V1.77598ZM13.3199 2.33598L13.4461 3.32797L14.3199 3.21677V2.33598H13.3199ZM12.2199 2.47598L12.3439 3.46826L12.3461 3.46797L12.2199 2.47598ZM11.8399 2.65598L12.7343 3.10319L12.7475 3.07691L12.759 3.04989L11.8399 2.65598ZM11.7799 15.376V16.376H12.7799V15.376H11.7799ZM10.6799 15.376L9.82957 15.9022L10.1228 16.376H10.6799V15.376ZM3.33989 3.51598L4.19022 2.98972L2.33989 -4.48227e-05V3.51598H3.33989ZM3.39989 14.516L2.48075 14.9099L2.49232 14.9369L2.50547 14.9632L3.39989 14.516ZM3.77989 14.676L3.90615 13.684L3.90393 13.6837L3.77989 14.676ZM4.87989 14.816H5.87989V13.9352L5.00615 13.824L4.87989 14.816ZM4.87989 15.376V16.376H5.87989V15.376H4.87989ZM0.999893 15.376H-0.000107393V16.376H0.999893V15.376ZM0.999893 14.816L0.873638 13.824L-0.000107393 13.9352V14.816H0.999893ZM2.09989 14.676L1.97586 13.6837L1.97364 13.684L2.09989 14.676ZM2.47989 14.516L3.37432 14.9632L3.38746 14.9369L3.39904 14.9099L2.47989 14.516ZM2.47989 2.65598L1.56075 3.0499L1.57232 3.07691L1.58547 3.10319L2.47989 2.65598ZM2.09989 2.47598L1.97364 3.46798L1.97586 3.46825L2.09989 2.47598ZM0.999893 2.33598H-0.000107393V3.21677L0.873639 3.32797L0.999893 2.33598ZM0.999893 1.77598V0.775976H-0.000107393V1.77598H0.999893ZM5.01989 1.77598L5.86898 1.24773L5.57549 0.775976H5.01989V1.77598ZM10.9799 11.356L10.1308 11.8842L11.9799 14.8564V11.356H10.9799ZM10.9199 2.65598L10.0007 3.0499L10.0123 3.07691L10.0255 3.10319L10.9199 2.65598ZM10.5399 2.47598L10.4136 3.46798L10.4159 3.46825L10.5399 2.47598ZM9.43989 2.33598H10.4399V1.77598H9.43989H8.43989V2.33598H9.43989ZM9.43989 1.77598V2.77598H13.3199V1.77598V0.775976H9.43989V1.77598ZM13.3199 1.77598H12.3199V2.33598H13.3199H14.3199V1.77598H13.3199ZM13.3199 2.33598L13.1936 1.34398L12.0936 1.48398L12.2199 2.47598L12.3461 3.46797L13.4461 3.32797L13.3199 2.33598ZM12.2199 2.47598L12.0959 1.4837C11.9338 1.50396 11.733 1.5443 11.5368 1.63724C11.3371 1.73186 11.068 1.9185 10.9207 2.26206L11.8399 2.65598L12.759 3.04989C12.6518 3.30012 12.4661 3.4101 12.393 3.44471C12.3234 3.47766 12.2927 3.47466 12.3439 3.46825L12.2199 2.47598ZM11.8399 2.65598L10.9455 2.20876C10.8676 2.3644 10.8396 2.51491 10.8283 2.58043C10.8133 2.66723 10.804 2.75707 10.7977 2.84119C10.785 3.0106 10.7799 3.2189 10.7799 3.45598H11.7799H12.7799C12.7799 3.23972 12.7848 3.08802 12.7921 2.99077C12.7958 2.94155 12.799 2.92138 12.799 2.92152C12.7989 2.92208 12.7964 2.93684 12.7897 2.96106C12.7841 2.98148 12.7683 3.03524 12.7343 3.10319L11.8399 2.65598ZM11.7799 3.45598H10.7799V15.376H11.7799H12.7799V3.45598H11.7799ZM11.7799 15.376V14.376H10.6799V15.376V16.376H11.7799V15.376ZM10.6799 15.376L11.5302 14.8497L4.19022 2.98972L3.33989 3.51598L2.48957 4.04223L9.82957 15.9022L10.6799 15.376ZM3.33989 3.51598H2.33989V13.696H3.33989H4.33989V3.51598H3.33989ZM3.33989 13.696H2.33989C2.33989 13.9335 2.34501 14.1425 2.35756 14.314C2.36635 14.4341 2.3856 14.6879 2.48075 14.9099L3.39989 14.516L4.31904 14.1221C4.34107 14.1735 4.35152 14.2124 4.35528 14.2273C4.35963 14.2444 4.36095 14.2534 4.36052 14.2507C4.35949 14.2444 4.35597 14.2192 4.35223 14.168C4.34477 14.0661 4.33989 13.9118 4.33989 13.696H3.33989ZM3.39989 14.516L2.50547 14.9632C2.67658 15.3054 2.96651 15.4659 3.13684 15.5376C3.31803 15.6139 3.50335 15.6492 3.65586 15.6683L3.77989 14.676L3.90393 13.6837C3.8431 13.6761 3.85842 13.6714 3.91295 13.6943C3.95661 13.7127 4.1632 13.8065 4.29432 14.0688L3.39989 14.516ZM3.77989 14.676L3.65364 15.668L4.75364 15.808L4.87989 14.816L5.00615 13.824L3.90615 13.684L3.77989 14.676ZM4.87989 14.816H3.87989V15.376H4.87989H5.87989V14.816H4.87989ZM4.87989 15.376V14.376H0.999893V15.376V16.376H4.87989V15.376ZM0.999893 15.376H1.99989V14.816H0.999893H-0.000107393V15.376H0.999893ZM0.999893 14.816L1.12615 15.808L2.22615 15.668L2.09989 14.676L1.97364 13.684L0.873638 13.824L0.999893 14.816ZM2.09989 14.676L2.22393 15.6683C2.37644 15.6492 2.56176 15.6139 2.74295 15.5376C2.91327 15.4659 3.2032 15.3054 3.37432 14.9632L2.47989 14.516L1.58547 14.0688C1.71658 13.8065 1.92318 13.7127 1.96684 13.6943C2.02136 13.6714 2.03668 13.6761 1.97586 13.6837L2.09989 14.676ZM2.47989 14.516L3.39904 14.9099C3.49419 14.6879 3.51344 14.4341 3.52223 14.314C3.53477 14.1425 3.53989 13.9335 3.53989 13.696H2.53989H1.53989C1.53989 13.9118 1.53501 14.0661 1.52756 14.168C1.52381 14.2192 1.5203 14.2444 1.51927 14.2507C1.51884 14.2534 1.52016 14.2444 1.5245 14.2273C1.52826 14.2124 1.53871 14.1735 1.56075 14.1221L2.47989 14.516ZM2.53989 13.696H3.53989V3.45598H2.53989H1.53989V13.696H2.53989ZM2.53989 3.45598H3.53989C3.53989 3.2189 3.5348 3.0106 3.52209 2.84119C3.51578 2.75707 3.50652 2.66723 3.49149 2.58043C3.48015 2.51491 3.45214 2.3644 3.37432 2.20876L2.47989 2.65598L1.58547 3.10319C1.55149 3.03523 1.53572 2.98148 1.53007 2.96106C1.52338 2.93684 1.52089 2.92208 1.52079 2.92152C1.52077 2.92138 1.524 2.94155 1.52769 2.99077C1.53499 3.08802 1.53989 3.23972 1.53989 3.45598H2.53989ZM2.47989 2.65598L3.39904 2.26206C3.2518 1.9185 2.98273 1.73186 2.78298 1.63724C2.58677 1.5443 2.38599 1.50396 2.22393 1.4837L2.09989 2.47598L1.97586 3.46825C2.02713 3.47466 1.99635 3.47766 1.92681 3.44471C1.85373 3.4101 1.66799 3.30012 1.56075 3.0499L2.47989 2.65598ZM2.09989 2.47598L2.22615 1.48398L1.12615 1.34398L0.999893 2.33598L0.873639 3.32797L1.97364 3.46797L2.09989 2.47598ZM0.999893 2.33598H1.99989V1.77598H0.999893H-0.000107393V2.33598H0.999893ZM0.999893 1.77598V2.77598H5.01989V1.77598V0.775976H0.999893V1.77598ZM5.01989 1.77598L4.1708 2.30422L10.1308 11.8842L10.9799 11.356L11.829 10.8277L5.86898 1.24773L5.01989 1.77598ZM10.9799 11.356H11.9799V3.45598H10.9799H9.97989V11.356H10.9799ZM10.9799 3.45598H11.9799C11.9799 3.2189 11.9748 3.0106 11.9621 2.84119C11.9558 2.75707 11.9465 2.66723 11.9315 2.58043C11.9202 2.51491 11.8921 2.3644 11.8143 2.20876L10.9199 2.65598L10.0255 3.10319C9.99149 3.03524 9.97572 2.98148 9.97008 2.96106C9.96338 2.93684 9.96089 2.92208 9.96079 2.92152C9.96077 2.92138 9.964 2.94155 9.96769 2.99077C9.97499 3.08802 9.97989 3.23972 9.97989 3.45598H10.9799ZM10.9199 2.65598L11.839 2.26205C11.6918 1.9185 11.4227 1.73186 11.223 1.63724C11.0268 1.5443 10.826 1.50396 10.6639 1.4837L10.5399 2.47598L10.4159 3.46825C10.4671 3.47466 10.4363 3.47766 10.3668 3.44471C10.2937 3.4101 10.108 3.30012 10.0007 3.0499L10.9199 2.65598ZM10.5399 2.47598L10.6661 1.48398L9.56615 1.34398L9.43989 2.33598L9.31364 3.32797L10.4136 3.46797L10.5399 2.47598ZM26.4574 12.996L27.4259 13.245L27.6694 12.2981L26.7281 12.0333L26.4574 12.996ZM25.1174 14.996L25.6267 15.8566L25.6332 15.8527L25.6395 15.8488L25.1174 14.996ZM19.2374 14.196L18.4781 14.8468L18.4828 14.8522L19.2374 14.196ZM19.1574 6.41598L18.3864 5.77907L18.3809 5.78581L19.1574 6.41598ZM24.5574 5.51598L24.0948 6.40256L24.1063 6.40853L24.1178 6.41419L24.5574 5.51598ZM26.0174 6.85598L25.1565 7.36471L25.1607 7.37188L25.1651 7.37899L26.0174 6.85598ZM26.5174 9.63598L25.5242 9.51913L25.5208 9.54812L25.5191 9.57725L26.5174 9.63598ZM26.4174 10.316V11.316H27.2094L27.3908 10.545L26.4174 10.316ZM20.4974 10.316V9.31598H19.4974V10.316H20.4974ZM21.0974 13.956L20.2544 14.494L20.2598 14.5022L21.0974 13.956ZM24.4974 14.376L25.1376 15.1442L25.145 15.138L25.1523 15.1317L24.4974 14.376ZM25.1774 12.636L25.4481 11.6733L24.2603 11.3392L24.1795 12.5705L25.1774 12.636ZM20.9774 6.63598L21.8597 7.10656L20.9774 6.63598ZM20.4974 9.61598H19.4974V10.616H20.4974V9.61598ZM24.1174 9.61598V10.616H24.9372L25.098 9.81209L24.1174 9.61598ZM24.2174 8.87598L23.2235 8.76554L23.2206 8.79134L23.2191 8.81726L24.2174 8.87598ZM26.4574 12.996L25.4889 12.7469C25.2961 13.4968 24.9735 13.9115 24.5952 14.1431L25.1174 14.996L25.6395 15.8488C26.5679 15.2804 27.1387 14.3619 27.4259 13.245L26.4574 12.996ZM25.1174 14.996L24.6081 14.1354C24.1298 14.4185 23.5507 14.576 22.8374 14.576V15.576V16.576C23.8574 16.576 24.7984 16.3468 25.6267 15.8566L25.1174 14.996ZM22.8374 15.576V14.576C21.4307 14.576 20.547 14.178 19.992 13.5398L19.2374 14.196L18.4828 14.8522C19.5278 16.0539 21.044 16.576 22.8374 16.576V15.576ZM19.2374 14.196L19.9966 13.5452C19.3876 12.8346 19.0374 11.8516 19.0374 10.496H18.0374H17.0374C17.0374 12.207 17.4872 13.6907 18.4781 14.8468L19.2374 14.196ZM18.0374 10.496H19.0374V10.096H18.0374H17.0374V10.496H18.0374ZM18.0374 10.096H19.0374C19.0374 8.72374 19.3697 7.74125 19.9338 7.04615L19.1574 6.41598L18.3809 5.78581C17.4517 6.9307 17.0374 8.40155 17.0374 10.096H18.0374ZM19.1574 6.41598L19.9284 7.05286C20.4608 6.40833 21.2445 6.03598 22.4374 6.03598V5.03598V4.03598C20.777 4.03598 19.374 4.58363 18.3864 5.77909L19.1574 6.41598ZM22.4374 5.03598V6.03598C23.1016 6.03598 23.6452 6.16795 24.0948 6.40256L24.5574 5.51598L25.02 4.62939C24.243 4.224 23.3732 4.03598 22.4374 4.03598V5.03598ZM24.5574 5.51598L24.1178 6.41419C24.5735 6.63715 24.9117 6.95045 25.1565 7.36471L26.0174 6.85598L26.8783 6.34725C26.4298 5.58817 25.7947 5.00813 24.9969 4.61776L24.5574 5.51598ZM26.0174 6.85598L25.1651 7.37899C25.4092 7.77686 25.5574 8.29987 25.5574 8.99598H26.5574H27.5574C27.5574 8.01208 27.3456 7.10843 26.8697 6.33296L26.0174 6.85598ZM26.5574 8.99598H25.5574C25.5574 9.15194 25.547 9.32595 25.5242 9.51913L26.5174 9.63598L27.5105 9.75282C27.5411 9.49267 27.5574 9.24002 27.5574 8.99598H26.5574ZM26.5174 9.63598L25.5191 9.57725C25.5092 9.74509 25.4845 9.91479 25.444 10.0869L26.4174 10.316L27.3908 10.545C27.457 10.2638 27.4989 9.98019 27.5157 9.6947L26.5174 9.63598ZM26.4174 10.316V9.31598H20.4974V10.316V11.316H26.4174V10.316ZM20.4974 10.316H19.4974V10.896H20.4974H21.4974V10.316H20.4974ZM20.4974 10.896H19.4974C19.4974 12.3551 19.6949 13.6173 20.2545 14.494L21.0974 13.956L21.9403 13.4179C21.6999 13.0413 21.4974 12.2635 21.4974 10.896H20.4974ZM21.0974 13.956L20.2598 14.5022C20.8866 15.4633 21.8914 15.876 23.0374 15.876V14.876V13.876C22.3967 13.876 22.1082 13.6753 21.935 13.4097L21.0974 13.956ZM23.0374 14.876V15.876C23.8194 15.876 24.5393 15.6427 25.1376 15.1442L24.4974 14.376L23.8572 13.6078C23.6554 13.7759 23.4021 13.876 23.0374 13.876V14.876ZM24.4974 14.376L25.1523 15.1317C25.8406 14.5352 26.1137 13.6404 26.1753 12.7014L25.1774 12.636L24.1795 12.5705C24.1344 13.2582 23.9542 13.5234 23.8425 13.6203L24.4974 14.376ZM25.1774 12.636L24.9066 13.5986L26.1866 13.9586L26.4574 12.996L26.7281 12.0333L25.4481 11.6733L25.1774 12.636ZM22.4374 5.73598V4.73598C21.9524 4.73598 21.4803 4.8492 21.0576 5.10972C20.6372 5.36892 20.3225 5.73881 20.095 6.16539L20.9774 6.63598L21.8597 7.10656C21.9522 6.93314 22.041 6.85304 22.1071 6.81223C22.1712 6.77276 22.269 6.73598 22.4374 6.73598V5.73598ZM20.9774 6.63598L20.095 6.16539C19.6521 6.99588 19.4974 8.20221 19.4974 9.61598H20.4974H21.4974C21.4974 8.25641 21.6627 7.47607 21.8597 7.10656L20.9774 6.63598ZM20.4974 9.61598V10.616H24.1174V9.61598V8.61598H20.4974V9.61598ZM24.1174 9.61598L25.098 9.81209C25.1587 9.50865 25.1992 9.21548 25.2157 8.9347L24.2174 8.87598L23.2191 8.81726C23.209 8.98981 23.1828 9.18997 23.1368 9.41986L24.1174 9.61598ZM24.2174 8.87598L25.2113 8.98641C25.2412 8.71697 25.2574 8.45949 25.2574 8.21598H24.2574H23.2574C23.2574 8.37246 23.2469 8.55498 23.2235 8.76554L24.2174 8.87598ZM24.2574 8.21598H25.2574C25.2574 7.26748 25.0784 6.35913 24.5256 5.69579L23.7574 6.33598L22.9892 6.97616C23.1031 7.11282 23.2574 7.4578 23.2574 8.21598H24.2574ZM23.7574 6.33598L24.5256 5.69579C23.9917 5.05506 23.2638 4.73598 22.4374 4.73598V5.73598V6.73598C22.7043 6.73598 22.8564 6.81689 22.9892 6.97616L23.7574 6.33598ZM35.0633 14.816H36.0633V13.9352L35.1896 13.824L35.0633 14.816ZM35.0633 15.376V16.376H36.0633V15.376H35.0633ZM31.0633 15.376H30.0633V16.376H31.0633V15.376ZM31.0633 14.816L30.9371 13.824L30.0633 13.9352V14.816H31.0633ZM32.1633 14.676L32.2896 15.668L32.3247 15.6635L32.3594 15.6566L32.1633 14.676ZM32.4633 14.596L32.8347 15.5245L32.8733 15.509L32.9105 15.4904L32.4633 14.596ZM32.7433 14.336L33.5242 14.9607V14.9607L32.7433 14.336ZM33.2033 13.696L32.3787 13.1303L32.3771 13.1326L33.2033 13.696ZM35.3433 10.576L36.168 11.1416L36.5267 10.6187L36.2066 10.0712L35.3433 10.576ZM33.2033 6.91598L32.3328 7.40803L32.3364 7.41441L32.3401 7.42073L33.2033 6.91598ZM32.8033 6.27598L31.9841 6.84944L31.9985 6.87005L32.014 6.88992L32.8033 6.27598ZM32.2233 5.93598L32.0971 6.92797L32.1104 6.92967L32.1238 6.93101L32.2233 5.93598ZM31.1233 5.79598H30.1233V6.67677L30.9971 6.78797L31.1233 5.79598ZM31.1233 5.23598V4.23598H30.1233V5.23598H31.1233ZM36.6633 5.23598H37.6633V4.23598H36.6633V5.23598ZM36.6633 5.79598L36.7896 6.78797L37.6633 6.67677V5.79598H36.6633ZM35.5633 5.93598L35.6874 6.92826L35.6896 6.92797L35.5633 5.93598ZM35.2633 6.09598L34.2769 6.26037V6.26038L35.2633 6.09598ZM35.6833 6.91598L34.815 7.41215L34.8212 7.42267L35.6833 6.91598ZM37.0233 9.19598L36.1612 9.70267L36.9646 11.0696L37.852 9.7557L37.0233 9.19598ZM38.5633 6.91598L37.735 6.35567L37.7346 6.35625L38.5633 6.91598ZM39.0233 6.11598L38.0334 5.97456L38.0233 6.04491V6.11598H39.0233ZM38.7233 5.93598L38.5971 6.92798L38.5993 6.92825L38.7233 5.93598ZM37.6233 5.79598H36.6233V6.67677L37.4971 6.78797L37.6233 5.79598ZM37.6233 5.23598V4.23598H36.6233V5.23598H37.6233ZM41.6233 5.23598H42.6233V4.23598H41.6233V5.23598ZM41.6233 5.79598L41.7496 6.78797L42.6233 6.67677V5.79598H41.6233ZM40.5233 5.93598L40.6228 6.93101L40.6362 6.92967L40.6496 6.92797L40.5233 5.93598ZM40.2033 6.01598L39.7561 5.12155L39.7218 5.13872L39.6888 5.15848L40.2033 6.01598ZM39.9433 6.27598L39.1624 5.65122L39.154 5.66204L39.9433 6.27598ZM39.4833 6.91598L38.6624 6.34488L38.6564 6.35367L39.4833 6.91598ZM37.4433 9.91598L36.6164 9.35367L36.2622 9.87457L36.5791 10.419L37.4433 9.91598ZM39.6433 13.696L38.7791 14.199L38.784 14.2075L38.7891 14.2159L39.6433 13.696ZM40.0433 14.356L39.1858 14.8705L39.2169 14.9223L39.254 14.9699L40.0433 14.356ZM40.3033 14.596L39.8561 15.4904L39.9197 15.5222L39.9871 15.5447L40.3033 14.596ZM40.6233 14.676L40.4272 15.6566L40.4619 15.6635L40.4971 15.668L40.6233 14.676ZM41.7233 14.816H42.7233V13.9352L41.8496 13.824L41.7233 14.816ZM41.7233 15.376V16.376H42.7233V15.376H41.7233ZM36.1833 15.376H35.1833V16.376H36.1833V15.376ZM36.1833 14.816L36.0571 13.824L35.1833 13.9352V14.816H36.1833ZM37.2833 14.676L37.1593 13.6837L37.1571 13.684L37.2833 14.676ZM37.5833 14.516L36.5934 14.6574L36.595 14.6689L36.5969 14.6804L37.5833 14.516ZM37.1633 13.696L36.2977 14.1967L36.3014 14.203L37.1633 13.696ZM35.7633 11.276L36.6289 10.7752L35.8303 9.39468L34.9355 10.715L35.7633 11.276ZM34.1233 13.696L33.2955 13.135L33.295 13.1357L34.1233 13.696ZM33.6433 14.516L32.6534 14.3746L32.6433 14.4449V14.516H33.6433ZM33.9633 14.676L34.0896 13.684L34.0874 13.6837L33.9633 14.676ZM35.0633 14.816H34.0633V15.376H35.0633H36.0633V14.816H35.0633ZM35.0633 15.376V14.376H31.0633V15.376V16.376H35.0633V15.376ZM31.0633 15.376H32.0633V14.816H31.0633H30.0633V15.376H31.0633ZM31.0633 14.816L31.1896 15.808L32.2896 15.668L32.1633 14.676L32.0371 13.684L30.9371 13.824L31.0633 14.816ZM32.1633 14.676L32.3594 15.6566C32.5097 15.6265 32.6815 15.5857 32.8347 15.5245L32.4633 14.596L32.0919 13.6675C32.108 13.6611 32.1073 13.6626 32.0807 13.6697C32.0562 13.6763 32.0192 13.685 31.9672 13.6954L32.1633 14.676ZM32.4633 14.596L32.9105 15.4904C33.1905 15.3504 33.3946 15.1226 33.5242 14.9607L32.7433 14.336L31.9625 13.7113C31.947 13.7305 31.9349 13.7447 31.9259 13.7546C31.9168 13.7645 31.9125 13.7686 31.9129 13.7682C31.9131 13.768 31.9207 13.7609 31.9358 13.7498C31.9506 13.739 31.9774 13.7209 32.0161 13.7015L32.4633 14.596ZM32.7433 14.336L33.5242 14.9607C33.656 14.796 33.827 14.5563 34.0296 14.2593L33.2033 13.696L32.3771 13.1326C32.1796 13.4223 32.044 13.6093 31.9625 13.7113L32.7433 14.336ZM33.2033 13.696L34.028 14.2616L36.168 11.1416L35.3433 10.576L34.5187 10.0103L32.3787 13.1303L33.2033 13.696ZM35.3433 10.576L36.2066 10.0712L34.0666 6.41123L33.2033 6.91598L32.3401 7.42073L34.4801 11.0807L35.3433 10.576ZM33.2033 6.91598L34.0739 6.42392C33.8995 6.11535 33.7352 5.84527 33.5927 5.66204L32.8033 6.27598L32.014 6.88992C32.0581 6.94668 32.1605 7.10327 32.3328 7.40803L33.2033 6.91598ZM32.8033 6.27598L33.6226 5.70251C33.5002 5.52773 33.2966 5.27457 32.9905 5.12155L32.5433 6.01598L32.0961 6.9104C32.0521 6.88841 32.02 6.86647 31.9995 6.85089C31.9789 6.83522 31.9663 6.82312 31.9612 6.81808C31.9525 6.80937 31.9607 6.81603 31.9841 6.84944L32.8033 6.27598ZM32.5433 6.01598L32.9905 5.12155C32.7617 5.00712 32.5228 4.96094 32.3228 4.94094L32.2233 5.93598L32.1238 6.93101C32.1523 6.93386 32.1633 6.93675 32.1608 6.93612C32.1591 6.9357 32.1526 6.93399 32.142 6.93022C32.1314 6.92645 32.1157 6.92019 32.0961 6.9104L32.5433 6.01598ZM32.2233 5.93598L32.3496 4.94398L31.2496 4.80398L31.1233 5.79598L30.9971 6.78797L32.0971 6.92797L32.2233 5.93598ZM31.1233 5.79598H32.1233V5.23598H31.1233H30.1233V5.79598H31.1233ZM31.1233 5.23598V6.23598H36.6633V5.23598V4.23598H31.1233V5.23598ZM36.6633 5.23598H35.6633V5.79598H36.6633H37.6633V5.23598H36.6633ZM36.6633 5.79598L36.5371 4.80398L35.4371 4.94398L35.5633 5.93598L35.6896 6.92797L36.7896 6.78797L36.6633 5.79598ZM35.5633 5.93598L35.4393 4.9437C35.3001 4.96109 35.0734 4.99862 34.8577 5.11362C34.7432 5.17469 34.57 5.29002 34.4361 5.49599C34.286 5.7269 34.2334 5.99919 34.2769 6.26037L35.2633 6.09598L36.2497 5.93158C36.2866 6.15276 36.2414 6.38839 36.113 6.58596C36.0008 6.7586 35.8634 6.84393 35.7989 6.87833C35.6833 6.93999 35.6132 6.93753 35.6874 6.92825L35.5633 5.93598ZM35.2633 6.09598L34.2769 6.26038C34.3025 6.4135 34.3603 6.54543 34.3797 6.59032C34.4108 6.66197 34.4485 6.73925 34.4883 6.81685C34.5685 6.97351 34.6789 7.17375 34.8151 7.41212L35.6833 6.91598L36.5516 6.41984C36.4211 6.19154 36.3281 6.02178 36.2684 5.9051C36.2381 5.84604 36.2217 5.81081 36.2144 5.79413C36.2108 5.78586 36.2131 5.79032 36.2179 5.80414C36.2204 5.81125 36.2378 5.85981 36.2497 5.93158L35.2633 6.09598ZM35.6833 6.91598L34.8212 7.42267L36.1612 9.70267L37.0233 9.19598L37.8855 8.68929L36.5455 6.40929L35.6833 6.91598ZM37.0233 9.19598L37.852 9.7557L39.392 7.4757L38.5633 6.91598L37.7346 6.35625L36.1946 8.63625L37.0233 9.19598ZM38.5633 6.91598L39.3916 7.47629C39.5499 7.24237 39.6806 7.03903 39.7752 6.87445C39.8218 6.79354 39.8698 6.70443 39.9091 6.61548C39.9279 6.57298 40.0233 6.36823 40.0233 6.11598H39.0233H38.0233C38.0233 6.04424 38.0316 5.98696 38.0383 5.95079C38.0453 5.91318 38.0533 5.88383 38.059 5.86507C38.0699 5.82908 38.0795 5.80768 38.08 5.80647C38.0811 5.80419 38.0716 5.82508 38.0414 5.87751C37.9827 5.97959 37.8835 6.13625 37.735 6.35567L38.5633 6.91598ZM39.0233 6.11598L40.0133 6.2574C40.0455 6.03197 40.01 5.78551 39.8826 5.56017C39.7635 5.34937 39.5996 5.21954 39.4728 5.14348C39.2413 5.00455 38.9951 4.96217 38.8474 4.9437L38.7233 5.93598L38.5993 6.92825C38.6649 6.93645 38.5754 6.93741 38.4438 6.85847C38.3671 6.81241 38.239 6.71674 38.1415 6.54428C38.0358 6.35727 38.0078 6.15332 38.0334 5.97456L39.0233 6.11598ZM38.7233 5.93598L38.8496 4.94398L37.7496 4.80398L37.6233 5.79598L37.4971 6.78797L38.5971 6.92797L38.7233 5.93598ZM37.6233 5.79598H38.6233V5.23598H37.6233H36.6233V5.79598H37.6233ZM37.6233 5.23598V6.23598H41.6233V5.23598V4.23598H37.6233V5.23598ZM41.6233 5.23598H40.6233V5.79598H41.6233H42.6233V5.23598H41.6233ZM41.6233 5.79598L41.4971 4.80398L40.3971 4.94398L40.5233 5.93598L40.6496 6.92797L41.7496 6.78797L41.6233 5.79598ZM40.5233 5.93598L40.4238 4.94094C40.2238 4.96094 39.985 5.00712 39.7561 5.12155L40.2033 6.01598L40.6505 6.9104C40.631 6.92019 40.6152 6.92645 40.6047 6.93022C40.5941 6.93399 40.5875 6.9357 40.5859 6.93612C40.5833 6.93675 40.5944 6.93386 40.6228 6.93101L40.5233 5.93598ZM40.2033 6.01598L39.6888 5.15848C39.4569 5.29767 39.276 5.5094 39.1625 5.65128L39.9433 6.27598L40.7242 6.90067C40.7428 6.87745 40.7583 6.85906 40.7707 6.84484C40.7834 6.83048 40.7915 6.82198 40.7954 6.81808C40.7996 6.81389 40.7965 6.81737 40.7865 6.82569C40.7812 6.83004 40.7731 6.8365 40.7622 6.84434C40.7514 6.85213 40.7365 6.86224 40.7178 6.87347L40.2033 6.01598ZM39.9433 6.27598L39.154 5.66204C39.0425 5.80537 38.8755 6.03855 38.6624 6.34491L39.4833 6.91598L40.3042 7.48704C40.5178 7.18007 40.6575 6.98658 40.7327 6.88992L39.9433 6.27598ZM39.4833 6.91598L38.6564 6.35367L36.6164 9.35367L37.4433 9.91598L38.2703 10.4783L40.3103 7.47829L39.4833 6.91598ZM37.4433 9.91598L36.5791 10.419L38.7791 14.199L39.6433 13.696L40.5076 13.193L38.3076 9.41296L37.4433 9.91598ZM39.6433 13.696L38.7891 14.2159C38.9757 14.5225 39.1076 14.7401 39.1858 14.8705L40.0433 14.356L40.9008 13.8415C40.819 13.7052 40.6843 13.4828 40.4975 13.176L39.6433 13.696ZM40.0433 14.356L39.254 14.9699C39.3833 15.1362 39.5801 15.3524 39.8561 15.4904L40.3033 14.596L40.7505 13.7015C40.7848 13.7187 40.81 13.7352 40.8264 13.7469C40.8428 13.7588 40.8528 13.7677 40.8566 13.7712C40.8631 13.7772 40.8548 13.7704 40.8327 13.742L40.0433 14.356ZM40.3033 14.596L39.9871 15.5447C40.1228 15.5899 40.2746 15.626 40.4272 15.6566L40.6233 14.676L40.8194 13.6954C40.7054 13.6726 40.6439 13.6554 40.6196 13.6473L40.3033 14.596ZM40.6233 14.676L40.4971 15.668L41.5971 15.808L41.7233 14.816L41.8496 13.824L40.7496 13.684L40.6233 14.676ZM41.7233 14.816H40.7233V15.376H41.7233H42.7233V14.816H41.7233ZM41.7233 15.376V14.376H36.1833V15.376V16.376H41.7233V15.376ZM36.1833 15.376H37.1833V14.816H36.1833H35.1833V15.376H36.1833ZM36.1833 14.816L36.3096 15.808L37.4096 15.668L37.2833 14.676L37.1571 13.684L36.0571 13.824L36.1833 14.816ZM37.2833 14.676L37.4074 15.6683C37.5465 15.6509 37.7733 15.6133 37.9889 15.4983C38.1034 15.4373 38.2766 15.3219 38.4105 15.116C38.5606 14.8851 38.6133 14.6128 38.5697 14.3516L37.5833 14.516L36.5969 14.6804C36.5601 14.4592 36.6052 14.2236 36.7336 14.026C36.8458 13.8534 36.9832 13.768 37.0477 13.7336C37.1634 13.672 37.2335 13.6744 37.1593 13.6837L37.2833 14.676ZM37.5833 14.516L38.5733 14.3746C38.5508 14.2175 38.4963 14.0841 38.4722 14.0264C38.4392 13.9477 38.3995 13.8655 38.3584 13.7851C38.2755 13.6232 38.1626 13.4224 38.0253 13.189L37.1633 13.696L36.3014 14.203C36.4307 14.4229 36.5212 14.5854 36.5783 14.6969C36.6071 14.7531 36.6216 14.7851 36.627 14.798C36.6296 14.8042 36.6266 14.7978 36.6214 14.7819C36.6177 14.7704 36.603 14.7246 36.5934 14.6574L37.5833 14.516ZM37.1633 13.696L38.0289 13.1952L36.6289 10.7752L35.7633 11.276L34.8977 11.7767L36.2977 14.1967L37.1633 13.696ZM35.7633 11.276L34.9355 10.715L33.2955 13.135L34.1233 13.696L34.9511 14.257L36.5911 11.837L35.7633 11.276ZM34.1233 13.696L33.295 13.1357C33.1369 13.3694 33.0064 13.5717 32.9103 13.7358C32.8627 13.8171 32.8159 13.9021 32.7768 13.9848C32.7498 14.0418 32.6795 14.1921 32.6534 14.3746L33.6433 14.516L34.6333 14.6574C34.6215 14.74 34.6013 14.7969 34.5957 14.8125C34.588 14.8336 34.5829 14.8438 34.5849 14.8396C34.5891 14.8307 34.6039 14.8015 34.6363 14.7462C34.7003 14.6369 34.8031 14.4759 34.9516 14.2563L34.1233 13.696ZM33.6433 14.516H32.6433C32.6433 15.1056 33.0701 15.4074 33.2761 15.5104C33.4817 15.6132 33.6953 15.6503 33.8393 15.6683L33.9633 14.676L34.0874 13.6837C34.018 13.675 34.0717 13.6721 34.1705 13.7215C34.2253 13.7489 34.3387 13.8144 34.4442 13.9463C34.5625 14.0941 34.6433 14.2931 34.6433 14.516H33.6433ZM33.9633 14.676L33.8371 15.668L34.9371 15.808L35.0633 14.816L35.1896 13.824L34.0896 13.684L33.9633 14.676ZM52.8027 13.296L53.7807 13.5044L53.982 12.56L53.0452 12.3258L52.8027 13.296ZM51.8027 15.056L52.3882 15.8667L52.3922 15.8638L51.8027 15.056ZM48.3027 15.116L47.726 15.9329L47.7342 15.9387L47.7424 15.9443L48.3027 15.116ZM47.3027 13.856L46.3775 14.2355V14.2355L47.3027 13.856ZM46.9227 6.11598L46.0036 6.5099L46.0151 6.53691L46.0283 6.56319L46.9227 6.11598ZM46.5427 5.93598L46.4165 6.92798L46.4187 6.92825L46.5427 5.93598ZM45.4427 5.79598H44.4427V6.67677L45.3165 6.78797L45.4427 5.79598ZM45.4427 5.23598V4.23598H44.4427V5.23598H45.4427ZM46.9827 5.23598V6.23598H47.9827V5.23598H46.9827ZM46.9827 2.91598L46.7866 1.9354L45.9827 2.09617V2.91598H46.9827ZM49.2827 2.45598H50.2827V1.23617L49.0866 1.4754L49.2827 2.45598ZM49.2827 5.23598H48.2827V6.23598H49.2827V5.23598ZM52.4827 5.23598H53.4827V4.23598H52.4827V5.23598ZM52.4827 5.93598V6.93598H53.4827V5.93598H52.4827ZM49.2827 5.93598V4.93598H48.2827V5.93598H49.2827ZM49.6027 14.376L48.7604 14.915L48.7655 14.9229L48.7707 14.9307L49.6027 14.376ZM51.2227 14.456L50.4227 13.856L50.4129 13.8691L50.4035 13.8825L51.2227 14.456ZM51.6027 12.996L51.8452 12.0258L50.6948 11.7382L50.6055 12.9207L51.6027 12.996ZM52.8027 13.296L51.8247 13.0875C51.6839 13.7479 51.4454 14.0787 51.2132 14.2482L51.8027 15.056L52.3922 15.8638C53.1466 15.3132 53.5748 14.4707 53.7807 13.5044L52.8027 13.296ZM51.8027 15.056L51.2172 14.2453C50.9354 14.4488 50.5629 14.576 50.0427 14.576V15.576V16.576C50.9092 16.576 51.71 16.3565 52.3882 15.8667L51.8027 15.056ZM50.0427 15.576V14.576C49.4781 14.576 49.1088 14.454 48.863 14.2877L48.3027 15.116L47.7424 15.9443C48.4033 16.3913 49.194 16.576 50.0427 16.576V15.576ZM48.3027 15.116L48.8794 14.299C48.5836 14.0902 48.37 13.8228 48.2279 13.4764L47.3027 13.856L46.3775 14.2355C46.6621 14.9291 47.1152 15.5018 47.726 15.9329L48.3027 15.116ZM47.3027 13.856L48.2279 13.4764C48.0661 13.0821 47.9827 12.6583 47.9827 12.196H46.9827H45.9827C45.9827 12.907 46.1126 13.5898 46.3775 14.2355L47.3027 13.856ZM46.9827 12.196H47.9827V6.91598H46.9827H45.9827V12.196H46.9827ZM46.9827 6.91598H47.9827C47.9827 6.6789 47.9776 6.4706 47.9649 6.30119C47.9586 6.21707 47.9493 6.12723 47.9343 6.04043C47.923 5.97491 47.895 5.8244 47.8171 5.66876L46.9227 6.11598L46.0283 6.56319C45.9943 6.49523 45.9785 6.44148 45.9729 6.42106C45.9662 6.39684 45.9637 6.38208 45.9636 6.38152C45.9636 6.38138 45.9668 6.40155 45.9705 6.45077C45.9778 6.54802 45.9827 6.69972 45.9827 6.91598H46.9827ZM46.9227 6.11598L47.8419 5.72206C47.6946 5.3785 47.4255 5.19186 47.2258 5.09724C47.0296 5.0043 46.8288 4.96396 46.6667 4.9437L46.5427 5.93598L46.4187 6.92825C46.4699 6.93466 46.4392 6.93766 46.3696 6.90471C46.2965 6.8701 46.1108 6.76012 46.0036 6.5099L46.9227 6.11598ZM46.5427 5.93598L46.669 4.94398L45.569 4.80398L45.4427 5.79598L45.3165 6.78797L46.4165 6.92797L46.5427 5.93598ZM45.4427 5.79598H46.4427V5.23598H45.4427H44.4427V5.79598H45.4427ZM45.4427 5.23598V6.23598H46.9827V5.23598V4.23598H45.4427V5.23598ZM46.9827 5.23598H47.9827V2.91598H46.9827H45.9827V5.23598H46.9827ZM46.9827 2.91598L47.1788 3.89656L49.4788 3.43656L49.2827 2.45598L49.0866 1.4754L46.7866 1.9354L46.9827 2.91598ZM49.2827 2.45598H48.2827V5.23598H49.2827H50.2827V2.45598H49.2827ZM49.2827 5.23598V6.23598H52.4827V5.23598V4.23598H49.2827V5.23598ZM52.4827 5.23598H51.4827V5.93598H52.4827H53.4827V5.23598H52.4827ZM52.4827 5.93598V4.93598H49.2827V5.93598V6.93598H52.4827V5.93598ZM49.2827 5.93598H48.2827V12.596H49.2827H50.2827V5.93598H49.2827ZM49.2827 12.596H48.2827C48.2827 13.4653 48.3789 14.3188 48.7604 14.915L49.6027 14.376L50.445 13.8369C50.3999 13.7664 50.2827 13.4334 50.2827 12.596H49.2827ZM49.6027 14.376L48.7707 14.9307C49.1363 15.4791 49.6993 15.856 50.4227 15.856V14.856V13.856C50.4201 13.856 50.4265 13.8558 50.439 13.859C50.4517 13.8624 50.4637 13.8676 50.4729 13.873C50.4817 13.8781 50.4825 13.8802 50.4762 13.874C50.4695 13.8674 50.4549 13.8515 50.4348 13.8213L49.6027 14.376ZM50.4227 14.856V15.856C51.0707 15.856 51.6542 15.5833 52.0419 15.0294L51.2227 14.456L50.4035 13.8825C50.3987 13.8893 50.3991 13.8873 50.4061 13.8811C50.4134 13.8747 50.4237 13.8675 50.4355 13.8615C50.441 13.8588 50.4459 13.8568 50.4496 13.8555C50.4533 13.8542 50.4553 13.8538 50.4553 13.8538C50.4552 13.8538 50.4453 13.856 50.4227 13.856V14.856ZM51.2227 14.456L52.0227 15.056C52.4086 14.5414 52.5451 13.7971 52.5999 13.0712L51.6027 12.996L50.6055 12.9207C50.5817 13.2365 50.5435 13.4717 50.4999 13.6391C50.4543 13.8144 50.4155 13.8656 50.4227 13.856L51.2227 14.456ZM51.6027 12.996L51.3602 13.9661L52.5602 14.2661L52.8027 13.296L53.0452 12.3258L51.8452 12.0258L51.6027 12.996Z" fill="white" mask="url(#path-1-outside-1_114_317)"/>
</svg>
