<svg width="52" height="14" viewBox="0 0 52 14" fill="none" xmlns="http://www.w3.org/2000/svg">
<path d="M8.43989 0.559975V-2.45571e-05H12.3199V0.559975L11.2199 0.699975C11.0066 0.726642 10.8799 0.786642 10.8399 0.879975C10.7999 0.959975 10.7799 1.22664 10.7799 1.67998V13.6H9.67989L2.33989 1.73997V11.92C2.33989 12.3733 2.35989 12.6466 2.39989 12.74C2.43989 12.82 2.56656 12.8733 2.77989 12.9L3.87989 13.04V13.6H-0.000107393V13.04L1.09989 12.9C1.31323 12.8733 1.43989 12.82 1.47989 12.74C1.51989 12.6466 1.53989 12.3733 1.53989 11.92V1.67998C1.53989 1.22664 1.51989 0.959975 1.47989 0.879975C1.43989 0.786642 1.31323 0.726642 1.09989 0.699975L-0.000107393 0.559975V-2.45571e-05H4.01989L9.97989 9.57998V1.67998C9.97989 1.22664 9.95989 0.959975 9.91989 0.879975C9.87989 0.786642 9.75323 0.726642 9.53989 0.699975L8.43989 0.559975ZM25.4574 11.22C25.2174 12.1533 24.7707 12.82 24.1174 13.22C23.4641 13.6066 22.7041 13.8 21.8374 13.8C20.2374 13.8 19.0374 13.34 18.2374 12.42C17.4374 11.4866 17.0374 10.2533 17.0374 8.71998V8.31998C17.0374 6.78664 17.4107 5.55998 18.1574 4.63998C18.9174 3.71998 20.0107 3.25998 21.4374 3.25998C22.2374 3.25998 22.9441 3.41998 23.5574 3.73997C24.1841 4.04664 24.6707 4.49331 25.0174 5.07998C25.3774 5.66664 25.5574 6.37998 25.5574 7.21998C25.5574 7.41998 25.5441 7.63331 25.5174 7.85998C25.5041 8.08664 25.4707 8.31331 25.4174 8.53998H19.4974V9.11998C19.4974 10.5333 19.6974 11.5533 20.0974 12.18C20.4974 12.7933 21.1441 13.1 22.0374 13.1C22.6107 13.1 23.0974 12.9333 23.4974 12.6C23.8974 12.2533 24.1241 11.6733 24.1774 10.86L25.4574 11.22ZM21.4374 3.95998C20.7841 3.95998 20.2974 4.25998 19.9774 4.85998C19.6574 5.45998 19.4974 6.45331 19.4974 7.83998H23.1174C23.1707 7.57331 23.2041 7.32664 23.2174 7.09998C23.2441 6.85998 23.2574 6.63998 23.2574 6.43998C23.2574 5.58664 23.0907 4.95998 22.7574 4.55998C22.4241 4.15998 21.9841 3.95998 21.4374 3.95998ZM34.0633 13.04V13.6H30.0633V13.04L31.1633 12.9C31.2967 12.8733 31.3967 12.8466 31.4633 12.82C31.5433 12.78 31.6367 12.6933 31.7433 12.56C31.85 12.4266 32.0033 12.2133 32.2033 11.92L34.3433 8.79998L32.2033 5.13998C32.03 4.83331 31.8967 4.61998 31.8033 4.49998C31.71 4.36664 31.6233 4.27997 31.5433 4.23998C31.4633 4.19998 31.3567 4.17331 31.2233 4.15997L30.1233 4.01997V3.45998H35.6633V4.01997L34.5633 4.15997C34.35 4.18664 34.25 4.23998 34.2633 4.31998C34.2767 4.39998 34.4167 4.67331 34.6833 5.13998L36.0233 7.41998L37.5633 5.13998C37.87 4.68664 38.0233 4.41998 38.0233 4.33997C38.0367 4.24664 37.9367 4.18664 37.7233 4.15997L36.6233 4.01997V3.45998H40.6233V4.01997L39.5233 4.15997C39.39 4.17331 39.2833 4.19998 39.2033 4.23998C39.1367 4.27997 39.05 4.36664 38.9433 4.49998C38.85 4.61998 38.6967 4.83331 38.4833 5.13998L36.4433 8.13998L38.6433 11.92C38.83 12.2266 38.9633 12.4466 39.0433 12.58C39.1367 12.7 39.2233 12.78 39.3033 12.82C39.3833 12.8466 39.49 12.8733 39.6233 12.9L40.7233 13.04V13.6H35.1833V13.04L36.2833 12.9C36.4967 12.8733 36.5967 12.82 36.5833 12.74C36.57 12.6466 36.43 12.3733 36.1633 11.92L34.7633 9.49998L33.1233 11.92C32.8167 12.3733 32.6567 12.6466 32.6433 12.74C32.6433 12.82 32.75 12.8733 32.9633 12.9L34.0633 13.04ZM51.8027 11.52C51.6294 12.3333 51.296 12.92 50.8027 13.28C50.3227 13.6266 49.736 13.8 49.0427 13.8C48.336 13.8 47.756 13.6466 47.3027 13.34C46.8494 13.02 46.516 12.6 46.3027 12.08C46.0894 11.56 45.9827 11.0066 45.9827 10.42V5.13998C45.9827 4.68664 45.9627 4.41998 45.9227 4.33997C45.8827 4.24664 45.756 4.18664 45.5427 4.15997L44.4427 4.01997V3.45998H45.9827V1.13998L48.2827 0.679975V3.45998H51.4827V4.15997H48.2827V10.82C48.2827 11.6733 48.3894 12.2666 48.6027 12.6C48.816 12.92 49.0894 13.08 49.4227 13.08C49.7694 13.08 50.036 12.9466 50.2227 12.68C50.4227 12.4133 50.5494 11.9266 50.6027 11.22L51.8027 11.52Z" fill="black"/>
</svg>
