<svg width="52" height="14" viewBox="0 0 52 14" fill="none" xmlns="http://www.w3.org/2000/svg">
<path d="M8.43989 0.560097V9.75132e-05H12.3199V0.560097L11.2199 0.700097C11.0066 0.726764 10.8799 0.786764 10.8399 0.880097C10.7999 0.960097 10.7799 1.22676 10.7799 1.6801V13.6001H9.67989L2.33989 1.7401V11.9201C2.33989 12.3734 2.35989 12.6468 2.39989 12.7401C2.43989 12.8201 2.56656 12.8734 2.77989 12.9001L3.87989 13.0401V13.6001H-0.000107393V13.0401L1.09989 12.9001C1.31323 12.8734 1.43989 12.8201 1.47989 12.7401C1.51989 12.6468 1.53989 12.3734 1.53989 11.9201V1.6801C1.53989 1.22676 1.51989 0.960097 1.47989 0.880097C1.43989 0.786764 1.31323 0.726764 1.09989 0.700097L-0.000107393 0.560097V9.75132e-05H4.01989L9.97989 9.5801V1.6801C9.97989 1.22676 9.95989 0.960097 9.91989 0.880097C9.87989 0.786764 9.75323 0.726764 9.53989 0.700097L8.43989 0.560097ZM25.4574 11.2201C25.2174 12.1534 24.7707 12.8201 24.1174 13.2201C23.4641 13.6068 22.7041 13.8001 21.8374 13.8001C20.2374 13.8001 19.0374 13.3401 18.2374 12.4201C17.4374 11.4868 17.0374 10.2534 17.0374 8.7201V8.3201C17.0374 6.78676 17.4107 5.5601 18.1574 4.6401C18.9174 3.7201 20.0107 3.2601 21.4374 3.2601C22.2374 3.2601 22.9441 3.4201 23.5574 3.7401C24.1841 4.04676 24.6707 4.49343 25.0174 5.0801C25.3774 5.66676 25.5574 6.3801 25.5574 7.2201C25.5574 7.4201 25.5441 7.63343 25.5174 7.8601C25.5041 8.08676 25.4707 8.31343 25.4174 8.5401H19.4974V9.1201C19.4974 10.5334 19.6974 11.5534 20.0974 12.1801C20.4974 12.7934 21.1441 13.1001 22.0374 13.1001C22.6107 13.1001 23.0974 12.9334 23.4974 12.6001C23.8974 12.2534 24.1241 11.6734 24.1774 10.8601L25.4574 11.2201ZM21.4374 3.9601C20.7841 3.9601 20.2974 4.2601 19.9774 4.8601C19.6574 5.4601 19.4974 6.45343 19.4974 7.8401H23.1174C23.1707 7.57343 23.2041 7.32676 23.2174 7.1001C23.2441 6.8601 23.2574 6.6401 23.2574 6.4401C23.2574 5.58676 23.0907 4.9601 22.7574 4.5601C22.4241 4.1601 21.9841 3.9601 21.4374 3.9601ZM34.0633 13.0401V13.6001H30.0633V13.0401L31.1633 12.9001C31.2967 12.8734 31.3967 12.8468 31.4633 12.8201C31.5433 12.7801 31.6367 12.6934 31.7433 12.5601C31.85 12.4268 32.0033 12.2134 32.2033 11.9201L34.3433 8.8001L32.2033 5.1401C32.03 4.83343 31.8967 4.6201 31.8033 4.5001C31.71 4.36676 31.6233 4.2801 31.5433 4.2401C31.4633 4.2001 31.3567 4.17343 31.2233 4.1601L30.1233 4.0201V3.4601H35.6633V4.0201L34.5633 4.1601C34.35 4.18676 34.25 4.2401 34.2633 4.3201C34.2767 4.4001 34.4167 4.67343 34.6833 5.1401L36.0233 7.4201L37.5633 5.1401C37.87 4.68676 38.0233 4.4201 38.0233 4.3401C38.0367 4.24676 37.9367 4.18676 37.7233 4.1601L36.6233 4.0201V3.4601H40.6233V4.0201L39.5233 4.1601C39.39 4.17343 39.2833 4.2001 39.2033 4.2401C39.1367 4.2801 39.05 4.36676 38.9433 4.5001C38.85 4.6201 38.6967 4.83343 38.4833 5.1401L36.4433 8.1401L38.6433 11.9201C38.83 12.2268 38.9633 12.4468 39.0433 12.5801C39.1367 12.7001 39.2233 12.7801 39.3033 12.8201C39.3833 12.8468 39.49 12.8734 39.6233 12.9001L40.7233 13.0401V13.6001H35.1833V13.0401L36.2833 12.9001C36.4967 12.8734 36.5967 12.8201 36.5833 12.7401C36.57 12.6468 36.43 12.3734 36.1633 11.9201L34.7633 9.5001L33.1233 11.9201C32.8167 12.3734 32.6567 12.6468 32.6433 12.7401C32.6433 12.8201 32.75 12.8734 32.9633 12.9001L34.0633 13.0401ZM51.8027 11.5201C51.6294 12.3334 51.296 12.9201 50.8027 13.2801C50.3227 13.6268 49.736 13.8001 49.0427 13.8001C48.336 13.8001 47.756 13.6468 47.3027 13.3401C46.8494 13.0201 46.516 12.6001 46.3027 12.0801C46.0894 11.5601 45.9827 11.0068 45.9827 10.4201V5.1401C45.9827 4.68676 45.9627 4.4201 45.9227 4.3401C45.8827 4.24676 45.756 4.18676 45.5427 4.1601L44.4427 4.0201V3.4601H45.9827V1.1401L48.2827 0.680097V3.4601H51.4827V4.1601H48.2827V10.8201C48.2827 11.6734 48.3894 12.2668 48.6027 12.6001C48.816 12.9201 49.0894 13.0801 49.4227 13.0801C49.7694 13.0801 50.036 12.9468 50.2227 12.6801C50.4227 12.4134 50.5494 11.9268 50.6027 11.2201L51.8027 11.5201Z" fill="white"/>
</svg>
