<svg width="52" height="14" viewBox="0 0 52 14" fill="none" xmlns="http://www.w3.org/2000/svg">
<path d="M8.43989 0.560006V5.96046e-06H12.3199V0.560006L11.2199 0.700005C11.0066 0.726672 10.8799 0.786672 10.8399 0.880005C10.7999 0.960005 10.7799 1.22667 10.7799 1.68001V13.6H9.67989L2.33989 1.74001V11.92C2.33989 12.3733 2.35989 12.6467 2.39989 12.74C2.43989 12.82 2.56656 12.8733 2.77989 12.9L3.87989 13.04V13.6H-0.000107393V13.04L1.09989 12.9C1.31323 12.8733 1.43989 12.82 1.47989 12.74C1.51989 12.6467 1.53989 12.3733 1.53989 11.92V1.68001C1.53989 1.22667 1.51989 0.960005 1.47989 0.880005C1.43989 0.786672 1.31323 0.726672 1.09989 0.700005L-0.000107393 0.560006V5.96046e-06H4.01989L9.97989 9.58001V1.68001C9.97989 1.22667 9.95989 0.960005 9.91989 0.880005C9.87989 0.786672 9.75323 0.726672 9.53989 0.700005L8.43989 0.560006ZM25.4574 11.22C25.2174 12.1533 24.7707 12.82 24.1174 13.22C23.4641 13.6067 22.7041 13.8 21.8374 13.8C20.2374 13.8 19.0374 13.34 18.2374 12.42C17.4374 11.4867 17.0374 10.2533 17.0374 8.72001V8.32001C17.0374 6.78667 17.4107 5.56001 18.1574 4.64001C18.9174 3.72001 20.0107 3.26001 21.4374 3.26001C22.2374 3.26001 22.9441 3.42001 23.5574 3.74001C24.1841 4.04667 24.6707 4.49334 25.0174 5.08001C25.3774 5.66667 25.5574 6.38001 25.5574 7.22001C25.5574 7.42001 25.5441 7.63334 25.5174 7.86001C25.5041 8.08667 25.4707 8.31334 25.4174 8.54001H19.4974V9.12001C19.4974 10.5333 19.6974 11.5533 20.0974 12.18C20.4974 12.7933 21.1441 13.1 22.0374 13.1C22.6107 13.1 23.0974 12.9333 23.4974 12.6C23.8974 12.2533 24.1241 11.6733 24.1774 10.86L25.4574 11.22ZM21.4374 3.96001C20.7841 3.96001 20.2974 4.26001 19.9774 4.86001C19.6574 5.46001 19.4974 6.45334 19.4974 7.84001H23.1174C23.1707 7.57334 23.2041 7.32667 23.2174 7.10001C23.2441 6.86001 23.2574 6.64001 23.2574 6.44001C23.2574 5.58667 23.0907 4.96001 22.7574 4.56001C22.4241 4.16001 21.9841 3.96001 21.4374 3.96001ZM34.0633 13.04V13.6H30.0633V13.04L31.1633 12.9C31.2967 12.8733 31.3967 12.8467 31.4633 12.82C31.5433 12.78 31.6367 12.6933 31.7433 12.56C31.85 12.4267 32.0033 12.2133 32.2033 11.92L34.3433 8.80001L32.2033 5.14001C32.03 4.83334 31.8967 4.62001 31.8033 4.50001C31.71 4.36667 31.6233 4.28001 31.5433 4.24001C31.4633 4.20001 31.3567 4.17334 31.2233 4.16001L30.1233 4.02001V3.46001H35.6633V4.02001L34.5633 4.16001C34.35 4.18667 34.25 4.24001 34.2633 4.32001C34.2767 4.40001 34.4167 4.67334 34.6833 5.14001L36.0233 7.42001L37.5633 5.14001C37.87 4.68667 38.0233 4.42001 38.0233 4.34001C38.0367 4.24667 37.9367 4.18667 37.7233 4.16001L36.6233 4.02001V3.46001H40.6233V4.02001L39.5233 4.16001C39.39 4.17334 39.2833 4.20001 39.2033 4.24001C39.1367 4.28001 39.05 4.36667 38.9433 4.50001C38.85 4.62001 38.6967 4.83334 38.4833 5.14001L36.4433 8.14001L38.6433 11.92C38.83 12.2267 38.9633 12.4467 39.0433 12.58C39.1367 12.7 39.2233 12.78 39.3033 12.82C39.3833 12.8467 39.49 12.8733 39.6233 12.9L40.7233 13.04V13.6H35.1833V13.04L36.2833 12.9C36.4967 12.8733 36.5967 12.82 36.5833 12.74C36.57 12.6467 36.43 12.3733 36.1633 11.92L34.7633 9.50001L33.1233 11.92C32.8167 12.3733 32.6567 12.6467 32.6433 12.74C32.6433 12.82 32.75 12.8733 32.9633 12.9L34.0633 13.04ZM51.8027 11.52C51.6294 12.3333 51.296 12.92 50.8027 13.28C50.3227 13.6267 49.736 13.8 49.0427 13.8C48.336 13.8 47.756 13.6467 47.3027 13.34C46.8494 13.02 46.516 12.6 46.3027 12.08C46.0894 11.56 45.9827 11.0067 45.9827 10.42V5.14001C45.9827 4.68667 45.9627 4.42001 45.9227 4.34001C45.8827 4.24667 45.756 4.18667 45.5427 4.16001L44.4427 4.02001V3.46001H45.9827V1.14001L48.2827 0.680006V3.46001H51.4827V4.16001H48.2827V10.82C48.2827 11.6733 48.3894 12.2667 48.6027 12.6C48.816 12.92 49.0894 13.08 49.4227 13.08C49.7694 13.08 50.036 12.9467 50.2227 12.68C50.4227 12.4133 50.5494 11.9267 50.6027 11.22L51.8027 11.52Z" fill="black"/>
</svg>
