<svg width="114" height="11" viewBox="0 0 114 11" fill="none" xmlns="http://www.w3.org/2000/svg">
<path d="M2.96798 7.714L2.00198 7.49C1.37665 7.34067 0.90998 7.07467 0.60198 6.692C0.303313 6.3 0.15398 5.838 0.15398 5.306C0.15398 4.914 0.23798 4.55467 0.40598 4.228C0.583313 3.892 0.858646 3.626 1.23198 3.43C1.60531 3.22467 2.09065 3.122 2.68798 3.122C3.33198 3.122 3.85465 3.22467 4.25598 3.43C4.65731 3.63533 4.94198 3.906 5.10998 4.242C5.27798 4.578 5.32931 4.93733 5.26398 5.32L3.72398 5.6C3.85465 4.96533 3.81731 4.47533 3.61198 4.13C3.41598 3.78467 3.08465 3.612 2.61798 3.612C2.29131 3.612 2.02065 3.71 1.80598 3.906C1.59131 4.09267 1.48398 4.36333 1.48398 4.718C1.48398 5.04467 1.57731 5.334 1.76398 5.586C1.95065 5.82867 2.22598 5.992 2.58998 6.076L3.55598 6.3C4.24665 6.45867 4.74598 6.71067 5.05398 7.056C5.36198 7.392 5.51598 7.812 5.51598 8.316C5.51598 8.94133 5.28265 9.464 4.81598 9.884C4.35865 10.2947 3.67265 10.5 2.75798 10.5C2.44065 10.5 2.09065 10.4533 1.70798 10.36C1.33465 10.2573 0.989313 10.0753 0.67198 9.814C0.36398 9.55267 0.13998 9.17933 -2.04965e-05 8.694L0.90998 8.33C0.975313 8.946 1.18531 9.38 1.53998 9.632C1.90398 9.884 2.30998 10.01 2.75798 10.01C3.17798 10.01 3.51865 9.91667 3.77998 9.73C4.05065 9.534 4.18598 9.254 4.18598 8.89C4.18598 8.638 4.09731 8.40933 3.91998 8.204C3.75198 7.98933 3.43465 7.826 2.96798 7.714ZM13.8665 8.904C13.7452 9.47333 13.5119 9.884 13.1665 10.136C12.8305 10.3787 12.4199 10.5 11.9345 10.5C11.4399 10.5 11.0339 10.3927 10.7165 10.178C10.3992 9.954 10.1659 9.66 10.0165 9.296C9.86721 8.932 9.79254 8.54467 9.79254 8.134V4.438C9.79254 4.12067 9.77854 3.934 9.75054 3.878C9.72254 3.81267 9.63388 3.77067 9.48454 3.752L8.71454 3.654V3.262H9.79254V1.638L11.4025 1.316V3.262H13.6425V3.752H11.4025V8.414C11.4025 9.01133 11.4772 9.42667 11.6265 9.66C11.7759 9.884 11.9672 9.996 12.2005 9.996C12.4432 9.996 12.6299 9.90267 12.7605 9.716C12.9005 9.52933 12.9892 9.18867 13.0265 8.694L13.8665 8.904ZM18.662 2.058C18.3726 2.058 18.1393 1.96933 17.962 1.792C17.7846 1.60533 17.696 1.36733 17.696 1.078C17.696 0.788667 17.7846 0.555334 17.962 0.378C18.1393 0.200667 18.3726 0.112 18.662 0.112C18.942 0.112 19.1753 0.200667 19.362 0.378C19.5486 0.555334 19.642 0.788667 19.642 1.078C19.642 1.36733 19.5486 1.60533 19.362 1.792C19.1753 1.96933 18.942 2.058 18.662 2.058ZM16.786 3.654V3.262H19.474V9.184C19.474 9.50133 19.488 9.69267 19.516 9.758C19.544 9.814 19.6326 9.85133 19.782 9.87L20.552 9.968V10.36H16.786V9.968L17.556 9.87C17.7053 9.85133 17.794 9.814 17.822 9.758C17.85 9.69267 17.864 9.50133 17.864 9.184V4.438C17.864 4.12067 17.85 3.934 17.822 3.878C17.794 3.81267 17.7053 3.77067 17.556 3.752L16.786 3.654ZM23.3746 0.392V4.76837e-07H26.0626V9.184C26.0626 9.50133 26.0766 9.69267 26.1046 9.758C26.1326 9.814 26.2213 9.85133 26.3706 9.87L27.1406 9.968V10.36H23.3746V9.968L24.1446 9.87C24.294 9.85133 24.3826 9.814 24.4106 9.758C24.4386 9.69267 24.4526 9.50133 24.4526 9.184V1.176C24.4526 0.858667 24.4386 0.672 24.4106 0.616C24.3826 0.550667 24.294 0.508667 24.1446 0.49L23.3746 0.392ZM29.9656 0.392V4.76837e-07H32.6536V9.184C32.6536 9.50133 32.6676 9.69267 32.6956 9.758C32.7236 9.814 32.8122 9.85133 32.9616 9.87L33.7316 9.968V10.36H29.9656V9.968L30.7356 9.87C30.8849 9.85133 30.9736 9.814 31.0016 9.758C31.0296 9.69267 31.0436 9.50133 31.0436 9.184V1.176C31.0436 0.858667 31.0296 0.672 31.0016 0.616C30.9736 0.550667 30.8849 0.508667 30.7356 0.49L29.9656 0.392ZM45.3574 7.714L44.3914 7.49C43.766 7.34067 43.2994 7.07467 42.9914 6.692C42.6927 6.3 42.5434 5.838 42.5434 5.306C42.5434 4.914 42.6274 4.55467 42.7954 4.228C42.9727 3.892 43.248 3.626 43.6214 3.43C43.9947 3.22467 44.48 3.122 45.0774 3.122C45.7214 3.122 46.244 3.22467 46.6454 3.43C47.0467 3.63533 47.3314 3.906 47.4994 4.242C47.6674 4.578 47.7187 4.93733 47.6534 5.32L46.1134 5.6C46.244 4.96533 46.2067 4.47533 46.0014 4.13C45.8054 3.78467 45.474 3.612 45.0074 3.612C44.6807 3.612 44.41 3.71 44.1954 3.906C43.9807 4.09267 43.8734 4.36333 43.8734 4.718C43.8734 5.04467 43.9667 5.334 44.1534 5.586C44.34 5.82867 44.6154 5.992 44.9794 6.076L45.9454 6.3C46.636 6.45867 47.1354 6.71067 47.4434 7.056C47.7514 7.392 47.9054 7.812 47.9054 8.316C47.9054 8.94133 47.672 9.464 47.2054 9.884C46.748 10.2947 46.062 10.5 45.1474 10.5C44.83 10.5 44.48 10.4533 44.0974 10.36C43.724 10.2573 43.3787 10.0753 43.0614 9.814C42.7534 9.55267 42.5294 9.17933 42.3894 8.694L43.2994 8.33C43.3647 8.946 43.5747 9.38 43.9294 9.632C44.2934 9.884 44.6994 10.01 45.1474 10.01C45.5674 10.01 45.908 9.91667 46.1694 9.73C46.44 9.534 46.5754 9.254 46.5754 8.89C46.5754 8.638 46.4867 8.40933 46.3094 8.204C46.1414 7.98933 45.824 7.826 45.3574 7.714ZM56.2559 8.904C56.1346 9.47333 55.9013 9.884 55.5559 10.136C55.2199 10.3787 54.8093 10.5 54.3239 10.5C53.8293 10.5 53.4233 10.3927 53.1059 10.178C52.7886 9.954 52.5553 9.66 52.4059 9.296C52.2566 8.932 52.1819 8.54467 52.1819 8.134V4.438C52.1819 4.12067 52.1679 3.934 52.1399 3.878C52.1119 3.81267 52.0233 3.77067 51.8739 3.752L51.1039 3.654V3.262H52.1819V1.638L53.7919 1.316V3.262H56.0319V3.752H53.7919V8.414C53.7919 9.01133 53.8666 9.42667 54.0159 9.66C54.1653 9.884 54.3566 9.996 54.5899 9.996C54.8326 9.996 55.0193 9.90267 55.1499 9.716C55.2899 9.52933 55.3786 9.18867 55.4159 8.694L56.2559 8.904ZM59.1754 3.654V3.262H61.7794V4.41C62.3487 3.55133 63.0254 3.122 63.8094 3.122C64.0987 3.122 64.3787 3.21533 64.6494 3.402C64.92 3.57933 65.144 3.91533 65.3214 4.41L64.0754 5.082C63.9447 4.69933 63.7907 4.44267 63.6134 4.312C63.4454 4.172 63.2634 4.102 63.0674 4.102C62.862 4.102 62.6614 4.16733 62.4654 4.298C62.2694 4.42867 62.0687 4.67133 61.8634 5.026V9.184C61.8634 9.50133 61.8774 9.69267 61.9054 9.758C61.9334 9.814 62.022 9.85133 62.1714 9.87L63.2214 9.968V10.36H59.1754V9.968L59.9454 9.87C60.0947 9.85133 60.1834 9.814 60.2114 9.758C60.2394 9.69267 60.2534 9.50133 60.2534 9.184V4.438C60.2534 4.12067 60.2394 3.934 60.2114 3.878C60.1834 3.81267 60.0947 3.77067 59.9454 3.752L59.1754 3.654ZM74.1311 8.694C73.9631 9.34733 73.6504 9.814 73.1931 10.094C72.7357 10.3647 72.2037 10.5 71.5971 10.5C70.4771 10.5 69.6371 10.178 69.0771 9.534C68.5171 8.88067 68.2371 8.01733 68.2371 6.944V6.664C68.2371 5.59067 68.4984 4.732 69.0211 4.088C69.5531 3.444 70.3184 3.122 71.3171 3.122C71.8771 3.122 72.3717 3.234 72.8011 3.458C73.2397 3.67267 73.5804 3.98533 73.8231 4.396C74.0751 4.80667 74.2011 5.306 74.2011 5.894C74.2011 6.034 74.1917 6.18333 74.1731 6.342C74.1637 6.50067 74.1404 6.65933 74.1031 6.818H69.9591V7.224C69.9591 8.21333 70.0991 8.92733 70.3791 9.366C70.6591 9.79533 71.1117 10.01 71.7371 10.01C72.1384 10.01 72.4791 9.89333 72.7591 9.66C73.0391 9.41733 73.1977 9.01133 73.2351 8.442L74.1311 8.694ZM71.3171 3.612C70.8597 3.612 70.5191 3.822 70.2951 4.242C70.0711 4.662 69.9591 5.35733 69.9591 6.328H72.4931C72.5304 6.14133 72.5537 5.96867 72.5631 5.81C72.5817 5.642 72.5911 5.488 72.5911 5.348C72.5911 4.75067 72.4744 4.312 72.2411 4.032C72.0077 3.752 71.6997 3.612 71.3171 3.612ZM80.7992 7.714L79.8332 7.49C79.2079 7.34067 78.7412 7.07467 78.4332 6.692C78.1346 6.3 77.9852 5.838 77.9852 5.306C77.9852 4.914 78.0692 4.55467 78.2372 4.228C78.4146 3.892 78.6899 3.626 79.0632 3.43C79.4366 3.22467 79.9219 3.122 80.5192 3.122C81.1632 3.122 81.6859 3.22467 82.0872 3.43C82.4886 3.63533 82.7732 3.906 82.9412 4.242C83.1092 4.578 83.1606 4.93733 83.0952 5.32L81.5552 5.6C81.6859 4.96533 81.6486 4.47533 81.4432 4.13C81.2472 3.78467 80.9159 3.612 80.4492 3.612C80.1226 3.612 79.8519 3.71 79.6372 3.906C79.4226 4.09267 79.3152 4.36333 79.3152 4.718C79.3152 5.04467 79.4086 5.334 79.5952 5.586C79.7819 5.82867 80.0572 5.992 80.4212 6.076L81.3872 6.3C82.0779 6.45867 82.5772 6.71067 82.8852 7.056C83.1932 7.392 83.3472 7.812 83.3472 8.316C83.3472 8.94133 83.1139 9.464 82.6472 9.884C82.1899 10.2947 81.5039 10.5 80.5892 10.5C80.2719 10.5 79.9219 10.4533 79.5392 10.36C79.1659 10.2573 78.8206 10.0753 78.5032 9.814C78.1952 9.55267 77.9712 9.17933 77.8312 8.694L78.7412 8.33C78.8066 8.946 79.0166 9.38 79.3712 9.632C79.7352 9.884 80.1412 10.01 80.5892 10.01C81.0092 10.01 81.3499 9.91667 81.6112 9.73C81.8819 9.534 82.0172 9.254 82.0172 8.89C82.0172 8.638 81.9286 8.40933 81.7512 8.204C81.5832 7.98933 81.2659 7.826 80.7992 7.714ZM89.9058 7.714L88.9398 7.49C88.3145 7.34067 87.8478 7.07467 87.5398 6.692C87.2411 6.3 87.0918 5.838 87.0918 5.306C87.0918 4.914 87.1758 4.55467 87.3438 4.228C87.5211 3.892 87.7965 3.626 88.1698 3.43C88.5431 3.22467 89.0285 3.122 89.6258 3.122C90.2698 3.122 90.7925 3.22467 91.1938 3.43C91.5951 3.63533 91.8798 3.906 92.0478 4.242C92.2158 4.578 92.2671 4.93733 92.2018 5.32L90.6618 5.6C90.7925 4.96533 90.7551 4.47533 90.5498 4.13C90.3538 3.78467 90.0225 3.612 89.5558 3.612C89.2291 3.612 88.9585 3.71 88.7438 3.906C88.5291 4.09267 88.4218 4.36333 88.4218 4.718C88.4218 5.04467 88.5151 5.334 88.7018 5.586C88.8885 5.82867 89.1638 5.992 89.5278 6.076L90.4938 6.3C91.1845 6.45867 91.6838 6.71067 91.9918 7.056C92.2998 7.392 92.4538 7.812 92.4538 8.316C92.4538 8.94133 92.2205 9.464 91.7538 9.884C91.2965 10.2947 90.6105 10.5 89.6958 10.5C89.3785 10.5 89.0285 10.4533 88.6458 10.36C88.2725 10.2573 87.9271 10.0753 87.6098 9.814C87.3018 9.55267 87.0778 9.17933 86.9378 8.694L87.8478 8.33C87.9131 8.946 88.1231 9.38 88.4778 9.632C88.8418 9.884 89.2478 10.01 89.6958 10.01C90.1158 10.01 90.4565 9.91667 90.7178 9.73C90.9885 9.534 91.1238 9.254 91.1238 8.89C91.1238 8.638 91.0351 8.40933 90.8578 8.204C90.6898 7.98933 90.3725 7.826 89.9058 7.714ZM102.134 8.694C101.966 9.34733 101.654 9.814 101.196 10.094C100.739 10.3647 100.207 10.5 99.6004 10.5C98.4804 10.5 97.6404 10.178 97.0804 9.534C96.5204 8.88067 96.2404 8.01733 96.2404 6.944V6.664C96.2404 5.59067 96.5017 4.732 97.0244 4.088C97.5564 3.444 98.3217 3.122 99.3204 3.122C99.8804 3.122 100.375 3.234 100.804 3.458C101.243 3.67267 101.584 3.98533 101.826 4.396C102.078 4.80667 102.204 5.306 102.204 5.894C102.204 6.034 102.195 6.18333 102.176 6.342C102.167 6.50067 102.144 6.65933 102.106 6.818H97.9624V7.224C97.9624 8.21333 98.1024 8.92733 98.3824 9.366C98.6624 9.79533 99.115 10.01 99.7404 10.01C100.142 10.01 100.482 9.89333 100.762 9.66C101.042 9.41733 101.201 9.01133 101.238 8.442L102.134 8.694ZM99.3204 3.612C98.863 3.612 98.5224 3.822 98.2984 4.242C98.0744 4.662 97.9624 5.35733 97.9624 6.328H100.496C100.534 6.14133 100.557 5.96867 100.566 5.81C100.585 5.642 100.594 5.488 100.594 5.348C100.594 4.75067 100.478 4.312 100.244 4.032C100.011 3.752 99.703 3.612 99.3204 3.612ZM113.255 9.968V10.36H110.651V9.198C110.389 9.62733 110.095 9.954 109.769 10.178C109.451 10.3927 109.073 10.5 108.635 10.5C107.851 10.5 107.225 10.192 106.759 9.576C106.301 8.95067 106.073 8.078 106.073 6.958V6.678C106.073 5.59533 106.339 4.732 106.871 4.088C107.412 3.444 108.149 3.122 109.083 3.122C109.643 3.122 110.137 3.262 110.567 3.542V1.176C110.567 0.858667 110.553 0.672 110.525 0.616C110.497 0.550667 110.408 0.508667 110.259 0.49L109.489 0.392V4.76837e-07H112.177V9.184C112.177 9.50133 112.191 9.69267 112.219 9.758C112.247 9.814 112.335 9.85133 112.485 9.87L113.255 9.968ZM107.795 7.378C107.795 8.246 107.902 8.88067 108.117 9.282C108.331 9.68333 108.625 9.884 108.999 9.884C109.232 9.884 109.475 9.79067 109.727 9.604C109.988 9.408 110.268 9.016 110.567 8.428V4.2C110.212 3.84533 109.778 3.668 109.265 3.668C108.751 3.668 108.378 3.90133 108.145 4.368C107.911 4.82533 107.795 5.45533 107.795 6.258V7.378Z" fill="#E91B1B"/>
</svg>
