<svg width="114" height="11" viewBox="0 0 114 11" fill="none" xmlns="http://www.w3.org/2000/svg">
<path d="M2.96798 7.71399L2.00198 7.48999C1.37665 7.34065 0.90998 7.07465 0.60198 6.69199C0.303313 6.29999 0.15398 5.83799 0.15398 5.30598C0.15398 4.91398 0.23798 4.55465 0.40598 4.22799C0.583313 3.89198 0.858646 3.62598 1.23198 3.42998C1.60531 3.22465 2.09065 3.12199 2.68798 3.12199C3.33198 3.12199 3.85465 3.22465 4.25598 3.42998C4.65731 3.63532 4.94198 3.90599 5.10998 4.24199C5.27798 4.57799 5.32931 4.93732 5.26398 5.31999L3.72398 5.59999C3.85465 4.96532 3.81731 4.47532 3.61198 4.12999C3.41598 3.78465 3.08465 3.61199 2.61798 3.61199C2.29131 3.61199 2.02065 3.70999 1.80598 3.90598C1.59131 4.09265 1.48398 4.36332 1.48398 4.71798C1.48398 5.04465 1.57731 5.33398 1.76398 5.58599C1.95065 5.82865 2.22598 5.99198 2.58998 6.07599L3.55598 6.29999C4.24665 6.45865 4.74598 6.71065 5.05398 7.05599C5.36198 7.39199 5.51598 7.81199 5.51598 8.31599C5.51598 8.94132 5.28265 9.46399 4.81598 9.88399C4.35865 10.2947 3.67265 10.5 2.75798 10.5C2.44065 10.5 2.09065 10.4533 1.70798 10.36C1.33465 10.2573 0.989313 10.0753 0.67198 9.81399C0.36398 9.55265 0.13998 9.17932 -2.04965e-05 8.69399L0.90998 8.32999C0.975313 8.94599 1.18531 9.37999 1.53998 9.63199C1.90398 9.88399 2.30998 10.01 2.75798 10.01C3.17798 10.01 3.51865 9.91665 3.77998 9.72999C4.05065 9.53399 4.18598 9.25399 4.18598 8.88999C4.18598 8.63799 4.09731 8.40932 3.91998 8.20399C3.75198 7.98932 3.43465 7.82599 2.96798 7.71399ZM13.8665 8.90399C13.7452 9.47332 13.5119 9.88399 13.1665 10.136C12.8305 10.3787 12.4199 10.5 11.9345 10.5C11.4399 10.5 11.0339 10.3927 10.7165 10.178C10.3992 9.95399 10.1659 9.65999 10.0165 9.29599C9.86721 8.93199 9.79254 8.54465 9.79254 8.13399V4.43799C9.79254 4.12065 9.77854 3.93399 9.75054 3.87798C9.72254 3.81265 9.63388 3.77065 9.48454 3.75198L8.71454 3.65398V3.26198H9.79254V1.63798L11.4025 1.31598V3.26198H13.6425V3.75198H11.4025V8.41399C11.4025 9.01132 11.4772 9.42665 11.6265 9.65999C11.7759 9.88399 11.9672 9.99599 12.2005 9.99599C12.4432 9.99599 12.6299 9.90265 12.7605 9.71599C12.9005 9.52932 12.9892 9.18865 13.0265 8.69399L13.8665 8.90399ZM18.662 2.05798C18.3726 2.05798 18.1393 1.96932 17.962 1.79198C17.7846 1.60532 17.696 1.36732 17.696 1.07798C17.696 0.788652 17.7846 0.555318 17.962 0.377985C18.1393 0.200651 18.3726 0.111985 18.662 0.111985C18.942 0.111985 19.1753 0.200651 19.362 0.377985C19.5486 0.555318 19.642 0.788652 19.642 1.07798C19.642 1.36732 19.5486 1.60532 19.362 1.79198C19.1753 1.96932 18.942 2.05798 18.662 2.05798ZM16.786 3.65398V3.26198H19.474V9.18399C19.474 9.50132 19.488 9.69265 19.516 9.75799C19.544 9.81399 19.6326 9.85132 19.782 9.86999L20.552 9.96799V10.36H16.786V9.96799L17.556 9.86999C17.7053 9.85132 17.794 9.81399 17.822 9.75799C17.85 9.69265 17.864 9.50132 17.864 9.18399V4.43799C17.864 4.12065 17.85 3.93399 17.822 3.87798C17.794 3.81265 17.7053 3.77065 17.556 3.75198L16.786 3.65398ZM23.3746 0.391985V-1.4782e-05H26.0626V9.18399C26.0626 9.50132 26.0766 9.69265 26.1046 9.75799C26.1326 9.81399 26.2213 9.85132 26.3706 9.86999L27.1406 9.96799V10.36H23.3746V9.96799L24.1446 9.86999C24.294 9.85132 24.3826 9.81399 24.4106 9.75799C24.4386 9.69265 24.4526 9.50132 24.4526 9.18399V1.17599C24.4526 0.858651 24.4386 0.671985 24.4106 0.615985C24.3826 0.550652 24.294 0.508652 24.1446 0.489985L23.3746 0.391985ZM29.9656 0.391985V-1.4782e-05H32.6536V9.18399C32.6536 9.50132 32.6676 9.69265 32.6956 9.75799C32.7236 9.81399 32.8122 9.85132 32.9616 9.86999L33.7316 9.96799V10.36H29.9656V9.96799L30.7356 9.86999C30.8849 9.85132 30.9736 9.81399 31.0016 9.75799C31.0296 9.69265 31.0436 9.50132 31.0436 9.18399V1.17599C31.0436 0.858651 31.0296 0.671985 31.0016 0.615985C30.9736 0.550652 30.8849 0.508652 30.7356 0.489985L29.9656 0.391985ZM45.3574 7.71399L44.3914 7.48999C43.766 7.34065 43.2994 7.07465 42.9914 6.69199C42.6927 6.29999 42.5434 5.83799 42.5434 5.30598C42.5434 4.91398 42.6274 4.55465 42.7954 4.22799C42.9727 3.89198 43.248 3.62598 43.6214 3.42998C43.9947 3.22465 44.48 3.12199 45.0774 3.12199C45.7214 3.12199 46.244 3.22465 46.6454 3.42998C47.0467 3.63532 47.3314 3.90599 47.4994 4.24199C47.6674 4.57799 47.7187 4.93732 47.6534 5.31999L46.1134 5.59999C46.244 4.96532 46.2067 4.47532 46.0014 4.12999C45.8054 3.78465 45.474 3.61199 45.0074 3.61199C44.6807 3.61199 44.41 3.70999 44.1954 3.90598C43.9807 4.09265 43.8734 4.36332 43.8734 4.71798C43.8734 5.04465 43.9667 5.33398 44.1534 5.58599C44.34 5.82865 44.6154 5.99198 44.9794 6.07599L45.9454 6.29999C46.636 6.45865 47.1354 6.71065 47.4434 7.05599C47.7514 7.39199 47.9054 7.81199 47.9054 8.31599C47.9054 8.94132 47.672 9.46399 47.2054 9.88399C46.748 10.2947 46.062 10.5 45.1474 10.5C44.83 10.5 44.48 10.4533 44.0974 10.36C43.724 10.2573 43.3787 10.0753 43.0614 9.81399C42.7534 9.55265 42.5294 9.17932 42.3894 8.69399L43.2994 8.32999C43.3647 8.94599 43.5747 9.37999 43.9294 9.63199C44.2934 9.88399 44.6994 10.01 45.1474 10.01C45.5674 10.01 45.908 9.91665 46.1694 9.72999C46.44 9.53399 46.5754 9.25399 46.5754 8.88999C46.5754 8.63799 46.4867 8.40932 46.3094 8.20399C46.1414 7.98932 45.824 7.82599 45.3574 7.71399ZM56.2559 8.90399C56.1346 9.47332 55.9013 9.88399 55.5559 10.136C55.2199 10.3787 54.8093 10.5 54.3239 10.5C53.8293 10.5 53.4233 10.3927 53.1059 10.178C52.7886 9.95399 52.5553 9.65999 52.4059 9.29599C52.2566 8.93199 52.1819 8.54465 52.1819 8.13399V4.43799C52.1819 4.12065 52.1679 3.93399 52.1399 3.87798C52.1119 3.81265 52.0233 3.77065 51.8739 3.75198L51.1039 3.65398V3.26198H52.1819V1.63798L53.7919 1.31598V3.26198H56.0319V3.75198H53.7919V8.41399C53.7919 9.01132 53.8666 9.42665 54.0159 9.65999C54.1653 9.88399 54.3566 9.99599 54.5899 9.99599C54.8326 9.99599 55.0193 9.90265 55.1499 9.71599C55.2899 9.52932 55.3786 9.18865 55.4159 8.69399L56.2559 8.90399ZM59.1754 3.65398V3.26198H61.7794V4.40999C62.3487 3.55132 63.0254 3.12199 63.8094 3.12199C64.0987 3.12199 64.3787 3.21532 64.6494 3.40199C64.92 3.57932 65.144 3.91532 65.3214 4.40999L64.0754 5.08199C63.9447 4.69932 63.7907 4.44265 63.6134 4.31199C63.4454 4.17199 63.2634 4.10198 63.0674 4.10198C62.862 4.10198 62.6614 4.16732 62.4654 4.29798C62.2694 4.42865 62.0687 4.67132 61.8634 5.02599V9.18399C61.8634 9.50132 61.8774 9.69265 61.9054 9.75799C61.9334 9.81399 62.022 9.85132 62.1714 9.86999L63.2214 9.96799V10.36H59.1754V9.96799L59.9454 9.86999C60.0947 9.85132 60.1834 9.81399 60.2114 9.75799C60.2394 9.69265 60.2534 9.50132 60.2534 9.18399V4.43799C60.2534 4.12065 60.2394 3.93399 60.2114 3.87798C60.1834 3.81265 60.0947 3.77065 59.9454 3.75198L59.1754 3.65398ZM74.1311 8.69399C73.9631 9.34732 73.6504 9.81399 73.1931 10.094C72.7357 10.3647 72.2037 10.5 71.5971 10.5C70.4771 10.5 69.6371 10.178 69.0771 9.53399C68.5171 8.88065 68.2371 8.01732 68.2371 6.94399V6.66399C68.2371 5.59065 68.4984 4.73199 69.0211 4.08799C69.5531 3.44399 70.3184 3.12199 71.3171 3.12199C71.8771 3.12199 72.3717 3.23399 72.8011 3.45798C73.2397 3.67265 73.5804 3.98532 73.8231 4.39598C74.0751 4.80665 74.2011 5.30599 74.2011 5.89399C74.2011 6.03399 74.1917 6.18332 74.1731 6.34199C74.1637 6.50065 74.1404 6.65932 74.1031 6.81799H69.9591V7.22399C69.9591 8.21332 70.0991 8.92732 70.3791 9.36599C70.6591 9.79532 71.1117 10.01 71.7371 10.01C72.1384 10.01 72.4791 9.89332 72.7591 9.65999C73.0391 9.41732 73.1977 9.01132 73.2351 8.44199L74.1311 8.69399ZM71.3171 3.61199C70.8597 3.61199 70.5191 3.82199 70.2951 4.24199C70.0711 4.66199 69.9591 5.35732 69.9591 6.32799H72.4931C72.5304 6.14132 72.5537 5.96865 72.5631 5.80999C72.5817 5.64199 72.5911 5.48799 72.5911 5.34799C72.5911 4.75065 72.4744 4.31199 72.2411 4.03199C72.0077 3.75199 71.6997 3.61199 71.3171 3.61199ZM80.7992 7.71399L79.8332 7.48999C79.2079 7.34065 78.7412 7.07465 78.4332 6.69199C78.1346 6.29999 77.9852 5.83799 77.9852 5.30598C77.9852 4.91398 78.0692 4.55465 78.2372 4.22799C78.4146 3.89198 78.6899 3.62598 79.0632 3.42998C79.4366 3.22465 79.9219 3.12199 80.5192 3.12199C81.1632 3.12199 81.6859 3.22465 82.0872 3.42998C82.4886 3.63532 82.7732 3.90599 82.9412 4.24199C83.1092 4.57799 83.1606 4.93732 83.0952 5.31999L81.5552 5.59999C81.6859 4.96532 81.6486 4.47532 81.4432 4.12999C81.2472 3.78465 80.9159 3.61199 80.4492 3.61199C80.1226 3.61199 79.8519 3.70999 79.6372 3.90598C79.4226 4.09265 79.3152 4.36332 79.3152 4.71798C79.3152 5.04465 79.4086 5.33398 79.5952 5.58599C79.7819 5.82865 80.0572 5.99198 80.4212 6.07599L81.3872 6.29999C82.0779 6.45865 82.5772 6.71065 82.8852 7.05599C83.1932 7.39199 83.3472 7.81199 83.3472 8.31599C83.3472 8.94132 83.1139 9.46399 82.6472 9.88399C82.1899 10.2947 81.5039 10.5 80.5892 10.5C80.2719 10.5 79.9219 10.4533 79.5392 10.36C79.1659 10.2573 78.8206 10.0753 78.5032 9.81399C78.1952 9.55265 77.9712 9.17932 77.8312 8.69399L78.7412 8.32999C78.8066 8.94599 79.0166 9.37999 79.3712 9.63199C79.7352 9.88399 80.1412 10.01 80.5892 10.01C81.0092 10.01 81.3499 9.91665 81.6112 9.72999C81.8819 9.53399 82.0172 9.25399 82.0172 8.88999C82.0172 8.63799 81.9286 8.40932 81.7512 8.20399C81.5832 7.98932 81.2659 7.82599 80.7992 7.71399ZM89.9058 7.71399L88.9398 7.48999C88.3145 7.34065 87.8478 7.07465 87.5398 6.69199C87.2411 6.29999 87.0918 5.83799 87.0918 5.30598C87.0918 4.91398 87.1758 4.55465 87.3438 4.22799C87.5211 3.89198 87.7965 3.62598 88.1698 3.42998C88.5431 3.22465 89.0285 3.12199 89.6258 3.12199C90.2698 3.12199 90.7925 3.22465 91.1938 3.42998C91.5951 3.63532 91.8798 3.90599 92.0478 4.24199C92.2158 4.57799 92.2671 4.93732 92.2018 5.31999L90.6618 5.59999C90.7925 4.96532 90.7551 4.47532 90.5498 4.12999C90.3538 3.78465 90.0225 3.61199 89.5558 3.61199C89.2291 3.61199 88.9585 3.70999 88.7438 3.90598C88.5291 4.09265 88.4218 4.36332 88.4218 4.71798C88.4218 5.04465 88.5151 5.33398 88.7018 5.58599C88.8885 5.82865 89.1638 5.99198 89.5278 6.07599L90.4938 6.29999C91.1845 6.45865 91.6838 6.71065 91.9918 7.05599C92.2998 7.39199 92.4538 7.81199 92.4538 8.31599C92.4538 8.94132 92.2205 9.46399 91.7538 9.88399C91.2965 10.2947 90.6105 10.5 89.6958 10.5C89.3785 10.5 89.0285 10.4533 88.6458 10.36C88.2725 10.2573 87.9271 10.0753 87.6098 9.81399C87.3018 9.55265 87.0778 9.17932 86.9378 8.69399L87.8478 8.32999C87.9131 8.94599 88.1231 9.37999 88.4778 9.63199C88.8418 9.88399 89.2478 10.01 89.6958 10.01C90.1158 10.01 90.4565 9.91665 90.7178 9.72999C90.9885 9.53399 91.1238 9.25399 91.1238 8.88999C91.1238 8.63799 91.0351 8.40932 90.8578 8.20399C90.6898 7.98932 90.3725 7.82599 89.9058 7.71399ZM102.134 8.69399C101.966 9.34732 101.654 9.81399 101.196 10.094C100.739 10.3647 100.207 10.5 99.6004 10.5C98.4804 10.5 97.6404 10.178 97.0804 9.53399C96.5204 8.88065 96.2404 8.01732 96.2404 6.94399V6.66399C96.2404 5.59065 96.5017 4.73199 97.0244 4.08799C97.5564 3.44399 98.3217 3.12199 99.3204 3.12199C99.8804 3.12199 100.375 3.23399 100.804 3.45798C101.243 3.67265 101.584 3.98532 101.826 4.39598C102.078 4.80665 102.204 5.30599 102.204 5.89399C102.204 6.03399 102.195 6.18332 102.176 6.34199C102.167 6.50065 102.144 6.65932 102.106 6.81799H97.9624V7.22399C97.9624 8.21332 98.1024 8.92732 98.3824 9.36599C98.6624 9.79532 99.115 10.01 99.7404 10.01C100.142 10.01 100.482 9.89332 100.762 9.65999C101.042 9.41732 101.201 9.01132 101.238 8.44199L102.134 8.69399ZM99.3204 3.61199C98.863 3.61199 98.5224 3.82199 98.2984 4.24199C98.0744 4.66199 97.9624 5.35732 97.9624 6.32799H100.496C100.534 6.14132 100.557 5.96865 100.566 5.80999C100.585 5.64199 100.594 5.48799 100.594 5.34799C100.594 4.75065 100.478 4.31199 100.244 4.03199C100.011 3.75199 99.703 3.61199 99.3204 3.61199ZM113.255 9.96799V10.36H110.651V9.19799C110.389 9.62732 110.095 9.95399 109.769 10.178C109.451 10.3927 109.073 10.5 108.635 10.5C107.851 10.5 107.225 10.192 106.759 9.57599C106.301 8.95065 106.073 8.07799 106.073 6.95799V6.67799C106.073 5.59532 106.339 4.73199 106.871 4.08799C107.412 3.44399 108.149 3.12199 109.083 3.12199C109.643 3.12199 110.137 3.26199 110.567 3.54199V1.17599C110.567 0.858651 110.553 0.671985 110.525 0.615985C110.497 0.550652 110.408 0.508652 110.259 0.489985L109.489 0.391985V-1.4782e-05H112.177V9.18399C112.177 9.50132 112.191 9.69265 112.219 9.75799C112.247 9.81399 112.335 9.85132 112.485 9.86999L113.255 9.96799ZM107.795 7.37799C107.795 8.24599 107.902 8.88065 108.117 9.28199C108.331 9.68332 108.625 9.88399 108.999 9.88399C109.232 9.88399 109.475 9.79065 109.727 9.60399C109.988 9.40799 110.268 9.01599 110.567 8.42799V4.19998C110.212 3.84532 109.778 3.66799 109.265 3.66799C108.751 3.66799 108.378 3.90132 108.145 4.36798C107.911 4.82532 107.795 5.45532 107.795 6.25799V7.37799Z" fill="#E91B1B"/>
</svg>
