<svg width="230" height="126" viewBox="0 0 230 126" fill="none" xmlns="http://www.w3.org/2000/svg">
<g filter="url(#filter0_g_6_16)">
<path d="M120.903 6.21739L104.517 41.198L81.2681 12.6136L77.6512 36.9646L47.4738 25.4127L68.2443 55.8721L4.90299 68.7174L71.903 75.7174L47.4738 108.717L99.903 89.2174L120.903 119.217L135.903 86.7174L176.403 108.717L160.903 75.7174L224.903 63.7174L156.403 50.2174L172.903 20.2174L130.403 39.2174L120.903 6.21739Z" fill="#FAD429"/>
<path d="M120.903 6.21739L104.517 41.198L81.2681 12.6136L77.6512 36.9646L47.4738 25.4127L68.2443 55.8721L4.90299 68.7174L71.903 75.7174L47.4738 108.717L99.903 89.2174L120.903 119.217L135.903 86.7174L176.403 108.717L160.903 75.7174L224.903 63.7174L156.403 50.2174L172.903 20.2174L130.403 39.2174L120.903 6.21739Z" stroke="#200CA1"/>
</g>
<defs>
<filter id="filter0_g_6_16" x="4.86374e-05" y="-1.23978e-05" width="229.799" height="125.016" filterUnits="userSpaceOnUse" color-interpolation-filters="sRGB">
<feFlood flood-opacity="0" result="BackgroundImageFix"/>
<feBlend mode="normal" in="SourceGraphic" in2="BackgroundImageFix" result="shape"/>
<feTurbulence type="fractalNoise" baseFrequency="0.99900001287460327 0.99900001287460327" numOctaves="3" seed="2170" />
<feDisplacementMap in="shape" scale="9.6000003814697266" xChannelSelector="R" yChannelSelector="G" result="displacedImage" width="100%" height="100%" />
<feMerge result="effect1_texture_6_16">
<feMergeNode in="displacedImage"/>
</feMerge>
</filter>
</defs>
</svg>
