<svg width="215" height="343" viewBox="0 0 215 343" fill="none" xmlns="http://www.w3.org/2000/svg">
<g filter="url(#filter0_g_5_15)">
<path d="M69.4842 334.22C59.0206 340.613 24.533 336.884 8.59708 334.22C-2.5881 324.817 13.2576 115.916 22.5786 12.6415C44.9489 -0.146406 73.6937 7.3132 85.2697 12.6415V127.827C104.032 118.8 131.875 124.065 143.451 127.827V12.6415C165.099 -1.65087 196.671 6.68634 209.75 12.6415C204.488 92.7226 194.415 258.809 196.22 282.504C198.024 306.199 195.468 324.346 193.964 330.458C187.47 333.091 147.059 334.063 127.665 334.22L143.451 172.96C127.936 180.483 98.1988 176.095 85.2697 172.96L69.4842 334.22Z" stroke="#040676" stroke-width="1.5"/>
</g>
<defs>
<filter id="filter0_g_5_15" x="0" y="0" width="214.532" height="342.5" filterUnits="userSpaceOnUse" color-interpolation-filters="sRGB">
<feFlood flood-opacity="0" result="BackgroundImageFix"/>
<feBlend mode="normal" in="SourceGraphic" in2="BackgroundImageFix" result="shape"/>
<feTurbulence type="fractalNoise" baseFrequency="0.25 0.25" numOctaves="3" seed="7453" />
<feDisplacementMap in="shape" scale="8" xChannelSelector="R" yChannelSelector="G" result="displacedImage" width="100%" height="100%" />
<feMerge result="effect1_texture_5_15">
<feMergeNode in="displacedImage"/>
</feMerge>
</filter>
</defs>
</svg>
