<svg width="256" height="174" viewBox="0 0 256 174" fill="none" xmlns="http://www.w3.org/2000/svg">
<path d="M93.2273 29.6L86.6673 7.75998L80.4673 29.6H76.9873L71.4273 5.75997C71.2939 5.14664 71.1873 4.71997 71.1073 4.47997C71.0273 4.21331 70.9073 4.03997 70.7473 3.95997C70.6139 3.87997 70.4006 3.82664 70.1073 3.79997L67.9073 3.51998V2.39998H78.9873V3.51998L76.7873 3.79997C76.3606 3.85331 76.1339 3.95998 76.1073 4.11997C76.0806 4.27997 76.1606 4.82664 76.3473 5.75997L80.5073 24.4L86.6273 2.39998H89.9473L96.4673 24L100.707 5.75997C100.921 4.82664 101.001 4.27997 100.947 4.11997C100.894 3.95998 100.667 3.85331 100.267 3.79997L98.0673 3.51998V2.39998H105.827V3.51998L103.627 3.79997C103.334 3.82664 103.121 3.87997 102.987 3.95997C102.854 4.03997 102.734 4.21331 102.627 4.47997C102.547 4.71997 102.441 5.14664 102.307 5.75997L96.7473 29.6H93.2273ZM136.646 28.48V29.6H125.886V28.48L128.086 28.2C128.513 28.1466 128.766 28.04 128.846 27.88C128.926 27.6933 128.966 27.1466 128.966 26.24V16.16C128.966 14.32 128.686 12.9866 128.126 12.16C127.593 11.3066 126.793 10.88 125.726 10.88C125.273 10.88 124.74 11 124.126 11.24C123.54 11.4533 122.94 11.8533 122.326 12.44C121.74 13.0266 121.22 13.8933 120.766 15.04V26.24C120.766 27.1466 120.806 27.6933 120.886 27.88C120.966 28.04 121.22 28.1466 121.646 28.2L123.846 28.48V29.6H113.086V28.48L115.286 28.2C115.713 28.1466 115.966 28.04 116.046 27.88C116.126 27.6933 116.166 27.1466 116.166 26.24V3.35997C116.166 2.45331 116.126 1.91997 116.046 1.75997C115.966 1.57331 115.713 1.45331 115.286 1.39997L113.086 1.11998V-2.47955e-05H120.766V12.44C121.54 11.2133 122.5 10.32 123.646 9.75997C124.82 9.19997 125.993 8.91997 127.166 8.91997C129.14 8.91997 130.7 9.54664 131.846 10.8C132.993 12.0533 133.566 13.8266 133.566 16.12V26.24C133.566 27.1466 133.606 27.6933 133.686 27.88C133.766 28.04 134.02 28.1466 134.446 28.2L136.646 28.48ZM165.215 28.6C164.788 29 164.268 29.3333 163.655 29.6C163.068 29.8666 162.348 30 161.495 30C160.401 30 159.481 29.76 158.735 29.28C158.015 28.8 157.535 28.12 157.295 27.24C156.415 28.2 155.441 28.9066 154.375 29.36C153.335 29.7866 152.268 30 151.175 30C149.335 30 147.961 29.4933 147.055 28.48C146.148 27.44 145.695 26.1466 145.695 24.6C145.695 23.0266 146.268 21.76 147.415 20.8C148.561 19.8133 150.588 19.32 153.495 19.32H157.135V16.08C157.135 13.8666 156.841 12.36 156.255 11.56C155.695 10.7333 154.908 10.32 153.895 10.32C153.228 10.32 152.615 10.4933 152.055 10.84C151.495 11.16 151.095 11.7733 150.855 12.68C150.641 13.56 150.681 14.84 150.975 16.52L146.575 15.88C146.361 14.6533 146.495 13.52 146.975 12.48C147.481 11.4133 148.321 10.56 149.495 9.91998C150.668 9.25331 152.161 8.91997 153.975 8.91997C156.028 8.91997 157.615 9.25331 158.735 9.91998C159.855 10.5866 160.628 11.4666 161.055 12.56C161.508 13.6533 161.735 14.8266 161.735 16.08V25.32C161.735 26.68 161.855 27.5333 162.095 27.88C162.335 28.2266 162.601 28.4 162.895 28.4C163.375 28.4 163.908 28.12 164.495 27.56L165.215 28.6ZM152.935 27.88C153.628 27.88 154.308 27.7066 154.975 27.36C155.668 26.9866 156.388 26.3066 157.135 25.32V20.72H154.135C152.828 20.72 151.881 21.0266 151.295 21.64C150.708 22.2533 150.415 23.2133 150.415 24.52C150.415 25.5866 150.628 26.4133 151.055 27C151.481 27.5866 152.108 27.88 152.935 27.88ZM187.378 25.44C187.032 27.0666 186.365 28.24 185.378 28.96C184.418 29.6533 183.245 30 181.858 30C180.445 30 179.285 29.6933 178.378 29.08C177.472 28.44 176.805 27.6 176.378 26.56C175.952 25.52 175.738 24.4133 175.738 23.24V12.68C175.738 11.7733 175.698 11.24 175.618 11.08C175.538 10.8933 175.285 10.7733 174.858 10.72L172.658 10.44V9.31997H175.738V4.67997L180.338 3.75997V9.31997H186.738V10.72H180.338V24.04C180.338 25.7466 180.552 26.9333 180.978 27.6C181.405 28.24 181.952 28.56 182.618 28.56C183.312 28.56 183.845 28.2933 184.218 27.76C184.618 27.2266 184.872 26.2533 184.978 24.84L187.378 25.44ZM-6.83442e-05 49.12V48H7.67993V60.28C8.39993 59.16 9.19993 58.32 10.0799 57.76C10.9866 57.2 12.0266 56.92 13.1999 56.92C15.4399 56.92 17.2133 57.8133 18.5199 59.6C19.8533 61.36 20.5199 63.84 20.5199 67.04V67.84C20.5199 70.9333 19.7599 73.4 18.2399 75.24C16.7199 77.08 14.6133 78 11.9199 78C9.8666 78 8.1866 77.3866 6.87993 76.16C6.39993 76.3466 5.93327 76.5866 5.47993 76.88C5.05327 77.1466 4.61327 77.4533 4.15993 77.8H3.07993V51.36C3.07993 50.4533 3.03993 49.92 2.95993 49.76C2.87993 49.5733 2.6266 49.4533 2.19993 49.4L-6.83442e-05 49.12ZM12.1599 58.68C11.4933 58.68 10.7866 58.96 10.0399 59.52C9.31993 60.0533 8.53327 61.16 7.67993 62.84V74.92C8.69327 75.9333 9.93327 76.44 11.3999 76.44C12.8933 76.44 13.9599 75.7866 14.5999 74.48C15.2666 73.1466 15.5999 71.3333 15.5999 69.04V65.84C15.5999 63.36 15.2933 61.5466 14.6799 60.4C14.0666 59.2533 13.2266 58.68 12.1599 58.68ZM30.4859 58.44V57.32H37.9259V60.6C39.5525 58.1466 41.4859 56.92 43.7259 56.92C44.5525 56.92 45.3525 57.1866 46.1259 57.72C46.8992 58.2266 47.5392 59.1866 48.0459 60.6L44.4859 62.52C44.1125 61.4266 43.6725 60.6933 43.1659 60.32C42.6859 59.92 42.1659 59.72 41.6059 59.72C41.0192 59.72 40.4459 59.9066 39.8859 60.28C39.3259 60.6533 38.7525 61.3466 38.1659 62.36V74.24C38.1659 75.1466 38.2059 75.6933 38.2859 75.88C38.3659 76.04 38.6192 76.1466 39.0459 76.2L42.0459 76.48V77.6H30.4859V76.48L32.6859 76.2C33.1125 76.1466 33.3659 76.04 33.4459 75.88C33.5259 75.6933 33.5659 75.1466 33.5659 74.24V60.68C33.5659 59.7733 33.5259 59.24 33.4459 59.08C33.3659 58.8933 33.1125 58.7733 32.6859 58.72L30.4859 58.44ZM61.1224 53.88C60.2958 53.88 59.6291 53.6266 59.1224 53.12C58.6158 52.5866 58.3624 51.9066 58.3624 51.08C58.3624 50.2533 58.6158 49.5866 59.1224 49.08C59.6291 48.5733 60.2958 48.32 61.1224 48.32C61.9224 48.32 62.5891 48.5733 63.1224 49.08C63.6558 49.5866 63.9224 50.2533 63.9224 51.08C63.9224 51.9066 63.6558 52.5866 63.1224 53.12C62.5891 53.6266 61.9224 53.88 61.1224 53.88ZM55.7624 58.44V57.32H63.4424V74.24C63.4424 75.1466 63.4824 75.6933 63.5624 75.88C63.6424 76.04 63.8958 76.1466 64.3224 76.2L66.5224 76.48V77.6H55.7624V76.48L57.9624 76.2C58.3891 76.1466 58.6424 76.04 58.7224 75.88C58.8024 75.6933 58.8424 75.1466 58.8424 74.24V60.68C58.8424 59.7733 58.8024 59.24 58.7224 59.08C58.6424 58.8933 58.3891 58.7733 57.9624 58.72L55.7624 58.44ZM98.4271 76.48V77.6H87.6671V76.48L89.8671 76.2C90.2938 76.1466 90.5471 76.04 90.6271 75.88C90.7071 75.6933 90.7471 75.1466 90.7471 74.24V64.16C90.7471 62.32 90.4671 60.9866 89.9071 60.16C89.3738 59.3066 88.5738 58.88 87.5071 58.88C87.0538 58.88 86.5205 59 85.9071 59.24C85.3205 59.4533 84.7205 59.8533 84.1071 60.44C83.5205 61.0266 83.0005 61.8933 82.5471 63.04V74.24C82.5471 75.1466 82.5871 75.6933 82.6671 75.88C82.7471 76.04 83.0005 76.1466 83.4271 76.2L85.6271 76.48V77.6H74.8671V76.48L77.0671 76.2C77.4938 76.1466 77.7471 76.04 77.8271 75.88C77.9071 75.6933 77.9471 75.1466 77.9471 74.24V60.68C77.9471 59.7733 77.9071 59.24 77.8271 59.08C77.7471 58.8933 77.4938 58.7733 77.0671 58.72L74.8671 58.44V57.32H82.3071V60.84C83.0805 59.48 84.0671 58.4933 85.2671 57.88C86.4938 57.24 87.7205 56.92 88.9471 56.92C90.9205 56.92 92.4805 57.5466 93.6271 58.8C94.7738 60.0533 95.3471 61.8266 95.3471 64.12V74.24C95.3471 75.1466 95.3871 75.6933 95.4671 75.88C95.5471 76.04 95.8005 76.1466 96.2271 76.2L98.4271 76.48ZM126.109 79.68C126.109 81.8666 125.282 83.5466 123.629 84.72C122.002 85.92 119.762 86.52 116.909 86.52C113.762 86.52 111.416 86 109.869 84.96C108.322 83.9466 107.482 82.68 107.349 81.16L111.629 80.48C111.522 81.8933 111.856 83.0133 112.629 83.84C113.429 84.6933 114.856 85.12 116.909 85.12C118.829 85.12 120.376 84.76 121.549 84.04C122.749 83.32 123.349 82.28 123.349 80.92C123.349 79.96 122.989 79.2266 122.269 78.72C121.576 78.24 120.416 78 118.789 78H114.229C112.816 78 111.696 77.8 110.869 77.4C110.069 77 109.509 76.5066 109.189 75.92C108.869 75.3066 108.709 74.68 108.709 74.04C108.709 73.2666 108.922 72.5066 109.349 71.76C109.776 70.9866 110.509 70.2266 111.549 69.48C110.402 68.9733 109.469 68.2266 108.749 67.24C108.029 66.2533 107.669 65.0266 107.669 63.56C107.669 62.0666 108.016 60.84 108.709 59.88C109.402 58.8933 110.336 58.16 111.509 57.68C112.682 57.1733 113.989 56.92 115.429 56.92H116.109C117.656 56.92 118.989 57.1733 120.109 57.68L125.869 54.84L126.349 58.76H121.789C122.429 59.32 122.922 60 123.269 60.8C123.642 61.5733 123.829 62.4933 123.829 63.56C123.829 65 123.482 66.2133 122.789 67.2C122.096 68.1866 121.162 68.9333 119.989 69.44C118.842 69.9466 117.549 70.2 116.109 70.2H115.429C114.629 70.2 113.842 70.12 113.069 69.96C112.402 70.4133 111.936 70.8533 111.669 71.28C111.429 71.68 111.309 72.0666 111.309 72.44C111.309 72.8666 111.496 73.1866 111.869 73.4C112.269 73.6133 112.909 73.72 113.789 73.72H118.989C121.282 73.72 123.042 74.24 124.269 75.28C125.496 76.2933 126.109 77.76 126.109 79.68ZM116.109 68.8C116.962 68.8 117.696 68.4266 118.309 67.68C118.922 66.9333 119.229 65.56 119.229 63.56C119.229 61.56 118.922 60.1866 118.309 59.44C117.696 58.6933 116.962 58.32 116.109 58.32H115.429C114.576 58.32 113.829 58.6933 113.189 59.44C112.576 60.1866 112.269 61.56 112.269 63.56C112.269 65.56 112.576 66.9333 113.189 67.68C113.829 68.4266 114.576 68.8 115.429 68.8H116.109ZM143.798 70.04L141.038 69.4C139.251 68.9733 137.918 68.2133 137.038 67.12C136.185 66 135.758 64.68 135.758 63.16C135.758 62.04 135.998 61.0133 136.478 60.08C136.985 59.12 137.771 58.36 138.838 57.8C139.905 57.2133 141.291 56.92 142.998 56.92C144.838 56.92 146.331 57.2133 147.478 57.8C148.625 58.3866 149.438 59.16 149.918 60.12C150.398 61.08 150.545 62.1066 150.358 63.2L145.958 64C146.331 62.1866 146.225 60.7866 145.638 59.8C145.078 58.8133 144.131 58.32 142.798 58.32C141.865 58.32 141.091 58.6 140.478 59.16C139.865 59.6933 139.558 60.4666 139.558 61.48C139.558 62.4133 139.825 63.24 140.358 63.96C140.891 64.6533 141.678 65.12 142.718 65.36L145.478 66C147.451 66.4533 148.878 67.1733 149.758 68.16C150.638 69.12 151.078 70.32 151.078 71.76C151.078 73.5466 150.411 75.04 149.078 76.24C147.771 77.4133 145.811 78 143.198 78C142.291 78 141.291 77.8666 140.198 77.6C139.131 77.3066 138.145 76.7866 137.238 76.04C136.358 75.2933 135.718 74.2266 135.318 72.84L137.918 71.8C138.105 73.56 138.705 74.8 139.718 75.52C140.758 76.24 141.918 76.6 143.198 76.6C144.398 76.6 145.371 76.3333 146.118 75.8C146.891 75.24 147.278 74.44 147.278 73.4C147.278 72.68 147.025 72.0266 146.518 71.44C146.038 70.8266 145.131 70.36 143.798 70.04ZM187.642 79.6C187.029 81.28 186.349 82.6266 185.602 83.64C184.882 84.6533 183.989 85.3866 182.922 85.84C181.855 86.2933 180.522 86.52 178.922 86.52V82.12C180.549 82.12 181.855 82 182.842 81.76C183.855 81.5466 184.629 81.1866 185.162 80.68C185.722 80.2 186.135 79.5733 186.402 78.8L186.802 77.6H184.722L179.042 60.68C178.855 60.0666 178.695 59.64 178.562 59.4C178.455 59.1333 178.322 58.96 178.162 58.88C178.029 58.8 177.815 58.7466 177.522 58.72L175.322 58.44V57.32H186.122V58.44L183.922 58.72C183.602 58.7466 183.402 58.8533 183.322 59.04C183.269 59.2 183.389 59.7466 183.682 60.68L188.042 73.88L192.562 60.52C192.855 59.6666 192.975 59.1733 192.922 59.04C192.895 58.88 192.682 58.7733 192.282 58.72L190.082 58.44V57.32H197.722V58.44L195.522 58.72C195.122 58.7733 194.855 58.88 194.722 59.04C194.589 59.2 194.375 59.6933 194.082 60.52L187.642 79.6ZM223.308 67.04V67.84C223.308 70.9066 222.508 73.3733 220.908 75.24C219.335 77.08 217.081 78 214.148 78C211.215 78 208.948 77.08 207.348 75.24C205.775 73.3733 204.988 70.9066 204.988 67.84V67.04C204.988 63.9733 205.775 61.52 207.348 59.68C208.948 57.84 211.215 56.92 214.148 56.92C217.081 56.92 219.335 57.84 220.908 59.68C222.508 61.52 223.308 63.9733 223.308 67.04ZM218.388 66.24C218.388 63.3866 218.028 61.36 217.308 60.16C216.588 58.9333 215.535 58.32 214.148 58.32C212.788 58.32 211.735 58.9333 210.988 60.16C210.268 61.36 209.908 63.3866 209.908 66.24V68.64C209.908 71.4666 210.268 73.5066 210.988 74.76C211.735 75.9866 212.788 76.6 214.148 76.6C215.535 76.6 216.588 75.9866 217.308 74.76C218.028 73.5066 218.388 71.4666 218.388 68.64V66.24ZM255.769 76.48V77.6H248.329V74.08C247.582 75.44 246.622 76.44 245.449 77.08C244.276 77.6933 243.089 78 241.889 78C239.996 78 238.489 77.3733 237.369 76.12C236.249 74.84 235.689 73.0666 235.689 70.8V60.68C235.689 59.7733 235.649 59.24 235.569 59.08C235.489 58.8933 235.236 58.7733 234.809 58.72L232.609 58.44V57.32H240.289V70.76C240.289 72.6 240.542 73.9466 241.049 74.8C241.582 75.6266 242.342 76.04 243.329 76.04C243.756 76.04 244.249 75.9333 244.809 75.72C245.396 75.48 245.982 75.0666 246.569 74.48C247.156 73.8666 247.662 73 248.089 71.88V60.68C248.089 59.7733 248.049 59.2266 247.969 59.04C247.889 58.8533 247.636 58.7466 247.209 58.72L244.209 58.44V57.32H252.689V74.24C252.689 75.1466 252.729 75.6933 252.809 75.88C252.889 76.04 253.142 76.1466 253.569 76.2L255.769 76.48ZM63.3227 121.44C62.9761 123.067 62.3094 124.24 61.3227 124.96C60.3627 125.653 59.1894 126 57.8027 126C56.3894 126 55.2294 125.693 54.3227 125.08C53.4161 124.44 52.7494 123.6 52.3227 122.56C51.8961 121.52 51.6827 120.413 51.6827 119.24V108.68C51.6827 107.773 51.6427 107.24 51.5627 107.08C51.4827 106.893 51.2294 106.773 50.8027 106.72L48.6027 106.44V105.32H51.6827V100.68L56.2827 99.76V105.32H62.6827V106.72H56.2827V120.04C56.2827 121.747 56.4961 122.933 56.9227 123.6C57.3494 124.24 57.8961 124.56 58.5627 124.56C59.2561 124.56 59.7894 124.293 60.1627 123.76C60.5627 123.227 60.8161 122.253 60.9227 120.84L63.3227 121.44ZM91.144 115.04V115.84C91.144 118.907 90.344 121.373 88.744 123.24C87.1707 125.08 84.9173 126 81.984 126C79.0507 126 76.784 125.08 75.184 123.24C73.6107 121.373 72.824 118.907 72.824 115.84V115.04C72.824 111.973 73.6107 109.52 75.184 107.68C76.784 105.84 79.0507 104.92 81.984 104.92C84.9173 104.92 87.1707 105.84 88.744 107.68C90.344 109.52 91.144 111.973 91.144 115.04ZM86.224 114.24C86.224 111.387 85.864 109.36 85.144 108.16C84.424 106.933 83.3707 106.32 81.984 106.32C80.624 106.32 79.5707 106.933 78.824 108.16C78.104 109.36 77.744 111.387 77.744 114.24V116.64C77.744 119.467 78.104 121.507 78.824 122.76C79.5707 123.987 80.624 124.6 81.984 124.6C83.3707 124.6 84.424 123.987 85.144 122.76C85.864 121.507 86.224 119.467 86.224 116.64V114.24ZM140.35 124.48V125.6H129.59V124.48L131.79 124.2C132.217 124.147 132.47 124.04 132.55 123.88C132.63 123.693 132.67 123.147 132.67 122.24V102C132.67 100.053 132.31 98.7333 131.59 98.04C130.87 97.3466 129.884 97 128.63 97C127.804 97 127.07 97.1733 126.43 97.52C125.79 97.84 125.284 98.44 124.91 99.32C124.537 100.2 124.35 101.48 124.35 103.16V105.32H130.35V106.72H124.35V122.24C124.35 123.147 124.39 123.693 124.47 123.88C124.55 124.04 124.804 124.147 125.23 124.2L127.43 124.48V125.6H116.67V124.48L118.87 124.2C119.297 124.147 119.55 124.04 119.63 123.88C119.71 123.693 119.75 123.147 119.75 122.24V108.68C119.75 107.773 119.71 107.24 119.63 107.08C119.55 106.893 119.297 106.773 118.87 106.72L116.67 106.44V105.32H119.75V103.96C119.75 102.547 120.03 101.2 120.59 99.92C121.177 98.64 122.124 97.6 123.43 96.8C124.737 96 126.47 95.6 128.63 95.6C129.75 95.6 130.764 95.7466 131.67 96.04C132.577 96.3066 133.364 96.6933 134.03 97.2C134.83 96.8266 135.55 96.4266 136.19 96H137.27V122.24C137.27 123.147 137.31 123.693 137.39 123.88C137.47 124.04 137.724 124.147 138.15 124.2L140.35 124.48ZM168.185 115.04V115.84C168.185 118.907 167.385 121.373 165.785 123.24C164.211 125.08 161.958 126 159.025 126C156.091 126 153.825 125.08 152.225 123.24C150.651 121.373 149.865 118.907 149.865 115.84V115.04C149.865 111.973 150.651 109.52 152.225 107.68C153.825 105.84 156.091 104.92 159.025 104.92C161.958 104.92 164.211 105.84 165.785 107.68C167.385 109.52 168.185 111.973 168.185 115.04ZM163.265 114.24C163.265 111.387 162.905 109.36 162.185 108.16C161.465 106.933 160.411 106.32 159.025 106.32C157.665 106.32 156.611 106.933 155.865 108.16C155.145 109.36 154.785 111.387 154.785 114.24V116.64C154.785 119.467 155.145 121.507 155.865 122.76C156.611 123.987 157.665 124.6 159.025 124.6C160.411 124.6 161.465 123.987 162.185 122.76C162.905 121.507 163.265 119.467 163.265 116.64V114.24ZM204.63 108.68L200.27 125.6H196.63L191.83 109.52L186.99 125.6H183.67L179.35 108.68C179.19 108.067 179.057 107.64 178.95 107.4C178.87 107.133 178.763 106.96 178.63 106.88C178.497 106.8 178.297 106.747 178.03 106.72L175.83 106.44V105.32H186.47V106.44L184.27 106.72C183.843 106.773 183.603 106.893 183.55 107.08C183.497 107.24 183.59 107.773 183.83 108.68L186.95 120.72L191.55 105.32H195.07L199.83 121.4L203.07 108.68C203.31 107.773 203.403 107.24 203.35 107.08C203.297 106.893 203.057 106.773 202.63 106.72L200.43 106.44V105.32H208.15V106.44L205.95 106.72C205.683 106.747 205.483 106.8 205.35 106.88C205.217 106.96 205.097 107.133 204.99 107.4C204.91 107.64 204.79 108.067 204.63 108.68ZM64.5113 166.04L61.7513 165.4C59.9647 164.973 58.6313 164.213 57.7513 163.12C56.898 162 56.4713 160.68 56.4713 159.16C56.4713 158.04 56.7113 157.013 57.1913 156.08C57.698 155.12 58.4847 154.36 59.5513 153.8C60.618 153.213 62.0047 152.92 63.7113 152.92C65.5513 152.92 67.0447 153.213 68.1913 153.8C69.338 154.387 70.1513 155.16 70.6313 156.12C71.1113 157.08 71.258 158.107 71.0713 159.2L66.6713 160C67.0447 158.187 66.938 156.787 66.3513 155.8C65.7913 154.813 64.8447 154.32 63.5113 154.32C62.578 154.32 61.8047 154.6 61.1913 155.16C60.578 155.693 60.2713 156.467 60.2713 157.48C60.2713 158.413 60.538 159.24 61.0713 159.96C61.6047 160.653 62.3913 161.12 63.4313 161.36L66.1913 162C68.1647 162.453 69.5913 163.173 70.4713 164.16C71.3513 165.12 71.7913 166.32 71.7913 167.76C71.7913 169.547 71.1247 171.04 69.7913 172.24C68.4847 173.413 66.5247 174 63.9113 174C63.0047 174 62.0047 173.867 60.9113 173.6C59.8447 173.307 58.858 172.787 57.9513 172.04C57.0713 171.293 56.4313 170.227 56.0313 168.84L58.6313 167.8C58.818 169.56 59.418 170.8 60.4313 171.52C61.4713 172.24 62.6313 172.6 63.9113 172.6C65.1113 172.6 66.0847 172.333 66.8313 171.8C67.6047 171.24 67.9913 170.44 67.9913 169.4C67.9913 168.68 67.738 168.027 67.2313 167.44C66.7513 166.827 65.8447 166.36 64.5113 166.04ZM95.6501 169.44C95.3034 171.067 94.6367 172.24 93.6501 172.96C92.6901 173.653 91.5167 174 90.1301 174C88.7167 174 87.5567 173.693 86.6501 173.08C85.7434 172.44 85.0767 171.6 84.6501 170.56C84.2234 169.52 84.0101 168.413 84.0101 167.24V156.68C84.0101 155.773 83.9701 155.24 83.8901 155.08C83.8101 154.893 83.5567 154.773 83.1301 154.72L80.9301 154.44V153.32H84.0101V148.68L88.6101 147.76V153.32H95.0101V154.72H88.6101V168.04C88.6101 169.747 88.8234 170.933 89.2501 171.6C89.6767 172.24 90.2234 172.56 90.8901 172.56C91.5834 172.56 92.1167 172.293 92.4901 171.76C92.8901 171.227 93.1434 170.253 93.2501 168.84L95.6501 169.44ZM124.391 172.6C123.965 173 123.445 173.333 122.831 173.6C122.245 173.867 121.525 174 120.671 174C119.578 174 118.658 173.76 117.911 173.28C117.191 172.8 116.711 172.12 116.471 171.24C115.591 172.2 114.618 172.907 113.551 173.36C112.511 173.787 111.445 174 110.351 174C108.511 174 107.138 173.493 106.231 172.48C105.325 171.44 104.871 170.147 104.871 168.6C104.871 167.027 105.445 165.76 106.591 164.8C107.738 163.813 109.765 163.32 112.671 163.32H116.311V160.08C116.311 157.867 116.018 156.36 115.431 155.56C114.871 154.733 114.085 154.32 113.071 154.32C112.405 154.32 111.791 154.493 111.231 154.84C110.671 155.16 110.271 155.773 110.031 156.68C109.818 157.56 109.858 158.84 110.151 160.52L105.751 159.88C105.538 158.653 105.671 157.52 106.151 156.48C106.658 155.413 107.498 154.56 108.671 153.92C109.845 153.253 111.338 152.92 113.151 152.92C115.205 152.92 116.791 153.253 117.911 153.92C119.031 154.587 119.805 155.467 120.231 156.56C120.685 157.653 120.911 158.827 120.911 160.08V169.32C120.911 170.68 121.031 171.533 121.271 171.88C121.511 172.227 121.778 172.4 122.071 172.4C122.551 172.4 123.085 172.12 123.671 171.56L124.391 172.6ZM112.111 171.88C112.805 171.88 113.485 171.707 114.151 171.36C114.845 170.987 115.565 170.307 116.311 169.32V164.72H113.311C112.005 164.72 111.058 165.027 110.471 165.64C109.885 166.253 109.591 167.213 109.591 168.52C109.591 169.587 109.805 170.413 110.231 171C110.658 171.587 111.285 171.88 112.111 171.88ZM146.555 169.44C146.208 171.067 145.541 172.24 144.555 172.96C143.595 173.653 142.421 174 141.035 174C139.621 174 138.461 173.693 137.555 173.08C136.648 172.44 135.981 171.6 135.555 170.56C135.128 169.52 134.915 168.413 134.915 167.24V156.68C134.915 155.773 134.875 155.24 134.795 155.08C134.715 154.893 134.461 154.773 134.035 154.72L131.835 154.44V153.32H134.915V148.68L139.515 147.76V153.32H145.915V154.72H139.515V168.04C139.515 169.747 139.728 170.933 140.155 171.6C140.581 172.24 141.128 172.56 141.795 172.56C142.488 172.56 143.021 172.293 143.395 171.76C143.795 171.227 144.048 170.253 144.155 168.84L146.555 169.44ZM172.936 168.84C172.456 170.707 171.563 172.04 170.256 172.84C168.949 173.613 167.429 174 165.696 174C162.496 174 160.096 173.08 158.496 171.24C156.896 169.373 156.096 166.907 156.096 163.84V163.04C156.096 159.973 156.843 157.52 158.336 155.68C159.856 153.84 162.043 152.92 164.896 152.92C166.496 152.92 167.909 153.24 169.136 153.88C170.389 154.493 171.363 155.387 172.056 156.56C172.776 157.733 173.136 159.16 173.136 160.84C173.136 161.24 173.109 161.667 173.056 162.12C173.029 162.573 172.963 163.027 172.856 163.48H161.016V164.64C161.016 167.467 161.416 169.507 162.216 170.76C163.016 171.987 164.309 172.6 166.096 172.6C167.243 172.6 168.216 172.267 169.016 171.6C169.816 170.907 170.269 169.747 170.376 168.12L172.936 168.84ZM164.896 154.32C163.589 154.32 162.616 154.92 161.976 156.12C161.336 157.32 161.016 159.307 161.016 162.08H168.256C168.363 161.547 168.429 161.053 168.456 160.6C168.509 160.12 168.536 159.68 168.536 159.28C168.536 157.573 168.203 156.32 167.536 155.52C166.869 154.72 165.989 154.32 164.896 154.32ZM192.428 165.52H190.388V164.88C190.388 163.707 190.548 162.773 190.868 162.08C191.188 161.36 191.575 160.747 192.028 160.24C192.508 159.733 192.975 159.213 193.428 158.68C193.908 158.12 194.308 157.427 194.628 156.6C194.948 155.747 195.108 154.627 195.108 153.24C195.108 151.347 194.801 149.907 194.188 148.92C193.601 147.907 192.735 147.4 191.588 147.4C190.148 147.4 189.148 148.053 188.588 149.36C188.055 150.667 187.921 152.52 188.188 154.92L183.588 154.28C183.321 152.84 183.428 151.493 183.908 150.24C184.415 148.987 185.308 147.973 186.588 147.2C187.868 146.4 189.548 146 191.628 146C193.628 146 195.241 146.333 196.468 147C197.721 147.64 198.641 148.48 199.228 149.52C199.815 150.56 200.108 151.667 200.108 152.84C200.108 153.987 199.908 154.96 199.508 155.76C199.108 156.533 198.588 157.2 197.948 157.76C197.335 158.293 196.681 158.787 195.988 159.24C195.295 159.693 194.641 160.173 194.028 160.68C193.441 161.16 192.988 161.733 192.668 162.4C192.348 163.04 192.241 163.853 192.348 164.84L192.428 165.52ZM191.348 174C190.521 174 189.841 173.747 189.308 173.24C188.801 172.707 188.548 172.013 188.548 171.16C188.548 170.307 188.801 169.627 189.308 169.12C189.841 168.613 190.521 168.36 191.348 168.36C192.175 168.36 192.855 168.613 193.388 169.12C193.921 169.627 194.188 170.307 194.188 171.16C194.188 172.013 193.921 172.707 193.388 173.24C192.855 173.747 192.175 174 191.348 174Z" fill="white"/>
</svg>
