<svg width="767" height="62" viewBox="0 0 767 62" fill="none" xmlns="http://www.w3.org/2000/svg">
<g filter="url(#filter0_n_48_1408)">
<path d="M12.768 20.216V21H5.09603V20.216L6.63603 20.02C6.9347 19.9827 7.11203 19.908 7.16803 19.796C7.22403 19.6653 7.25203 19.2827 7.25203 18.648V12.852L2.80003 4.312C2.57603 3.88267 2.40803 3.584 2.29603 3.416C2.18403 3.22933 2.07203 3.108 1.96003 3.052C1.8667 2.996 1.7267 2.95867 1.54003 2.94L2.92771e-05 2.744V1.96H7.98003V2.744L6.44003 2.94C6.16003 2.97733 6.02003 3.06133 6.02003 3.192C6.02003 3.304 6.16936 3.67733 6.46803 4.312L10.08 11.536L13.832 4.312C14.1494 3.696 14.2987 3.32267 14.28 3.192C14.28 3.06133 14.14 2.97733 13.86 2.94L12.32 2.744V1.96H17.78V2.744L16.24 2.94C16.0534 2.95867 15.904 2.996 15.792 3.052C15.6987 3.108 15.596 3.22933 15.484 3.416C15.3907 3.584 15.232 3.88267 15.008 4.312L10.612 12.796V18.648C10.612 19.2827 10.64 19.6653 10.696 19.796C10.752 19.908 10.9294 19.9827 11.228 20.02L12.768 20.216ZM34.8786 13.608V14.168C34.8786 16.3147 34.3186 18.0413 33.1986 19.348C32.0973 20.636 30.52 21.28 28.4666 21.28C26.4133 21.28 24.8266 20.636 23.7066 19.348C22.6053 18.0413 22.0546 16.3147 22.0546 14.168V13.608C22.0546 11.4613 22.6053 9.744 23.7066 8.456C24.8266 7.168 26.4133 6.524 28.4666 6.524C30.52 6.524 32.0973 7.168 33.1986 8.456C34.3186 9.744 34.8786 11.4613 34.8786 13.608ZM31.4346 13.048C31.4346 11.0507 31.1826 9.632 30.6786 8.792C30.1746 7.93333 29.4373 7.504 28.4666 7.504C27.5146 7.504 26.7773 7.93333 26.2546 8.792C25.7506 9.632 25.4986 11.0507 25.4986 13.048V14.728C25.4986 16.7067 25.7506 18.1347 26.2546 19.012C26.7773 19.8707 27.5146 20.3 28.4666 20.3C29.4373 20.3 30.1746 19.8707 30.6786 19.012C31.1826 18.1347 31.4346 16.7067 31.4346 14.728V13.048ZM57.6013 20.216V21H52.3933V18.536C51.8706 19.488 51.1986 20.188 50.3773 20.636C49.5559 21.0653 48.7253 21.28 47.8853 21.28C46.5599 21.28 45.5053 20.8413 44.7213 19.964C43.9373 19.068 43.5453 17.8267 43.5453 16.24V9.156C43.5453 8.52133 43.5173 8.148 43.4613 8.036C43.4053 7.90533 43.2279 7.82133 42.9293 7.784L41.3893 7.588V6.804H46.7653V16.212C46.7653 17.5 46.9426 18.4427 47.2973 19.04C47.6706 19.6187 48.2026 19.908 48.8933 19.908C49.1919 19.908 49.5373 19.8333 49.9293 19.684C50.3399 19.516 50.7506 19.2267 51.1613 18.816C51.5719 18.3867 51.9266 17.78 52.2253 16.996V9.156C52.2253 8.52133 52.1973 8.13867 52.1413 8.008C52.0853 7.87733 51.9079 7.80267 51.6093 7.784L49.5093 7.588V6.804H55.4453V18.648C55.4453 19.2827 55.4733 19.6653 55.5293 19.796C55.5853 19.908 55.7626 19.9827 56.0613 20.02L57.6013 20.216ZM67.8156 3.892C67.8156 4.60133 67.5729 5.46 67.0876 6.468C66.6209 7.45733 65.9116 8.50267 64.9596 9.604L64.3156 9.044C64.9503 8.27867 65.3889 7.59733 65.6316 7C65.8929 6.40267 66.0329 5.852 66.0516 5.348H65.9676C65.4263 5.348 64.9876 5.18 64.6516 4.844C64.3156 4.508 64.1476 4.06 64.1476 3.5C64.1476 2.95867 64.3156 2.52 64.6516 2.184C64.9876 1.848 65.4263 1.68 65.9676 1.68C66.5089 1.68 66.9476 1.876 67.2836 2.268C67.6383 2.64133 67.8156 3.18267 67.8156 3.892ZM74.9523 7.588V6.804H80.1603V9.1C81.299 7.38267 82.6523 6.524 84.2203 6.524C84.799 6.524 85.359 6.71067 85.9003 7.084C86.4416 7.43867 86.8896 8.11067 87.2443 9.1L84.7523 10.444C84.491 9.67867 84.183 9.16533 83.8283 8.904C83.4923 8.624 83.1283 8.484 82.7363 8.484C82.3256 8.484 81.9243 8.61467 81.5323 8.876C81.1403 9.13733 80.739 9.62267 80.3283 10.332V18.648C80.3283 19.2827 80.3563 19.6653 80.4123 19.796C80.4683 19.908 80.6456 19.9827 80.9443 20.02L83.0443 20.216V21H74.9523V20.216L76.4923 20.02C76.791 19.9827 76.9683 19.908 77.0243 19.796C77.0803 19.6653 77.1083 19.2827 77.1083 18.648V9.156C77.1083 8.52133 77.0803 8.148 77.0243 8.036C76.9683 7.90533 76.791 7.82133 76.4923 7.784L74.9523 7.588ZM104.864 17.668C104.528 18.9747 103.902 19.908 102.988 20.468C102.073 21.0093 101.009 21.28 99.7958 21.28C97.5558 21.28 95.8758 20.636 94.7558 19.348C93.6358 18.0413 93.0758 16.3147 93.0758 14.168V13.608C93.0758 11.4613 93.5984 9.744 94.6438 8.456C95.7078 7.168 97.2384 6.524 99.2358 6.524C100.356 6.524 101.345 6.748 102.204 7.196C103.081 7.62533 103.762 8.25067 104.248 9.072C104.752 9.89333 105.004 10.892 105.004 12.068C105.004 12.348 104.985 12.6467 104.948 12.964C104.929 13.2813 104.882 13.5987 104.808 13.916H96.5198V14.728C96.5198 16.7067 96.7998 18.1347 97.3598 19.012C97.9198 19.8707 98.8251 20.3 100.076 20.3C100.878 20.3 101.56 20.0667 102.12 19.6C102.68 19.1147 102.997 18.3027 103.072 17.164L104.864 17.668ZM99.2358 7.504C98.3211 7.504 97.6398 7.924 97.1918 8.764C96.7438 9.604 96.5198 10.9947 96.5198 12.936H101.588C101.662 12.5627 101.709 12.2173 101.728 11.9C101.765 11.564 101.784 11.256 101.784 10.976C101.784 9.78133 101.55 8.904 101.084 8.344C100.617 7.784 100.001 7.504 99.2358 7.504ZM139.134 20.216V21H131.602V20.216L133.142 20.02C133.44 19.9827 133.618 19.908 133.674 19.796C133.73 19.6653 133.758 19.2827 133.758 18.648V11.592C133.758 10.304 133.562 9.37067 133.17 8.792C132.796 8.19467 132.236 7.896 131.49 7.896C131.172 7.896 130.799 7.98 130.37 8.148C129.959 8.29733 129.539 8.57733 129.11 8.988C128.699 9.39867 128.335 10.0053 128.018 10.808V18.648C128.018 19.2827 128.046 19.6653 128.102 19.796C128.158 19.908 128.335 19.9827 128.634 20.02L130.174 20.216V21H122.642V20.216L124.182 20.02C124.48 19.9827 124.658 19.908 124.714 19.796C124.77 19.6653 124.798 19.2827 124.798 18.648V2.632C124.798 1.99733 124.77 1.624 124.714 1.512C124.658 1.38133 124.48 1.29733 124.182 1.26L122.642 1.064V0.28H128.018V8.988C128.559 8.12933 129.231 7.504 130.034 7.112C130.855 6.72 131.676 6.524 132.498 6.524C133.879 6.524 134.971 6.96267 135.774 7.84C136.576 8.71733 136.978 9.95867 136.978 11.564V18.648C136.978 19.2827 137.006 19.6653 137.062 19.796C137.118 19.908 137.295 19.9827 137.594 20.02L139.134 20.216ZM160.728 20.216V21H155.52V18.536C154.997 19.488 154.325 20.188 153.504 20.636C152.682 21.0653 151.852 21.28 151.012 21.28C149.686 21.28 148.632 20.8413 147.848 19.964C147.064 19.068 146.672 17.8267 146.672 16.24V9.156C146.672 8.52133 146.644 8.148 146.588 8.036C146.532 7.90533 146.354 7.82133 146.056 7.784L144.516 7.588V6.804H149.892V16.212C149.892 17.5 150.069 18.4427 150.424 19.04C150.797 19.6187 151.329 19.908 152.02 19.908C152.318 19.908 152.664 19.8333 153.056 19.684C153.466 19.516 153.877 19.2267 154.288 18.816C154.698 18.3867 155.053 17.78 155.352 16.996V9.156C155.352 8.52133 155.324 8.13867 155.268 8.008C155.212 7.87733 155.034 7.80267 154.736 7.784L152.636 7.588V6.804H158.572V18.648C158.572 19.2827 158.6 19.6653 158.656 19.796C158.712 19.908 158.889 19.9827 159.188 20.02L160.728 20.216ZM183.084 20.216V21H175.552V20.216L177.092 20.02C177.391 19.9827 177.568 19.908 177.624 19.796C177.68 19.6653 177.708 19.2827 177.708 18.648V11.592C177.708 10.304 177.512 9.37067 177.12 8.792C176.747 8.19467 176.187 7.896 175.44 7.896C175.123 7.896 174.749 7.98 174.32 8.148C173.909 8.29733 173.489 8.57733 173.06 8.988C172.649 9.39867 172.285 10.0053 171.968 10.808V18.648C171.968 19.2827 171.996 19.6653 172.052 19.796C172.108 19.908 172.285 19.9827 172.584 20.02L174.124 20.216V21H166.592V20.216L168.132 20.02C168.431 19.9827 168.608 19.908 168.664 19.796C168.72 19.6653 168.748 19.2827 168.748 18.648V9.156C168.748 8.52133 168.72 8.148 168.664 8.036C168.608 7.90533 168.431 7.82133 168.132 7.784L166.592 7.588V6.804H171.8V9.268C172.341 8.316 173.032 7.62533 173.872 7.196C174.731 6.748 175.589 6.524 176.448 6.524C177.829 6.524 178.921 6.96267 179.724 7.84C180.527 8.71733 180.928 9.95867 180.928 11.564V18.648C180.928 19.2827 180.956 19.6653 181.012 19.796C181.068 19.908 181.245 19.9827 181.544 20.02L183.084 20.216ZM202.461 22.456C202.461 23.9867 201.883 25.1627 200.725 25.984C199.587 26.824 198.019 27.244 196.021 27.244C193.819 27.244 192.176 26.88 191.093 26.152C190.011 25.4427 189.423 24.556 189.329 23.492L192.325 23.016C192.251 24.0053 192.484 24.7893 193.025 25.368C193.585 25.9653 194.584 26.264 196.021 26.264C197.365 26.264 198.448 26.012 199.269 25.508C200.109 25.004 200.529 24.276 200.529 23.324C200.529 22.652 200.277 22.1387 199.773 21.784C199.288 21.448 198.476 21.28 197.337 21.28H194.145C193.156 21.28 192.372 21.14 191.793 20.86C191.233 20.58 190.841 20.2347 190.617 19.824C190.393 19.3947 190.281 18.956 190.281 18.508C190.281 17.9667 190.431 17.4347 190.729 16.912C191.028 16.3707 191.541 15.8387 192.269 15.316C191.467 14.9613 190.813 14.4387 190.309 13.748C189.805 13.0573 189.553 12.1987 189.553 11.172C189.553 10.1267 189.796 9.268 190.281 8.596C190.767 7.90533 191.42 7.392 192.241 7.056C193.063 6.70133 193.977 6.524 194.985 6.524H195.461C196.544 6.524 197.477 6.70133 198.261 7.056L202.293 5.068L202.629 7.812H199.437C199.885 8.204 200.231 8.68 200.473 9.24C200.735 9.78133 200.865 10.4253 200.865 11.172C200.865 12.18 200.623 13.0293 200.137 13.72C199.652 14.4107 198.999 14.9333 198.177 15.288C197.375 15.6427 196.469 15.82 195.461 15.82H194.985C194.425 15.82 193.875 15.764 193.333 15.652C192.867 15.9693 192.54 16.2773 192.353 16.576C192.185 16.856 192.101 17.1267 192.101 17.388C192.101 17.6867 192.232 17.9107 192.493 18.06C192.773 18.2093 193.221 18.284 193.837 18.284H197.477C199.083 18.284 200.315 18.648 201.173 19.376C202.032 20.0853 202.461 21.112 202.461 22.456ZM195.461 14.84C196.059 14.84 196.572 14.5787 197.001 14.056C197.431 13.5333 197.645 12.572 197.645 11.172C197.645 9.772 197.431 8.81067 197.001 8.288C196.572 7.76533 196.059 7.504 195.461 7.504H194.985C194.388 7.504 193.865 7.76533 193.417 8.288C192.988 8.81067 192.773 9.772 192.773 11.172C192.773 12.572 192.988 13.5333 193.417 14.056C193.865 14.5787 194.388 14.84 194.985 14.84H195.461ZM208.46 7.588V6.804H213.668V9.1C214.806 7.38267 216.16 6.524 217.728 6.524C218.306 6.524 218.866 6.71067 219.408 7.084C219.949 7.43867 220.397 8.11067 220.752 9.1L218.26 10.444C217.998 9.67867 217.69 9.16533 217.336 8.904C217 8.624 216.636 8.484 216.244 8.484C215.833 8.484 215.432 8.61467 215.04 8.876C214.648 9.13733 214.246 9.62267 213.836 10.332V18.648C213.836 19.2827 213.864 19.6653 213.92 19.796C213.976 19.908 214.153 19.9827 214.452 20.02L216.552 20.216V21H208.46V20.216L210 20.02C210.298 19.9827 210.476 19.908 210.532 19.796C210.588 19.6653 210.616 19.2827 210.616 18.648V9.156C210.616 8.52133 210.588 8.148 210.532 8.036C210.476 7.90533 210.298 7.82133 210 7.784L208.46 7.588ZM233.993 22.4C233.564 23.576 233.088 24.5187 232.565 25.228C232.061 25.9373 231.436 26.4507 230.689 26.768C229.943 27.0853 229.009 27.244 227.889 27.244V24.164C229.028 24.164 229.943 24.08 230.633 23.912C231.343 23.7627 231.884 23.5107 232.257 23.156C232.649 22.82 232.939 22.3813 233.125 21.84L233.405 21H231.949L227.973 9.156C227.843 8.72667 227.731 8.428 227.637 8.26C227.563 8.07333 227.469 7.952 227.357 7.896C227.264 7.84 227.115 7.80267 226.909 7.784L225.369 7.588V6.804H232.929V7.588L231.389 7.784C231.165 7.80267 231.025 7.87733 230.969 8.008C230.932 8.12 231.016 8.50267 231.221 9.156L234.273 18.396L237.437 9.044C237.643 8.44667 237.727 8.10133 237.689 8.008C237.671 7.896 237.521 7.82133 237.241 7.784L235.701 7.588V6.804H241.049V7.588L239.509 7.784C239.229 7.82133 239.043 7.896 238.949 8.008C238.856 8.12 238.707 8.46533 238.501 9.044L233.993 22.4ZM271.61 20.3C271.311 20.58 270.947 20.8133 270.518 21C270.107 21.1867 269.603 21.28 269.006 21.28C268.24 21.28 267.596 21.112 267.074 20.776C266.57 20.44 266.234 19.964 266.066 19.348C265.45 20.02 264.768 20.5147 264.022 20.832C263.294 21.1307 262.547 21.28 261.782 21.28C260.494 21.28 259.532 20.9253 258.898 20.216C258.263 19.488 257.946 18.5827 257.946 17.5C257.946 16.3987 258.347 15.512 259.15 14.84C259.952 14.1493 261.371 13.804 263.406 13.804H265.954V11.536C265.954 9.98667 265.748 8.932 265.338 8.372C264.946 7.79333 264.395 7.504 263.686 7.504C263.219 7.504 262.79 7.62533 262.398 7.868C262.006 8.092 261.726 8.52133 261.558 9.156C261.408 9.772 261.436 10.668 261.642 11.844L258.562 11.396C258.412 10.5373 258.506 9.744 258.842 9.016C259.196 8.26933 259.784 7.672 260.606 7.224C261.427 6.75733 262.472 6.524 263.742 6.524C265.179 6.524 266.29 6.75733 267.074 7.224C267.858 7.69067 268.399 8.30667 268.698 9.072C269.015 9.83733 269.174 10.6587 269.174 11.536V18.004C269.174 18.956 269.258 19.5533 269.426 19.796C269.594 20.0387 269.78 20.16 269.986 20.16C270.322 20.16 270.695 19.964 271.106 19.572L271.61 20.3ZM263.014 19.796C263.499 19.796 263.975 19.6747 264.442 19.432C264.927 19.1707 265.431 18.6947 265.954 18.004V14.784H263.854C262.939 14.784 262.276 14.9987 261.866 15.428C261.455 15.8573 261.25 16.5293 261.25 17.444C261.25 18.1907 261.399 18.7693 261.698 19.18C261.996 19.5907 262.435 19.796 263.014 19.796ZM293.648 20.216V21H286.116V20.216L287.656 20.02C287.955 19.9827 288.132 19.908 288.188 19.796C288.244 19.6653 288.272 19.2827 288.272 18.648V11.592C288.272 10.304 288.076 9.37067 287.684 8.792C287.311 8.19467 286.751 7.896 286.004 7.896C285.687 7.896 285.313 7.98 284.884 8.148C284.473 8.29733 284.053 8.57733 283.624 8.988C283.213 9.39867 282.849 10.0053 282.532 10.808V18.648C282.532 19.2827 282.56 19.6653 282.616 19.796C282.672 19.908 282.849 19.9827 283.148 20.02L284.688 20.216V21H277.156V20.216L278.696 20.02C278.995 19.9827 279.172 19.908 279.228 19.796C279.284 19.6653 279.312 19.2827 279.312 18.648V9.156C279.312 8.52133 279.284 8.148 279.228 8.036C279.172 7.90533 278.995 7.82133 278.696 7.784L277.156 7.588V6.804H282.364V9.268C282.905 8.316 283.596 7.62533 284.436 7.196C285.295 6.748 286.153 6.524 287.012 6.524C288.393 6.524 289.485 6.96267 290.288 7.84C291.091 8.71733 291.492 9.95867 291.492 11.564V18.648C291.492 19.2827 291.52 19.6653 291.576 19.796C291.632 19.908 291.809 19.9827 292.108 20.02L293.648 20.216ZM314.649 20.216V21H309.441V18.676C308.919 19.5347 308.331 20.188 307.677 20.636C307.043 21.0653 306.287 21.28 305.409 21.28C303.841 21.28 302.591 20.664 301.657 19.432C300.743 18.1813 300.285 16.436 300.285 14.196V13.636C300.285 11.4707 300.817 9.744 301.881 8.456C302.964 7.168 304.439 6.524 306.305 6.524C307.425 6.524 308.415 6.804 309.273 7.364V2.632C309.273 1.99733 309.245 1.624 309.189 1.512C309.133 1.38133 308.956 1.29733 308.657 1.26L307.117 1.064V0.28H312.493V18.648C312.493 19.2827 312.521 19.6653 312.577 19.796C312.633 19.908 312.811 19.9827 313.109 20.02L314.649 20.216ZM303.729 15.036C303.729 16.772 303.944 18.0413 304.373 18.844C304.803 19.6467 305.391 20.048 306.137 20.048C306.604 20.048 307.089 19.8613 307.593 19.488C308.116 19.096 308.676 18.312 309.273 17.136V8.68C308.564 7.97067 307.696 7.616 306.669 7.616C305.643 7.616 304.896 8.08267 304.429 9.016C303.963 9.93067 303.729 11.1907 303.729 12.796V15.036ZM345.186 22.456C345.186 23.9867 344.607 25.1627 343.45 25.984C342.311 26.824 340.743 27.244 338.746 27.244C336.543 27.244 334.901 26.88 333.818 26.152C332.735 25.4427 332.147 24.556 332.054 23.492L335.05 23.016C334.975 24.0053 335.209 24.7893 335.75 25.368C336.31 25.9653 337.309 26.264 338.746 26.264C340.09 26.264 341.173 26.012 341.994 25.508C342.834 25.004 343.254 24.276 343.254 23.324C343.254 22.652 343.002 22.1387 342.498 21.784C342.013 21.448 341.201 21.28 340.062 21.28H336.87C335.881 21.28 335.097 21.14 334.518 20.86C333.958 20.58 333.566 20.2347 333.342 19.824C333.118 19.3947 333.006 18.956 333.006 18.508C333.006 17.9667 333.155 17.4347 333.454 16.912C333.753 16.3707 334.266 15.8387 334.994 15.316C334.191 14.9613 333.538 14.4387 333.034 13.748C332.53 13.0573 332.278 12.1987 332.278 11.172C332.278 10.1267 332.521 9.268 333.006 8.596C333.491 7.90533 334.145 7.392 334.966 7.056C335.787 6.70133 336.702 6.524 337.71 6.524H338.186C339.269 6.524 340.202 6.70133 340.986 7.056L345.018 5.068L345.354 7.812H342.162C342.61 8.204 342.955 8.68 343.198 9.24C343.459 9.78133 343.59 10.4253 343.59 11.172C343.59 12.18 343.347 13.0293 342.862 13.72C342.377 14.4107 341.723 14.9333 340.902 15.288C340.099 15.6427 339.194 15.82 338.186 15.82H337.71C337.15 15.82 336.599 15.764 336.058 15.652C335.591 15.9693 335.265 16.2773 335.078 16.576C334.91 16.856 334.826 17.1267 334.826 17.388C334.826 17.6867 334.957 17.9107 335.218 18.06C335.498 18.2093 335.946 18.284 336.562 18.284H340.202C341.807 18.284 343.039 18.648 343.898 19.376C344.757 20.0853 345.186 21.112 345.186 22.456ZM338.186 14.84C338.783 14.84 339.297 14.5787 339.726 14.056C340.155 13.5333 340.37 12.572 340.37 11.172C340.37 9.772 340.155 8.81067 339.726 8.288C339.297 7.76533 338.783 7.504 338.186 7.504H337.71C337.113 7.504 336.59 7.76533 336.142 8.288C335.713 8.81067 335.498 9.772 335.498 11.172C335.498 12.572 335.713 13.5333 336.142 14.056C336.59 14.5787 337.113 14.84 337.71 14.84H338.186ZM351.184 7.588V6.804H356.392V9.1C357.531 7.38267 358.884 6.524 360.452 6.524C361.031 6.524 361.591 6.71067 362.132 7.084C362.674 7.43867 363.122 8.11067 363.476 9.1L360.984 10.444C360.723 9.67867 360.415 9.16533 360.06 8.904C359.724 8.624 359.36 8.484 358.968 8.484C358.558 8.484 358.156 8.61467 357.764 8.876C357.372 9.13733 356.971 9.62267 356.56 10.332V18.648C356.56 19.2827 356.588 19.6653 356.644 19.796C356.7 19.908 356.878 19.9827 357.176 20.02L359.276 20.216V21H351.184V20.216L352.724 20.02C353.023 19.9827 353.2 19.908 353.256 19.796C353.312 19.6653 353.34 19.2827 353.34 18.648V9.156C353.34 8.52133 353.312 8.148 353.256 8.036C353.2 7.90533 353.023 7.82133 352.724 7.784L351.184 7.588ZM384.754 20.216V21H379.546V18.536C379.023 19.488 378.351 20.188 377.53 20.636C376.709 21.0653 375.878 21.28 375.038 21.28C373.713 21.28 372.658 20.8413 371.874 19.964C371.09 19.068 370.698 17.8267 370.698 16.24V9.156C370.698 8.52133 370.67 8.148 370.614 8.036C370.558 7.90533 370.381 7.82133 370.082 7.784L368.542 7.588V6.804H373.918V16.212C373.918 17.5 374.095 18.4427 374.45 19.04C374.823 19.6187 375.355 19.908 376.046 19.908C376.345 19.908 376.69 19.8333 377.082 19.684C377.493 19.516 377.903 19.2267 378.314 18.816C378.725 18.3867 379.079 17.78 379.378 16.996V9.156C379.378 8.52133 379.35 8.13867 379.294 8.008C379.238 7.87733 379.061 7.80267 378.762 7.784L376.662 7.588V6.804H382.598V18.648C382.598 19.2827 382.626 19.6653 382.682 19.796C382.738 19.908 382.915 19.9827 383.214 20.02L384.754 20.216ZM406.83 20.216V21H399.298V20.216L400.838 20.02C401.137 19.9827 401.314 19.908 401.37 19.796C401.426 19.6653 401.454 19.2827 401.454 18.648V11.592C401.454 10.304 401.277 9.37067 400.922 8.792C400.568 8.19467 400.036 7.896 399.326 7.896C399.028 7.896 398.673 7.98 398.262 8.148C397.852 8.29733 397.441 8.57733 397.03 8.988C396.638 9.39867 396.293 10.0053 395.994 10.808V18.648C395.994 19.2827 396.022 19.6653 396.078 19.796C396.134 19.908 396.312 19.9827 396.61 20.02L398.15 20.216V21H390.618V20.216L392.158 20.02C392.457 19.9827 392.634 19.908 392.69 19.796C392.746 19.6653 392.774 19.2827 392.774 18.648V9.156C392.774 8.52133 392.746 8.148 392.69 8.036C392.634 7.90533 392.457 7.82133 392.158 7.784L390.618 7.588V6.804H395.826V9.268C396.349 8.316 397.021 7.62533 397.842 7.196C398.664 6.748 399.494 6.524 400.334 6.524C401.342 6.524 402.192 6.78533 402.882 7.308C403.592 7.812 404.096 8.54 404.394 9.492C404.898 8.44667 405.58 7.69067 406.438 7.224C407.297 6.75733 408.156 6.524 409.014 6.524C410.34 6.524 411.394 6.96267 412.178 7.84C412.962 8.71733 413.354 9.95867 413.354 11.564V18.648C413.354 19.2827 413.382 19.6653 413.438 19.796C413.494 19.908 413.672 19.9827 413.97 20.02L415.51 20.216V21H407.978V20.216L409.518 20.02C409.817 19.9827 409.994 19.908 410.05 19.796C410.106 19.6653 410.134 19.2827 410.134 18.648V11.592C410.134 10.304 409.957 9.37067 409.602 8.792C409.248 8.19467 408.716 7.896 408.006 7.896C407.708 7.896 407.353 7.98 406.942 8.148C406.532 8.29733 406.121 8.58667 405.71 9.016C405.3 9.44533 404.945 10.0707 404.646 10.892C404.665 10.9853 404.674 11.0973 404.674 11.228C404.674 11.34 404.674 11.452 404.674 11.564V18.648C404.674 19.2827 404.702 19.6653 404.758 19.796C404.814 19.908 404.992 19.9827 405.29 20.02L406.83 20.216ZM421.022 7.588V6.804H426.23V9.128C426.772 8.25067 427.36 7.59733 427.994 7.168C428.629 6.73867 429.385 6.524 430.262 6.524C431.83 6.524 433.072 7.14933 433.986 8.4C434.92 9.632 435.386 11.368 435.386 13.608V14.168C435.386 16.3333 434.854 18.06 433.79 19.348C432.726 20.636 431.252 21.28 429.366 21.28C428.246 21.28 427.257 21 426.398 20.44V24.612C426.398 25.2467 426.426 25.62 426.482 25.732C426.538 25.8627 426.716 25.9467 427.014 25.984L429.114 26.18V26.964H421.022V26.18L422.562 25.984C422.861 25.9467 423.038 25.8627 423.094 25.732C423.15 25.62 423.178 25.2467 423.178 24.612V9.156C423.178 8.52133 423.15 8.148 423.094 8.036C423.038 7.90533 422.861 7.82133 422.562 7.784L421.022 7.588ZM429.534 7.756C429.068 7.756 428.573 7.952 428.05 8.344C427.546 8.71733 426.996 9.492 426.398 10.668V19.124C427.108 19.8333 427.976 20.188 429.002 20.188C430.048 20.188 430.794 19.7307 431.242 18.816C431.709 17.8827 431.942 16.6133 431.942 15.008V12.768C431.942 11.032 431.728 9.76267 431.298 8.96C430.869 8.15733 430.281 7.756 429.534 7.756ZM449.35 22.4C448.92 23.576 448.444 24.5187 447.922 25.228C447.418 25.9373 446.792 26.4507 446.046 26.768C445.299 27.0853 444.366 27.244 443.246 27.244V24.164C444.384 24.164 445.299 24.08 445.99 23.912C446.699 23.7627 447.24 23.5107 447.614 23.156C448.006 22.82 448.295 22.3813 448.482 21.84L448.762 21H447.306L443.33 9.156C443.199 8.72667 443.087 8.428 442.994 8.26C442.919 8.07333 442.826 7.952 442.714 7.896C442.62 7.84 442.471 7.80267 442.266 7.784L440.726 7.588V6.804H448.286V7.588L446.746 7.784C446.522 7.80267 446.382 7.87733 446.326 8.008C446.288 8.12 446.372 8.50267 446.578 9.156L449.63 18.396L452.794 9.044C452.999 8.44667 453.083 8.10133 453.046 8.008C453.027 7.896 452.878 7.82133 452.598 7.784L451.058 7.588V6.804H456.406V7.588L454.866 7.784C454.586 7.82133 454.399 7.896 454.306 8.008C454.212 8.12 454.063 8.46533 453.858 9.044L449.35 22.4ZM462.334 21.28C461.755 21.28 461.279 21.1027 460.906 20.748C460.551 20.3747 460.374 19.8893 460.374 19.292C460.374 18.6947 460.551 18.2187 460.906 17.864C461.279 17.5093 461.755 17.332 462.334 17.332C462.912 17.332 463.388 17.5093 463.762 17.864C464.135 18.2187 464.322 18.6947 464.322 19.292C464.322 19.8893 464.135 20.3747 463.762 20.748C463.388 21.1027 462.912 21.28 462.334 21.28ZM499.28 21L494.688 5.712L490.348 21H487.912L484.02 4.312C483.927 3.88267 483.852 3.584 483.796 3.416C483.74 3.22933 483.656 3.108 483.544 3.052C483.451 2.996 483.302 2.95867 483.096 2.94L481.556 2.744V1.96H489.312V2.744L487.772 2.94C487.474 2.97733 487.315 3.052 487.296 3.164C487.278 3.276 487.334 3.65867 487.464 4.312L490.376 17.36L494.66 1.96H496.984L501.548 17.08L504.516 4.312C504.666 3.65867 504.722 3.276 504.684 3.164C504.647 3.052 504.488 2.97733 504.208 2.94L502.668 2.744V1.96H508.1V2.744L506.56 2.94C506.355 2.95867 506.206 2.996 506.112 3.052C506.019 3.108 505.935 3.22933 505.86 3.416C505.804 3.584 505.73 3.88267 505.636 4.312L501.744 21H499.28ZM529.674 20.216V21H522.142V20.216L523.682 20.02C523.98 19.9827 524.158 19.908 524.214 19.796C524.27 19.6653 524.298 19.2827 524.298 18.648V11.592C524.298 10.304 524.102 9.37067 523.71 8.792C523.336 8.19467 522.776 7.896 522.03 7.896C521.712 7.896 521.339 7.98 520.91 8.148C520.499 8.29733 520.079 8.57733 519.65 8.988C519.239 9.39867 518.875 10.0053 518.558 10.808V18.648C518.558 19.2827 518.586 19.6653 518.642 19.796C518.698 19.908 518.875 19.9827 519.174 20.02L520.714 20.216V21H513.182V20.216L514.722 20.02C515.02 19.9827 515.198 19.908 515.254 19.796C515.31 19.6653 515.338 19.2827 515.338 18.648V2.632C515.338 1.99733 515.31 1.624 515.254 1.512C515.198 1.38133 515.02 1.29733 514.722 1.26L513.182 1.064V0.28H518.558V8.988C519.099 8.12933 519.771 7.504 520.574 7.112C521.395 6.72 522.216 6.524 523.038 6.524C524.419 6.524 525.511 6.96267 526.314 7.84C527.116 8.71733 527.518 9.95867 527.518 11.564V18.648C527.518 19.2827 527.546 19.6653 527.602 19.796C527.658 19.908 527.835 19.9827 528.134 20.02L529.674 20.216ZM549.672 20.3C549.373 20.58 549.009 20.8133 548.58 21C548.169 21.1867 547.665 21.28 547.068 21.28C546.302 21.28 545.658 21.112 545.136 20.776C544.632 20.44 544.296 19.964 544.128 19.348C543.512 20.02 542.83 20.5147 542.084 20.832C541.356 21.1307 540.609 21.28 539.844 21.28C538.556 21.28 537.594 20.9253 536.96 20.216C536.325 19.488 536.008 18.5827 536.008 17.5C536.008 16.3987 536.409 15.512 537.212 14.84C538.014 14.1493 539.433 13.804 541.468 13.804H544.016V11.536C544.016 9.98667 543.81 8.932 543.4 8.372C543.008 7.79333 542.457 7.504 541.748 7.504C541.281 7.504 540.852 7.62533 540.46 7.868C540.068 8.092 539.788 8.52133 539.62 9.156C539.47 9.772 539.498 10.668 539.704 11.844L536.624 11.396C536.474 10.5373 536.568 9.744 536.904 9.016C537.258 8.26933 537.846 7.672 538.668 7.224C539.489 6.75733 540.534 6.524 541.804 6.524C543.241 6.524 544.352 6.75733 545.136 7.224C545.92 7.69067 546.461 8.30667 546.76 9.072C547.077 9.83733 547.236 10.6587 547.236 11.536V18.004C547.236 18.956 547.32 19.5533 547.488 19.796C547.656 20.0387 547.842 20.16 548.048 20.16C548.384 20.16 548.757 19.964 549.168 19.572L549.672 20.3ZM541.076 19.796C541.561 19.796 542.037 19.6747 542.504 19.432C542.989 19.1707 543.493 18.6947 544.016 18.004V14.784H541.916C541.001 14.784 540.338 14.9987 539.928 15.428C539.517 15.8573 539.312 16.5293 539.312 17.444C539.312 18.1907 539.461 18.7693 539.76 19.18C540.058 19.5907 540.497 19.796 541.076 19.796ZM565.186 18.088C564.943 19.2267 564.477 20.048 563.786 20.552C563.114 21.0373 562.293 21.28 561.322 21.28C560.333 21.28 559.521 21.0653 558.886 20.636C558.251 20.188 557.785 19.6 557.486 18.872C557.187 18.144 557.038 17.3693 557.038 16.548V9.156C557.038 8.52133 557.01 8.148 556.954 8.036C556.898 7.90533 556.721 7.82133 556.422 7.784L554.882 7.588V6.804H557.038V3.556L560.258 2.912V6.804H564.738V7.784H560.258V17.108C560.258 18.3027 560.407 19.1333 560.706 19.6C561.005 20.048 561.387 20.272 561.854 20.272C562.339 20.272 562.713 20.0853 562.974 19.712C563.254 19.3387 563.431 18.6573 563.506 17.668L565.186 18.088ZM590.139 20.216V21H582.047V20.216L583.587 20.02C583.885 19.9827 584.063 19.908 584.119 19.796C584.175 19.6653 584.203 19.2827 584.203 18.648V9.156C584.203 8.52133 584.175 8.148 584.119 8.036C584.063 7.90533 583.885 7.82133 583.587 7.784L582.047 7.588V6.804H584.203V5.292C584.203 4.396 584.352 3.54667 584.651 2.744C584.968 1.92267 585.491 1.26 586.219 0.755999C586.965 0.251998 587.964 -1.66893e-06 589.215 -1.66893e-06C590.353 -1.66893e-06 591.287 0.195999 592.015 0.587999C592.761 0.98 593.293 1.50267 593.611 2.156C593.947 2.80933 594.049 3.51867 593.919 4.284L590.839 4.732C591.025 3.332 590.969 2.36133 590.671 1.82C590.391 1.26 589.905 0.979999 589.215 0.979999C588.841 0.979999 588.515 1.08267 588.235 1.288C587.973 1.49333 587.768 1.86667 587.619 2.408C587.488 2.93067 587.423 3.70533 587.423 4.732V6.804H591.623V7.784H587.423V18.648C587.423 19.2827 587.451 19.6653 587.507 19.796C587.563 19.908 587.74 19.9827 588.039 20.02L590.139 20.216ZM610.341 13.608V14.168C610.341 16.3147 609.781 18.0413 608.661 19.348C607.56 20.636 605.982 21.28 603.929 21.28C601.876 21.28 600.289 20.636 599.169 19.348C598.068 18.0413 597.517 16.3147 597.517 14.168V13.608C597.517 11.4613 598.068 9.744 599.169 8.456C600.289 7.168 601.876 6.524 603.929 6.524C605.982 6.524 607.56 7.168 608.661 8.456C609.781 9.744 610.341 11.4613 610.341 13.608ZM606.897 13.048C606.897 11.0507 606.645 9.632 606.141 8.792C605.637 7.93333 604.9 7.504 603.929 7.504C602.977 7.504 602.24 7.93333 601.717 8.792C601.213 9.632 600.961 11.0507 600.961 13.048V14.728C600.961 16.7067 601.213 18.1347 601.717 19.012C602.24 19.8707 602.977 20.3 603.929 20.3C604.9 20.3 605.637 19.8707 606.141 19.012C606.645 18.1347 606.897 16.7067 606.897 14.728V13.048ZM630.824 13.608V14.168C630.824 16.3147 630.264 18.0413 629.144 19.348C628.042 20.636 626.465 21.28 624.412 21.28C622.358 21.28 620.772 20.636 619.652 19.348C618.55 18.0413 618 16.3147 618 14.168V13.608C618 11.4613 618.55 9.744 619.652 8.456C620.772 7.168 622.358 6.524 624.412 6.524C626.465 6.524 628.042 7.168 629.144 8.456C630.264 9.744 630.824 11.4613 630.824 13.608ZM627.38 13.048C627.38 11.0507 627.128 9.632 626.624 8.792C626.12 7.93333 625.382 7.504 624.412 7.504C623.46 7.504 622.722 7.93333 622.2 8.792C621.696 9.632 621.444 11.0507 621.444 13.048V14.728C621.444 16.7067 621.696 18.1347 622.2 19.012C622.722 19.8707 623.46 20.3 624.412 20.3C625.382 20.3 626.12 19.8707 626.624 19.012C627.128 18.1347 627.38 16.7067 627.38 14.728V13.048ZM652.958 20.216V21H647.75V18.676C647.228 19.5347 646.64 20.188 645.986 20.636C645.352 21.0653 644.596 21.28 643.718 21.28C642.15 21.28 640.9 20.664 639.966 19.432C639.052 18.1813 638.594 16.436 638.594 14.196V13.636C638.594 11.4707 639.126 9.744 640.19 8.456C641.273 7.168 642.748 6.524 644.614 6.524C645.734 6.524 646.724 6.804 647.582 7.364V2.632C647.582 1.99733 647.554 1.624 647.498 1.512C647.442 1.38133 647.265 1.29733 646.966 1.26L645.426 1.064V0.28H650.802V18.648C650.802 19.2827 650.83 19.6653 650.886 19.796C650.942 19.908 651.12 19.9827 651.418 20.02L652.958 20.216ZM642.038 15.036C642.038 16.772 642.253 18.0413 642.682 18.844C643.112 19.6467 643.7 20.048 644.446 20.048C644.913 20.048 645.398 19.8613 645.902 19.488C646.425 19.096 646.985 18.312 647.582 17.136V8.68C646.873 7.97067 646.005 7.616 644.978 7.616C643.952 7.616 643.205 8.08267 642.738 9.016C642.272 9.93067 642.038 11.1907 642.038 12.796V15.036ZM689.207 9.156L686.155 21H683.607L680.247 9.744L676.859 21H674.535L671.511 9.156C671.399 8.72667 671.306 8.428 671.231 8.26C671.175 8.07333 671.1 7.952 671.007 7.896C670.914 7.84 670.774 7.80267 670.587 7.784L669.047 7.588V6.804H676.495V7.588L674.955 7.784C674.656 7.82133 674.488 7.90533 674.451 8.036C674.414 8.148 674.479 8.52133 674.647 9.156L676.831 17.584L680.051 6.804H682.515L685.847 18.06L688.115 9.156C688.283 8.52133 688.348 8.148 688.311 8.036C688.274 7.90533 688.106 7.82133 687.807 7.784L686.267 7.588V6.804H691.671V7.588L690.131 7.784C689.944 7.80267 689.804 7.84 689.711 7.896C689.618 7.952 689.534 8.07333 689.459 8.26C689.403 8.428 689.319 8.72667 689.207 9.156ZM709.856 13.608V14.168C709.856 16.3147 709.296 18.0413 708.176 19.348C707.074 20.636 705.497 21.28 703.444 21.28C701.39 21.28 699.804 20.636 698.684 19.348C697.582 18.0413 697.032 16.3147 697.032 14.168V13.608C697.032 11.4613 697.582 9.744 698.684 8.456C699.804 7.168 701.39 6.524 703.444 6.524C705.497 6.524 707.074 7.168 708.176 8.456C709.296 9.744 709.856 11.4613 709.856 13.608ZM706.412 13.048C706.412 11.0507 706.16 9.632 705.656 8.792C705.152 7.93333 704.414 7.504 703.444 7.504C702.492 7.504 701.754 7.93333 701.232 8.792C700.728 9.632 700.476 11.0507 700.476 13.048V14.728C700.476 16.7067 700.728 18.1347 701.232 19.012C701.754 19.8707 702.492 20.3 703.444 20.3C704.414 20.3 705.152 19.8707 705.656 19.012C706.16 18.1347 706.412 16.7067 706.412 14.728V13.048ZM732.578 20.216V21H727.37V18.536C726.848 19.488 726.176 20.188 725.354 20.636C724.533 21.0653 723.702 21.28 722.862 21.28C721.537 21.28 720.482 20.8413 719.698 19.964C718.914 19.068 718.522 17.8267 718.522 16.24V9.156C718.522 8.52133 718.494 8.148 718.438 8.036C718.382 7.90533 718.205 7.82133 717.906 7.784L716.366 7.588V6.804H721.742V16.212C721.742 17.5 721.92 18.4427 722.274 19.04C722.648 19.6187 723.18 19.908 723.87 19.908C724.169 19.908 724.514 19.8333 724.906 19.684C725.317 19.516 725.728 19.2267 726.138 18.816C726.549 18.3867 726.904 17.78 727.202 16.996V9.156C727.202 8.52133 727.174 8.13867 727.118 8.008C727.062 7.87733 726.885 7.80267 726.586 7.784L724.486 7.588V6.804H730.422V18.648C730.422 19.2827 730.45 19.6653 730.506 19.796C730.562 19.908 730.74 19.9827 731.038 20.02L732.578 20.216ZM738.247 1.064V0.28H743.623V18.648C743.623 19.2827 743.651 19.6653 743.707 19.796C743.763 19.908 743.94 19.9827 744.239 20.02L745.779 20.216V21H738.247V20.216L739.787 20.02C740.086 19.9827 740.263 19.908 740.319 19.796C740.375 19.6653 740.403 19.2827 740.403 18.648V2.632C740.403 1.99733 740.375 1.624 740.319 1.512C740.263 1.38133 740.086 1.29733 739.787 1.26L738.247 1.064ZM766.913 20.216V21H761.705V18.676C761.182 19.5347 760.594 20.188 759.941 20.636C759.306 21.0653 758.55 21.28 757.673 21.28C756.105 21.28 754.854 20.664 753.921 19.432C753.006 18.1813 752.549 16.436 752.549 14.196V13.636C752.549 11.4707 753.081 9.744 754.145 8.456C755.228 7.168 756.702 6.524 758.569 6.524C759.689 6.524 760.678 6.804 761.537 7.364V2.632C761.537 1.99733 761.509 1.624 761.453 1.512C761.397 1.38133 761.22 1.29733 760.921 1.26L759.381 1.064V0.28H764.757V18.648C764.757 19.2827 764.785 19.6653 764.841 19.796C764.897 19.908 765.074 19.9827 765.373 20.02L766.913 20.216ZM755.993 15.036C755.993 16.772 756.208 18.0413 756.637 18.844C757.066 19.6467 757.654 20.048 758.401 20.048C758.868 20.048 759.353 19.8613 759.857 19.488C760.38 19.096 760.94 18.312 761.537 17.136V8.68C760.828 7.97067 759.96 7.616 758.933 7.616C757.906 7.616 757.16 8.08267 756.693 9.016C756.226 9.93067 755.993 11.1907 755.993 12.796V15.036ZM7.86803 41.504C6.97203 41.504 6.30003 41.9333 5.85203 42.792C5.4227 43.632 5.20803 45.0507 5.20803 47.048V48.728C5.20803 50.7067 5.46003 52.1347 5.96403 53.012C6.46803 53.8707 7.28936 54.3 8.42803 54.3C9.26803 54.3 9.94936 54.0667 10.472 53.6C11.0134 53.1147 11.3214 52.3027 11.396 51.164L13.188 51.668C12.852 52.9747 12.236 53.908 11.34 54.468C10.4627 55.0093 9.4267 55.28 8.23203 55.28C6.08536 55.28 4.4707 54.636 3.38803 53.348C2.30536 52.0413 1.76403 50.3147 1.76403 48.168V47.608C1.76403 45.4613 2.2867 43.744 3.33203 42.456C4.37736 41.168 5.88936 40.524 7.86803 40.524C9.1747 40.524 10.2387 40.7853 11.06 41.308C11.9 41.812 12.488 42.484 12.824 43.324C13.1787 44.1453 13.272 45.032 13.104 45.984L10.024 46.432C10.2294 44.864 10.1454 43.6507 9.77203 42.792C9.3987 41.9333 8.76403 41.504 7.86803 41.504ZM33.4021 47.608V48.168C33.4021 50.3147 32.8421 52.0413 31.7221 53.348C30.6207 54.636 29.0434 55.28 26.9901 55.28C24.9367 55.28 23.3501 54.636 22.2301 53.348C21.1287 52.0413 20.5781 50.3147 20.5781 48.168V47.608C20.5781 45.4613 21.1287 43.744 22.2301 42.456C23.3501 41.168 24.9367 40.524 26.9901 40.524C29.0434 40.524 30.6207 41.168 31.7221 42.456C32.8421 43.744 33.4021 45.4613 33.4021 47.608ZM29.9581 47.048C29.9581 45.0507 29.7061 43.632 29.2021 42.792C28.6981 41.9333 27.9607 41.504 26.9901 41.504C26.0381 41.504 25.3007 41.9333 24.7781 42.792C24.2741 43.632 24.0221 45.0507 24.0221 47.048V48.728C24.0221 50.7067 24.2741 52.1347 24.7781 53.012C25.3007 53.8707 26.0381 54.3 26.9901 54.3C27.9607 54.3 28.6981 53.8707 29.2021 53.012C29.7061 52.1347 29.9581 50.7067 29.9581 48.728V47.048ZM56.4607 54.216V55H48.9287V54.216L50.4687 54.02C50.7674 53.9827 50.9447 53.908 51.0007 53.796C51.0567 53.6653 51.0847 53.2827 51.0847 52.648V45.592C51.0847 44.304 50.9074 43.3707 50.5527 42.792C50.1981 42.1947 49.6661 41.896 48.9567 41.896C48.6581 41.896 48.3034 41.98 47.8927 42.148C47.4821 42.2973 47.0714 42.5773 46.6607 42.988C46.2687 43.3987 45.9234 44.0053 45.6247 44.808V52.648C45.6247 53.2827 45.6527 53.6653 45.7087 53.796C45.7647 53.908 45.9421 53.9827 46.2407 54.02L47.7807 54.216V55H40.2487V54.216L41.7887 54.02C42.0874 53.9827 42.2647 53.908 42.3207 53.796C42.3767 53.6653 42.4047 53.2827 42.4047 52.648V43.156C42.4047 42.5213 42.3767 42.148 42.3207 42.036C42.2647 41.9053 42.0874 41.8213 41.7887 41.784L40.2487 41.588V40.804H45.4567V43.268C45.9794 42.316 46.6514 41.6253 47.4727 41.196C48.2941 40.748 49.1247 40.524 49.9647 40.524C50.9727 40.524 51.8221 40.7853 52.5127 41.308C53.2221 41.812 53.7261 42.54 54.0247 43.492C54.5287 42.4467 55.2101 41.6907 56.0687 41.224C56.9274 40.7573 57.7861 40.524 58.6447 40.524C59.9701 40.524 61.0247 40.9627 61.8087 41.84C62.5927 42.7173 62.9847 43.9587 62.9847 45.564V52.648C62.9847 53.2827 63.0127 53.6653 63.0687 53.796C63.1247 53.908 63.3021 53.9827 63.6007 54.02L65.1407 54.216V55H57.6087V54.216L59.1487 54.02C59.4474 53.9827 59.6247 53.908 59.6807 53.796C59.7367 53.6653 59.7647 53.2827 59.7647 52.648V45.592C59.7647 44.304 59.5874 43.3707 59.2327 42.792C58.8781 42.1947 58.3461 41.896 57.6367 41.896C57.3381 41.896 56.9834 41.98 56.5727 42.148C56.1621 42.2973 55.7514 42.5867 55.3407 43.016C54.9301 43.4453 54.5754 44.0707 54.2767 44.892C54.2954 44.9853 54.3047 45.0973 54.3047 45.228C54.3047 45.34 54.3047 45.452 54.3047 45.564V52.648C54.3047 53.2827 54.3327 53.6653 54.3887 53.796C54.4447 53.908 54.6221 53.9827 54.9207 54.02L56.4607 54.216ZM78.9406 54.216V55H70.8486V54.216L72.3886 54.02C72.6872 53.9827 72.8646 53.908 72.9206 53.796C72.9766 53.6653 73.0046 53.2827 73.0046 52.648V43.156C73.0046 42.5213 72.9766 42.148 72.9206 42.036C72.8646 41.9053 72.6872 41.8213 72.3886 41.784L70.8486 41.588V40.804H73.0046V39.292C73.0046 38.396 73.1539 37.5467 73.4526 36.744C73.7699 35.9227 74.2926 35.26 75.0206 34.756C75.7672 34.252 76.7659 34 78.0166 34C79.1552 34 80.0886 34.196 80.8166 34.588C81.5632 34.98 82.0952 35.5027 82.4126 36.156C82.7486 36.8093 82.8512 37.5187 82.7206 38.284L79.6406 38.732C79.8272 37.332 79.7712 36.3613 79.4726 35.82C79.1926 35.26 78.7072 34.98 78.0166 34.98C77.6432 34.98 77.3166 35.0827 77.0366 35.288C76.7752 35.4933 76.5699 35.8667 76.4206 36.408C76.2899 36.9307 76.2246 37.7053 76.2246 38.732V40.804H80.4246V41.784H76.2246V52.648C76.2246 53.2827 76.2526 53.6653 76.3086 53.796C76.3646 53.908 76.5419 53.9827 76.8406 54.02L78.9406 54.216ZM99.143 47.608V48.168C99.143 50.3147 98.583 52.0413 97.463 53.348C96.3617 54.636 94.7843 55.28 92.731 55.28C90.6777 55.28 89.091 54.636 87.971 53.348C86.8697 52.0413 86.319 50.3147 86.319 48.168V47.608C86.319 45.4613 86.8697 43.744 87.971 42.456C89.091 41.168 90.6777 40.524 92.731 40.524C94.7843 40.524 96.3617 41.168 97.463 42.456C98.583 43.744 99.143 45.4613 99.143 47.608ZM95.699 47.048C95.699 45.0507 95.447 43.632 94.943 42.792C94.439 41.9333 93.7017 41.504 92.731 41.504C91.779 41.504 91.0417 41.9333 90.519 42.792C90.015 43.632 89.763 45.0507 89.763 47.048V48.728C89.763 50.7067 90.015 52.1347 90.519 53.012C91.0417 53.8707 91.779 54.3 92.731 54.3C93.7017 54.3 94.439 53.8707 94.943 53.012C95.447 52.1347 95.699 50.7067 95.699 48.728V47.048ZM105.99 41.588V40.804H111.198V43.1C112.336 41.3827 113.69 40.524 115.258 40.524C115.836 40.524 116.396 40.7107 116.938 41.084C117.479 41.4387 117.927 42.1107 118.282 43.1L115.79 44.444C115.528 43.6787 115.22 43.1653 114.866 42.904C114.53 42.624 114.166 42.484 113.774 42.484C113.363 42.484 112.962 42.6147 112.57 42.876C112.178 43.1373 111.776 43.6227 111.366 44.332V52.648C111.366 53.2827 111.394 53.6653 111.45 53.796C111.506 53.908 111.683 53.9827 111.982 54.02L114.082 54.216V55H105.99V54.216L107.53 54.02C107.828 53.9827 108.006 53.908 108.062 53.796C108.118 53.6653 108.146 53.2827 108.146 52.648V43.156C108.146 42.5213 108.118 42.148 108.062 42.036C108.006 41.9053 107.828 41.8213 107.53 41.784L105.99 41.588ZM133.651 52.088C133.409 53.2267 132.942 54.048 132.251 54.552C131.579 55.0373 130.758 55.28 129.787 55.28C128.798 55.28 127.986 55.0653 127.351 54.636C126.717 54.188 126.25 53.6 125.951 52.872C125.653 52.144 125.503 51.3693 125.503 50.548V43.156C125.503 42.5213 125.475 42.148 125.419 42.036C125.363 41.9053 125.186 41.8213 124.887 41.784L123.347 41.588V40.804H125.503V37.556L128.723 36.912V40.804H133.203V41.784H128.723V51.108C128.723 52.3027 128.873 53.1333 129.171 53.6C129.47 54.048 129.853 54.272 130.319 54.272C130.805 54.272 131.178 54.0853 131.439 53.712C131.719 53.3387 131.897 52.6573 131.971 51.668L133.651 52.088ZM158.352 56.4C157.923 57.576 157.447 58.5187 156.924 59.228C156.42 59.9373 155.795 60.4507 155.048 60.768C154.301 61.0853 153.368 61.244 152.248 61.244V58.164C153.387 58.164 154.301 58.08 154.992 57.912C155.701 57.7627 156.243 57.5107 156.616 57.156C157.008 56.82 157.297 56.3813 157.484 55.84L157.764 55H156.308L152.332 43.156C152.201 42.7267 152.089 42.428 151.996 42.26C151.921 42.0733 151.828 41.952 151.716 41.896C151.623 41.84 151.473 41.8027 151.268 41.784L149.728 41.588V40.804H157.288V41.588L155.748 41.784C155.524 41.8027 155.384 41.8773 155.328 42.008C155.291 42.12 155.375 42.5027 155.58 43.156L158.632 52.396L161.796 43.044C162.001 42.4467 162.085 42.1013 162.048 42.008C162.029 41.896 161.88 41.8213 161.6 41.784L160.06 41.588V40.804H165.408V41.588L163.868 41.784C163.588 41.8213 163.401 41.896 163.308 42.008C163.215 42.12 163.065 42.4653 162.86 43.044L158.352 56.4ZM183.318 47.608V48.168C183.318 50.3147 182.758 52.0413 181.638 53.348C180.537 54.636 178.959 55.28 176.906 55.28C174.853 55.28 173.266 54.636 172.146 53.348C171.045 52.0413 170.494 50.3147 170.494 48.168V47.608C170.494 45.4613 171.045 43.744 172.146 42.456C173.266 41.168 174.853 40.524 176.906 40.524C178.959 40.524 180.537 41.168 181.638 42.456C182.758 43.744 183.318 45.4613 183.318 47.608ZM179.874 47.048C179.874 45.0507 179.622 43.632 179.118 42.792C178.614 41.9333 177.877 41.504 176.906 41.504C175.954 41.504 175.217 41.9333 174.694 42.792C174.19 43.632 173.938 45.0507 173.938 47.048V48.728C173.938 50.7067 174.19 52.1347 174.694 53.012C175.217 53.8707 175.954 54.3 176.906 54.3C177.877 54.3 178.614 53.8707 179.118 53.012C179.622 52.1347 179.874 50.7067 179.874 48.728V47.048ZM206.041 54.216V55H200.833V52.536C200.31 53.488 199.638 54.188 198.817 54.636C197.995 55.0653 197.165 55.28 196.325 55.28C194.999 55.28 193.945 54.8413 193.161 53.964C192.377 53.068 191.985 51.8267 191.985 50.24V43.156C191.985 42.5213 191.957 42.148 191.901 42.036C191.845 41.9053 191.667 41.8213 191.369 41.784L189.829 41.588V40.804H195.205V50.212C195.205 51.5 195.382 52.4427 195.737 53.04C196.11 53.6187 196.642 53.908 197.333 53.908C197.631 53.908 197.977 53.8333 198.369 53.684C198.779 53.516 199.19 53.2267 199.601 52.816C200.011 52.3867 200.366 51.78 200.665 50.996V43.156C200.665 42.5213 200.637 42.1387 200.581 42.008C200.525 41.8773 200.347 41.8027 200.049 41.784L197.949 41.588V40.804H203.885V52.648C203.885 53.2827 203.913 53.6653 203.969 53.796C204.025 53.908 204.202 53.9827 204.501 54.02L206.041 54.216ZM232.895 52.088C232.652 53.2267 232.186 54.048 231.495 54.552C230.823 55.0373 230.002 55.28 229.031 55.28C228.042 55.28 227.23 55.0653 226.595 54.636C225.96 54.188 225.494 53.6 225.195 52.872C224.896 52.144 224.747 51.3693 224.747 50.548V43.156C224.747 42.5213 224.719 42.148 224.663 42.036C224.607 41.9053 224.43 41.8213 224.131 41.784L222.591 41.588V40.804H224.747V37.556L227.967 36.912V40.804H232.447V41.784H227.967V51.108C227.967 52.3027 228.116 53.1333 228.415 53.6C228.714 54.048 229.096 54.272 229.563 54.272C230.048 54.272 230.422 54.0853 230.683 53.712C230.963 53.3387 231.14 52.6573 231.215 51.668L232.895 52.088ZM255.03 54.216V55H247.498V54.216L249.038 54.02C249.336 53.9827 249.514 53.908 249.57 53.796C249.626 53.6653 249.654 53.2827 249.654 52.648V45.592C249.654 44.304 249.458 43.3707 249.066 42.792C248.692 42.1947 248.132 41.896 247.386 41.896C247.068 41.896 246.695 41.98 246.266 42.148C245.855 42.2973 245.435 42.5773 245.006 42.988C244.595 43.3987 244.231 44.0053 243.914 44.808V52.648C243.914 53.2827 243.942 53.6653 243.998 53.796C244.054 53.908 244.231 53.9827 244.53 54.02L246.07 54.216V55H238.538V54.216L240.078 54.02C240.376 53.9827 240.554 53.908 240.61 53.796C240.666 53.6653 240.694 53.2827 240.694 52.648V36.632C240.694 35.9973 240.666 35.624 240.61 35.512C240.554 35.3813 240.376 35.2973 240.078 35.26L238.538 35.064V34.28H243.914V42.988C244.455 42.1293 245.127 41.504 245.93 41.112C246.751 40.72 247.572 40.524 248.394 40.524C249.775 40.524 250.867 40.9627 251.67 41.84C252.472 42.7173 252.874 43.9587 252.874 45.564V52.648C252.874 53.2827 252.902 53.6653 252.958 53.796C253.014 53.908 253.191 53.9827 253.49 54.02L255.03 54.216ZM273.376 51.668C273.04 52.9747 272.414 53.908 271.5 54.468C270.585 55.0093 269.521 55.28 268.308 55.28C266.068 55.28 264.388 54.636 263.268 53.348C262.148 52.0413 261.588 50.3147 261.588 48.168V47.608C261.588 45.4613 262.11 43.744 263.156 42.456C264.22 41.168 265.75 40.524 267.748 40.524C268.868 40.524 269.857 40.748 270.716 41.196C271.593 41.6253 272.274 42.2507 272.76 43.072C273.264 43.8933 273.516 44.892 273.516 46.068C273.516 46.348 273.497 46.6467 273.46 46.964C273.441 47.2813 273.394 47.5987 273.32 47.916H265.032V48.728C265.032 50.7067 265.312 52.1347 265.872 53.012C266.432 53.8707 267.337 54.3 268.588 54.3C269.39 54.3 270.072 54.0667 270.632 53.6C271.192 53.1147 271.509 52.3027 271.584 51.164L273.376 51.668ZM267.748 41.504C266.833 41.504 266.152 41.924 265.704 42.764C265.256 43.604 265.032 44.9947 265.032 46.936H270.1C270.174 46.5627 270.221 46.2173 270.24 45.9C270.277 45.564 270.296 45.256 270.296 44.976C270.296 43.7813 270.062 42.904 269.596 42.344C269.129 41.784 268.513 41.504 267.748 41.504ZM307.562 54.216V55H300.03V54.216L301.57 54.02C301.868 53.9827 302.046 53.908 302.102 53.796C302.158 53.6653 302.186 53.2827 302.186 52.648V45.592C302.186 44.304 302.008 43.3707 301.654 42.792C301.299 42.1947 300.767 41.896 300.058 41.896C299.759 41.896 299.404 41.98 298.994 42.148C298.583 42.2973 298.172 42.5773 297.762 42.988C297.37 43.3987 297.024 44.0053 296.726 44.808V52.648C296.726 53.2827 296.754 53.6653 296.81 53.796C296.866 53.908 297.043 53.9827 297.342 54.02L298.882 54.216V55H291.35V54.216L292.89 54.02C293.188 53.9827 293.366 53.908 293.422 53.796C293.478 53.6653 293.506 53.2827 293.506 52.648V43.156C293.506 42.5213 293.478 42.148 293.422 42.036C293.366 41.9053 293.188 41.8213 292.89 41.784L291.35 41.588V40.804H296.558V43.268C297.08 42.316 297.752 41.6253 298.574 41.196C299.395 40.748 300.226 40.524 301.066 40.524C302.074 40.524 302.923 40.7853 303.614 41.308C304.323 41.812 304.827 42.54 305.126 43.492C305.63 42.4467 306.311 41.6907 307.17 41.224C308.028 40.7573 308.887 40.524 309.746 40.524C311.071 40.524 312.126 40.9627 312.91 41.84C313.694 42.7173 314.086 43.9587 314.086 45.564V52.648C314.086 53.2827 314.114 53.6653 314.17 53.796C314.226 53.908 314.403 53.9827 314.702 54.02L316.242 54.216V55H308.71V54.216L310.25 54.02C310.548 53.9827 310.726 53.908 310.782 53.796C310.838 53.6653 310.866 53.2827 310.866 52.648V45.592C310.866 44.304 310.688 43.3707 310.334 42.792C309.979 42.1947 309.447 41.896 308.738 41.896C308.439 41.896 308.084 41.98 307.674 42.148C307.263 42.2973 306.852 42.5867 306.442 43.016C306.031 43.4453 305.676 44.0707 305.378 44.892C305.396 44.9853 305.406 45.0973 305.406 45.228C305.406 45.34 305.406 45.452 305.406 45.564V52.648C305.406 53.2827 305.434 53.6653 305.49 53.796C305.546 53.908 305.723 53.9827 306.022 54.02L307.562 54.216ZM335.586 47.608V48.168C335.586 50.3147 335.026 52.0413 333.906 53.348C332.804 54.636 331.227 55.28 329.174 55.28C327.12 55.28 325.534 54.636 324.414 53.348C323.312 52.0413 322.762 50.3147 322.762 48.168V47.608C322.762 45.4613 323.312 43.744 324.414 42.456C325.534 41.168 327.12 40.524 329.174 40.524C331.227 40.524 332.804 41.168 333.906 42.456C335.026 43.744 335.586 45.4613 335.586 47.608ZM332.142 47.048C332.142 45.0507 331.89 43.632 331.386 42.792C330.882 41.9333 330.144 41.504 329.174 41.504C328.222 41.504 327.484 41.9333 326.962 42.792C326.458 43.632 326.206 45.0507 326.206 47.048V48.728C326.206 50.7067 326.458 52.1347 326.962 53.012C327.484 53.8707 328.222 54.3 329.174 54.3C330.144 54.3 330.882 53.8707 331.386 53.012C331.89 52.1347 332.142 50.7067 332.142 48.728V47.048ZM348.816 49.708L346.884 49.26C345.633 48.9613 344.7 48.4293 344.084 47.664C343.487 46.88 343.188 45.956 343.188 44.892C343.188 44.108 343.356 43.3893 343.692 42.736C344.047 42.064 344.597 41.532 345.344 41.14C346.091 40.7293 347.061 40.524 348.256 40.524C349.544 40.524 350.589 40.7293 351.392 41.14C352.195 41.5507 352.764 42.092 353.1 42.764C353.436 43.436 353.539 44.1547 353.408 44.92L350.328 45.48C350.589 44.2107 350.515 43.2307 350.104 42.54C349.712 41.8493 349.049 41.504 348.116 41.504C347.463 41.504 346.921 41.7 346.492 42.092C346.063 42.4653 345.848 43.0067 345.848 43.716C345.848 44.3693 346.035 44.948 346.408 45.452C346.781 45.9373 347.332 46.264 348.06 46.432L349.992 46.88C351.373 47.1973 352.372 47.7013 352.988 48.392C353.604 49.064 353.912 49.904 353.912 50.912C353.912 52.1627 353.445 53.208 352.512 54.048C351.597 54.8693 350.225 55.28 348.396 55.28C347.761 55.28 347.061 55.1867 346.296 55C345.549 54.7947 344.859 54.4307 344.224 53.908C343.608 53.3853 343.16 52.6387 342.88 51.668L344.7 50.94C344.831 52.172 345.251 53.04 345.96 53.544C346.688 54.048 347.5 54.3 348.396 54.3C349.236 54.3 349.917 54.1133 350.44 53.74C350.981 53.348 351.252 52.788 351.252 52.06C351.252 51.556 351.075 51.0987 350.72 50.688C350.384 50.2587 349.749 49.932 348.816 49.708ZM370.613 52.088C370.371 53.2267 369.904 54.048 369.213 54.552C368.541 55.0373 367.72 55.28 366.749 55.28C365.76 55.28 364.948 55.0653 364.313 54.636C363.679 54.188 363.212 53.6 362.913 52.872C362.615 52.144 362.465 51.3693 362.465 50.548V43.156C362.465 42.5213 362.437 42.148 362.381 42.036C362.325 41.9053 362.148 41.8213 361.849 41.784L360.309 41.588V40.804H362.465V37.556L365.685 36.912V40.804H370.165V41.784H365.685V51.108C365.685 52.3027 365.835 53.1333 366.133 53.6C366.432 54.048 366.815 54.272 367.281 54.272C367.767 54.272 368.14 54.0853 368.401 53.712C368.681 53.3387 368.859 52.6573 368.933 51.668L370.613 52.088ZM383.144 49.344H381.716V48.896C381.716 48.0747 381.828 47.4213 382.052 46.936C382.276 46.432 382.547 46.0027 382.864 45.648C383.2 45.2933 383.527 44.9293 383.844 44.556C384.18 44.164 384.46 43.6787 384.684 43.1C384.908 42.5027 385.02 41.7187 385.02 40.748C385.02 39.4227 384.806 38.4147 384.376 37.724C383.966 37.0147 383.359 36.66 382.556 36.66C381.548 36.66 380.848 37.1173 380.456 38.032C380.083 38.9467 379.99 40.244 380.176 41.924L376.956 41.476C376.769 40.468 376.844 39.5253 377.18 38.648C377.535 37.7707 378.16 37.0613 379.056 36.52C379.952 35.96 381.128 35.68 382.584 35.68C383.984 35.68 385.113 35.9133 385.972 36.38C386.85 36.828 387.494 37.416 387.904 38.144C388.315 38.872 388.52 39.6467 388.52 40.468C388.52 41.2707 388.38 41.952 388.1 42.512C387.82 43.0533 387.456 43.52 387.008 43.912C386.579 44.2853 386.122 44.6307 385.636 44.948C385.151 45.2653 384.694 45.6013 384.264 45.956C383.854 46.292 383.536 46.6933 383.312 47.16C383.088 47.608 383.014 48.1773 383.088 48.868L383.144 49.344ZM382.388 55.28C381.81 55.28 381.334 55.1027 380.96 54.748C380.606 54.3747 380.428 53.8893 380.428 53.292C380.428 52.6947 380.606 52.2187 380.96 51.864C381.334 51.5093 381.81 51.332 382.388 51.332C382.967 51.332 383.443 51.5093 383.816 51.864C384.19 52.2187 384.376 52.6947 384.376 53.292C384.376 53.8893 384.19 54.3747 383.816 54.748C383.443 55.1027 382.967 55.28 382.388 55.28Z" fill="#15076D"/>
</g>
<defs>
<filter id="filter0_n_48_1408" x="0" y="0" width="766.913" height="61.244" filterUnits="userSpaceOnUse" color-interpolation-filters="sRGB">
<feFlood flood-opacity="0" result="BackgroundImageFix"/>
<feBlend mode="normal" in="SourceGraphic" in2="BackgroundImageFix" result="shape"/>
<feTurbulence type="fractalNoise" baseFrequency="0.27777779102325439 0.27777779102325439" stitchTiles="stitch" numOctaves="3" result="noise" seed="7960" />
<feColorMatrix in="noise" type="luminanceToAlpha" result="alphaNoise" />
<feComponentTransfer in="alphaNoise" result="coloredNoise1">
<feFuncA type="discrete" tableValues="1 1 1 1 1 1 1 1 1 1 1 1 1 1 1 1 1 1 1 1 1 1 1 1 1 1 1 1 1 1 1 1 1 1 1 1 1 1 1 1 1 1 1 1 1 1 1 1 1 1 1 0 0 0 0 0 0 0 0 0 0 0 0 0 0 0 0 0 0 0 0 0 0 0 0 0 0 0 0 0 0 0 0 0 0 0 0 0 0 0 0 0 0 0 0 0 0 0 0 0 "/>
</feComponentTransfer>
<feComposite operator="in" in2="shape" in="coloredNoise1" result="noise1Clipped" />
<feFlood flood-color="rgba(0, 0, 0, 0.25)" result="color1Flood" />
<feComposite operator="in" in2="noise1Clipped" in="color1Flood" result="color1" />
<feMerge result="effect1_noise_48_1408">
<feMergeNode in="shape" />
<feMergeNode in="color1" />
</feMerge>
</filter>
</defs>
</svg>
